<?xml version="1.0" encoding="UTF-8"?>
<svg xmlns="http://www.w3.org/2000/svg" xmlns:xlink="http://www.w3.org/1999/xlink" width="255pt" height="170pt" viewBox="0 0 255 170" version="1.1">
<g id="surface1">
<rect x="0" y="0" width="255" height="170" style="fill:rgb(85.490196%,0%,4.705882%);fill-opacity:1;stroke:none;"/>
<path style=" stroke:none;fill-rule:nonzero;fill:rgb(100%,100%,100%);fill-opacity:1;" d="M 0 0 L 255 0 L 255 113.886719 L 0 113.886719 Z M 0 0 "/>
<path style=" stroke:none;fill-rule:nonzero;fill:rgb(0%,0%,0%);fill-opacity:1;" d="M 83.101562 77.234375 L 130.914062 77.234375 L 130.914062 106.445312 L 83.101562 106.445312 Z M 83.101562 77.234375 "/>
<path style="fill-rule:nonzero;fill:rgb(85.490196%,0%,4.705882%);fill-opacity:1;stroke-width:1;stroke-linecap:square;stroke-linejoin:miter;stroke:rgb(0%,0%,0%);stroke-opacity:1;stroke-miterlimit:4;" d="M 229.819608 153.864706 L 190.750327 153.864706 L 182.091503 159.564706 L 182.091503 165.605882 L 229.819608 165.605882 M 213.469281 128.594118 C 219.095425 128.594118 223.686275 133.282353 223.686275 139.064706 L 223.686275 153.841176 L 231.03268 153.841176 L 231.03268 97.841176 L 190.750327 97.841176 L 190.750327 153.841176 L 203.252288 153.841176 L 203.252288 139.064706 C 203.252288 133.511765 207.764706 128.594118 213.469281 128.594118 Z M 213.469281 128.594118 " transform="matrix(0.74707,0,0,0.664062,-63.75,0)"/>
<path style=" stroke:none;fill-rule:nonzero;fill:rgb(0%,0%,0%);fill-opacity:1;" d="M 89.046875 39.820312 L 102.886719 39.820312 L 102.886719 62.371094 L 89.046875 62.371094 Z M 89.046875 39.820312 "/>
<path style="fill-rule:nonzero;fill:rgb(85.490196%,0%,4.705882%);fill-opacity:1;stroke-width:1;stroke-linecap:square;stroke-linejoin:miter;stroke:rgb(0%,0%,0%);stroke-opacity:1;stroke-miterlimit:4;" d="M 223.001307 88.658824 L 206.792157 88.658824 L 206.792157 82.905882 L 194.90719 82.905882 L 194.90719 88.658824 L 186.844444 88.658824 L 186.844444 82.905882 L 182.028758 82.905882 L 182.028758 93.341176 L 223.001307 93.341176 M 186.844444 93.305882 L 221.814379 93.305882 L 221.814379 97.841176 L 186.844444 97.841176 Z M 200.721569 47.623529 L 200.721569 82.905882 L 206.792157 82.905882 L 206.792157 73.217647 C 206.792157 69.588235 209.354248 66.617647 212.935948 66.435294 C 213.05098 66.429412 213.166013 66.435294 213.281046 66.435294 C 217.024837 66.435294 220.062745 69.470588 220.062745 73.217647 L 220.062745 82.905882 L 225.845752 82.905882 L 225.845752 47.623529 Z M 198.530719 42.841176 L 198.530719 47.623529 L 227.780392 47.623529 L 227.780392 42.841176 Z M 194.781699 33.688235 L 194.781699 42.841176 L 229.877124 42.841176 L 229.877124 33.688235 L 224.470588 33.688235 L 224.470588 38.341176 L 217.934641 38.341176 L 217.934641 33.688235 L 207.968627 33.688235 L 207.968627 38.341176 L 201.437908 38.341176 L 201.437908 33.688235 Z M 182.091503 159.564706 L 230.002614 159.564706 M 260.998693 156.811765 L 228.559477 156.811765 L 218.781699 161.529412 L 218.781699 168.564706 L 260.998693 168.564706 " transform="matrix(0.74707,0,0,0.664062,-63.75,0)"/>
<path style="fill:none;stroke-width:1;stroke-linecap:butt;stroke-linejoin:miter;stroke:rgb(0%,0%,0%);stroke-opacity:1;stroke-miterlimit:4;" d="M 218.771242 161.517647 L 262.002614 161.517647 " transform="matrix(0.74707,0,0,0.664062,-63.75,0)"/>
<path style=" stroke:none;fill-rule:nonzero;fill:rgb(0%,0%,0%);fill-opacity:1;" d="M 171.898438 77.234375 L 124.085938 77.234375 L 124.085938 106.445312 L 171.898438 106.445312 Z M 171.898438 77.234375 "/>
<path style="fill-rule:nonzero;fill:rgb(85.490196%,0%,4.705882%);fill-opacity:1;stroke-width:1;stroke-linecap:square;stroke-linejoin:miter;stroke:rgb(0%,0%,0%);stroke-opacity:1;stroke-miterlimit:4;" d="M 229.819608 153.864706 L 190.750327 153.864706 L 182.091503 159.564706 L 182.091503 165.605882 L 229.819608 165.605882 M 213.469281 128.594118 C 219.095425 128.594118 223.686275 133.282353 223.686275 139.064706 L 223.686275 153.841176 L 231.03268 153.841176 L 231.03268 97.841176 L 190.750327 97.841176 L 190.750327 153.841176 L 203.252288 153.841176 L 203.252288 139.064706 C 203.252288 133.511765 207.764706 128.594118 213.469281 128.594118 Z M 213.469281 128.594118 " transform="matrix(-0.74707,0,0,0.664062,318.75,0)"/>
<path style=" stroke:none;fill-rule:nonzero;fill:rgb(0%,0%,0%);fill-opacity:1;" d="M 165.953125 39.820312 L 152.113281 39.820312 L 152.113281 62.371094 L 165.953125 62.371094 Z M 165.953125 39.820312 "/>
<path style="fill-rule:nonzero;fill:rgb(85.490196%,0%,4.705882%);fill-opacity:1;stroke-width:1;stroke-linecap:square;stroke-linejoin:miter;stroke:rgb(0%,0%,0%);stroke-opacity:1;stroke-miterlimit:4;" d="M 223.001307 88.658824 L 206.792157 88.658824 L 206.792157 82.905882 L 194.90719 82.905882 L 194.90719 88.658824 L 186.844444 88.658824 L 186.844444 82.905882 L 182.028758 82.905882 L 182.028758 93.341176 L 223.001307 93.341176 M 186.844444 93.305882 L 221.814379 93.305882 L 221.814379 97.841176 L 186.844444 97.841176 Z M 200.721569 47.623529 L 200.721569 82.905882 L 206.792157 82.905882 L 206.792157 73.217647 C 206.792157 69.588235 209.354248 66.617647 212.935948 66.435294 C 213.05098 66.429412 213.166013 66.435294 213.281046 66.435294 C 217.024837 66.435294 220.062745 69.470588 220.062745 73.217647 L 220.062745 82.905882 L 225.845752 82.905882 L 225.845752 47.623529 Z M 198.530719 42.841176 L 198.530719 47.623529 L 227.780392 47.623529 L 227.780392 42.841176 Z M 194.781699 33.688235 L 194.781699 42.841176 L 229.877124 42.841176 L 229.877124 33.688235 L 224.470588 33.688235 L 224.470588 38.341176 L 217.934641 38.341176 L 217.934641 33.688235 L 207.968627 33.688235 L 207.968627 38.341176 L 201.437908 38.341176 L 201.437908 33.688235 Z M 182.091503 159.564706 L 230.002614 159.564706 M 260.998693 156.811765 L 228.559477 156.811765 L 218.781699 161.529412 L 218.781699 168.564706 L 260.998693 168.564706 " transform="matrix(-0.74707,0,0,0.664062,318.75,0)"/>
<path style="fill:none;stroke-width:1;stroke-linecap:butt;stroke-linejoin:miter;stroke:rgb(0%,0%,0%);stroke-opacity:1;stroke-miterlimit:4;" d="M 218.771242 161.517647 L 262.002614 161.517647 " transform="matrix(-0.74707,0,0,0.664062,318.75,0)"/>
<path style="fill-rule:nonzero;fill:rgb(97.254902%,84.705882%,5.490196%);fill-opacity:1;stroke-width:0.768;stroke-linecap:round;stroke-linejoin:miter;stroke:rgb(0%,0%,0%);stroke-opacity:1;stroke-miterlimit:4;" d="M 273.296732 150.029412 C 270.640523 150.911765 268.245752 152.4 265.824837 153.782353 C 262.729412 155.611765 259.722876 157.611765 256.92549 159.882353 C 255.937255 160.529412 254.996078 161.241176 254.23268 162.158824 C 253.207843 163.035294 252.172549 164.211765 252.366013 165.670588 C 252.418301 166.311765 253.239216 164.911765 253.777778 164.847059 C 254.729412 164.3 255.853595 164.135294 256.920261 164.376471 C 258.19085 163.035294 259.83268 162.135294 261.244444 160.970588 C 264.25098 158.723529 267.482353 156.8 270.771242 155.005882 C 271.921569 154.417647 273.071895 153.817647 274.295425 153.405882 Z M 273.296732 150.029412 " transform="matrix(0.74707,0,0,0.664062,-63.75,0)"/>
<path style="fill-rule:nonzero;fill:rgb(97.254902%,84.705882%,5.490196%);fill-opacity:1;stroke-width:1;stroke-linecap:round;stroke-linejoin:miter;stroke:rgb(0%,0%,0%);stroke-opacity:1;stroke-miterlimit:4;" d="M 260.397386 157.388235 L 260.397386 161.305882 M 262.818301 155.682353 L 262.818301 159.570588 M 265.233987 154.182353 L 265.233987 158.035294 M 267.649673 152.694118 L 267.649673 156.676471 " transform="matrix(0.74707,0,0,0.664062,-63.75,0)"/>
<path style="fill-rule:nonzero;fill:rgb(97.254902%,84.705882%,5.490196%);fill-opacity:1;stroke-width:0.768;stroke-linecap:round;stroke-linejoin:miter;stroke:rgb(0%,0%,0%);stroke-opacity:1;stroke-miterlimit:4;" d="M 238.891503 150.158824 L 237.704575 153.470588 C 243.24183 155.570588 248.512418 158.347059 253.500654 161.529412 C 255.194771 162.676471 256.96732 163.794118 258.295425 165.376471 C 258.593464 166.182353 257.783007 166.864706 256.983007 166.617647 C 256.25098 166.370588 255.529412 166.082353 254.755556 166.611765 C 253.652288 167.117647 252.653595 168.752941 254.332026 169.305882 C 256.648366 170.858824 260.413072 170.182353 261.526797 167.458824 C 262.10719 166.058824 262.143791 164.264706 261.019608 163.117647 C 258.959477 160.752941 256.224837 159.105882 253.6 157.441176 C 248.909804 154.623529 244.026144 152.070588 238.891503 150.152941 Z M 238.891503 150.158824 " transform="matrix(0.74707,0,0,0.664062,-63.75,0)"/>
<path style="fill-rule:nonzero;fill:rgb(97.254902%,84.705882%,5.490196%);fill-opacity:1;stroke-width:1;stroke-linecap:round;stroke-linejoin:miter;stroke:rgb(0%,0%,0%);stroke-opacity:1;stroke-miterlimit:4;" d="M 254.049673 158.035294 L 253.735948 161.376471 M 256.831373 159.741176 L 255.968627 163.011765 M 259.806536 162.011765 L 257.997386 164.547059 M 260.71634 168.182353 L 258.10719 166.782353 M 261.526797 165.429412 L 258.530719 165.711765 M 257.662745 169.764706 L 257.458824 167.129412 M 256.569935 166.758824 L 254.096732 168.576471 M 244.67451 152.935294 L 244.67451 156.052941 M 250.964706 156.241176 L 250.964706 159.776471 M 247.822222 154.594118 L 247.822222 157.911765 " transform="matrix(0.74707,0,0,0.664062,-63.75,0)"/>
<path style="fill-rule:nonzero;fill:rgb(97.254902%,84.705882%,5.490196%);fill-opacity:1;stroke-width:1;stroke-linecap:butt;stroke-linejoin:miter;stroke:rgb(0%,0%,0%);stroke-opacity:1;stroke-miterlimit:4;" d="M 235.780392 227.564706 L 235.780392 235.594118 L 240.810458 235.594118 L 240.810458 231.564706 L 247.654902 231.564706 L 247.654902 235.594118 L 253.061438 235.594118 L 253.061438 227.564706 Z M 235.780392 238.623529 L 235.780392 246.688235 L 253.061438 246.688235 L 253.061438 238.623529 L 247.654902 238.623529 L 247.654902 242.652941 L 240.810458 242.652941 L 240.810458 238.623529 Z M 235.780392 238.623529 " transform="matrix(0.74707,0,0,0.664062,-63.75,0)"/>
<path style="fill-rule:nonzero;fill:rgb(97.254902%,84.705882%,5.490196%);fill-opacity:1;stroke-width:1;stroke-linecap:butt;stroke-linejoin:miter;stroke:rgb(0%,0%,0%);stroke-opacity:1;stroke-miterlimit:4;" d="M 253.05098 193.647059 L 258.044444 193.647059 L 258.044444 251.764706 L 253.05098 251.764706 Z M 253.05098 193.647059 " transform="matrix(0.74707,0,0,0.664062,-63.75,0)"/>
<path style="fill-rule:nonzero;fill:rgb(97.254902%,84.705882%,5.490196%);fill-opacity:1;stroke-width:1;stroke-linecap:butt;stroke-linejoin:miter;stroke:rgb(0%,0%,0%);stroke-opacity:1;stroke-miterlimit:4;" d="M 253.05098 198.682353 L 258.044444 198.682353 L 258.044444 248.741176 L 253.05098 248.741176 Z M 253.05098 198.682353 " transform="matrix(0.74707,0,0,0.664062,-63.75,0)"/>
<path style="fill-rule:nonzero;fill:rgb(97.254902%,84.705882%,5.490196%);fill-opacity:1;stroke-width:1.024;stroke-linecap:butt;stroke-linejoin:miter;stroke:rgb(0%,0%,0%);stroke-opacity:1;stroke-miterlimit:4;" d="M 255.545098 179.405882 L 266.169935 185.594118 L 255.545098 191.752941 L 244.920261 185.594118 Z M 241.328105 183.376471 L 238.546405 183.376471 L 238.546405 187.811765 L 241.328105 187.811765 L 255.545098 196.064706 L 269.76732 187.811765 L 272.54902 187.811765 L 272.54902 183.376471 L 269.76732 183.376471 L 255.545098 175.123529 Z M 241.328105 183.376471 " transform="matrix(0.74707,0,0,0.664062,-63.75,0)"/>
<path style="fill-rule:nonzero;fill:rgb(97.254902%,84.705882%,5.490196%);fill-opacity:1;stroke-width:1.024;stroke-linecap:butt;stroke-linejoin:miter;stroke:rgb(0%,0%,0%);stroke-opacity:1;stroke-miterlimit:4;" d="M 255.346405 164.282353 C 252.92549 164.617647 251.11634 167.011765 251.252288 169.417647 C 251.257516 173.152941 251.231373 176.888235 251.262745 180.629412 C 251.393464 183.035294 253.495425 185.194118 255.937255 185.217647 C 257.924183 185.405882 259.91634 184.241176 260.747712 182.435294 L 259.03268 181.405882 C 258.588235 182.588235 257.30719 183.323529 256.062745 183.188235 C 254.426144 183.229412 253.103268 181.641176 253.249673 180.052941 C 253.260131 176.341176 253.228758 172.623529 253.265359 168.911765 C 253.354248 167.394118 254.797386 166.158824 256.313725 166.311765 C 256.935948 166.129412 257.798693 166.988235 258.185621 166.247059 C 258.771242 165.417647 257.772549 164.770588 257.218301 164.311765 C 256.606536 164.229412 255.963399 164.305882 255.341176 164.282353 Z M 261.124183 168.188235 C 260.726797 168.935294 259.911111 169.376471 259.252288 169.764706 L 259.252288 177.282353 L 261.249673 178.435294 C 261.244444 175.235294 261.265359 172.029412 261.239216 168.829412 C 261.207843 168.629412 261.228758 168.329412 261.124183 168.188235 Z M 261.124183 168.188235 " transform="matrix(0.74707,0,0,0.664062,-63.75,0)"/>
<path style=" stroke:none;fill-rule:nonzero;fill:rgb(0%,0%,0%);fill-opacity:1;" d="M 116.148438 25.464844 L 138.058594 25.464844 L 138.058594 60.832031 L 116.148438 60.832031 Z M 116.148438 25.464844 "/>
<path style="fill-rule:nonzero;fill:rgb(85.490196%,0%,4.705882%);fill-opacity:1;stroke-width:1;stroke-linecap:butt;stroke-linejoin:miter;stroke:rgb(0%,0%,0%);stroke-opacity:1;stroke-miterlimit:4;" d="M 238.750327 38.376471 L 238.750327 82.935294 L 248.062745 82.935294 L 248.062745 69.717647 C 248.062745 66.670588 250.013072 62.435294 256 62.435294 C 261.986928 62.435294 263.937255 66.670588 263.937255 69.717647 L 263.937255 82.935294 L 273.249673 82.935294 L 273.249673 38.376471 Z M 254.562092 43.376471 L 257.437908 43.376471 L 257.437908 58.623529 L 254.562092 58.623529 Z M 246.311111 46.376471 L 249.218301 46.376471 L 249.218301 57.529412 L 246.311111 57.529412 Z M 262.781699 46.376471 L 265.688889 46.376471 L 265.688889 57.529412 L 262.781699 57.529412 Z M 235.592157 31.970588 L 235.592157 38.311765 L 276.407843 38.311765 L 276.407843 31.970588 Z M 231.74902 24.594118 L 231.74902 31.970588 L 280.25098 31.970588 L 280.25098 24.594118 L 274.154248 24.594118 L 274.154248 28.652941 L 267.278431 28.652941 L 267.278431 24.594118 L 259.440523 24.594118 L 259.440523 28.652941 L 252.564706 28.652941 L 252.564706 24.594118 L 244.721569 24.594118 L 244.721569 28.652941 L 237.845752 28.652941 L 237.845752 24.594118 Z M 222.750327 97.841176 L 222.750327 102.435294 L 289.249673 102.435294 L 289.249673 97.841176 Z M 222.750327 97.841176 " transform="matrix(0.74707,0,0,0.664062,-63.75,0)"/>
<path style="fill-rule:nonzero;fill:rgb(85.490196%,0%,4.705882%);fill-opacity:1;stroke-width:1;stroke-linecap:butt;stroke-linejoin:miter;stroke:rgb(0%,0%,0%);stroke-opacity:1;stroke-miterlimit:4;" d="M 220.031373 82.905882 L 220.031373 97.841176 L 291.968627 97.841176 L 291.968627 82.905882 L 285.155556 82.905882 L 285.155556 88.658824 L 276.094118 88.658824 L 276.094118 82.905882 L 263.937255 82.905882 L 263.937255 88.658824 L 248.062745 88.658824 L 248.062745 82.905882 L 235.905882 82.905882 L 235.905882 88.658824 L 226.844444 88.658824 L 226.844444 82.905882 Z M 220.031373 82.905882 " transform="matrix(0.74707,0,0,0.664062,-63.75,0)"/>
<path style="fill-rule:nonzero;fill:rgb(85.490196%,0%,4.705882%);fill-opacity:1;stroke-width:1;stroke-linecap:butt;stroke-linejoin:round;stroke:rgb(0%,0%,0%);stroke-opacity:1;stroke-miterlimit:4;" d="M 228.690196 102.435294 L 228.690196 156.782353 L 241.532026 156.782353 L 241.532026 136.435294 C 241.532026 126.858824 247.926797 122.347059 256 122.347059 C 263.759477 122.347059 270.473203 126.852941 270.473203 136.441176 L 270.473203 156.782353 L 283.315033 156.782353 L 283.315033 102.441176 Z M 228.690196 102.435294 " transform="matrix(0.74707,0,0,0.664062,-63.75,0)"/>
</g>
</svg>
