<?xml version="1.0" encoding="UTF-8"?>
<svg xmlns="http://www.w3.org/2000/svg" xmlns:xlink="http://www.w3.org/1999/xlink" width="255pt" height="170pt" viewBox="0 0 255 170" version="1.1">
<g id="surface1">
<rect x="0" y="0" width="255" height="170" style="fill:rgb(100%,100%,100%);fill-opacity:1;stroke:none;"/>
<path style=" stroke:none;fill-rule:nonzero;fill:rgb(100%,100%,100%);fill-opacity:1;" d="M 31.875 0 L 223.125 0 L 223.125 170 L 31.875 170 Z M 31.875 0 "/>
<path style="fill-rule:evenodd;fill:rgb(3.137255%,23.921569%,61.176471%);fill-opacity:1;stroke-width:2.5;stroke-linecap:butt;stroke-linejoin:miter;stroke:rgb(3.137255%,23.921569%,61.176471%);stroke-opacity:1;stroke-miterlimit:4;" d="M 277.284314 340.753676 C 277.284314 340.753676 288.117647 331.963235 298.666667 331.963235 C 309.215686 331.963235 312.147059 339.286765 319.470588 339.871324 C 326.794118 340.455882 332.941176 332.547794 342.029412 332.25 C 351.107843 331.963235 362.529412 338.702206 362.529412 338.702206 L 322.686275 350.713235 Z M 254.431373 327.860294 L 389.784314 328.444853 C 389.784314 328.444853 378.058824 315.849265 364.294118 315.551471 C 350.519608 315.264706 354.333333 321.419118 343.784314 322.290441 C 333.235294 323.172794 330.598039 315.849265 320.931373 316.136029 C 311.264706 316.433824 305.696078 322.290441 298.372549 322.588235 C 291.04902 322.875 281.676471 315.264706 276.107843 315.5625 C 270.539216 315.849265 250.617647 324.341912 250.617647 324.341912 Z M 237.147059 311.746324 L 404.137255 312.341912 C 406.77451 308.525735 395.931373 299.448529 385.980392 298.566176 C 377.77451 298.863971 371.911765 307.058824 365.176471 307.356618 C 358.441176 307.654412 350.823529 298.863971 343.205882 299.150735 C 335.588235 299.448529 327.676471 307.356618 320.058824 307.356618 C 312.441176 307.356618 306.872549 298.863971 297.205882 298.863971 C 287.539216 298.863971 283.147059 308.238971 275.823529 307.654412 C 268.5 307.058824 262.04902 298.279412 255.019608 298.279412 C 247.990196 298.279412 236.27451 308.823529 233.931373 308.238971 C 231.588235 307.654412 236.852941 312.628676 237.156863 311.746324 Z M 237.147059 311.746324 " transform="matrix(0.398438,0,0,0.354167,0,0)"/>
<path style="fill-rule:evenodd;fill:rgb(100%,0%,0%);fill-opacity:1;stroke-width:2.5;stroke-linecap:butt;stroke-linejoin:round;stroke:rgb(0%,0%,0%);stroke-opacity:1;stroke-miterlimit:4;" d="M 301.303922 218.878676 L 339.676471 229.136029 L 339.676471 174.352941 C 322.098039 175.224265 307.45098 140.955882 338.509804 138.606618 C 308.039216 134.216912 304.519608 142.125 301.009804 150.617647 Z M 301.303922 218.878676 " transform="matrix(0.398438,0,0,0.354167,0,0)"/>
<path style="fill-rule:evenodd;fill:rgb(3.137255%,23.921569%,61.176471%);fill-opacity:1;stroke-width:5;stroke-linecap:round;stroke-linejoin:miter;stroke:rgb(3.137255%,23.921569%,61.176471%);stroke-opacity:1;stroke-miterlimit:4;" d="M 276.990196 258.716912 L 363.705882 259.014706 " transform="matrix(0.398438,0,0,0.354167,0,0)"/>
<path style="fill:none;stroke-width:3.999375;stroke-linecap:round;stroke-linejoin:miter;stroke:rgb(0%,0%,0%);stroke-opacity:1;stroke-miterlimit:4;" d="M 281.098039 237.915441 L 291.343137 251.691176 M 281.098039 251.702206 L 292.22549 238.224265 M 286.960784 237.033088 L 286.666667 245.536765 " transform="matrix(0.398438,0,0,0.354167,0,0)"/>
<path style="fill:none;stroke-width:3.999375;stroke-linecap:round;stroke-linejoin:miter;stroke:rgb(0%,0%,0%);stroke-opacity:1;stroke-miterlimit:4;" d="M 297.5 237.915441 L 307.754902 251.691176 M 297.5 251.702206 L 308.637255 238.224265 M 303.372549 237.033088 L 303.078431 245.536765 " transform="matrix(0.398438,0,0,0.354167,0,0)"/>
<path style="fill:none;stroke-width:3.999375;stroke-linecap:round;stroke-linejoin:miter;stroke:rgb(0%,0%,0%);stroke-opacity:1;stroke-miterlimit:4;" d="M 314.196078 237.915441 L 324.45098 251.691176 M 314.196078 251.702206 L 325.333333 238.224265 M 320.068627 237.033088 L 319.77451 245.536765 " transform="matrix(0.398438,0,0,0.354167,0,0)"/>
<path style="fill:none;stroke-width:3.999375;stroke-linecap:round;stroke-linejoin:miter;stroke:rgb(0%,0%,0%);stroke-opacity:1;stroke-miterlimit:4;" d="M 331.480392 237.915441 L 341.735294 251.691176 M 331.480392 251.702206 L 342.617647 238.224265 M 337.352941 237.033088 L 337.058824 245.536765 " transform="matrix(0.398438,0,0,0.354167,0,0)"/>
<path style="fill:none;stroke-width:3.999375;stroke-linecap:round;stroke-linejoin:miter;stroke:rgb(0%,0%,0%);stroke-opacity:1;stroke-miterlimit:4;" d="M 348.186275 237.915441 L 358.441176 251.691176 M 348.186275 251.702206 L 359.313725 238.224265 M 354.04902 237.033088 L 353.754902 245.536765 " transform="matrix(0.398438,0,0,0.354167,0,0)"/>
<path style=" stroke:none;fill-rule:evenodd;fill:rgb(93.72549%,49.019608%,3.137255%);fill-opacity:1;" d="M 87.132812 91.941406 L 101.84375 92.046875 L 101.84375 83.847656 L 85.03125 83.121094 Z M 86.433594 80.632812 L 102.074219 81.980469 L 101.957031 76.171875 L 86.667969 70.777344 Z M 89.585938 69.011719 L 101.609375 74.199219 L 103.324219 72.609375 C 103.324219 72.609375 102.21875 71.929688 102.273438 71.308594 C 102.292969 70.675781 103.386719 70.582031 103.40625 69.898438 C 103.425781 69.265625 102.171875 69.191406 102.15625 68.5625 C 102.074219 67.878906 103.125 67.144531 103.125 67.144531 L 92.269531 58.742188 Z M 168.492188 92.042969 L 152.964844 92.042969 L 152.851562 84.054688 L 169.890625 82.914062 Z M 153.082031 82.1875 L 171.527344 80.21875 L 167.558594 70.773438 L 152.96875 76.273438 Z M 166.507812 68.179688 L 153.199219 74.40625 C 153.003906 73.730469 152.839844 73.082031 151.917969 72.539062 C 151.917969 72.539062 152.734375 72.125 152.734375 71.394531 C 152.734375 70.671875 151.683594 70.566406 151.683594 70.152344 C 151.683594 69.738281 152.644531 69.375 152.703125 68.441406 C 152.585938 67.792969 151.683594 66.882812 151.859375 66.703125 L 162.1875 59.671875 Z M 137.675781 82.03125 L 144.328125 81.773438 L 144.445312 79.386719 Z M 117.367188 81.851562 L 110.363281 81.671875 L 110.363281 79.179688 Z M 117.335938 81.125 L 110.359375 77.933594 L 110.359375 73.785156 C 110.359375 73.785156 109.542969 73.886719 109.660156 73.058594 C 109.699219 71.328125 114.785156 76.214844 117.394531 77.804688 Z M 137.675781 80.734375 L 137.648438 78.039062 C 137.648438 78.039062 143.949219 72.980469 145.292969 72.046875 C 145.292969 73.082031 144.5625 73.886719 144.5625 73.886719 L 144.5625 77.832031 Z M 96.820312 58.011719 C 96.9375 58.117188 103.890625 64.988281 103.890625 64.988281 C 104.085938 64.335938 105.691406 64.238281 107.324219 64.34375 C 108.960938 64.445312 110.261719 64.246094 110.261719 65.28125 C 110.261719 66.320312 109.433594 66.171875 109.433594 66.898438 C 109.433594 67.625 110.675781 67.5625 110.675781 68.496094 C 110.675781 69.429688 109.773438 69.242188 109.769531 69.964844 C 109.765625 70.5625 110.710938 70.59375 110.710938 70.59375 L 117.335938 76.300781 L 117.363281 70.203125 L 103.707031 51.164062 Z M 107.75 50.804688 C 107.851562 51.082031 117 67.621094 117 67.621094 C 117 67.621094 117.101562 52.097656 118.664062 51.265625 L 116.0625 47.015625 Z M 147.972656 51.449219 L 137.644531 67.828125 L 137.65625 60.925781 C 137.65625 60.925781 138.511719 59.765625 137.160156 59.855469 C 135.8125 59.949219 134.148438 59.765625 134.148438 59.765625 L 138.304688 46.828125 Z M 158.574219 58.472656 C 158.46875 58.65625 151.605469 64.863281 151.605469 64.863281 C 151.292969 64.125 149.21875 64.476562 147.246094 64.476562 C 145.269531 64.476562 144.996094 65.039062 145.097656 65.503906 C 145.308594 66.703125 145.972656 65.820312 145.972656 66.925781 C 145.972656 68.035156 145.011719 67.632812 144.925781 68.441406 C 145.023438 69.375 146.4375 69.144531 145.609375 69.851562 L 137.660156 76.632812 L 137.683594 70.207031 L 152.441406 49.789062 Z M 158.574219 58.472656 "/>
<path style="fill-rule:evenodd;fill:rgb(100%,0%,0%);fill-opacity:1;stroke-width:2.5;stroke-linecap:butt;stroke-linejoin:round;stroke:rgb(0%,0%,0%);stroke-opacity:1;stroke-miterlimit:4;" d="M 309.823529 268.400735 C 301.470588 282.220588 279.156863 278.128676 273.941176 268.477941 C 272.372549 268.025735 273.294118 208.919118 273.294118 208.919118 C 273.294118 208.919118 270.803922 207.783088 270.686275 205.974265 C 270.578431 204.132353 274.078431 203.966912 274.078431 201.617647 C 274.078431 199.268382 270.5 200.194853 270.431373 197.823529 C 270.441176 195.5625 274.254902 195.882353 274.078431 193.786765 C 273.882353 191.4375 269.823529 191.790441 269.647059 189.617647 C 269.519608 187.897059 272.54902 186.397059 273.392157 185.613971 C 272.852941 185.647059 270.578431 185.580882 270.558824 185.569853 L 264.166667 185.702206 C 259.627451 185.713235 264.245098 186.694853 264.176471 189.319853 C 264.137255 191.029412 261.872549 192.165441 261.676471 193.654412 C 261.607843 195.1875 264.911765 196.257353 264.95098 198.088235 C 264.990196 199.720588 261.705882 199.841912 261.823529 201.352941 C 262.029412 203.933824 264.735294 204.496324 264.686275 206.051471 C 264.647059 207.606618 261.04902 208.202206 261.039216 209.448529 C 261.166667 211.841912 261.558824 270.220588 261.558824 270.220588 C 267.303922 299.966912 300.431373 307.533088 309.823529 268.400735 Z M 331.656863 268.400735 C 340.009804 282.220588 362.323529 278.128676 367.539216 268.477941 C 369.107843 268.025735 368.176471 208.919118 368.176471 208.919118 C 368.176471 208.919118 370.676471 207.783088 370.784314 205.974265 C 370.901961 204.132353 367.617647 203.966912 367.617647 201.617647 C 367.617647 199.268382 370.980392 200.194853 371.04902 197.823529 C 371.029412 195.5625 367.519608 195.738971 367.686275 193.643382 C 367.892157 191.294118 370.647059 191.569853 370.803922 189.397059 C 370.941176 187.533088 369.078431 186.386029 368.235294 185.613971 C 368.77451 185.647059 370.901961 185.580882 370.921569 185.569853 L 377.313725 185.702206 C 381.852941 185.713235 377.235294 186.694853 377.303922 189.319853 C 377.343137 191.029412 379.598039 192.165441 379.803922 193.654412 C 379.872549 195.1875 376.568627 196.257353 376.529412 198.088235 C 376.490196 199.720588 379.77451 199.830882 379.656863 201.352941 C 379.45098 203.933824 376.745098 204.496324 376.784314 206.051471 C 376.833333 207.606618 380.431373 208.202206 380.441176 209.4375 C 380.313725 211.841912 379.921569 270.220588 379.921569 270.220588 C 374.176471 299.966912 341.04902 307.533088 331.656863 268.400735 Z M 331.656863 268.400735 " transform="matrix(0.398438,0,0,0.354167,0,0)"/>
<path style="fill-rule:evenodd;fill:rgb(3.137255%,23.921569%,61.176471%);fill-opacity:1;stroke-width:2.5;stroke-linecap:butt;stroke-linejoin:miter;stroke:rgb(3.137255%,23.921569%,61.176471%);stroke-opacity:1;stroke-miterlimit:4;" d="M 301.705882 295.588235 L 338.990196 295.566176 C 339.27451 295.279412 330.637255 282.694853 320.352941 283.577206 C 308.892157 283.886029 301.107843 295.588235 301.715686 295.588235 Z M 420.568627 294.683824 L 369.558824 294.683824 C 369.558824 294.683824 376.166667 290.779412 377.960784 287.172794 C 381.264706 288.981618 380.362745 290.779412 386.970588 291.077206 C 393.568627 291.375 399.862745 283.577206 406.166667 283.875 C 412.470588 284.172794 420.568627 294.981618 420.568627 294.683824 Z M 219.568627 294.683824 L 270.578431 294.683824 C 270.578431 294.683824 263.980392 290.779412 262.176471 287.172794 C 258.872549 288.981618 259.77451 290.779412 253.176471 291.077206 C 246.578431 291.375 240.27451 283.577206 233.970588 283.875 C 227.666667 284.172794 219.568627 294.981618 219.568627 294.683824 Z M 223.382353 278.636029 L 259.705882 278.933824 C 259.705882 278.933824 257.362745 273.948529 257.068627 267.805147 C 247.696078 264.584559 240.078431 274.830882 233.343137 275.128676 C 226.607843 275.415441 219.568627 267.805147 219.568627 267.805147 Z M 417.323529 278.636029 L 380.990196 278.933824 C 380.990196 278.933824 383.333333 273.948529 383.627451 267.805147 C 393.009804 264.584559 400.617647 274.830882 407.362745 275.128676 C 414.098039 275.415441 421.127451 267.805147 421.127451 267.805147 Z M 310.970588 278.944853 L 329.421569 278.360294 C 329.421569 278.360294 329.715686 272.790441 320.04902 272.790441 C 310.382353 272.790441 311.264706 279.231618 310.970588 278.944853 Z M 299.843137 271.025735 C 303.058824 269.272059 305.990196 267.518382 308.039216 263.415441 L 295.441176 263.702206 C 295.441176 263.702206 289.588235 267.220588 286.656863 271.025735 Z M 340.558824 271.025735 C 337.333333 269.272059 334.411765 267.518382 332.352941 263.415441 L 344.95098 263.702206 C 344.95098 263.702206 350.813725 267.220588 353.745098 271.025735 Z M 340.558824 271.025735 " transform="matrix(0.398438,0,0,0.354167,0,0)"/>
<path style=" stroke:none;fill-rule:evenodd;fill:rgb(87.058824%,12.54902%,6.27451%);fill-opacity:1;" d="M -15.9375 127.5 L 270.9375 127.5 L 270.9375 170 L -15.9375 170 Z M -15.9375 0 L 270.9375 0 L 270.9375 42.5 L -15.9375 42.5 Z M -15.9375 0 "/>
</g>
</svg>
