<?xml version="1.0" encoding="UTF-8"?>
<svg xmlns="http://www.w3.org/2000/svg" xmlns:xlink="http://www.w3.org/1999/xlink" width="255pt" height="170pt" viewBox="0 0 255 170" version="1.1">
<g id="surface1">
<path style=" stroke:none;fill-rule:nonzero;fill:rgb(100%,100%,100%);fill-opacity:1;" d="M 127.5 0 L 255 0 L 255 170 L 127.5 170 Z M 127.5 0 "/>
<path style=" stroke:none;fill-rule:nonzero;fill:rgb(0%,38.431373%,20%);fill-opacity:1;" d="M 0 0 L 127.5 0 L 127.5 170 L 0 170 Z M 0 0 "/>
<path style=" stroke:none;fill-rule:nonzero;fill:rgb(82.352941%,6.27451%,20.392157%);fill-opacity:1;" d="M 168.9375 63.75 C 158.117188 47.089844 136.058594 38.96875 115.15625 43.949219 C 94.253906 48.925781 79.71875 65.765625 79.71875 85 C 79.71875 104.234375 94.253906 121.074219 115.15625 126.050781 C 136.058594 131.03125 158.117188 122.910156 168.9375 106.25 C 158.785156 117.519531 141.734375 121.863281 126.410156 117.082031 C 111.085938 112.300781 100.828125 99.4375 100.828125 85 C 100.828125 70.5625 111.085938 57.699219 126.410156 52.917969 C 141.734375 48.136719 158.785156 52.480469 168.9375 63.75 M 170.53125 85 L 127.5 72.535156 L 154.273438 105.117188 L 154.273438 64.882812 L 127.5 97.464844 Z M 170.53125 85 "/>
</g>
</svg>
