<?xml version="1.0" encoding="UTF-8"?>
<svg xmlns="http://www.w3.org/2000/svg" xmlns:xlink="http://www.w3.org/1999/xlink" width="255pt" height="170pt" viewBox="0 0 255 170" version="1.1">
<g id="surface1">
<rect x="0" y="0" width="255" height="170" style="fill:rgb(0%,0%,40%);fill-opacity:1;stroke:none;"/>
<path style=" stroke:none;fill-rule:nonzero;fill:rgb(100%,100%,100%);fill-opacity:1;" d="M 0 0 L 0 9.898438 L 122.335938 88.542969 L 137.734375 88.542969 L 137.734375 78.644531 L 15.398438 0 Z M 137.734375 0 L 137.734375 9.898438 L 15.398438 88.542969 L 0 88.542969 L 0 78.644531 L 122.335938 0 Z M 137.734375 0 "/>
<path style=" stroke:none;fill-rule:nonzero;fill:rgb(100%,100%,100%);fill-opacity:1;" d="M 57.390625 0 L 57.390625 88.542969 L 80.34375 88.542969 L 80.34375 0 L 57.386719 0 Z M 0 29.515625 L 0 59.027344 L 137.734375 59.027344 L 137.734375 29.515625 Z M 0 29.515625 "/>
<path style=" stroke:none;fill-rule:nonzero;fill:rgb(80%,0%,0%);fill-opacity:1;" d="M 0 35.417969 L 0 53.125 L 137.734375 53.125 L 137.734375 35.417969 Z M 61.980469 0 L 61.980469 88.542969 L 75.753906 88.542969 L 75.753906 0 Z M 0 88.542969 L 45.910156 59.027344 L 56.175781 59.027344 L 10.265625 88.542969 Z M 0 0 L 45.910156 29.515625 L 35.644531 29.515625 L 0 6.597656 Z M 81.554688 29.515625 L 127.46875 0 L 137.734375 0 L 91.824219 29.515625 Z M 137.734375 88.542969 L 91.824219 59.027344 L 102.089844 59.027344 L 137.734375 81.941406 Z M 137.734375 88.542969 "/>
<path style=" stroke:none;fill-rule:evenodd;fill:rgb(100%,100%,100%);fill-opacity:1;" d="M 119.4375 139.019531 L 102.042969 140.363281 L 104.4375 155.734375 L 92.410156 144.484375 L 80.382812 155.734375 L 82.78125 140.363281 L 65.386719 139.019531 L 80.402344 131.097656 L 70.742188 118.171875 L 87.066406 123.667969 L 92.410156 108.894531 L 97.757812 123.667969 L 114.082031 118.171875 L 104.425781 131.097656 M 193.851562 153.1875 L 189.652344 147.570312 L 196.75 149.960938 L 199.070312 143.539062 L 201.390625 149.960938 L 208.484375 147.574219 L 204.285156 153.1875 L 210.808594 156.628906 L 203.253906 157.214844 L 204.296875 163.890625 L 199.070312 159.003906 L 193.84375 163.890625 L 194.886719 157.214844 L 187.328125 156.628906 M 193.851562 53.277344 L 189.652344 47.664062 L 196.75 50.050781 L 199.070312 43.632812 L 201.390625 50.050781 L 208.484375 47.664062 L 204.285156 53.277344 L 210.808594 56.71875 L 203.253906 57.304688 L 204.296875 63.980469 L 199.070312 59.09375 L 193.84375 63.980469 L 194.886719 57.304688 L 187.328125 56.71875 M 151.703125 93.867188 L 147.503906 88.25 L 154.597656 90.640625 L 156.917969 84.21875 L 159.242188 90.640625 L 166.335938 88.25 L 162.136719 93.867188 L 168.660156 97.308594 L 161.105469 97.894531 L 162.144531 104.570312 L 156.917969 99.683594 L 151.695312 104.570312 L 152.734375 97.894531 L 145.179688 97.308594 M 231.328125 83.875 L 227.121094 78.261719 L 234.222656 80.648438 L 236.523438 74.230469 L 238.859375 80.648438 L 245.9375 78.261719 L 241.753906 83.875 L 248.269531 87.316406 L 240.710938 87.902344 L 241.75 94.578125 L 236.523438 89.691406 L 231.300781 94.578125 L 232.339844 87.902344 L 224.792969 87.316406 M 215.929688 113.3125 L 211.796875 115.585938 L 212.957031 111.394531 L 209.246094 108.609375 L 214.09375 108.289062 L 215.929688 104.292969 L 217.765625 108.289062 L 222.609375 108.609375 L 218.898438 111.394531 L 220.058594 115.585938 "/>
</g>
</svg>
