<?xml version="1.0" encoding="UTF-8"?>
<svg xmlns="http://www.w3.org/2000/svg" xmlns:xlink="http://www.w3.org/1999/xlink" width="255pt" height="170pt" viewBox="0 0 255 170" version="1.1">
<g id="surface1">
<path style=" stroke:none;fill-rule:nonzero;fill:rgb(100%,100%,100%);fill-opacity:1;" d="M 59.839844 0 L 195.160156 0 L 195.160156 170 L 59.839844 170 Z M 59.839844 0 "/>
<path style=" stroke:none;fill-rule:nonzero;fill:rgb(74.901961%,3.921569%,18.823529%);fill-opacity:1;" d="M -7.820312 0 L 59.839844 0 L 59.839844 170 L -7.820312 170 Z M 195.160156 0 L 262.824219 0 L 262.824219 170 L 195.160156 170 Z M 80.074219 82.148438 L 74.820312 83.746094 L 99.269531 102.816406 C 101.117188 107.71875 98.628906 109.164062 97.039062 111.738281 L 123.582031 108.742188 L 122.890625 132.484375 L 128.390625 132.34375 L 127.191406 108.796875 L 153.761719 111.597656 C 152.117188 108.511719 150.652344 106.871094 152.175781 101.9375 L 176.609375 83.867188 L 172.332031 82.488281 C 168.835938 80.089844 173.84375 70.941406 174.597656 65.164062 C 174.597656 65.164062 160.332031 69.527344 159.398438 67.242188 L 155.761719 61.039062 L 142.785156 73.714844 C 141.367188 74.015625 140.761719 73.515625 140.429688 72.449219 L 146.425781 45.964844 L 136.929688 50.710938 C 136.136719 51.011719 135.339844 50.753906 134.816406 49.929688 L 125.683594 33.640625 L 116.265625 50.558594 C 115.558594 51.164062 114.847656 51.234375 114.257812 50.820312 L 105.214844 46.3125 L 110.644531 72.589844 C 110.210938 73.632812 109.175781 73.925781 107.960938 73.363281 L 95.554688 60.832031 C 93.929688 63.144531 92.832031 66.921875 90.683594 67.765625 C 88.539062 68.558594 81.355469 66.164062 76.539062 65.230469 C 78.183594 70.507812 83.328125 79.277344 80.070312 82.152344 Z M 80.074219 82.148438 "/>
</g>
</svg>
