<?xml version="1.0" encoding="UTF-8"?>
<svg xmlns="http://www.w3.org/2000/svg" xmlns:xlink="http://www.w3.org/1999/xlink" width="255pt" height="170pt" viewBox="0 0 255 170" version="1.1">
<g id="surface1">
<rect x="0" y="0" width="255" height="170" style="fill:rgb(87.058824%,16.078431%,6.27451%);fill-opacity:1;stroke:none;"/>
<path style=" stroke:none;fill-rule:nonzero;fill:rgb(100%,87.058824%,0%);fill-opacity:1;" d="M 30.945312 63.15625 L 47.8125 17 L 64.679688 63.15625 L 20.5 34.59375 L 75.121094 34.59375 Z M 30.945312 63.15625 "/>
<path style=" stroke:none;fill-rule:nonzero;fill:rgb(100%,87.058824%,0%);fill-opacity:1;" d="M 105.273438 17.746094 L 87.539062 21.367188 L 99.496094 9.171875 L 97.878906 25.292969 L 88.519531 11.410156 Z M 105.273438 17.746094 "/>
<path style=" stroke:none;fill-rule:nonzero;fill:rgb(100%,87.058824%,0%);fill-opacity:1;" d="M 123.191406 37.90625 L 105.261719 35.125 L 121.605469 28.007812 L 113.078125 42.3125 L 110.511719 26.289062 Z M 123.191406 37.90625 "/>
<path style=" stroke:none;fill-rule:nonzero;fill:rgb(100%,87.058824%,0%);fill-opacity:1;" d="M 120.632812 66.203125 L 105.539062 57.167969 L 123.726562 56.59375 L 109.378906 66.558594 L 114.386719 51 Z M 120.632812 66.203125 "/>
<path style=" stroke:none;fill-rule:nonzero;fill:rgb(100%,87.058824%,0%);fill-opacity:1;" d="M 98.128906 84.722656 L 88.132812 71.207031 L 105.160156 76.921875 L 87.59375 81.1875 L 98.972656 68.554688 Z M 98.128906 84.722656 "/>
</g>
</svg>
