<?xml version="1.0" encoding="UTF-8"?>
<svg xmlns="http://www.w3.org/2000/svg" xmlns:xlink="http://www.w3.org/1999/xlink" width="255pt" height="170pt" viewBox="0 0 255 170" version="1.1">
<defs>
<clipPath id="clip1">
  <path d="M 0.00390625 0 L 255 0 L 255 170 L 0.00390625 170 Z M 0.00390625 0 "/>
</clipPath>
</defs>
<g id="surface1">
<g clip-path="url(#clip1)" clip-rule="nonzero">
<path style=" stroke:none;fill-rule:evenodd;fill:rgb(100%,100%,100%);fill-opacity:1;" d="M 0.00390625 0 L 264.527344 0 L 264.527344 170 L 0.00390625 170 Z M 0.00390625 0 "/>
<path style=" stroke:none;fill-rule:evenodd;fill:rgb(0%,21.960784%,59.215686%);fill-opacity:1;" d="M 0.792969 66.113281 L 74.859375 66.113281 L 74.859375 0 L 117.1875 0 L 117.1875 66.113281 L 265.324219 66.113281 L 265.324219 103.890625 L 117.1875 103.890625 L 117.1875 170.003906 L 74.859375 170.003906 L 74.859375 103.890625 L 0.792969 103.890625 Z M 0.792969 66.113281 "/>
<path style=" stroke:none;fill-rule:evenodd;fill:rgb(84.313725%,15.686275%,15.686275%);fill-opacity:1;" d="M 0.792969 75.554688 L 85.441406 75.554688 L 85.441406 0 L 106.601562 0 L 106.601562 75.554688 L 265.320312 75.554688 L 265.320312 94.441406 L 106.601562 94.441406 L 106.601562 169.996094 L 85.441406 169.996094 L 85.441406 94.441406 L 0.792969 94.441406 Z M 0.792969 75.554688 "/>
</g>
</g>
</svg>
