<?xml version="1.0" encoding="UTF-8"?>
<svg xmlns="http://www.w3.org/2000/svg" xmlns:xlink="http://www.w3.org/1999/xlink" width="255pt" height="170pt" viewBox="0 0 255 170" version="1.1">
<g id="surface1">
<rect x="0" y="0" width="255" height="170" style="fill:rgb(100%,100%,100%);fill-opacity:1;stroke:none;"/>
<path style=" stroke:none;fill-rule:nonzero;fill:rgb(26.27451%,31.764706%,14.509804%);fill-opacity:1;" d="M 122.65625 141.171875 C 122.613281 141.15625 122.574219 141.132812 122.542969 141.101562 L 122.503906 141.066406 C 122.402344 140.984375 122.230469 140.835938 122 140.601562 C 121.574219 140.175781 121.007812 139.546875 120.503906 138.992188 C 119.511719 137.890625 118.691406 136.945312 118.539062 136.765625 L 118.285156 136.472656 L 115.808594 135.792969 L 114 135.046875 L 114.96875 134.082031 L 118.285156 135.34375 L 120.761719 135.792969 L 125.339844 138.789062 L 125.335938 138.789062 C 125.328125 138.796875 124.671875 139.28125 124.019531 139.808594 C 123.726562 140.046875 123.359375 140.347656 123.101562 140.597656 C 122.980469 140.714844 122.875 140.828125 122.804688 140.921875 C 122.761719 140.976562 122.734375 141.03125 122.722656 141.054688 L 123.007812 140.898438 L 123.316406 141.109375 L 122.6875 141.164062 L 122.660156 141.167969 Z M 105.652344 136.632812 C 103.492188 136.632812 101.359375 136.101562 99.3125 135.054688 L 99.308594 135.054688 L 99.308594 135.050781 C 99.308594 135.050781 99.578125 134.597656 100.226562 134.175781 C 100.847656 133.769531 101.960938 133.289062 103.765625 133.28125 L 103.800781 133.28125 C 105.9375 133.28125 108.550781 133.925781 111.570312 135.199219 C 111.46875 135.261719 109.097656 136.632812 105.652344 136.632812 L 105.65625 136.636719 Z M 96.292969 134.789062 C 95.890625 134.789062 95.53125 134.652344 95.28125 134.410156 C 95.074219 134.210938 94.925781 133.941406 94.828125 133.59375 C 94.667969 133.023438 94.710938 132.453125 94.714844 132.398438 C 94.875 132.339844 95.042969 132.304688 95.214844 132.300781 L 95.25 132.296875 C 96.050781 132.296875 96.679688 132.914062 96.949219 133.527344 C 97.105469 133.875 97.132812 134.167969 97.039062 134.394531 C 96.941406 134.625 96.644531 134.785156 96.292969 134.785156 Z M 112.765625 133.089844 C 107.230469 132.386719 104.886719 130.609375 103.890625 129.242188 C 102.832031 127.78125 103.050781 126.433594 103.050781 126.417969 L 103.054688 126.414062 L 103.058594 126.414062 C 103.058594 126.414062 103.394531 126.332031 103.90625 126.332031 C 105.378906 126.332031 109.140625 126.992188 112.765625 133.085938 L 112.769531 133.089844 L 112.761719 133.089844 Z M 101.421875 132.117188 C 99.058594 132.117188 97.257812 131.753906 96.074219 131.039062 C 95.390625 130.625 95.058594 130.175781 94.898438 129.867188 C 94.800781 129.6875 94.738281 129.496094 94.710938 129.296875 C 94.773438 129.269531 95.738281 128.886719 97.183594 128.828125 C 97.308594 128.824219 97.429688 128.820312 97.558594 128.820312 C 99.386719 128.820312 102.164062 129.347656 105.097656 131.875 L 105.09375 131.875 C 103.757812 132.03125 102.519531 132.113281 101.417969 132.113281 Z M 89.976562 131.722656 C 87.484375 131.722656 84.058594 131.046875 81.925781 129.148438 L 81.921875 129.148438 L 81.929688 129.144531 C 81.949219 129.140625 84.269531 128.617188 86.875 128.5625 C 87.03125 128.558594 87.1875 128.558594 87.347656 128.558594 C 89.683594 128.558594 91.472656 128.960938 92.664062 129.753906 C 93.078125 130.03125 93.308594 130.289062 93.359375 130.542969 C 93.402344 130.753906 93.273438 130.980469 93.019531 131.152344 C 92.484375 131.511719 91.527344 131.703125 90.171875 131.722656 L 89.980469 131.730469 Z M 81.898438 128.042969 C 81.59375 128.042969 81.304688 127.921875 81.109375 127.710938 C 80.949219 127.535156 80.835938 127.308594 80.753906 126.996094 C 80.621094 126.472656 80.664062 125.960938 80.664062 125.953125 L 80.664062 125.949219 C 80.785156 125.898438 80.917969 125.875 81.050781 125.871094 C 81.421875 125.871094 81.703125 126.050781 81.875 126.199219 C 82.117188 126.410156 82.300781 126.667969 82.414062 126.949219 C 82.53125 127.242188 82.550781 127.484375 82.472656 127.695312 C 82.410156 127.863281 82.191406 128.039062 81.898438 128.039062 Z M 100.554688 127.667969 C 100.15625 127.667969 99.796875 127.53125 99.546875 127.289062 C 99.339844 127.089844 99.191406 126.824219 99.09375 126.472656 C 98.929688 125.902344 98.976562 125.332031 98.980469 125.28125 C 99.136719 125.21875 99.308594 125.183594 99.480469 125.179688 L 99.515625 125.179688 C 100.316406 125.179688 100.945312 125.796875 101.214844 126.40625 C 101.367188 126.753906 101.398438 127.046875 101.300781 127.277344 C 101.207031 127.507812 100.902344 127.664062 100.558594 127.664062 Z M 91.46875 127.332031 C 86.453125 127.175781 83.847656 125.910156 82.546875 124.871094 C 81.816406 124.289062 81.410156 123.710938 81.199219 123.328125 C 80.996094 122.96875 80.921875 122.691406 80.90625 122.640625 L 80.914062 122.636719 C 80.914062 122.636719 81.390625 122.484375 82.152344 122.472656 L 82.269531 122.472656 C 83.960938 122.472656 87.40625 123.101562 91.464844 127.332031 Z M 96.914062 126.882812 C 92.878906 126.335938 90.59375 124.796875 89.386719 123.601562 C 88.121094 122.347656 87.742188 121.179688 87.726562 121.125 C 87.730469 121.121094 88.226562 121.007812 88.96875 120.992188 C 89.082031 120.988281 89.195312 120.988281 89.3125 120.992188 C 91.339844 121.03125 95.027344 121.847656 96.914062 126.878906 L 96.917969 126.878906 Z M 76.195312 125.160156 C 74.875 125.160156 73.589844 125.023438 72.382812 124.753906 C 70.269531 124.285156 69.363281 123.570312 68.976562 123.050781 C 68.757812 122.753906 68.675781 122.496094 68.648438 122.332031 C 68.628906 122.230469 68.628906 122.128906 68.636719 122.027344 L 68.648438 122.023438 C 68.652344 122.023438 70.050781 121.675781 71.984375 121.648438 C 72.976562 121.632812 73.96875 121.710938 74.941406 121.882812 C 78.300781 122.476562 80.042969 124.730469 80.0625 124.753906 L 80.0625 124.757812 L 80.058594 124.757812 C 80.039062 124.761719 78.4375 125.160156 76.195312 125.160156 Z M 85.566406 122.132812 C 85.160156 122.132812 84.800781 122.003906 84.554688 121.765625 C 84.351562 121.570312 84.203125 121.296875 84.101562 120.941406 C 83.941406 120.371094 83.984375 119.808594 83.988281 119.753906 C 84.148438 119.695312 84.316406 119.660156 84.488281 119.652344 L 84.523438 119.652344 C 85.320312 119.652344 85.953125 120.269531 86.226562 120.882812 C 86.375 121.21875 86.398438 121.507812 86.300781 121.742188 C 86.203125 121.980469 85.914062 122.132812 85.566406 122.132812 Z M 78.519531 121.273438 C 78.492188 121.269531 76.617188 120.839844 74.707031 119.792969 C 72.9375 118.828125 70.777344 117.117188 70.515625 114.460938 L 70.515625 114.457031 L 70.519531 114.457031 C 70.519531 114.457031 70.683594 114.421875 70.925781 114.414062 C 70.960938 114.414062 70.996094 114.410156 71.03125 114.410156 C 71.558594 114.410156 72.640625 114.542969 73.949219 115.425781 C 75.613281 116.554688 77.148438 118.519531 78.523438 121.277344 Z M 83.121094 121.125 C 83.109375 121.121094 81.773438 120.644531 80.101562 119.402344 C 78.546875 118.242188 76.359375 116.152344 74.773438 112.792969 C 74.773438 112.789062 75.136719 112.617188 75.695312 112.585938 C 75.726562 112.585938 75.757812 112.585938 75.792969 112.585938 C 75.839844 112.585938 75.890625 112.585938 75.9375 112.585938 C 76.707031 112.605469 77.878906 112.890625 79.175781 114.136719 C 80.667969 115.566406 81.996094 117.914062 83.128906 121.121094 L 83.132812 121.128906 L 83.125 121.125 Z M 71.203125 120.816406 C 69.664062 120.816406 69.140625 120.074219 68.984375 119.757812 C 68.730469 119.230469 68.808594 118.710938 68.808594 118.707031 L 68.808594 118.699219 C 69.058594 118.644531 69.316406 118.617188 69.574219 118.613281 L 69.625 118.609375 C 70.835938 118.609375 71.792969 119.15625 72.203125 119.699219 C 72.285156 119.808594 72.535156 120.179688 72.328125 120.46875 C 72.160156 120.699219 71.785156 120.816406 71.203125 120.816406 Z M 67.796875 117 C 66.941406 117 65.625 116.953125 64.246094 116.730469 C 62.878906 116.507812 62.101562 115.472656 61.691406 114.644531 C 61.246094 113.742188 61.121094 112.882812 61.117188 112.875 L 61.125 112.875 C 65.355469 112.984375 67.355469 114.082031 68.289062 114.988281 C 69.25 115.917969 69.308594 116.886719 69.3125 116.949219 L 69.308594 116.949219 C 69.300781 116.949219 68.707031 117 67.796875 117 Z M 72.207031 113.085938 C 71.863281 112.699219 71.539062 112.300781 71.238281 111.886719 C 70.738281 111.195312 70.273438 110.46875 70.273438 109.878906 C 70.273438 109.308594 70.121094 108.105469 70.035156 107.4375 C 69.917969 106.589844 69.804688 105.867188 69.792969 105.804688 L 69.796875 105.808594 C 69.90625 105.839844 72.445312 106.6875 72.445312 108.808594 C 72.445312 110.929688 72.210938 113.0625 72.207031 113.082031 Z M 68.914062 112.882812 C 68.886719 112.882812 68.859375 112.878906 68.835938 112.875 C 68.082031 112.765625 66.761719 112.253906 65.304688 111.511719 C 63.683594 110.6875 62.367188 109.800781 61.601562 109.019531 C 60.898438 108.308594 60.484375 107.191406 60.363281 105.699219 C 60.277344 104.640625 60.378906 103.757812 60.390625 103.667969 C 60.523438 103.632812 60.664062 103.613281 60.808594 103.613281 C 61.371094 103.621094 61.972656 103.84375 62.785156 104.339844 C 63.414062 104.726562 64.109375 105.253906 64.851562 105.902344 C 66.132812 107.023438 67.136719 108.152344 67.148438 108.160156 L 67.15625 108.171875 C 67.242188 108.308594 67.964844 109.46875 68.53125 110.597656 C 68.890625 111.316406 69.09375 111.832031 69.175781 112.226562 C 69.222656 112.449219 69.234375 112.597656 69.175781 112.730469 C 69.152344 112.785156 69.105469 112.828125 69.050781 112.855469 C 69.007812 112.875 68.960938 112.882812 68.910156 112.882812 Z M 68.914062 112.882812 "/>
<path style=" stroke:none;fill-rule:nonzero;fill:rgb(26.27451%,31.764706%,14.509804%);fill-opacity:1;" d="M 113.914062 141.171875 C 113.957031 141.15625 113.992188 141.132812 114.023438 141.101562 L 114.066406 141.066406 C 114.167969 140.984375 114.339844 140.835938 114.570312 140.601562 C 114.992188 140.175781 115.5625 139.546875 116.0625 138.992188 C 117.054688 137.890625 117.875 136.945312 118.03125 136.765625 L 118.285156 136.472656 L 120.757812 135.792969 L 122.566406 135.046875 L 121.601562 134.082031 L 118.285156 135.34375 L 115.808594 135.792969 L 111.230469 138.789062 L 111.234375 138.789062 C 111.242188 138.796875 111.898438 139.28125 112.550781 139.808594 C 112.84375 140.046875 113.207031 140.347656 113.46875 140.597656 C 113.585938 140.714844 113.691406 140.828125 113.765625 140.921875 C 113.808594 140.976562 113.832031 141.03125 113.84375 141.054688 L 113.5625 140.898438 L 113.253906 141.109375 L 113.878906 141.164062 L 113.910156 141.167969 Z M 130.917969 136.632812 C 133.078125 136.632812 135.210938 136.101562 137.257812 135.054688 L 137.261719 135.054688 L 137.257812 135.050781 C 137.257812 135.050781 136.992188 134.597656 136.34375 134.175781 C 135.722656 133.769531 134.605469 133.289062 132.804688 133.28125 L 132.765625 133.28125 C 130.632812 133.28125 128.015625 133.925781 124.996094 135.199219 C 125.101562 135.261719 127.46875 136.632812 130.914062 136.632812 L 130.914062 136.636719 Z M 140.277344 134.789062 C 140.675781 134.789062 141.035156 134.652344 141.289062 134.410156 C 141.496094 134.210938 141.644531 133.941406 141.742188 133.59375 C 141.902344 133.023438 141.859375 132.453125 141.851562 132.398438 C 141.695312 132.339844 141.527344 132.304688 141.355469 132.300781 L 141.320312 132.296875 C 140.519531 132.296875 139.890625 132.914062 139.617188 133.527344 C 139.464844 133.875 139.4375 134.167969 139.53125 134.394531 C 139.625 134.625 139.925781 134.785156 140.277344 134.785156 Z M 123.804688 133.089844 C 129.339844 132.386719 131.683594 130.609375 132.675781 129.242188 C 133.738281 127.78125 133.519531 126.433594 133.515625 126.417969 L 133.515625 126.414062 L 133.511719 126.414062 C 133.507812 126.414062 133.171875 126.332031 132.664062 126.332031 C 131.191406 126.332031 127.425781 126.992188 123.804688 133.085938 L 123.800781 133.089844 L 123.808594 133.089844 Z M 135.144531 132.117188 C 137.511719 132.117188 139.308594 131.753906 140.496094 131.039062 C 141.175781 130.625 141.511719 130.175781 141.671875 129.867188 C 141.765625 129.6875 141.832031 129.496094 141.859375 129.296875 C 141.796875 129.269531 140.828125 128.886719 139.382812 128.828125 C 139.261719 128.824219 139.140625 128.820312 139.011719 128.820312 C 137.183594 128.820312 134.40625 129.347656 131.472656 131.875 L 131.46875 131.875 L 131.472656 131.875 C 132.8125 132.03125 134.050781 132.113281 135.148438 132.113281 Z M 146.59375 131.722656 C 149.085938 131.722656 152.507812 131.046875 154.644531 129.148438 L 154.648438 129.148438 L 154.640625 129.144531 C 154.617188 129.140625 152.300781 128.617188 149.691406 128.5625 C 149.539062 128.558594 149.382812 128.558594 149.222656 128.558594 C 146.886719 128.558594 145.097656 128.960938 143.90625 129.753906 C 143.488281 130.03125 143.261719 130.289062 143.210938 130.542969 C 143.167969 130.753906 143.292969 130.980469 143.546875 131.152344 C 144.085938 131.511719 145.042969 131.703125 146.398438 131.722656 L 146.589844 131.730469 Z M 154.667969 128.042969 C 154.976562 128.042969 155.265625 127.921875 155.460938 127.710938 C 155.621094 127.535156 155.734375 127.308594 155.8125 126.996094 C 155.945312 126.472656 155.90625 125.960938 155.90625 125.953125 L 155.90625 125.949219 C 155.785156 125.898438 155.652344 125.875 155.519531 125.871094 L 155.515625 125.871094 C 155.148438 125.871094 154.867188 126.050781 154.691406 126.199219 C 154.449219 126.410156 154.265625 126.667969 154.152344 126.949219 C 154.039062 127.242188 154.019531 127.484375 154.097656 127.695312 C 154.160156 127.863281 154.375 128.039062 154.667969 128.039062 Z M 136.011719 127.667969 C 136.414062 127.667969 136.769531 127.53125 137.023438 127.289062 C 137.230469 127.089844 137.378906 126.824219 137.476562 126.472656 C 137.636719 125.902344 137.59375 125.332031 137.589844 125.28125 C 137.429688 125.21875 137.261719 125.183594 137.089844 125.179688 L 137.054688 125.179688 C 136.253906 125.179688 135.625 125.796875 135.351562 126.40625 C 135.199219 126.753906 135.171875 127.046875 135.265625 127.277344 C 135.363281 127.507812 135.664062 127.664062 136.011719 127.664062 Z M 145.101562 127.332031 C 150.117188 127.175781 152.71875 125.910156 154.019531 124.871094 C 154.753906 124.289062 155.160156 123.710938 155.371094 123.328125 C 155.570312 122.96875 155.648438 122.691406 155.660156 122.640625 L 155.65625 122.636719 C 155.65625 122.636719 155.179688 122.484375 154.417969 122.472656 L 154.300781 122.472656 C 152.609375 122.472656 149.164062 123.101562 145.101562 127.332031 Z M 139.652344 126.882812 C 143.6875 126.335938 145.976562 124.796875 147.183594 123.601562 C 148.449219 122.347656 148.828125 121.179688 148.84375 121.125 C 148.835938 121.121094 148.34375 121.007812 147.601562 120.992188 C 147.488281 120.988281 147.371094 120.988281 147.257812 120.992188 C 145.226562 121.03125 141.542969 121.847656 139.652344 126.878906 Z M 160.371094 125.160156 C 161.695312 125.160156 162.976562 125.023438 164.183594 124.753906 C 166.296875 124.285156 167.203125 123.570312 167.59375 123.050781 C 167.8125 122.753906 167.894531 122.496094 167.921875 122.332031 C 167.9375 122.230469 167.941406 122.128906 167.929688 122.027344 L 167.921875 122.023438 C 167.914062 122.023438 166.519531 121.675781 164.585938 121.648438 C 163.59375 121.632812 162.601562 121.710938 161.625 121.882812 C 158.265625 122.476562 156.523438 124.730469 156.507812 124.753906 L 156.507812 124.757812 L 156.511719 124.757812 C 156.53125 124.761719 158.128906 125.160156 160.375 125.160156 Z M 151.003906 122.132812 C 151.410156 122.132812 151.765625 122.003906 152.015625 121.765625 C 152.21875 121.570312 152.367188 121.296875 152.46875 120.941406 C 152.628906 120.371094 152.585938 119.808594 152.578125 119.753906 C 152.421875 119.695312 152.253906 119.660156 152.082031 119.652344 L 152.046875 119.652344 C 151.246094 119.652344 150.613281 120.269531 150.34375 120.882812 C 150.195312 121.21875 150.167969 121.507812 150.265625 121.742188 C 150.367188 121.980469 150.65625 122.132812 151.003906 122.132812 Z M 158.046875 121.273438 C 158.078125 121.269531 159.953125 120.839844 161.863281 119.792969 C 163.628906 118.828125 165.792969 117.117188 166.054688 114.460938 L 166.054688 114.457031 L 166.050781 114.457031 C 166.050781 114.457031 165.886719 114.421875 165.644531 114.414062 C 165.609375 114.414062 165.574219 114.410156 165.535156 114.410156 C 165.007812 114.410156 163.929688 114.542969 162.621094 115.425781 C 160.957031 116.554688 159.421875 118.519531 158.046875 121.277344 Z M 153.449219 121.125 C 153.460938 121.121094 154.796875 120.644531 156.46875 119.402344 C 158.023438 118.242188 160.210938 116.152344 161.792969 112.792969 C 161.792969 112.789062 161.429688 112.617188 160.875 112.585938 C 160.84375 112.585938 160.808594 112.585938 160.777344 112.585938 C 160.730469 112.585938 160.679688 112.585938 160.628906 112.585938 C 159.859375 112.605469 158.691406 112.890625 157.394531 114.136719 C 155.902344 115.566406 154.570312 117.914062 153.441406 121.121094 L 153.4375 121.128906 L 153.445312 121.125 Z M 165.367188 120.816406 C 166.902344 120.816406 167.429688 120.074219 167.585938 119.757812 C 167.839844 119.230469 167.761719 118.710938 167.761719 118.707031 L 167.761719 118.699219 C 167.507812 118.644531 167.253906 118.617188 166.996094 118.613281 L 166.941406 118.609375 C 165.730469 118.609375 164.777344 119.15625 164.367188 119.699219 C 164.285156 119.808594 164.035156 120.179688 164.242188 120.46875 C 164.40625 120.699219 164.785156 120.816406 165.367188 120.816406 Z M 168.769531 117 C 169.628906 117 170.941406 116.953125 172.320312 116.730469 C 173.691406 116.507812 174.464844 115.472656 174.875 114.644531 C 175.324219 113.742188 175.449219 112.882812 175.449219 112.875 L 175.445312 112.875 C 171.210938 112.984375 169.210938 114.082031 168.28125 114.988281 C 167.316406 115.917969 167.261719 116.886719 167.257812 116.949219 L 167.261719 116.949219 C 167.269531 116.949219 167.863281 117 168.773438 117 Z M 164.363281 113.085938 C 164.707031 112.699219 165.027344 112.300781 165.328125 111.886719 C 165.832031 111.195312 166.292969 110.46875 166.292969 109.878906 C 166.292969 109.308594 166.445312 108.105469 166.535156 107.4375 C 166.648438 106.589844 166.765625 105.867188 166.773438 105.804688 L 166.769531 105.808594 C 166.664062 105.839844 164.121094 106.6875 164.121094 108.808594 C 164.121094 110.929688 164.359375 113.0625 164.359375 113.082031 L 164.359375 113.085938 Z M 167.65625 112.882812 C 167.683594 112.882812 167.707031 112.878906 167.734375 112.875 C 168.484375 112.765625 169.804688 112.253906 171.265625 111.511719 C 172.882812 110.6875 174.199219 109.800781 174.96875 109.019531 C 175.667969 108.308594 176.085938 107.191406 176.203125 105.699219 C 176.289062 104.640625 176.1875 103.757812 176.175781 103.667969 C 176.046875 103.632812 175.90625 103.613281 175.757812 103.613281 C 175.195312 103.621094 174.59375 103.84375 173.785156 104.339844 C 173.152344 104.726562 172.457031 105.253906 171.71875 105.902344 C 170.4375 107.023438 169.433594 108.152344 169.421875 108.160156 L 169.410156 108.171875 C 169.328125 108.308594 168.601562 109.46875 168.039062 110.597656 C 167.679688 111.316406 167.476562 111.832031 167.394531 112.226562 C 167.347656 112.449219 167.332031 112.597656 167.394531 112.730469 C 167.417969 112.785156 167.460938 112.828125 167.515625 112.855469 C 167.5625 112.875 167.609375 112.882812 167.65625 112.882812 Z M 167.65625 112.882812 "/>
<path style=" stroke:none;fill-rule:nonzero;fill:rgb(83.137255%,46.27451%,0%);fill-opacity:1;" d="M 206.816406 27.050781 L 206.0625 27.316406 L 205.769531 27.421875 L 204.859375 27.378906 L 204.007812 27.742188 L 202.496094 28.660156 L 202.429688 28.699219 L 201.867188 28.832031 L 201.34375 28.628906 L 201.046875 28.75 L 200.945312 29.292969 L 200.660156 29.683594 L 200.3125 29.902344 L 199.109375 30.011719 L 198.089844 30.480469 L 196.769531 30.164062 L 196.152344 30.378906 L 194.847656 31.421875 L 194.179688 31.703125 L 193.945312 31.691406 L 193.058594 31.652344 L 192.6875 31.761719 L 192.128906 32.242188 L 191.070312 32.3125 L 190.742188 32.515625 L 190.226562 33.441406 L 189.667969 33.953125 L 189.347656 34.011719 L 189 33.898438 L 188.742188 33.941406 L 188.625 34.53125 L 188.371094 34.777344 L 187.664062 34.996094 L 187.097656 35.414062 L 186.601562 35.640625 L 185.9375 35.625 L 185.785156 35.625 L 185.125 35.949219 L 183.878906 36.046875 L 183.359375 36.488281 L 183.246094 36.582031 L 183.003906 36.710938 L 182.609375 36.921875 L 182.511719 36.972656 L 182.035156 36.898438 L 181.480469 37.09375 L 181.253906 36.785156 L 180.867188 36.992188 L 180.355469 37.011719 L 179.71875 36.757812 L 179.234375 36.566406 L 178.878906 36.613281 L 178.753906 37.160156 L 178.742188 37.21875 L 178.371094 37.660156 L 177.675781 38.035156 L 177.578125 38.144531 L 176.789062 39.054688 L 175.28125 40.460938 L 174.007812 41.035156 L 172.691406 41.394531 L 171.765625 42.066406 L 169.34375 43.132812 L 165.519531 44.824219 L 164.738281 45.046875 L 163.617188 45.207031 L 161.617188 45.863281 L 159.851562 46.335938 L 159.753906 46.363281 L 159.402344 46.457031 L 156.914062 47.125 L 155.753906 47.015625 L 155.066406 47.238281 L 153.28125 47.0625 L 152.039062 47.085938 L 151.253906 47.230469 L 149.773438 47.859375 L 147.28125 48.925781 L 146.457031 49.597656 L 145.171875 50.191406 L 143.667969 50.613281 L 143.671875 50.050781 L 143.664062 50.027344 L 143.144531 50.175781 L 142.765625 50.28125 L 141.546875 50.449219 L 140.867188 50.449219 L 140.449219 50.339844 L 140.382812 50.359375 L 137.890625 51.089844 L 135.113281 51.328125 L 133.722656 51.722656 L 132.679688 51.707031 L 132.03125 51.878906 L 130.757812 52.019531 L 130.304688 51.910156 L 130.199219 51.886719 L 126.457031 52.03125 L 124.742188 51.859375 L 123.925781 52.023438 L 122.558594 51.613281 L 120.558594 51.410156 L 120.09375 51.285156 L 119.042969 51.007812 L 118.566406 51.25 L 118.210938 51.285156 L 117.359375 51.011719 L 117.054688 51.003906 L 116.351562 51.226562 L 115.949219 51.136719 L 115.574219 50.871094 L 114.691406 50.753906 L 114.15625 50.355469 L 111.160156 50.707031 L 110.347656 50.492188 L 107.621094 49.789062 L 107.1875 49.808594 L 106.644531 50.167969 L 105.832031 50.429688 L 105.128906 50.59375 L 104.167969 50.625 L 103.054688 50.363281 L 101.90625 49.867188 L 101.480469 49.777344 L 100.53125 49.863281 L 100.242188 49.886719 L 98.5 49.054688 L 96.253906 47.808594 L 94.730469 47.160156 L 94.160156 47.078125 L 94.082031 47.316406 L 94.367188 48.113281 L 94.464844 48.898438 L 94.433594 49.625 L 94.417969 50.074219 L 94.558594 50.480469 L 95.109375 51.019531 L 95.339844 51.566406 L 95.507812 53.0625 L 95.503906 54.582031 L 95.238281 57.003906 L 95.148438 57.371094 L 94.828125 58.628906 L 94.539062 59.78125 L 93.40625 62.847656 L 93.097656 63.230469 L 92.335938 63.691406 L 90.609375 64.738281 L 89.335938 65.386719 L 88.933594 65.539062 L 87.898438 65.605469 L 87.257812 65.574219 L 86.457031 65.191406 L 85.671875 65.011719 L 84.640625 64.351562 L 83.496094 64.140625 L 82.238281 63.496094 L 81.910156 63.148438 L 81.226562 63.089844 L 80.277344 62.835938 L 79.929688 62.742188 L 79.691406 62.679688 L 78.480469 62.648438 L 77.351562 62.1875 L 76.757812 62.058594 L 75.945312 62.023438 L 75.097656 62.375 L 75.097656 62.371094 L 74.664062 62.550781 L 74.121094 62.359375 L 73.726562 62.382812 L 73.28125 62.980469 L 73.214844 63.074219 L 72.90625 63.21875 L 72.523438 63.214844 L 72.226562 63.207031 L 71.902344 63.332031 L 71.464844 63.5 L 71.082031 63.648438 L 70.894531 63.722656 L 70.890625 63.71875 L 70.773438 63.738281 L 70.570312 63.773438 L 70.3125 63.816406 L 69.863281 63.582031 L 69.625 63.457031 L 69.222656 63.382812 L 69.007812 63.523438 L 68.964844 64.175781 L 68.769531 64.5625 L 68.144531 65.054688 L 67.507812 65.550781 L 67.066406 66.132812 L 65.894531 68.507812 L 65.160156 69.46875 L 64.933594 69.691406 L 64.164062 70.445312 L 63.484375 70.914062 L 61.914062 71.996094 L 60.429688 72.488281 L 59.152344 72.71875 L 58.527344 72.722656 L 57.351562 72.582031 L 56.292969 72.292969 L 55.128906 71.648438 L 53.851562 70.734375 L 52.007812 69.113281 L 51.746094 68.976562 L 51.691406 68.941406 L 51.109375 68.613281 L 50.675781 68.621094 L 50.507812 68.871094 L 50.414062 69.226562 L 50.335938 69.542969 L 50.125 71.347656 L 50.140625 71.453125 L 50.253906 72.195312 L 51.65625 73.9375 L 52.089844 74.863281 L 52.691406 75.765625 L 53.171875 77.035156 L 52.832031 77.753906 L 53.003906 78.234375 L 52.578125 78.53125 L 52.5 78.945312 L 53.757812 80.347656 L 54.035156 80.96875 L 53.726562 81.824219 L 53.238281 82.300781 L 53.101562 82.429688 L 53.171875 82.792969 L 53.75 83.253906 L 54.734375 84.035156 L 55.257812 85.191406 L 55.65625 85.5 L 56.121094 85.414062 L 56.382812 85.589844 L 56.773438 85.582031 L 57.15625 85.925781 L 57.40625 86.03125 L 57.800781 86.207031 L 58.113281 86.566406 L 58.179688 87.675781 L 58.761719 89.054688 L 58.769531 89.800781 L 58.773438 89.90625 L 59.136719 90.457031 L 59.25 90.894531 L 59.054688 92.046875 L 59.515625 92.417969 L 60.015625 92.324219 L 60.339844 92.371094 L 60.855469 92.753906 L 61.484375 93.605469 L 62.097656 93.523438 L 62.488281 93.691406 L 64.371094 95.203125 L 64.796875 95.394531 L 64.820312 95.40625 L 65.128906 95.542969 L 65.507812 95.886719 L 66.101562 95.535156 L 66.167969 95.53125 L 66.808594 95.480469 L 67.09375 95.648438 L 67.636719 95.972656 L 68.347656 95.964844 L 69.890625 96.386719 L 70.566406 96.542969 L 71.925781 97.292969 L 72.503906 97.609375 L 73.296875 98.183594 L 74.203125 98.53125 L 74.980469 98.695312 L 75.402344 98.785156 L 75.71875 98.894531 L 75.726562 98.878906 L 75.730469 98.878906 L 75.726562 98.894531 L 77.410156 99.46875 L 78.320312 99.660156 L 79.164062 99.933594 L 79.777344 100.132812 L 80.230469 100.140625 L 80.867188 99.664062 L 81.484375 99.632812 L 81.996094 99.746094 L 82.5 99.671875 L 83.289062 99.238281 L 83.445312 99.035156 L 84.007812 98.796875 L 85.902344 98.585938 L 86.453125 98.746094 L 87.875 98.195312 L 88.828125 98.433594 L 89.671875 98.167969 L 91.515625 98.53125 L 92.003906 98.835938 L 92.550781 99.394531 L 92.617188 99.394531 L 93.226562 99.40625 L 92.972656 99.785156 L 93.777344 100.535156 L 94.503906 101.511719 L 94.554688 101.640625 L 95.082031 103.015625 L 95.472656 103.503906 L 95.75 104.1875 L 95.761719 104.628906 L 95.335938 104.921875 L 95.265625 105.085938 L 95.242188 105.148438 L 95.328125 105.332031 L 95.488281 105.253906 L 95.796875 105.101562 L 96.167969 105.050781 L 96.824219 105.113281 L 97.261719 105.15625 L 97.945312 104.851562 L 98.402344 104.652344 L 99.132812 104.929688 L 99.9375 104.921875 L 100.273438 105.054688 L 101.226562 105.441406 L 101.714844 105.480469 L 101.894531 105.375 L 102.007812 105.132812 L 101.949219 104.851562 L 101.585938 104.476562 L 100.777344 103.644531 L 100.449219 103.214844 L 100.195312 102.597656 L 100.117188 101.804688 L 100.0625 101.269531 L 100.164062 100.570312 L 100.378906 100.320312 L 100.539062 99.761719 L 100.542969 99.761719 L 100.582031 99.613281 L 101.03125 99.085938 L 102.21875 98.410156 L 103.492188 97.394531 L 104.5 96.804688 L 105.539062 96.402344 L 105.570312 96.289062 L 105.683594 96.332031 L 108.328125 95.535156 L 108.371094 95.527344 L 109.546875 95.347656 L 117.492188 95.84375 L 117.785156 95.765625 L 117.785156 95.761719 L 118.050781 95.101562 L 118.191406 94.980469 L 118.289062 94.898438 L 119.160156 94.558594 L 119.570312 94.507812 L 120.703125 94.753906 L 121.167969 94.855469 L 121.910156 94.488281 L 122.4375 94.496094 L 123.527344 93.964844 L 124.199219 93.980469 L 124.457031 93.890625 L 125.765625 93.054688 L 127.03125 92.730469 L 127.359375 92.574219 L 127.472656 92.519531 L 128.765625 91.910156 L 129.589844 91.351562 L 130.296875 91.015625 L 131.074219 90.835938 L 133.109375 90.710938 L 133.519531 90.105469 L 134.394531 90 L 134.921875 89.472656 L 135.527344 89.253906 L 135.960938 88.699219 L 136.320312 88.234375 L 136.828125 87.972656 L 138.453125 87.882812 L 140.382812 88.09375 L 140.636719 87.957031 L 141.070312 86.574219 L 141.527344 86.316406 L 142.753906 84.726562 L 142.757812 84.144531 L 142.761719 83.664062 L 142.960938 82.972656 L 142.824219 81.730469 L 142.988281 80.46875 L 143.75 78.867188 L 144.421875 78.222656 L 145.507812 77.570312 L 146.058594 77.359375 L 146.839844 77.242188 L 146.839844 77.238281 L 146.953125 77.222656 L 147.152344 77.191406 L 149.839844 77.160156 C 149.878906 77.132812 150.816406 77.148438 150.816406 77.148438 L 151.714844 77.136719 L 153.980469 77.496094 L 154.144531 77.519531 L 154.910156 77.742188 L 155.792969 78.351562 L 156.90625 79.316406 L 157.511719 79.542969 L 157.695312 79.613281 L 158.195312 79.542969 L 158.910156 79.214844 L 159.445312 78.808594 L 160.179688 78.453125 L 160.199219 78.429688 L 160.609375 77.878906 L 160.625 77.867188 L 160.632812 77.871094 L 160.632812 77.867188 L 160.625 77.863281 L 160.789062 77.644531 L 162.207031 77.152344 L 163.875 77.066406 L 164.0625 76.976562 L 164.164062 76.929688 L 164.605469 76.46875 L 165.019531 76.464844 L 166.015625 76.785156 L 166.71875 76.664062 L 167.277344 76.859375 L 167.710938 76.816406 L 168.53125 76.730469 L 169.40625 77.277344 L 169.917969 77.335938 L 171.722656 78.273438 L 171.863281 78.296875 L 171.96875 78.308594 L 172.179688 78.253906 L 172.5 78.171875 L 172.542969 78.160156 L 172.582031 78.210938 L 172.789062 78.46875 L 173.070312 78.503906 L 173.402344 78.109375 L 173.269531 77.929688 L 173.21875 77.863281 L 172.574219 77.746094 L 171.996094 76.871094 L 172.546875 76.339844 L 171.683594 75.398438 L 171.539062 75.242188 L 171.492188 75.175781 L 171.191406 74.773438 L 169.679688 72.722656 L 167.707031 71.324219 L 167.707031 71.328125 L 167.019531 70.835938 L 167.015625 70.832031 L 166.773438 70.664062 L 165.71875 69.714844 L 164.96875 68.828125 L 164.867188 68.636719 L 164.714844 68.335938 L 164.261719 67.464844 L 163.476562 66.925781 L 162.839844 66.304688 L 162.808594 66.269531 L 161.488281 64.675781 L 161.273438 64.40625 L 160.960938 64.246094 L 160.300781 64.242188 L 160.238281 64.1875 L 160.203125 64.152344 L 160.222656 64.132812 L 160.539062 63.851562 L 160.894531 63.773438 L 161.042969 63.464844 L 160.371094 61.734375 L 160.367188 61.675781 L 160.320312 61.125 L 160.867188 58.613281 L 160.9375 58.308594 L 161.867188 56.621094 L 162.449219 56.199219 L 163.078125 55.097656 L 163.617188 54.390625 L 164.136719 53.945312 L 164.226562 53.894531 L 165.160156 53.394531 L 165.949219 53.296875 L 166.695312 53.199219 L 168.003906 53.558594 L 169.246094 53.539062 L 169.488281 53.515625 L 170.050781 53.457031 L 170.980469 53.199219 L 171.417969 52.957031 L 171.644531 52.648438 L 172.121094 51.234375 L 172.269531 50.785156 L 172.5625 50.296875 L 174.253906 48.566406 L 175.535156 47.515625 L 178.410156 45.640625 L 179.816406 44.894531 L 180.535156 44.511719 L 186.949219 41.976562 L 188.617188 40.476562 L 189.484375 39.691406 L 191.023438 38.777344 L 192.820312 38.121094 L 194.367188 37.035156 L 194.703125 36.65625 L 195.128906 35.4375 L 195.484375 35.359375 L 195.804688 34.742188 L 195.898438 34.570312 L 197.160156 33.777344 L 197.304688 33.714844 L 202.207031 31.53125 L 202.921875 31.617188 L 203.304688 31.109375 L 204.730469 30.894531 L 204.992188 30.855469 L 205.34375 30.699219 L 205.644531 30.246094 L 205.644531 30.15625 L 205.683594 28.945312 L 205.988281 28.621094 L 206.15625 27.820312 L 206.308594 27.636719 L 206.476562 27.445312 L 206.878906 27.191406 L 206.808594 27.042969 Z M 206.816406 27.050781 "/>
</g>
</svg>
