<?xml version="1.0" encoding="UTF-8"?>
<svg xmlns="http://www.w3.org/2000/svg" xmlns:xlink="http://www.w3.org/1999/xlink" width="255pt" height="170pt" viewBox="0 0 255 170" version="1.1">
<defs>
<linearGradient id="linear0" gradientUnits="userSpaceOnUse" x1="444.4" y1="592.2" x2="470.9" y2="577.14" gradientTransform="matrix(1,0,0,1,0,-0.000000000000003553)">
<stop offset="0" style="stop-color:rgb(64.313725%,22.352941%,2.745098%);stop-opacity:0.996078;"/>
<stop offset="1" style="stop-color:rgb(100%,100%,100%);stop-opacity:1;"/>
</linearGradient>
<linearGradient id="linear1" gradientUnits="userSpaceOnUse" x1="444.4" y1="592.2" x2="470.9" y2="577.14" gradientTransform="matrix(1,0,0,1,0.000000000000113687,0)">
<stop offset="0" style="stop-color:rgb(64.313725%,22.352941%,2.745098%);stop-opacity:0.996078;"/>
<stop offset="1" style="stop-color:rgb(100%,100%,100%);stop-opacity:1;"/>
</linearGradient>
<linearGradient id="linear2" gradientUnits="userSpaceOnUse" x1="458.24" y1="562.51" x2="520.55" y2="552.83" gradientTransform="matrix(0.94,0,0,1.07,0,0)">
<stop offset="0" style="stop-color:rgb(64.313725%,22.352941%,2.745098%);stop-opacity:0.996078;"/>
<stop offset="1" style="stop-color:rgb(100%,100%,100%);stop-opacity:1;"/>
</linearGradient>
<linearGradient id="linear3" gradientUnits="userSpaceOnUse" x1="472.38" y1="578.68" x2="445.28" y2="580.2" gradientTransform="matrix(1,0,0,1,0.000000000000014211,0)">
<stop offset="0" style="stop-color:rgb(64.313725%,22.352941%,2.745098%);stop-opacity:0.996078;"/>
<stop offset="1" style="stop-color:rgb(100%,100%,100%);stop-opacity:1;"/>
</linearGradient>
<linearGradient id="linear4" gradientUnits="userSpaceOnUse" x1="517.97" y1="553.74" x2="456.44" y2="558.12" gradientTransform="matrix(0.94,0,0,1.07,0,0)">
<stop offset="0" style="stop-color:rgb(64.313725%,22.352941%,2.745098%);stop-opacity:0.996078;"/>
<stop offset="1" style="stop-color:rgb(100%,100%,100%);stop-opacity:1;"/>
</linearGradient>
<linearGradient id="linear5" gradientUnits="userSpaceOnUse" x1="851.78" y1="369.94" x2="646.19" y2="369.94" >
<stop offset="0" style="stop-color:rgb(64.313725%,22.352941%,2.745098%);stop-opacity:0.996078;"/>
<stop offset="1" style="stop-color:rgb(100%,100%,100%);stop-opacity:1;"/>
</linearGradient>
<linearGradient id="linear6" gradientUnits="userSpaceOnUse" x1="388.53" y1="507.23" x2="677.4" y2="508.75" gradientTransform="matrix(0.82,0,0,1.22,0,0)">
<stop offset="0" style="stop-color:rgb(64.313725%,22.352941%,2.745098%);stop-opacity:0.996078;"/>
<stop offset="1" style="stop-color:rgb(100%,100%,100%);stop-opacity:1;"/>
</linearGradient>
<linearGradient id="linear7" gradientUnits="userSpaceOnUse" x1="579.84" y1="504.94" x2="556.8" y2="505.86" gradientTransform="matrix(0.84,0,0,1.2,-0.000000000000014211,0)">
<stop offset="0" style="stop-color:rgb(64.313725%,22.352941%,2.745098%);stop-opacity:0.996078;"/>
<stop offset="1" style="stop-color:rgb(100%,100%,100%);stop-opacity:1;"/>
</linearGradient>
<linearGradient id="linear8" gradientUnits="userSpaceOnUse" x1="581.43" y1="512.01" x2="558.88" y2="514.33" gradientTransform="matrix(0.82,0,0,1.22,0,0)">
<stop offset="0" style="stop-color:rgb(64.313725%,22.352941%,2.745098%);stop-opacity:0.996078;"/>
<stop offset="1" style="stop-color:rgb(100%,100%,100%);stop-opacity:1;"/>
</linearGradient>
<linearGradient id="linear9" gradientUnits="userSpaceOnUse" x1="552" y1="517.88" x2="589.77" y2="503.9" gradientTransform="matrix(0.84,0,0,1.2,0,0)">
<stop offset="0" style="stop-color:rgb(64.313725%,22.352941%,2.745098%);stop-opacity:0.996078;"/>
<stop offset="1" style="stop-color:rgb(100%,100%,100%);stop-opacity:1;"/>
</linearGradient>
</defs>
<g id="surface1">
<rect x="0" y="0" width="255" height="170" style="fill:rgb(0%,0%,40%);fill-opacity:1;stroke:none;"/>
<path style=" stroke:none;fill-rule:evenodd;fill:rgb(0%,0%,40%);fill-opacity:1;" d="M 0 0 L 159.375 0 L 159.375 70.832031 L 0 70.832031 Z M 0 0 "/>
<path style=" stroke:none;fill-rule:nonzero;fill:rgb(100%,100%,100%);fill-opacity:1;" d="M 0 0 L 0 9.054688 L 126.359375 80.972656 L 142.265625 80.972656 L 142.265625 71.921875 L 15.90625 0 Z M 142.265625 0 L 142.265625 9.050781 L 15.90625 80.972656 L 0 80.972656 L 0 71.917969 L 126.359375 0 Z M 142.265625 0 "/>
<path style=" stroke:none;fill-rule:nonzero;fill:rgb(100%,100%,100%);fill-opacity:1;" d="M 59.277344 0 L 59.277344 80.972656 L 82.988281 80.972656 L 82.988281 0 Z M 0 26.992188 L 0 53.980469 L 142.265625 53.980469 L 142.265625 26.992188 Z M 0 26.992188 "/>
<path style=" stroke:none;fill-rule:nonzero;fill:rgb(80%,0%,0%);fill-opacity:1;" d="M 0 32.390625 L 0 48.582031 L 142.265625 48.582031 L 142.265625 32.390625 Z M 64.019531 0 L 64.019531 80.972656 L 78.246094 80.972656 L 78.246094 0 Z M 0 80.972656 L 47.421875 53.980469 L 58.023438 53.980469 L 10.605469 80.972656 Z M 0 0 L 47.421875 26.992188 L 36.816406 26.992188 L 0 6.035156 Z M 84.238281 26.992188 L 131.660156 0 L 142.265625 0 L 94.84375 26.992188 Z M 142.265625 80.972656 L 94.84375 53.980469 L 105.445312 53.980469 L 142.265625 74.9375 Z M 142.265625 80.972656 "/>
<path style="fill-rule:evenodd;fill:url(#linear0);stroke-width:10;stroke-linecap:butt;stroke-linejoin:miter;stroke:rgb(100%,100%,100%);stroke-opacity:1;stroke-miterlimit:4;" d="M 670.969164 321.559578 C 670.290431 321.569005 669.611698 321.634992 668.941344 321.748115 C 665.547679 322.342006 660.209988 333.380845 657.252053 339.838235 C 652.626613 345.484917 650.163064 349.868401 648.219038 353.120664 C 647.46489 354.383861 646.300151 355.854449 646.660466 357.532428 C 639.66365 359.248115 639.311714 365.253017 639.311714 367.590875 C 639.311714 370.070136 640.091001 371.305053 640.091001 371.305053 L 644.280711 379.14819 L 644.314228 379.242459 C 648.77208 388.461916 655.366683 400.867647 659.062008 401.9046 C 664.307525 403.365762 677.882185 398.350679 688.063181 389.743967 C 704.754986 396.625566 726.130887 402.309955 750.028993 402.309955 C 773.927099 402.309955 795.277862 396.616139 811.969666 389.743967 C 822.150662 398.350679 835.725323 403.365762 840.97084 401.9046 C 844.674543 400.867647 851.294285 388.377074 855.752137 379.14819 L 859.941847 371.305053 C 859.941847 371.305053 860.721133 370.070136 860.721133 367.590875 C 860.721133 365.253017 860.344059 359.238688 853.347243 357.523002 C 853.699179 355.845023 852.567957 354.383861 851.813809 353.120664 C 849.853025 349.849548 847.397855 345.418929 842.722138 339.715686 C 839.755824 333.230015 834.426512 322.332579 831.066365 321.738688 C 826.323613 320.918552 816.092341 323.322398 816.092341 324.151961 C 816.092341 324.170814 816.033685 324.604449 816.033685 324.651584 L 795.495726 344.052036 C 795.495726 344.60822 796.585051 358.644796 800.431205 371.050528 C 786.680577 376.056184 769.804424 379.581825 750.020613 379.581825 C 730.228423 379.581825 713.310374 376.065611 699.551366 371.050528 C 703.405899 358.644796 704.520362 344.60822 704.520362 344.052036 L 683.990783 324.651584 C 683.990783 324.604449 683.932127 324.170814 683.932127 324.151961 C 683.932127 323.426094 676.097369 321.474736 670.960784 321.559578 Z M 676.22306 345.6546 C 678.803922 345.62632 681.552371 347.74736 683.814815 350.122926 C 683.7394 350.584842 683.655606 351.065611 683.563432 351.499246 C 682.943355 354.374434 681.870789 358.164027 680.379253 362.123303 C 674.505279 358.691931 669.712251 355.128582 666.067203 351.810332 C 668.296129 349.444193 671.874141 346.210784 675.661639 345.682881 C 675.845986 345.664027 676.030334 345.6546 676.22306 345.6546 Z M 823.776269 345.6546 C 823.968996 345.6546 824.153343 345.6546 824.34607 345.682881 C 828.133568 346.210784 831.736719 349.444193 833.965644 351.810332 C 830.303838 355.138009 825.510809 358.720211 819.620077 362.151584 C 818.12854 358.182881 817.064354 354.374434 816.435897 351.499246 C 816.343724 351.065611 816.25993 350.594268 816.184515 350.122926 C 818.446958 347.74736 821.195408 345.62632 823.776269 345.6546 Z M 657.779956 373.030166 C 660.511647 375.122926 664.072901 377.507919 668.371543 380.024887 C 667.181666 380.788462 665.916373 381.344646 664.592425 381.655732 C 662.824367 382.061086 660.972516 381.985671 659.095525 381.589744 C 658.508966 380.138009 658.01458 378.318627 657.87213 375.877074 C 657.821854 374.924962 657.788336 373.972851 657.779956 373.030166 Z M 842.252891 373.030166 C 842.236132 373.906863 842.185856 374.849548 842.1272 375.867647 C 841.984749 378.318627 841.523881 380.138009 840.937322 381.589744 C 839.060332 381.985671 837.174962 382.061086 835.406905 381.655732 C 834.082956 381.344646 832.851181 380.788462 831.652924 380.024887 C 835.959946 377.498492 839.5212 375.122926 842.252891 373.030166 Z M 842.252891 373.030166 " transform="matrix(0.466172,0,0,0.414375,-155.083828,-7.7775)"/>
<path style="fill-rule:evenodd;fill:url(#linear1);stroke-width:1.16;stroke-linecap:butt;stroke-linejoin:miter;stroke:rgb(0%,0%,0%);stroke-opacity:1;stroke-miterlimit:4;" d="M 445.629438 595.48071 C 445.629438 595.48071 451.253445 586.728801 455.943429 587.351891 C 460.626789 587.982143 465.005432 593.604278 465.316773 593.919404 C 465.628113 594.227368 472.504107 586.728801 472.192766 586.413675 C 471.881426 586.10571 465.005432 569.855233 461.256094 569.232143 C 457.506757 568.601891 449.405273 570.428189 449.405273 571.05128 C 449.405273 571.67437 445.629438 595.48071 445.629438 595.48071 Z M 445.629438 595.48071 " transform="matrix(-0.589688,0,0,0.545417,427.766484,-186.089792)"/>
<path style="fill-rule:evenodd;fill:url(#linear2);stroke-width:1.16;stroke-linecap:butt;stroke-linejoin:miter;stroke:rgb(0%,0%,0%);stroke-opacity:1;stroke-miterlimit:4;" d="M 433.129438 586.112872 C 433.129438 586.735963 435.004107 609.861917 443.132088 617.983575 C 451.253445 626.112395 464.38275 631.11144 469.06611 629.858098 C 473.756094 628.611917 484.381426 605.170837 484.381426 605.170837 C 484.381426 605.170837 473.126789 616.422269 464.694091 614.545837 C 456.254769 612.676566 451.253445 598.610485 449.690117 591.735008 C 448.126789 584.85953 449.378776 571.423701 449.378776 571.423701 Z M 433.129438 586.112872 " transform="matrix(-0.589688,0,0,0.545417,427.766484,-186.089792)"/>
<path style="fill-rule:evenodd;fill:url(#linear3);stroke-width:1.16;stroke-linecap:butt;stroke-linejoin:miter;stroke:rgb(0%,0%,0%);stroke-opacity:1;stroke-miterlimit:4;" d="M 445.631691 595.48071 C 445.631691 595.48071 451.255697 586.728801 455.945681 587.351891 C 460.629041 587.982143 465.007684 593.604278 465.319025 593.919404 C 465.630366 594.227368 472.506359 586.728801 472.195019 586.413675 C 471.877054 586.10571 465.007684 569.855233 461.251722 569.232143 C 457.502385 568.601891 449.407525 570.428189 449.407525 571.05128 C 449.407525 571.67437 445.631691 595.48071 445.631691 595.48071 Z M 445.631691 595.48071 " transform="matrix(0.589688,0,0,0.545417,-39.756094,-186.089792)"/>
<path style="fill-rule:evenodd;fill:url(#linear4);stroke-width:1.16;stroke-linecap:butt;stroke-linejoin:miter;stroke:rgb(0%,0%,0%);stroke-opacity:1;stroke-miterlimit:4;" d="M 433.131691 586.112872 C 433.131691 586.735963 435.006359 609.861917 443.127716 617.983575 C 451.255697 626.112395 464.378378 631.11144 469.068362 629.858098 C 473.751722 628.611917 484.377054 605.170837 484.377054 605.170837 C 484.377054 605.170837 473.129041 616.422269 464.689719 614.545837 C 456.257022 612.676566 451.255697 598.610485 449.692369 591.735008 C 448.129041 584.85953 449.381028 571.423701 449.381028 571.423701 Z M 433.131691 586.112872 " transform="matrix(0.589688,0,0,0.545417,-39.756094,-186.089792)"/>
<path style="fill-rule:evenodd;fill:url(#linear5);stroke-width:1.5;stroke-linecap:butt;stroke-linejoin:miter;stroke:rgb(0%,0%,0%);stroke-opacity:1;stroke-miterlimit:4;" d="M 656.436065 338.55543 C 651.701693 344.343514 649.162728 348.821267 647.193565 352.120664 C 645.216021 355.429487 646.372381 360.029789 650.939165 366.590875 C 655.857885 373.661011 696.313725 401.309955 749.003519 401.309955 C 801.693313 401.309955 842.140774 373.661011 847.067873 366.590875 C 851.626278 360.029789 852.7575 355.429487 850.779956 352.120664 C 848.810793 348.81184 846.305346 344.343514 841.562594 338.55543 C 841.562594 347.237557 808.053293 378.591252 749.003519 378.591252 C 689.953746 378.591252 656.436065 347.237557 656.436065 338.55543 Z M 656.436065 338.55543 " transform="matrix(0.466172,0,0,0.414375,-154.609688,-7.363125)"/>
<path style="fill-rule:evenodd;fill:url(#linear6);stroke-width:1.16;stroke-linecap:butt;stroke-linejoin:miter;stroke:rgb(0%,0%,0%);stroke-opacity:1;stroke-miterlimit:4;" d="M 467.823264 625.480615 C 468.445946 624.542399 475.003975 613.606092 475.003975 613.606092 L 471.406995 611.063598 C 470.300742 614.157563 466.253312 615.167399 465.630631 618.920264 C 465.007949 622.665966 468.445946 626.418831 467.81664 625.480615 Z M 467.823264 625.480615 " transform="matrix(0.589688,0,0,0.545417,-39.365625,-185.604583)"/>
<path style="fill-rule:evenodd;fill:url(#linear7);stroke-width:1.16;stroke-linecap:butt;stroke-linejoin:miter;stroke:rgb(0%,0%,0%);stroke-opacity:1;stroke-miterlimit:4;" d="M 474.997085 622.98262 C 474.997085 622.98262 476.249073 617.668449 472.188394 617.045359 C 468.127716 616.415107 465.974828 620.017571 466.564388 618.606665 C 467.220191 617.038197 469.691044 615.476891 470.002385 610.169882 C 470.313725 604.85571 469.691044 602.041062 469.691044 602.041062 C 469.691044 602.041062 471.247748 595.165584 477.812401 596.103801 C 484.377054 597.042017 484.688394 602.041062 484.688394 603.917494 C 484.688394 605.793927 484.065713 606.732143 484.065713 606.732143 Z M 474.997085 622.98262 " transform="matrix(0.589688,0,0,0.545417,-39.756094,-186.089792)"/>
<path style=" stroke:none;fill-rule:nonzero;fill:rgb(0%,0%,0%);fill-opacity:1;" d="M 226.433594 143.910156 L 227.21875 145.132812 L 227.75 144.839844 L 227.398438 144.03125 L 227.460938 143.875 L 228.386719 143.363281 L 230.804688 147.117188 L 230.742188 147.300781 L 230.265625 147.613281 L 230.484375 147.953125 L 232.785156 146.675781 L 232.566406 146.335938 L 232.042969 146.582031 L 231.84375 146.542969 L 229.425781 142.785156 L 230.347656 142.273438 L 230.523438 142.296875 L 231.128906 142.964844 L 231.660156 142.671875 L 230.875 141.449219 Z M 220.753906 146.804688 L 220.945312 147.15625 L 221.429688 146.972656 L 221.621094 147.03125 L 223.695312 150.839844 L 223.628906 151.015625 L 223.183594 151.269531 L 223.375 151.621094 L 225.640625 150.558594 L 225.449219 150.207031 L 224.949219 150.398438 L 224.757812 150.34375 L 223.773438 148.535156 L 226.085938 147.449219 L 227.070312 149.257812 L 227.015625 149.429688 L 226.554688 149.6875 L 226.746094 150.039062 L 229.003906 148.980469 L 228.8125 148.628906 L 228.328125 148.8125 L 228.136719 148.757812 L 226.0625 144.945312 L 226.125 144.769531 L 226.570312 144.515625 L 226.378906 144.164062 L 224.125 145.222656 L 224.3125 145.574219 L 224.816406 145.386719 L 225 145.445312 L 225.851562 147.015625 L 223.539062 148.101562 L 222.683594 146.53125 L 222.75 146.355469 L 223.210938 146.09375 L 223.019531 145.742188 Z M 219.421875 150.046875 L 219.546875 150.421875 L 220.195312 150.285156 L 220.367188 150.355469 L 220.875 151.925781 C 220.65625 152.003906 220.496094 152.058594 220.410156 152.082031 C 219.085938 152.449219 218.015625 151.863281 217.570312 150.476562 C 217.132812 149.128906 217.664062 148.109375 218.945312 147.753906 C 219.1875 147.683594 219.445312 147.65625 219.699219 147.675781 L 219.871094 147.78125 L 220.296875 148.550781 L 220.925781 148.378906 L 220.503906 147.066406 C 219.8125 147.074219 219.175781 147.160156 218.605469 147.316406 C 216.699219 147.847656 215.8125 149.242188 216.324219 150.824219 C 216.839844 152.425781 218.417969 153.195312 220.222656 152.695312 C 220.847656 152.519531 221.449219 152.234375 222.046875 151.84375 L 221.464844 150.050781 L 221.566406 149.902344 L 222.054688 149.726562 L 221.933594 149.347656 Z M 214.109375 154.476562 L 216.671875 153.761719 L 216.542969 153.382812 L 215.957031 153.503906 L 215.777344 153.421875 L 214.390625 149.320312 L 214.488281 149.175781 L 215.050781 148.976562 L 214.921875 148.597656 L 212.363281 149.316406 L 212.488281 149.691406 L 213.066406 149.574219 L 213.242188 149.640625 L 214.628906 153.742188 L 214.535156 153.902344 L 213.980469 154.101562 Z M 200.242188 156.492188 L 204.753906 156.125 L 204.613281 154.691406 L 204.042969 154.738281 L 203.980469 155.601562 L 203.886719 155.738281 L 201.9375 155.894531 L 201.738281 153.8125 L 202.828125 153.722656 L 202.957031 153.828125 L 203.097656 154.394531 L 203.59375 154.355469 L 203.414062 152.496094 L 202.917969 152.535156 L 202.890625 153.121094 L 202.78125 153.242188 L 201.691406 153.332031 L 201.507812 151.425781 L 203.179688 151.289062 L 203.300781 151.382812 L 203.492188 152.078125 L 204.078125 152.03125 L 203.960938 150.773438 L 199.726562 151.117188 L 199.765625 151.511719 L 200.28125 151.507812 L 200.425781 151.609375 L 200.835938 155.878906 L 200.714844 156.019531 L 200.207031 156.101562 Z M 193.53125 151.210938 L 193.539062 151.605469 L 194.027344 151.636719 L 194.167969 151.761719 L 194.25 156.03125 L 194.117188 156.164062 L 193.628906 156.210938 L 193.636719 156.605469 L 196.023438 156.566406 L 196.015625 156.171875 L 195.507812 156.140625 L 195.371094 156.015625 L 195.332031 153.988281 L 197.765625 153.949219 L 197.804688 155.976562 L 197.683594 156.109375 L 197.179688 156.15625 L 197.1875 156.550781 L 199.5625 156.511719 L 199.554688 156.117188 L 199.066406 156.085938 L 198.929688 155.960938 L 198.84375 151.691406 L 198.976562 151.558594 L 199.464844 151.511719 L 199.457031 151.117188 L 197.078125 151.152344 L 197.085938 151.546875 L 197.59375 151.582031 L 197.722656 151.707031 L 197.757812 153.46875 L 195.320312 153.507812 L 195.289062 151.746094 L 195.417969 151.613281 L 195.925781 151.566406 L 195.917969 151.171875 Z M 188.414062 151.058594 L 188.398438 152.480469 L 188.980469 152.488281 L 189.125 151.628906 L 189.257812 151.527344 L 190.269531 151.535156 L 190.226562 155.910156 L 190.078125 156.039062 L 189.53125 156.070312 L 189.527344 156.464844 L 192.046875 156.492188 L 192.050781 156.097656 L 191.503906 156.050781 L 191.363281 155.921875 L 191.410156 151.546875 L 192.421875 151.558594 L 192.546875 151.664062 L 192.679688 152.527344 L 193.261719 152.535156 L 193.277344 151.109375 Z M 180.648438 155.605469 L 185.058594 155.800781 L 185.128906 154.363281 L 184.570312 154.335938 L 184.386719 155.183594 L 184.273438 155.304688 L 182.371094 155.222656 L 182.472656 153.132812 L 183.539062 153.179688 L 183.648438 153.296875 L 183.703125 153.878906 L 184.1875 153.902344 L 184.28125 152.039062 L 183.796875 152.015625 L 183.683594 152.59375 L 183.566406 152.699219 L 182.496094 152.652344 L 182.59375 150.742188 L 184.226562 150.8125 L 184.328125 150.921875 L 184.414062 151.632812 L 184.988281 151.660156 L 185.050781 150.398438 L 180.917969 150.214844 L 180.894531 150.609375 L 181.394531 150.671875 L 181.519531 150.789062 L 181.308594 155.070312 L 181.171875 155.195312 L 180.667969 155.210938 Z M 170.550781 153.28125 L 172.890625 153.984375 L 173.019531 153.609375 L 172.507812 153.414062 L 172.425781 153.253906 L 173.835938 149.175781 L 173.996094 149.105469 L 174.535156 149.222656 L 174.664062 148.847656 L 172.324219 148.148438 L 172.195312 148.523438 L 172.699219 148.714844 L 172.785156 148.859375 L 171.378906 152.9375 L 171.210938 153.023438 L 170.679688 152.90625 Z M 166.390625 151.847656 C 166.816406 152.15625 167.296875 152.394531 167.816406 152.550781 C 169.097656 152.933594 170.117188 152.515625 170.429688 151.605469 C 170.585938 151.152344 170.476562 150.664062 170.121094 150.246094 C 169.761719 149.816406 169.386719 149.578125 169.195312 149.359375 C 168.863281 148.988281 168.722656 148.695312 168.847656 148.34375 C 168.992188 147.921875 169.449219 147.722656 170.019531 147.890625 C 170.269531 147.96875 170.4375 148.058594 170.554688 148.167969 L 170.628906 148.308594 L 170.484375 149.144531 L 171.050781 149.316406 L 171.476562 148.074219 C 171.042969 147.757812 170.582031 147.519531 170.097656 147.375 C 168.976562 147.039062 168.023438 147.480469 167.730469 148.328125 C 167.601562 148.703125 167.65625 149.132812 167.914062 149.539062 C 168.160156 149.925781 168.484375 150.167969 168.742188 150.414062 C 169.203125 150.855469 169.390625 151.214844 169.25 151.628906 C 169.101562 152.050781 168.621094 152.242188 167.988281 152.054688 C 167.753906 151.980469 167.53125 151.875 167.335938 151.738281 L 167.273438 151.59375 L 167.46875 150.640625 L 166.871094 150.460938 L 166.394531 151.847656 Z M 161.105469 149.878906 L 165.089844 151.648438 L 165.753906 150.351562 L 165.25 150.128906 L 164.730469 150.839844 L 164.574219 150.914062 L 162.855469 150.148438 L 163.820312 148.261719 L 164.785156 148.691406 L 164.839844 148.839844 L 164.644531 149.394531 L 165.082031 149.589844 L 165.945312 147.90625 L 165.507812 147.710938 L 165.164062 148.199219 L 165.007812 148.253906 L 164.042969 147.828125 L 164.929688 146.101562 L 166.40625 146.757812 L 166.453125 146.894531 L 166.238281 147.582031 L 166.757812 147.8125 L 167.339844 146.675781 L 163.601562 145.011719 L 163.421875 145.367188 L 163.855469 145.605469 L 163.921875 145.757812 L 161.9375 149.625 L 161.757812 149.6875 L 161.289062 149.523438 Z M 160.4375 143.4375 L 158.429688 142.207031 L 158.199219 142.539062 L 158.59375 142.828125 L 158.628906 143.003906 L 156.105469 146.566406 L 155.917969 146.609375 L 155.476562 146.386719 L 155.242188 146.714844 L 157.246094 147.941406 C 157.933594 148.363281 158.519531 148.578125 159.171875 148.515625 C 160.023438 148.4375 160.75 148 161.3125 147.207031 C 162.308594 145.796875 162.027344 144.414062 160.433594 143.4375 Z M 159.601562 143.464844 L 160 143.707031 C 161.089844 144.375 161.183594 145.3125 160.292969 146.574219 C 159.402344 147.835938 158.433594 148.128906 157.339844 147.460938 L 156.941406 147.214844 Z M 175.566406 149.019531 L 175.480469 149.40625 L 175.945312 149.539062 L 176.046875 149.675781 L 175.074219 153.867188 L 174.917969 153.96875 L 174.433594 153.914062 L 174.34375 154.296875 L 176.609375 154.742188 L 176.699219 154.359375 L 176.21875 154.222656 L 176.121094 154.074219 L 176.53125 152.300781 L 176.667969 152.328125 C 177.476562 152.488281 177.609375 152.867188 177.683594 153.664062 C 177.726562 154.066406 177.714844 154.433594 178.058594 154.832031 C 178.21875 155.019531 178.492188 155.171875 178.839844 155.238281 C 179.109375 155.289062 179.382812 155.320312 179.65625 155.335938 L 179.746094 154.957031 L 179.640625 154.9375 C 179.101562 154.832031 178.890625 154.664062 178.820312 154.199219 C 178.757812 153.777344 178.792969 153.339844 178.625 152.945312 C 178.496094 152.65625 178.257812 152.453125 177.894531 152.289062 C 178.839844 152.304688 179.417969 151.941406 179.585938 151.21875 C 179.789062 150.34375 179.257812 149.746094 178.011719 149.5 L 175.570312 149.019531 Z M 177.109375 149.792969 L 177.480469 149.863281 C 178.257812 150.019531 178.585938 150.460938 178.4375 151.105469 C 178.269531 151.828125 177.78125 152.078125 176.921875 151.910156 C 176.832031 151.890625 176.738281 151.875 176.636719 151.84375 Z M 206.632812 150.25 L 206.703125 150.636719 L 207.230469 150.597656 L 207.394531 150.6875 L 208.144531 154.917969 L 208.023438 155.066406 L 207.507812 155.1875 L 207.578125 155.574219 L 210.074219 155.195312 L 210.003906 154.804688 L 209.457031 154.847656 L 209.292969 154.742188 L 208.976562 152.957031 L 209.128906 152.933594 C 210.019531 152.800781 210.3125 153.105469 210.71875 153.820312 C 210.929688 154.175781 211.074219 154.523438 211.589844 154.769531 C 211.828125 154.886719 212.171875 154.933594 212.554688 154.875 C 212.847656 154.828125 213.140625 154.761719 213.425781 154.679688 L 213.359375 154.296875 L 213.242188 154.316406 C 212.652344 154.40625 212.363281 154.324219 212.101562 153.917969 C 211.863281 153.546875 211.714844 153.128906 211.378906 152.820312 C 211.128906 152.597656 210.800781 152.492188 210.363281 152.46875 C 211.332031 152.152344 211.773438 151.613281 211.644531 150.882812 C 211.488281 150 210.695312 149.632812 209.324219 149.839844 Z M 208.527344 150.425781 L 208.933594 150.363281 C 209.792969 150.234375 210.308594 150.53125 210.425781 151.179688 C 210.554688 151.910156 210.164062 152.3125 209.214844 152.457031 C 209.117188 152.472656 209.011719 152.488281 208.894531 152.496094 Z M 208.527344 150.425781 "/>
<path style="fill-rule:evenodd;fill:url(#linear8);stroke-width:1.16;stroke-linecap:butt;stroke-linejoin:miter;stroke:rgb(0%,0%,0%);stroke-opacity:1;stroke-miterlimit:4;" d="M 467.821542 625.480615 C 468.444224 624.542399 475.008877 613.606092 475.008877 613.606092 L 471.411897 611.063598 C 470.305644 614.157563 466.258214 615.167399 465.628908 618.920264 C 465.006227 622.665966 468.444224 626.418831 467.821542 625.480615 Z M 467.821542 625.480615 " transform="matrix(-0.589688,0,0,0.545417,427.391953,-185.604583)"/>
<path style="fill-rule:evenodd;fill:url(#linear9);stroke-width:1.16;stroke-linecap:butt;stroke-linejoin:miter;stroke:rgb(0%,0%,0%);stroke-opacity:1;stroke-miterlimit:4;" d="M 475.001457 622.98262 C 475.001457 622.98262 476.24682 617.668449 472.186142 617.045359 C 468.125464 616.415107 465.972576 620.017571 466.562136 618.606665 C 467.217939 617.038197 469.688792 615.476891 470.000132 610.169882 C 470.311473 604.85571 469.688792 602.041062 469.688792 602.041062 C 469.688792 602.041062 471.25212 595.165584 477.810148 596.103801 C 484.374801 597.042017 484.686142 602.041062 484.686142 603.917494 C 484.686142 605.793927 484.063461 606.732143 484.063461 606.732143 Z M 475.001457 622.98262 " transform="matrix(-0.589688,0,0,0.545417,427.766484,-186.089792)"/>
<path style="fill-rule:evenodd;fill:rgb(0%,44.705882%,76.862745%);fill-opacity:0.996078;stroke-width:3.867;stroke-linecap:butt;stroke-linejoin:miter;stroke:rgb(100%,100%,100%);stroke-opacity:1;stroke-miterlimit:4;" d="M 396.851219 605.9089 C 396.851219 605.9089 321.420641 584.652215 321.857843 503.77225 L 322.440779 396.858575 L 471.261659 396.858575 L 471.844595 503.163484 C 472.281797 584.043449 396.851219 605.923224 396.851219 605.923224 Z M 396.851219 605.9089 " transform="matrix(0.589688,0,0,0.545417,-39.576797,-184.68375)"/>
<path style=" stroke:none;fill-rule:evenodd;fill:rgb(73.72549%,73.72549%,73.72549%);fill-opacity:1;" d="M 156.308594 45.675781 C 156.382812 45.675781 156.921875 45.21875 157.414062 44.820312 C 158.101562 44.515625 158.738281 44.082031 159.4375 43.792969 C 159.957031 43.527344 160.988281 43.320312 161.460938 43.109375 C 162.078125 42.824219 162.585938 42.492188 163.117188 41.914062 C 163.179688 41.148438 163.300781 40.601562 163.300781 39.691406 C 164.03125 39.378906 164.679688 39.074219 165.324219 38.835938 C 166.242188 38.605469 166.441406 38.277344 167.347656 38.152344 C 167.929688 37.972656 168.886719 37.980469 169.738281 37.980469 C 170.652344 37.980469 171.230469 38.558594 172.050781 38.695312 C 173.027344 39.046875 173.484375 39.289062 174.257812 39.894531 C 174.699219 40.386719 174.972656 40.789062 175.71875 41.160156 C 176.3125 41.429688 176.867188 41.839844 177.558594 42.015625 C 178.320312 42.40625 178.992188 42.632812 179.582031 43.210938 C 180.121094 43.554688 180.347656 44.0625 180.871094 44.410156 C 181.476562 44.855469 182.054688 45.261719 182.710938 45.605469 C 183.496094 46.074219 184.28125 46.429688 185.554688 46.328125 C 186.230469 46.292969 186.960938 46.226562 187.761719 46.359375 C 188.664062 46.359375 189.542969 46.34375 190.339844 46.53125 C 191.277344 46.53125 192.035156 46.644531 192.914062 46.699219 C 193.734375 46.835938 194.574219 46.871094 195.488281 46.871094 C 196.285156 47.058594 197.164062 47.042969 198.066406 47.042969 L 203.214844 47.042969 C 204.152344 47.042969 205.101562 47.078125 205.789062 47.214844 C 206.71875 47.214844 207.515625 47.136719 208.363281 47.042969 C 209.363281 47.042969 210.125 46.878906 211.125 46.871094 L 214.253906 46.871094 C 215.054688 47.066406 216.082031 47.199219 216.644531 47.554688 C 217.378906 47.742188 217.746094 48.050781 218.480469 48.238281 C 219.046875 48.496094 219.902344 48.902344 220.320312 49.4375 C 220.839844 49.917969 221.375 50.609375 221.792969 51.316406 C 222.304688 51.972656 222.5 52.722656 222.898438 53.539062 C 223.105469 54.320312 223.253906 55.0625 223.265625 55.933594 C 223.464844 56.671875 223.449219 57.488281 223.449219 58.324219 C 223.238281 59.105469 223.191406 59.972656 222.898438 60.71875 C 222.863281 61.554688 222.679688 62.308594 222.53125 62.941406 C 222.367188 63.640625 222.171875 64.089844 222.160156 64.992188 L 222.160156 67.386719 C 222.097656 68.171875 221.902344 68.75 221.792969 69.609375 C 221.347656 70.355469 220.921875 71.230469 220.507812 72.171875 C 219.894531 72.554688 219.363281 73.09375 219.035156 73.542969 C 218.640625 73.757812 218.414062 74.082031 218.484375 74.226562 C 219.21875 74.453125 219.035156 74.90625 219.035156 75.765625 C 219.128906 76.421875 219.203125 77.242188 219.402344 77.988281 C 219.46875 78.800781 219.667969 79.300781 219.953125 79.867188 C 220.246094 80.203125 220.300781 80.039062 219.585938 80.039062 C 219.054688 80.410156 218.515625 80.214844 218.300781 79.523438 C 217.871094 79.0625 217.730469 78.507812 217.5625 77.644531 C 217.460938 76.851562 217.320312 76.082031 217.011719 75.59375 C 216.917969 74.628906 216.628906 74.640625 215.539062 74.566406 C 215.023438 74.160156 214.339844 74.054688 213.332031 74.054688 C 212.332031 74.054688 212.246094 73.964844 212.230469 74.910156 L 212.230469 77.300781 C 212.054688 77.996094 211.675781 78.558594 211.492188 79.183594 C 210.945312 79.539062 210.660156 80.140625 210.023438 80.550781 C 209.71875 81.328125 209.277344 81.460938 208.367188 81.578125 C 208.046875 81.222656 207.527344 80.761719 207.261719 80.378906 C 207.777344 79.613281 208.226562 79.496094 208.550781 78.671875 C 208.941406 77.988281 209.171875 77.546875 209.46875 76.960938 C 209.078125 76.421875 208.722656 76.179688 208.367188 75.421875 C 208.0625 75.007812 207.644531 74.117188 207.445312 73.539062 C 206.84375 73.355469 205.890625 73.324219 205.421875 73.027344 C 204.53125 72.84375 204.28125 73.710938 203.214844 73.710938 L 200.640625 73.710938 C 199.5 73.710938 199.21875 74.277344 198.25 74.226562 C 197.964844 74.308594 197.273438 74.1875 196.226562 74.226562 C 195.457031 74.460938 194.53125 74.394531 193.648438 74.394531 C 192.71875 74.382812 191.953125 74.195312 191.257812 74.054688 C 190.414062 73.847656 189.574219 73.640625 188.683594 73.539062 C 187.605469 73.539062 187.203125 73.617188 186.476562 74.054688 C 185.902344 74.355469 185.070312 75.046875 184.453125 75.421875 C 184.191406 75.988281 184.054688 76.949219 183.71875 77.644531 C 183.523438 78.3125 183.203125 78.734375 182.980469 79.355469 C 182.734375 79.933594 182.496094 80.527344 182.429688 81.40625 C 182.367188 82.558594 182.085938 82.417969 181.324219 82.089844 C 181.011719 81.613281 180.507812 81.085938 180.222656 80.550781 C 180.390625 79.679688 180.578125 79.246094 180.589844 78.328125 C 180.410156 77.664062 179.992188 77.6875 179.488281 78.15625 C 179.488281 79.050781 179.535156 79.742188 179.117188 80.207031 C 178.910156 80.914062 178.578125 81.21875 178.015625 81.578125 C 177.738281 82.210938 177.128906 82.5 176.542969 82.773438 C 176.449219 82.746094 176.542969 82.542969 176.542969 82.089844 C 176.101562 81.308594 176.511719 80.660156 176.511719 79.695312 C 176.523438 78.832031 176.46875 78.261719 176.75 77.472656 C 176.75 76.644531 176.316406 75.855469 176.175781 75.25 C 175.835938 74.617188 175.636719 74.300781 174.703125 74.054688 C 174.050781 73.824219 173.105469 73.507812 172.679688 73.027344 C 172.148438 72.410156 171.804688 72.160156 171.027344 71.832031 C 170.179688 71.558594 169.769531 71.308594 169.1875 70.976562 C 168.617188 70.417969 168.15625 70.175781 167.898438 69.4375 C 167.515625 68.910156 167.449219 67.933594 167.164062 67.214844 C 167.101562 66.464844 166.859375 65.765625 166.613281 65.164062 C 166.503906 64.414062 166.371094 63.863281 166.058594 63.113281 C 165.957031 62.410156 165.730469 61.675781 165.507812 60.890625 C 165.507812 60.054688 165.523438 59.238281 165.324219 58.496094 L 165.324219 56.101562 C 165.191406 55.414062 165.144531 54.398438 164.957031 53.878906 C 164.957031 52.949219 164.84375 52.425781 164.589844 51.828125 C 164.167969 51.226562 164.132812 50.953125 163.484375 50.804688 C 163.015625 51.335938 162.246094 51.550781 161.277344 51.660156 C 160.601562 51.519531 159.648438 51.433594 158.886719 51.144531 C 158.148438 50.984375 157.644531 50.722656 157.046875 50.460938 C 156.71875 50.015625 156.328125 49.507812 155.941406 49.09375 C 155.828125 48.199219 155.609375 47.742188 155.574219 46.871094 C 155.574219 46.21875 155.59375 46.566406 156.3125 45.675781 Z M 156.308594 45.675781 "/>
<path style=" stroke:none;fill-rule:evenodd;fill:rgb(99.607843%,99.607843%,99.607843%);fill-opacity:1;" d="M 167.203125 51.835938 L 167.335938 51.714844 C 167.039062 51.988281 167.148438 51.855469 167.855469 51.59375 C 168.25 51.371094 169.003906 50.980469 169.285156 50.746094 C 169.625 50.609375 170.167969 50.425781 170.457031 50.140625 C 170.820312 49.800781 171.179688 49.511719 171.625 49.175781 C 172.140625 48.785156 172.621094 48.660156 173.1875 48.328125 C 173.925781 48.28125 174.191406 48 174.878906 48.207031 C 175.523438 48.339844 175.792969 48.339844 176.308594 47.84375 C 176.832031 47.546875 177.40625 47.257812 177.609375 46.757812 L 177.609375 46.03125 C 177.601562 46.820312 177.441406 47.078125 176.828125 47.359375 C 176.40625 47.792969 175.875 48.285156 175.660156 48.691406 C 175.246094 49.222656 175.160156 49.519531 174.75 49.78125 C 174.414062 50.160156 173.835938 50.363281 173.710938 50.988281 C 173.894531 51.277344 173.726562 51.433594 174.097656 51.472656 C 174.476562 51.757812 174.867188 51.636719 175.398438 51.472656 C 175.929688 50.925781 176.167969 50.574219 176.441406 50.019531 C 176.875 49.492188 177.121094 49.238281 177.351562 48.8125 C 177.800781 48.519531 178.089844 48.292969 178.261719 47.84375 C 178.785156 47.574219 179.214844 47.285156 179.5625 47 C 179.949219 46.777344 180.15625 46.597656 180.730469 46.515625 C 180.722656 47.164062 180.617188 47.472656 180.34375 47.84375 C 180.210938 48.519531 180.238281 48.835938 180.472656 49.296875 C 180.84375 49.5 180.78125 49.679688 180.992188 50.140625 C 181.203125 49.742188 181.3125 48.933594 181.382812 48.449219 L 181.382812 48.328125 C 181.382812 48.855469 181.4375 49.558594 181.253906 49.898438 C 181.261719 50.605469 181.4375 50.917969 181.644531 51.472656 C 181.863281 51.738281 182.015625 51.910156 182.292969 52.074219 C 182.320312 51.378906 182.515625 50.917969 182.554688 50.261719 C 182.734375 50.769531 182.671875 51.4375 182.8125 51.953125 C 182.859375 52.523438 183.09375 52.964844 183.332031 53.40625 C 183.628906 53.570312 183.730469 54.046875 183.851562 53.648438 C 184.160156 52.796875 184.167969 51.867188 184.375 50.988281 C 184.410156 50.542969 184.453125 49.878906 184.632812 49.539062 L 184.375 50.988281 C 184.410156 50.542969 184.453125 49.878906 184.632812 49.539062 L 184.632812 49.417969 C 184.757812 50.054688 184.871094 50.667969 184.894531 51.351562 C 184.894531 51.894531 184.855469 52.449219 185.023438 52.921875 C 185.457031 52.742188 185.707031 52.328125 185.9375 51.832031 C 186.28125 51.25 186.519531 50.988281 186.976562 50.503906 L 185.9375 51.832031 C 186.28125 51.25 186.519531 50.988281 186.976562 50.503906 L 186.976562 50.382812 C 186.902344 50.941406 186.847656 51.464844 186.847656 52.074219 C 186.847656 52.632812 186.839844 53.265625 186.976562 53.648438 C 187.128906 54.289062 187.339844 54.40625 187.367188 55.097656 C 187.367188 55.433594 187.316406 55.777344 187.496094 55.945312 C 188.058594 56.074219 188.058594 55.785156 188.148438 55.097656 C 188.152344 54.316406 188.378906 53.785156 188.40625 53.042969 C 188.40625 52.125 188.550781 53.15625 188.667969 53.527344 C 188.929688 54.066406 189.011719 54.542969 189.058594 55.097656 C 189.058594 55.433594 189.007812 55.777344 189.1875 55.945312 C 189.6875 55.757812 189.886719 55.238281 190.226562 54.976562 C 190.488281 54.40625 190.753906 54.152344 191.007812 53.769531 C 191.683594 53.644531 191.648438 53.398438 191.65625 52.679688 C 191.65625 52.101562 191.605469 51.492188 191.789062 50.988281 C 191.996094 50.460938 192.195312 49.878906 192.308594 49.417969 C 192.550781 49.289062 192.816406 49.605469 192.957031 49.902344 C 193.242188 50.289062 193.21875 50.859375 193.21875 51.472656 C 193.34375 52.007812 193.59375 52.425781 193.867188 52.921875 C 194.195312 53.480469 194.460938 53.820312 194.78125 54.132812 C 194.917969 54.515625 194.910156 55.144531 194.910156 55.703125 C 195.417969 55.191406 195.511719 54.429688 195.558594 53.648438 C 195.492188 53.117188 195.480469 52.457031 195.300781 51.957031 C 195.277344 51.421875 195.171875 50.875 195.039062 50.503906 C 194.601562 50.316406 194.53125 50.152344 194.910156 49.660156 C 195.328125 49.335938 195.78125 49.460938 196.472656 49.539062 C 196.820312 49.863281 196.964844 50.035156 196.992188 50.746094 C 196.992188 51.390625 197.019531 51.886719 197.25 52.316406 C 197.507812 52.664062 197.757812 52.90625 197.898438 53.527344 C 198.101562 53.679688 198.253906 53.921875 198.550781 53.648438 C 198.714844 53.292969 198.808594 52.5625 198.941406 52.195312 C 199.070312 51.738281 199.296875 51.511719 199.59375 51.351562 C 199.59375 52.023438 199.582031 52.4375 199.851562 52.921875 C 200.105469 53.460938 200.285156 53.664062 200.5 54.253906 C 200.78125 54.425781 200.816406 54.792969 201.152344 54.976562 C 201.230469 54.410156 201.28125 53.761719 201.28125 53.042969 L 201.28125 51.351562 C 201.332031 50.777344 201.488281 50.453125 201.671875 50.023438 C 202.089844 50.484375 202.0625 50.679688 202.0625 51.351562 C 202.492188 51.210938 202.5625 50.9375 202.714844 50.507812 C 203.019531 50.265625 203.101562 50.15625 203.234375 50.746094 C 203.324219 51.378906 203.5 51.949219 203.625 52.5625 C 203.890625 52.839844 204.199219 53.515625 204.535156 53.769531 C 204.761719 54.117188 205.019531 54.449219 205.316406 54.738281 C 205.519531 55.132812 205.570312 55.34375 206.09375 55.460938 C 206.09375 54.644531 206.125 53.824219 205.964844 53.042969 C 205.964844 52.351562 205.796875 52.101562 205.707031 51.472656 C 205.488281 51.054688 205.359375 50.441406 205.445312 50.265625 C 206.054688 50.800781 206.328125 51.113281 206.617188 51.714844 C 206.921875 52.296875 207.175781 52.6875 207.394531 53.285156 C 207.695312 53.515625 208.230469 54.203125 208.4375 54.496094 C 208.898438 54.863281 209.125 55.25 209.605469 55.582031 C 209.855469 55.792969 210.378906 55.90625 210.515625 55.824219 C 210.492188 55.117188 210.371094 54.507812 210.125 53.890625 C 210.117188 53.214844 209.945312 52.847656 209.738281 52.441406 C 209.226562 52.046875 208.835938 51.78125 208.566406 51.230469 C 208.363281 51.078125 208.324219 50.964844 208.304688 50.628906 C 209.054688 51.175781 209.574219 51.667969 210.125 52.320312 C 210.5 52.75 210.6875 52.945312 211.167969 53.167969 C 211.425781 53.425781 212.179688 53.746094 212.726562 53.890625 C 213.054688 54.277344 213.492188 54.5 214.027344 54.617188 L 212.726562 53.890625 C 213.054688 54.277344 213.492188 54.5 214.027344 54.617188 L 214.027344 54.738281 C 213.964844 53.980469 213.652344 53.429688 213.25 52.804688 C 212.910156 52.140625 212.597656 51.898438 212.078125 51.472656 C 211.738281 50.996094 211.355469 50.710938 210.777344 50.386719 C 210.417969 50.011719 209.882812 49.386719 209.605469 49.175781 C 210.160156 48.867188 210.8125 49.386719 211.429688 49.660156 C 211.9375 50.148438 212.410156 50.785156 212.730469 51.109375 C 213.074219 51.730469 213.339844 52.117188 213.898438 52.683594 C 214.460938 52.976562 214.847656 53.269531 215.332031 53.648438 C 216.074219 53.832031 215.777344 53.589844 215.589844 53.046875 C 215.332031 52.363281 215.5625 52.351562 216.109375 52.804688 C 216.472656 53.03125 216.875 53.414062 217.410156 53.648438 C 217.640625 53.917969 217.992188 54.0625 218.320312 53.890625 C 218.457031 53.722656 218.453125 53.738281 218.453125 53.527344 C 218.175781 52.777344 217.921875 52.195312 217.28125 51.957031 C 216.984375 51.625 216.507812 51.226562 216.109375 50.867188 C 215.851562 50.515625 215.550781 50.3125 215.328125 49.902344 L 216.109375 50.867188 C 215.851562 50.515625 215.550781 50.3125 215.328125 49.902344 L 215.199219 49.902344 C 215.984375 49.929688 216.265625 50.105469 216.890625 50.386719 C 217.335938 50.53125 217.816406 50.910156 218.0625 51.230469 C 218.3125 51.53125 218.71875 51.851562 218.972656 52.199219 C 219.371094 52.472656 219.8125 52.785156 220.273438 53.046875 C 220.707031 53.550781 220.78125 53.878906 220.792969 54.617188 C 221.042969 54.957031 221.085938 55.65625 221.183594 56.066406 C 221.085938 56.730469 220.832031 56.210938 220.792969 55.824219 C 220.683594 55.292969 220.453125 55.320312 220.011719 55.464844 C 220.011719 56.195312 220.101562 56.394531 220.402344 56.914062 C 220.320312 57.414062 220.132812 57.777344 219.882812 58.121094 C 219.578125 58.285156 219.511719 57.765625 219.234375 57.519531 C 219.203125 56.769531 218.964844 56.6875 218.453125 56.308594 L 218.453125 56.792969 C 218.742188 57.308594 219.046875 57.78125 219.101562 58.484375 C 219.304688 59.023438 219.363281 59.363281 219.363281 60.058594 C 219.363281 60.648438 219.371094 61.226562 219.230469 61.75 C 219.230469 62.40625 219.109375 62.6875 219.101562 63.320312 L 219.101562 66.707031 C 219.003906 67.132812 218.972656 67.691406 218.972656 68.277344 L 219.101562 66.707031 C 219.003906 67.132812 218.972656 67.691406 218.972656 68.277344 L 218.972656 68.398438 C 218.726562 67.789062 218.457031 67.242188 218.320312 66.585938 C 217.898438 66.214844 217.632812 65.832031 217.410156 65.375 C 217.3125 64.855469 217.25 64.222656 217.152344 63.804688 C 216.96875 63.378906 216.773438 62.921875 216.371094 63.199219 C 216.210938 64.101562 216.410156 64.636719 216.761719 65.496094 C 216.964844 66.066406 216.941406 66.511719 217.152344 67.066406 C 217.453125 67.707031 217.695312 67.800781 217.152344 68.519531 C 216.882812 68.902344 216.738281 69.023438 216.628906 69.484375 C 216.148438 69.710938 216.027344 69.808594 215.980469 70.332031 C 215.816406 69.863281 215.425781 69.3125 215.199219 68.761719 C 214.964844 68.183594 214.679688 67.585938 214.550781 67.066406 C 214.234375 66.664062 213.863281 66.007812 213.507812 65.738281 C 213.179688 65.347656 212.710938 64.695312 212.46875 64.289062 C 211.96875 63.773438 211.859375 63.472656 211.425781 63.199219 C 211.316406 62.957031 211.183594 62.65625 210.90625 62.835938 C 210.90625 63.414062 210.855469 64.023438 211.039062 64.53125 C 211.167969 65.242188 211.398438 65.636719 211.425781 66.34375 L 211.425781 67.671875 C 211.113281 66.992188 210.78125 66.382812 210.515625 65.738281 C 210.234375 65.378906 209.953125 64.675781 209.605469 64.410156 C 209.386719 63.941406 209.210938 63.550781 208.957031 63.199219 C 208.890625 62.847656 208.714844 62.855469 208.566406 62.597656 C 208.574219 63.28125 208.808594 63.523438 208.957031 64.046875 C 209.210938 64.507812 209.289062 65.277344 209.214844 65.496094 C 208.886719 64.648438 208.589844 63.722656 208.175781 62.957031 C 207.78125 62.460938 207.398438 61.824219 207.136719 61.386719 C 206.75 60.972656 206.351562 60.957031 205.964844 60.660156 C 205.613281 60.507812 205.277344 60.335938 205.054688 60.058594 C 205.15625 60.695312 205.425781 61.09375 205.574219 61.628906 C 205.660156 62.238281 205.960938 62.722656 206.09375 63.199219 C 205.949219 64.027344 205.742188 62.972656 205.574219 62.597656 C 205.4375 61.914062 205.183594 61.539062 204.925781 61.144531 C 204.574219 60.925781 204.257812 60.535156 203.882812 60.300781 C 203.519531 60.167969 203.625 60.324219 203.625 60.78125 C 203.625 61.53125 203.652344 62.023438 203.882812 62.476562 C 204.144531 62.828125 204.144531 63.292969 204.144531 63.925781 C 204.121094 64.519531 204.015625 65 204.015625 65.617188 L 204.015625 66.582031 C 203.714844 66.070312 203.433594 65.777344 203.234375 65.132812 C 202.78125 64.582031 202.648438 64.179688 202.324219 63.5625 C 202.035156 63.453125 201.566406 63.363281 201.28125 63.5625 C 201.332031 64.171875 201.636719 64.441406 201.671875 65.132812 C 201.15625 65.605469 201.25 65.738281 200.894531 65.011719 C 200.597656 64.460938 200.25 64.488281 199.851562 64.164062 C 199.199219 64.089844 199.40625 63.71875 199.203125 63.199219 C 199.203125 62.734375 199.253906 62.261719 199.070312 61.867188 C 198.359375 61.867188 197.949219 61.847656 197.511719 62.230469 C 197.304688 62.613281 197.378906 63.304688 197.511719 63.804688 L 197.511719 65.496094 C 197.363281 65.917969 197.070312 65.941406 196.992188 66.460938 C 196.738281 66.976562 196.65625 67.546875 196.472656 67.914062 C 196.007812 68.285156 196.207031 68.332031 195.949219 67.671875 L 195.949219 63.800781 C 195.949219 63.144531 196.058594 62.824219 196.082031 62.230469 C 195.808594 61.730469 195.738281 61.636719 194.910156 61.625 C 194.707031 61.9375 194.785156 62.519531 194.910156 62.835938 C 194.910156 63.421875 194.941406 63.980469 195.039062 64.40625 C 195.039062 65.050781 195.125 65.4375 195.167969 65.980469 C 195.144531 66.621094 195.011719 67.128906 194.648438 67.429688 C 194.179688 67.539062 194.597656 67.804688 194.128906 67.914062 C 193.660156 67.703125 193.105469 67.417969 192.699219 67.066406 C 192.191406 66.921875 191.714844 66.824219 191.007812 66.824219 C 190.144531 66.816406 190.132812 66.722656 189.835938 66.097656 C 189.574219 65.433594 189.449219 64.855469 189.316406 64.164062 C 189.03125 63.597656 188.964844 63.214844 188.796875 62.59375 C 188.578125 62.222656 188.34375 61.945312 188.015625 61.746094 C 187.828125 62.359375 187.652344 62.871094 187.625 63.5625 C 187.472656 63.84375 187.441406 64.566406 187.367188 64.890625 C 187.105469 64.53125 187.003906 63.828125 186.847656 63.320312 C 186.601562 62.585938 186.390625 62.109375 185.546875 62.351562 C 184.671875 62.363281 184.644531 62.382812 184.636719 63.199219 C 185.011719 63.722656 185.414062 64.234375 185.675781 64.648438 L 185.675781 66.339844 C 185.675781 67.039062 185.722656 67.242188 185.15625 67.429688 C 184.941406 66.703125 184.484375 66.011719 183.984375 65.375 C 183.917969 64.882812 183.746094 65.011719 183.207031 65.011719 C 182.84375 65.011719 182.472656 64.964844 182.292969 65.132812 C 182.292969 65.554688 182.332031 66.136719 182.292969 66.21875 C 181.980469 66.273438 181.855469 66.21875 181.644531 65.980469 C 181.417969 66.332031 181.589844 66.828125 181.644531 67.308594 C 181.476562 67.847656 181.28125 68.335938 180.992188 68.636719 C 180.9375 68.476562 180.804688 68.515625 180.992188 68.515625 C 180.101562 68.210938 179.402344 68.023438 178.652344 67.792969 C 178.199219 67.84375 177.871094 68.214844 177.609375 68.515625 C 176.949219 68.714844 176.65625 68.871094 175.921875 68.878906 C 175.210938 68.878906 174.867188 68.980469 174.230469 69 C 173.769531 69.09375 173.167969 69.121094 172.539062 69.121094 C 172.1875 69.03125 171.578125 69.027344 171.367188 68.878906 C 171.636719 68.523438 171.933594 68.34375 172.148438 67.792969 C 172.503906 67.566406 172.835938 67.277344 173.1875 66.945312 C 173.53125 66.730469 173.933594 66.28125 174.226562 65.980469 C 174.429688 65.398438 174.710938 65.296875 175.140625 65.011719 C 175.914062 65.039062 176.0625 65.257812 176.832031 65.375 C 177.578125 65.625 177.992188 65.699219 178.390625 65.253906 C 179.011719 65.019531 179.539062 64.65625 180.210938 64.527344 C 180.734375 64.296875 181.066406 64.070312 181.511719 63.804688 C 182.066406 63.507812 182.328125 63.203125 182.8125 62.835938 C 182.953125 62.34375 183.34375 61.960938 183.203125 61.386719 C 182.5 61.222656 182.050781 61.285156 181.644531 61.625 C 181.074219 62.042969 180.964844 62.21875 180.34375 62.59375 C 179.804688 62.730469 179.574219 62.941406 178.910156 63.078125 C 178.367188 63.246094 177.710938 63.199219 177.089844 63.199219 C 176.523438 63.199219 175.765625 63.148438 175.398438 63.320312 C 175.976562 62.972656 176.671875 62.613281 177.21875 62.472656 C 177.746094 62.160156 177.945312 62 178.652344 61.988281 C 178.980469 61.609375 179.316406 61.597656 179.429688 61.023438 C 179.652344 60.308594 178.949219 60.535156 178.390625 60.78125 C 177.863281 60.867188 177.277344 61.199219 176.828125 61.386719 C 176.394531 61.519531 175.761719 61.621094 175.140625 61.625 C 174.976562 61.410156 175.265625 61.234375 175.398438 60.902344 C 176.007812 60.710938 176.105469 60.640625 176.179688 60.054688 C 175.492188 60.140625 175.226562 60.339844 174.617188 60.417969 C 173.953125 60.570312 173.265625 60.640625 172.539062 60.660156 L 170.714844 60.660156 C 170.078125 60.636719 169.730469 60.539062 169.027344 60.539062 C 168.507812 60.296875 168.503906 60.183594 168.503906 59.449219 C 168.914062 59.035156 169.308594 59.089844 170.066406 59.089844 C 170.648438 58.835938 171.101562 58.699219 171.496094 58.484375 C 171.96875 58.394531 172.289062 58.214844 172.148438 58 L 170.328125 58 C 169.625 57.738281 170.292969 57.617188 170.71875 57.394531 C 171.347656 57.394531 172 57.429688 172.40625 57.636719 C 173.191406 57.609375 173.460938 57.390625 174.097656 56.910156 C 174.597656 56.546875 174.839844 56.3125 175.398438 56.066406 C 175.800781 55.671875 176.179688 55.457031 176.4375 55.097656 C 176.972656 54.644531 177.328125 54.394531 177.609375 54.011719 C 177.953125 53.84375 178.164062 53.625 178 53.40625 C 177.183594 53.496094 176.855469 53.757812 176.308594 54.132812 C 175.992188 54.414062 175.683594 54.664062 175.269531 54.855469 C 174.683594 55.167969 174.316406 55.292969 173.578125 55.339844 C 172.910156 55.339844 172.398438 55.242188 171.757812 55.21875 C 171.050781 55.15625 171.699219 55.007812 171.886719 54.738281 C 172.160156 54.566406 172.371094 54.191406 172.148438 53.890625 C 171.601562 53.722656 170.949219 53.769531 170.324219 53.769531 L 168.503906 53.769531 C 167.816406 53.746094 167.527344 53.605469 167.074219 53.40625 C 166.933594 53.066406 167.097656 53.164062 167.59375 53.164062 C 168.222656 53.144531 168.667969 53.066406 169.285156 52.921875 C 169.898438 52.769531 169.972656 52.585938 170.066406 51.957031 C 169.464844 51.957031 168.785156 51.960938 168.375 51.835938 Z M 155.9375 49.09375 C 155.824219 48.203125 155.605469 47.742188 155.570312 46.871094 C 155.570312 46.21875 155.589844 46.566406 156.304688 45.675781 C 156.378906 45.675781 156.917969 45.21875 157.410156 44.820312 C 158.097656 44.515625 158.734375 44.082031 159.433594 43.792969 C 159.953125 43.527344 160.984375 43.320312 161.457031 43.109375 C 162.078125 42.824219 162.582031 42.492188 163.113281 41.914062 C 163.175781 41.148438 163.296875 40.601562 163.296875 39.691406 C 164.027344 39.378906 164.679688 39.074219 165.320312 38.835938 C 166.242188 38.605469 166.441406 38.277344 167.34375 38.152344 C 167.925781 37.972656 168.886719 37.980469 169.734375 37.980469 C 170.648438 37.980469 171.226562 38.558594 172.050781 38.695312 C 173.023438 39.046875 173.480469 39.289062 174.257812 39.894531 C 174.695312 40.386719 174.96875 40.789062 175.71875 41.160156 C 176.3125 41.429688 176.867188 41.839844 177.558594 42.015625 C 177.5625 42.632812 177.710938 42.527344 177.214844 42.527344 C 177.164062 43.160156 176.992188 43.117188 176.304688 43.128906 C 175.828125 42.902344 175.425781 42.570312 175.132812 42.164062 C 175.394531 41.535156 175.222656 42.671875 175.132812 42.886719 C 174.800781 43.132812 174.601562 43.394531 174.222656 43.128906 C 174.011719 42.539062 173.835938 42.132812 173.835938 41.4375 C 173.734375 40.683594 173.496094 41.230469 173.3125 41.558594 C 173.136719 42.167969 173.21875 42.386719 173.445312 42.886719 C 172.78125 42.886719 172.269531 42.832031 171.753906 42.765625 C 171.269531 42.660156 170.726562 42.792969 170.191406 43.007812 C 169.507812 43.390625 169.722656 43.390625 170.0625 43.855469 C 170.664062 44.011719 171.09375 44.308594 171.621094 44.582031 C 172.222656 44.472656 172.851562 44.355469 173.445312 44.21875 C 174.0625 44.027344 174.632812 44.148438 175.265625 44.21875 C 175.578125 44.363281 175.992188 44.394531 176.175781 44.582031 C 176.175781 44.953125 176.207031 45.34375 176.042969 45.546875 C 175.773438 45.707031 175.515625 46.148438 175.132812 46.273438 C 174.558594 46.566406 173.957031 46.75 173.3125 46.878906 C 172.515625 46.90625 172.226562 47.058594 171.621094 47.359375 C 171.523438 47.972656 171.324219 48.144531 170.710938 48.328125 C 170.101562 48.5625 169.621094 48.691406 168.890625 48.691406 C 168.527344 48.691406 168.160156 48.738281 167.980469 48.570312 C 168.558594 47.984375 168.734375 47.707031 169.019531 47.121094 C 169.132812 46.875 169.367188 46.71875 169.152344 46.515625 C 168.378906 46.542969 168.179688 46.539062 168.109375 47.242188 C 168.023438 47.878906 167.746094 47.984375 167.199219 48.207031 C 167.347656 47.617188 167.371094 47.164062 167.589844 46.636719 C 167.128906 46.730469 166.53125 46.757812 165.898438 46.757812 C 165.503906 46.980469 165.339844 47.066406 165.507812 47.484375 C 164.984375 47.644531 164.347656 47.542969 163.6875 47.484375 C 163.136719 47.457031 163.441406 47.234375 163.039062 47 C 162.773438 46.539062 162.472656 46.425781 161.867188 46.394531 C 161.566406 46.726562 161.011719 46.867188 160.695312 47.121094 C 160.125 47.296875 159.765625 47.148438 159.265625 46.878906 C 158.617188 46.894531 158.703125 47.082031 158.875 47.480469 C 159.125 47.636719 158.859375 47.804688 159.265625 47.84375 C 159.640625 48.148438 159.960938 48.207031 160.695312 48.207031 C 161.261719 48.078125 161.882812 48.085938 162.515625 48.085938 C 163.160156 48.105469 163.039062 48.238281 163.039062 48.8125 C 162.617188 49.078125 162.007812 49.054688 161.347656 49.054688 C 160.71875 48.984375 160.238281 48.839844 159.785156 48.691406 C 159.175781 48.652344 158.6875 48.546875 158.226562 48.691406 C 158.015625 48.898438 157.382812 48.988281 158.09375 49.054688 C 158.375 49.289062 159.878906 49.175781 159.984375 49.574219 C 160.339844 49.925781 160.261719 50.386719 159.65625 50.386719 C 159.285156 50.214844 159.003906 50.257812 158.746094 50.386719 C 158.3125 50.484375 157.796875 50.414062 157.042969 50.464844 C 158.027344 50.535156 156.324219 49.511719 155.9375 49.09375 Z M 155.9375 49.09375 "/>
<path style=" stroke:none;fill-rule:evenodd;fill:rgb(73.72549%,73.72549%,73.72549%);fill-opacity:1;" d="M 160.046875 45.066406 C 160.003906 45.066406 159.617188 45.308594 159.265625 45.550781 C 158.695312 45.824219 158.085938 46.285156 157.707031 46.519531 C 157.40625 46.730469 157.410156 46.824219 157.054688 46.882812 C 157.675781 46.804688 157.953125 46.664062 158.488281 46.398438 C 159.164062 46.324219 159.816406 46.199219 160.179688 45.914062 C 160.515625 45.808594 160.152344 45.324219 160.046875 45.066406 Z M 166.035156 39.382812 C 166.109375 39.382812 166.261719 39.761719 166.554688 39.988281 C 166.742188 40.453125 166.914062 40.777344 166.945312 41.316406 C 167.101562 40.726562 167.375 40.253906 167.464844 39.625 C 167.261719 39.304688 167.25 39.15625 166.683594 39.140625 C 166.683594 39.46875 166.726562 39.253906 166.035156 39.382812 Z M 166.035156 39.382812 "/>
<path style="fill-rule:evenodd;fill:rgb(76.862745%,76.862745%,76.078431%);fill-opacity:1;stroke-width:0.875;stroke-linecap:butt;stroke-linejoin:miter;stroke:rgb(0%,0%,0%);stroke-opacity:1;stroke-miterlimit:4;" d="M 349.357711 417.727655 C 348.867515 417.727655 350.232114 417.240642 350.689189 417.068755 C 351.0469 416.302426 351.338368 415.758117 352.014043 415.299752 C 353.120297 415.385695 353.663487 415.700821 354.219926 416.402693 C 355.153948 416.660523 355.485162 417.104565 356.651033 417.290775 C 357.088235 417.656035 357.671171 417.699007 356.651033 417.949675 C 355.962109 418.314935 355.087705 418.393717 354.001325 418.393717 C 352.86195 418.472498 352.047165 418.730328 351.351616 419.059778 C 349.86778 419.059778 350.106253 419.109912 349.357711 417.727655 Z M 349.357711 417.727655 " transform="matrix(0.589688,0,0,0.545417,-43.636875,-184.195)"/>
<path style=" stroke:none;fill-rule:evenodd;fill:rgb(73.72549%,73.72549%,73.72549%);fill-opacity:1;" d="M 168.371094 39.503906 L 168.371094 39.625 C 168.371094 39.296875 168.363281 39.464844 168.5 40.109375 C 168.714844 40.511719 168.761719 40.949219 168.761719 41.558594 C 169.101562 41.332031 169.386719 40.878906 169.542969 40.46875 C 169.542969 39.515625 169.394531 39.574219 168.371094 39.503906 Z M 173.183594 53.40625 L 173.316406 53.40625 C 172.933594 53.40625 173.148438 53.425781 173.835938 53.042969 C 174.28125 52.765625 174.644531 52.359375 175.265625 52.195312 C 175.867188 51.757812 176.332031 51.550781 176.957031 51.351562 C 177.261719 51.21875 177.53125 50.992188 177.867188 51.230469 C 177.769531 51.824219 177.660156 52.050781 177.085938 52.316406 C 176.792969 52.660156 176.324219 52.863281 175.917969 53.042969 C 175.492188 53.214844 175.027344 53.222656 174.875 53.648438 C 174.167969 53.9375 174.082031 53.886719 173.183594 53.40625 Z M 175.65625 56.910156 C 175.890625 56.75 176.703125 55.992188 177.085938 55.703125 C 177.523438 55.171875 177.960938 54.765625 178.386719 54.496094 C 178.769531 53.976562 179.253906 53.628906 179.558594 53.164062 C 179.921875 52.757812 180.1875 52.414062 180.601562 51.957031 C 180.601562 52.484375 180.546875 53.183594 180.730469 53.527344 C 180.730469 54.257812 180.640625 54.457031 180.339844 54.976562 C 180.042969 55.40625 179.824219 55.691406 179.167969 55.945312 C 178.578125 56.238281 178.222656 56.339844 177.738281 56.671875 C 177.367188 56.882812 176.980469 57.09375 176.566406 57.273438 C 176.195312 57.421875 176.367188 57.359375 175.65625 56.910156 Z M 171.625 59.691406 L 171.753906 59.691406 C 171.371094 59.691406 171.589844 59.710938 172.277344 59.328125 C 172.832031 58.8125 173.273438 58.632812 173.96875 58.363281 C 174.496094 58.324219 175.132812 58.203125 175.527344 58 C 175.84375 57.945312 176.0625 57.769531 176.308594 58 C 176.714844 58.511719 176.828125 58.65625 176.175781 58.964844 C 175.867188 59.210938 175.316406 59.457031 174.878906 59.570312 C 174.554688 59.820312 173.910156 59.835938 173.316406 59.933594 C 172.785156 59.933594 172.488281 59.988281 172.277344 59.691406 L 173.316406 59.933594 C 172.785156 59.933594 172.488281 59.988281 171.625 59.691406 Z M 177.21875 59.691406 L 177.21875 59.570312 C 177.21875 59.90625 177.199219 59.730469 177.476562 59.085938 C 177.964844 58.410156 178.148438 58.035156 178.777344 57.878906 C 179.074219 57.546875 179.585938 57.460938 180.207031 57.273438 C 180.445312 57.636719 180.261719 58.058594 180.207031 58.480469 C 180.039062 58.933594 179.574219 59.253906 179.296875 59.570312 C 178.894531 59.828125 178.726562 60.074219 178.128906 60.175781 C 177.632812 60.175781 177.894531 60.164062 177.21875 59.691406 Z M 177.21875 59.691406 "/>
<path style=" stroke:none;fill-rule:evenodd;fill:rgb(0%,0%,0%);fill-opacity:1;" d="M 164.46875 43.972656 C 164.46875 44.308594 164.179688 44.578125 163.820312 44.578125 C 163.460938 44.578125 163.167969 44.308594 163.167969 43.972656 C 163.167969 43.636719 163.460938 43.367188 163.820312 43.367188 C 164.179688 43.367188 164.46875 43.636719 164.46875 43.972656 Z M 164.46875 43.972656 "/>
<path style="fill-rule:evenodd;fill:rgb(0%,31.764706%,12.54902%);fill-opacity:0.996078;stroke-width:1.25;stroke-linecap:butt;stroke-linejoin:miter;stroke:rgb(0%,16.862745%,5.098039%);stroke-opacity:0.996078;stroke-miterlimit:4;" d="M 351.788553 479.602655 L 352.676206 479.602655 C 349.90726 479.602655 351.556704 479.416444 356.206942 483.133499 C 358.154478 481.514897 358.134605 481.292876 359.744303 484.021581 C 360.671701 485.568564 360.949921 483.856856 362.394012 482.252578 C 363.096184 485.461134 363.540011 488.827254 365.931373 485.783422 C 368.660572 485.783422 371.522258 485.561402 372.99947 486.671505 C 374.788023 489.994652 374.205087 486.10571 375.655803 487.552426 C 379.54425 488.025115 379.471383 484.214954 383.710917 483.233766 C 386.347377 486.528266 387.5 483.992934 390.785639 482.352846 C 393.22337 483.033231 395.521993 486.728801 395.985692 483.133499 C 397.979597 479.881971 398.151828 480.154125 399.516428 483.133499 C 401.45734 484.881016 402.278749 482.25974 403.941441 481.364496 C 406.895866 483.097689 410.194754 483.341196 414.5469 482.252578 C 415.282194 485.196142 417.13699 483.921314 418.965289 483.133499 C 422.873609 484.780749 424.238209 485.282086 428.689719 483.133499 C 430.888977 480.533709 429.643614 483.205118 431.339428 484.902502 C 434.631691 483.878342 433.724165 483.663484 437.526497 484.021581 C 441.348702 484.021581 441.660042 483.928476 442.825914 481.364496 C 444.746953 483.2839 445.442501 484.673319 448.131955 482.252578 C 452.252252 482.374332 450.980392 482.768239 453.437997 481.364496 C 455.253047 485.389515 455.683625 482.481761 457.856386 484.014419 C 456.425543 487.645531 454.226285 489.350076 451.669316 491.090432 C 449.966879 493.90508 448.906995 496.948911 445.482247 498.159282 C 442.984897 500.708938 440.32194 502.184301 437.526497 504.347212 C 433.691044 505.306914 429.478007 505.228132 425.152358 505.228132 L 388.029942 505.228132 C 385.386857 506.553094 381.067833 507.176184 377.424483 507.878056 C 373.343932 507.878056 368.726815 507.928189 365.931373 506.997135 C 364.036831 505.106379 360.711447 502.98644 358.863275 500.809206 C 356.988606 499.298033 356.928988 496.354469 355.325914 494.621276 C 353.842077 492.093105 353.391627 488.139706 351.788553 485.783422 Z M 351.788553 479.602655 " transform="matrix(0.589688,0,0,0.545417,-41.039062,-184.673125)"/>
<path style="fill-rule:evenodd;fill:rgb(0%,31.764706%,12.54902%);fill-opacity:0.996078;stroke-width:1.25;stroke-linecap:butt;stroke-linejoin:miter;stroke:rgb(0%,16.862745%,5.098039%);stroke-opacity:0.996078;stroke-miterlimit:4;" d="M 437.519873 487.559587 L 437.519873 488.440508 C 437.519873 485.976795 437.632485 487.287433 435.751192 491.978514 C 435.373609 493.117265 434.538951 493.389419 433.101484 493.747517 M 429.570747 491.090432 L 430.451775 491.090432 C 427.179385 494.177235 424.980127 495.602464 424.264706 499.047364 L 430.451775 491.090432 C 427.179385 494.177235 424.980127 495.602464 424.264706 499.047364 M 417.189984 486.678667 C 417.189984 486.757448 417.064123 489.829927 416.308956 491.097594 M 413.659247 492.859435 L 413.659247 493.747517 Z M 406.59115 487.559587 L 407.472178 487.559587 L 406.59115 487.559587 C 406.882618 487.559587 407.18071 487.559587 406.59115 487.559587 Z M 357.08797 487.559587 C 357.511924 487.559587 359.247483 490.367074 361.512984 491.978514 C 360.949921 494.56398 360.082141 497.557678 361.512984 499.935447 M 364.162692 492.859435 C 364.580021 492.859435 366.322205 495.666921 368.581081 497.278361 L 364.162692 492.859435 C 364.580021 492.859435 366.322205 495.666921 368.581081 497.278361 L 368.581081 498.166444 C 368.581081 495.430577 368.355856 492.572956 369.462109 491.090432 C 370.449126 492.752005 371.687864 495.430577 372.111818 492.859435 C 377.09327 492.680386 379.49788 491.283804 382.7239 490.209511 C 382.7239 491.512987 382.511924 490.882735 383.604928 491.978514 M 443.706942 488.440508 L 444.594595 488.440508 C 442.925278 489.829927 441.646794 492.6589 440.176206 494.628438 M 407.472178 485.790584 L 414.540276 485.790584 " transform="matrix(0.589688,0,0,0.545417,-41.039062,-184.673125)"/>
<path style=" stroke:none;fill-rule:evenodd;fill:rgb(100%,100%,100%);fill-opacity:1;" d="M 164.796875 84.765625 C 158.542969 84.765625 156.46875 90.578125 150.210938 90.578125 C 150.089844 90.578125 149.976562 90.570312 149.859375 90.566406 L 149.859375 90.917969 C 149.835938 94.945312 150.191406 98.699219 150.839844 102.203125 C 156.613281 101.828125 158.757812 96.390625 164.796875 96.390625 C 171.054688 96.390625 173.144531 102.214844 179.402344 102.214844 C 185.660156 102.214844 187.746094 96.390625 194.003906 96.390625 C 200.257812 96.390625 202.347656 102.214844 208.605469 102.214844 C 214.859375 102.214844 216.949219 96.390625 223.207031 96.390625 C 229.230469 96.390625 231.382812 101.789062 237.117188 102.191406 C 237.804688 98.59375 238.167969 94.726562 238.144531 90.578125 L 238.144531 90.566406 C 238.027344 90.570312 237.914062 90.578125 237.792969 90.578125 C 231.535156 90.578125 229.464844 84.765625 223.207031 84.765625 C 216.949219 84.765625 214.859375 90.578125 208.605469 90.578125 C 202.347656 90.578125 200.257812 84.765625 194.003906 84.765625 C 187.746094 84.765625 185.65625 90.578125 179.402344 90.578125 C 173.144531 90.578125 171.054688 84.765625 164.800781 84.765625 Z M 164.796875 107.457031 C 159.929688 107.457031 157.589844 110.964844 153.847656 112.527344 C 155.09375 115.578125 156.648438 118.519531 158.492188 121.320312 C 160.269531 120.125 162.160156 119.09375 164.796875 119.09375 C 171.050781 119.089844 173.140625 124.902344 179.398438 124.902344 C 185.65625 124.902344 187.742188 119.089844 194 119.089844 C 200.257812 119.089844 202.34375 124.902344 208.601562 124.902344 C 214.855469 124.902344 216.945312 119.089844 223.203125 119.089844 C 225.78125 119.089844 227.644531 120.078125 229.390625 121.238281 C 231.234375 118.449219 232.792969 115.519531 234.050781 112.484375 C 230.367188 110.898438 228.023438 107.453125 223.203125 107.453125 C 216.945312 107.453125 214.859375 113.265625 208.601562 113.265625 C 202.34375 113.265625 200.257812 107.453125 194 107.453125 C 187.742188 107.453125 185.652344 113.265625 179.398438 113.265625 C 173.140625 113.265625 171.050781 107.453125 164.796875 107.453125 Z M 193.996094 130.140625 C 187.738281 130.140625 185.652344 135.964844 179.394531 135.964844 C 173.476562 135.964844 171.289062 130.757812 165.777344 130.195312 C 173.144531 137.488281 181.496094 141.90625 187.195312 144.332031 C 189.121094 143.003906 191.117188 145.949219 193.996094 145.949219 C 196.855469 145.949219 198.84375 142.988281 200.753906 144.304688 C 206.390625 141.867188 214.640625 137.445312 221.96875 130.21875 C 216.636719 130.914062 214.425781 135.964844 208.597656 135.964844 C 202.339844 135.964844 200.253906 130.140625 193.996094 130.140625 Z M 193.996094 130.140625 "/>
<path style="fill:none;stroke-width:0.475;stroke-linecap:butt;stroke-linejoin:miter;stroke:rgb(31.764706%,12.54902%,2.745098%);stroke-opacity:0.996078;stroke-miterlimit:4;" d="M 332.538877 541.348646 C 334.286966 540.773449 342.715015 538.1563 343.000824 538.443899 C 343.29328 538.731498 359.285304 554.1396 359.285304 554.1396 L 345.91209 556.756749 Z M 332.538877 541.348646 " transform="matrix(0.587695,0,0,0.543292,-40.197164,-186.157083)"/>
<path style="fill:none;stroke-width:0.594;stroke-linecap:butt;stroke-linejoin:miter;stroke:rgb(31.764706%,12.54902%,2.745098%);stroke-opacity:0.996078;stroke-miterlimit:4;" d="M 413.642657 471.007734 C 413.932667 466.361479 422.358647 439.908677 422.358647 439.908677 M 416.542762 471.316274 C 416.542762 471.025884 423.228679 440.189993 423.228679 440.189993 M 418.831493 471.370723 C 419.121503 469.628377 424.388721 440.199068 424.388721 440.199068 M 413.932667 467.232652 C 415.38272 466.361479 419.740715 465.19084 419.740715 465.19084 M 415.962741 462.577321 C 417.412793 462.577321 420.320736 461.415758 420.320736 461.415758 M 416.832772 459.09263 C 416.832772 458.802239 421.190767 457.931066 421.190767 457.931066 M 417.412793 454.727691 L 422.060799 453.856518 M 419.450704 450.952608 C 419.450704 451.242999 422.648658 451.242999 422.648658 451.242999 M 420.320736 447.458842 C 420.900757 447.458842 423.518689 448.039624 423.518689 448.039624 " transform="matrix(0.498366,0,0,0.430454,-31.992938,-80.825367)"/>
<path style="fill:none;stroke-width:0.41;stroke-linecap:butt;stroke-linejoin:miter;stroke:rgb(31.764706%,12.54902%,2.745098%);stroke-opacity:0.996078;stroke-miterlimit:4;" d="M 413.637115 471.01065 C 413.929571 466.358413 422.35762 439.905457 422.35762 439.905457 M 416.541735 470.129062 C 416.541735 469.84228 423.228342 440.192239 423.228342 440.192239 M 419.453001 467.808254 C 419.73881 466.066321 424.391519 440.197549 424.391519 440.197549 M 413.929571 467.22938 C 415.385204 466.358413 419.745457 465.195354 419.745457 465.195354 M 415.956823 462.582454 C 417.412456 462.582454 420.317075 461.419395 420.317075 461.419395 M 416.827544 459.087966 C 416.827544 458.801185 421.187797 457.924907 421.187797 457.924907 M 417.412456 454.727822 L 422.058518 453.856856 M 419.453001 450.951863 C 419.453001 451.238645 422.650076 451.238645 422.650076 451.238645 M 420.317075 447.457375 C 420.901987 447.457375 423.514151 448.04156 423.514151 448.04156 " transform="matrix(-0.587695,0,0,0.735533,444.557438,-216.272158)"/>
<path style="fill:none;stroke-width:0.475;stroke-linecap:butt;stroke-linejoin:miter;stroke:rgb(31.764706%,12.54902%,2.745098%);stroke-opacity:0.996078;stroke-miterlimit:4;" d="M 413.63794 471.010246 C 413.930395 466.358337 422.358445 439.906442 422.358445 439.906442 M 416.542559 470.13307 C 416.542559 469.838281 423.229166 440.186851 423.229166 440.186851 M 419.447178 467.81071 C 419.739634 466.063548 424.392343 440.194041 424.392343 440.194041 M 413.930395 467.228323 C 415.386029 466.358337 419.746281 465.193562 419.746281 465.193562 M 415.957647 462.576413 C 417.41328 462.576413 420.3179 461.418828 420.3179 461.418828 M 416.828368 459.089278 C 416.828368 458.80168 421.188621 457.924503 421.188621 457.924503 M 417.41328 454.732157 L 422.059342 453.854981 M 419.447178 450.950234 C 419.447178 451.237833 422.644254 451.237833 422.644254 451.237833 M 420.3179 447.463099 C 420.902812 447.463099 423.514975 448.038297 423.514975 448.038297 " transform="matrix(-0.587695,0,0,0.543292,459.085266,-132.630317)"/>
<path style="fill-rule:evenodd;fill:rgb(86.666667%,54.509804%,34.901961%);fill-opacity:1;stroke-width:0.475;stroke-linecap:butt;stroke-linejoin:miter;stroke:rgb(31.764706%,12.54902%,2.745098%);stroke-opacity:0.996078;stroke-miterlimit:4;" d="M 395.317208 572.157662 C 395.317208 571.870063 396.194576 499.201051 396.194576 499.201051 C 396.194576 499.201051 398.80674 498.913452 398.80674 499.201051 C 398.80674 499.488649 398.520931 571.870063 398.228475 572.157662 C 397.936019 572.45245 395.024752 572.740049 395.317208 572.157662 Z M 423.811725 502.400587 C 423.811725 502.982974 423.226813 563.731018 423.226813 563.731018 L 421.192915 566.060568 L 421.777827 502.400587 Z M 423.811725 502.400587 " transform="matrix(0.587695,0,0,0.543292,-40.197164,-186.157083)"/>
<path style="fill-rule:evenodd;fill:rgb(86.666667%,54.509804%,34.901961%);fill-opacity:1;stroke-width:0.475;stroke-linecap:butt;stroke-linejoin:miter;stroke:rgb(31.764706%,12.54902%,2.745098%);stroke-opacity:0.996078;stroke-miterlimit:4;" d="M 363.060645 560.236694 C 363.060645 560.236694 365.965264 590.182913 399.398298 589.305737 C 432.824686 588.43575 442.123456 559.079109 442.123456 559.079109 C 442.123456 559.079109 427.879521 558.496721 427.587065 558.496721 C 427.301256 558.496721 415.961941 572.45245 401.432197 572.157662 C 386.895806 571.870063 382.243097 568.375738 379.046022 565.470991 C 375.848946 562.566244 372.944327 558.209123 372.944327 558.209123 L 356.081582 551.522452 L 356.95895 557.914334 Z M 453.30325 557.130627 C 453.010794 556.260641 452.292948 553.262424 452.292948 553.262424 L 452.292948 549.77529 L 453.901456 546.245015 C 453.901456 546.245015 428.610661 549.868759 428.610661 550.156358 C 428.610661 549.825619 428.457787 557.044348 428.457787 557.044348 Z M 453.30325 557.130627 " transform="matrix(0.587695,0,0,0.543292,-40.197164,-186.157083)"/>
<path style="fill:none;stroke-width:0.475;stroke-linecap:butt;stroke-linejoin:miter;stroke:rgb(31.764706%,12.54902%,2.745098%);stroke-opacity:0.996078;stroke-miterlimit:4;" d="M 448.517607 549.782479 L 447.939342 555.886763 L 452.007139 555.886763 L 451.714683 549.782479 Z M 444.157355 550.070078 L 443.871545 556.46196 L 446.483709 556.174362 L 446.776165 550.070078 Z M 439.797102 556.46196 L 439.797102 551.522452 L 442.415912 550.645276 L 442.708368 555.584784 Z M 434.851938 556.181551 L 435.430203 551.817241 L 438.334822 552.112029 L 438.627278 556.756749 Z M 429.328508 556.181551 L 429.620964 552.399628 L 432.525583 552.112029 L 432.525583 556.46915 Z M 361.890821 559.949095 C 362.761542 559.949095 369.448149 561.401469 369.448149 561.401469 L 376.427212 570.705288 " transform="matrix(0.587695,0,0,0.543292,-40.197164,-186.157083)"/>
<path style="fill:none;stroke-width:0.475;stroke-linecap:butt;stroke-linejoin:miter;stroke:rgb(31.764706%,12.54902%,2.745098%);stroke-opacity:0.996078;stroke-miterlimit:4;" d="M 366.842632 561.12106 C 367.128441 561.408659 372.944327 580.886283 400.847285 580.886283 C 428.756889 580.886283 435.436849 558.7987 435.436849 558.7987 " transform="matrix(0.587695,0,0,0.543292,-40.197164,-186.157083)"/>
<path style="fill:none;stroke-width:0.475;stroke-linecap:butt;stroke-linejoin:miter;stroke:rgb(31.764706%,12.54902%,2.745098%);stroke-opacity:0.996078;stroke-miterlimit:4;" d="M 439.797102 559.366708 C 439.797102 559.366708 426.430535 588.43575 400.847285 586.400989 C 375.270681 584.366228 371.202885 574.77481 369.16234 569.835302 C 367.128441 564.895793 365.965264 560.826271 365.965264 560.826271 " transform="matrix(0.587695,0,0,0.543292,-40.197164,-186.157083)"/>
<path style="fill-rule:evenodd;fill:rgb(86.666667%,54.509804%,34.901961%);fill-opacity:1;stroke-width:0.475;stroke-linecap:butt;stroke-linejoin:miter;stroke:rgb(31.764706%,12.54902%,2.745098%);stroke-opacity:0.996078;stroke-miterlimit:4;" d="M 373.230136 558.209123 C 373.522592 556.46196 373.522592 503.85296 373.522592 503.85296 L 371.774503 503.565362 L 371.488694 557.339136 Z M 331.661509 541.061048 L 353.748581 551.817241 L 353.170316 553.269614 C 353.170316 553.269614 331.947318 543.383407 331.947318 543.095809 C 331.947318 542.80102 332.239774 541.643435 331.661509 541.061048 Z M 331.661509 541.061048 " transform="matrix(0.587695,0,0,0.543292,-40.197164,-186.157083)"/>
<path style="fill-rule:evenodd;fill:rgb(86.666667%,54.509804%,34.901961%);fill-opacity:1;stroke-width:0.475;stroke-linecap:butt;stroke-linejoin:miter;stroke:rgb(31.764706%,12.54902%,2.745098%);stroke-opacity:0.996078;stroke-miterlimit:4;" d="M 341.837647 537.861512 C 341.837647 538.731498 345.034722 556.46196 345.034722 556.46196 C 345.034722 556.46196 347.075268 556.749559 347.075268 556.46196 C 347.075268 556.174362 343.585736 538.14911 343.585736 538.14911 Z M 362.183277 538.436709 C 363.339807 538.436709 383.107172 535.244363 383.107172 535.244363 L 382.814716 538.436709 L 363.339807 540.47147 Z M 362.183277 538.436709 " transform="matrix(0.587695,0,0,0.543292,-40.197164,-186.157083)"/>
<path style="fill-rule:evenodd;fill:rgb(99.607843%,81.176471%,24.313725%);fill-opacity:1;stroke-width:0.475;stroke-linecap:butt;stroke-linejoin:miter;stroke:rgb(31.764706%,12.54902%,2.745098%);stroke-opacity:0.996078;stroke-miterlimit:4;" d="M 365.087896 514.321555 C 365.672808 514.321555 372.066959 517.521091 374.679123 516.643914 C 377.297933 515.773928 375.556491 513.739167 376.134756 513.739167 C 376.719668 513.739167 378.753566 515.191541 379.916743 514.026766 C 381.07992 512.869181 381.950641 509.382046 381.365729 509.669645 C 380.787464 509.957244 365.380352 515.47914 365.087896 514.321555 Z M 365.087896 514.321555 " transform="matrix(0.587695,0,0,0.543292,-40.197164,-186.157083)"/>
<path style="fill-rule:evenodd;fill:rgb(86.666667%,54.509804%,34.901961%);fill-opacity:1;stroke-width:0.475;stroke-linecap:butt;stroke-linejoin:miter;stroke:rgb(31.764706%,12.54902%,2.745098%);stroke-opacity:0.996078;stroke-miterlimit:4;" d="M 362.48238 521.583423 C 363.645557 521.871022 386.317541 515.47914 386.317541 515.47914 C 386.317541 515.47914 386.317541 517.513901 386.025085 517.513901 C 385.739276 517.513901 362.48238 523.618184 362.48238 523.618184 Z M 362.48238 521.583423 " transform="matrix(0.587695,0,0,0.543292,-40.197164,-186.157083)"/>
<path style="fill-rule:evenodd;fill:rgb(99.607843%,81.176471%,24.313725%);fill-opacity:1;stroke-width:0.475;stroke-linecap:butt;stroke-linejoin:miter;stroke:rgb(31.764706%,12.54902%,2.745098%);stroke-opacity:0.996078;stroke-miterlimit:4;" d="M 415.09122 512.567202 C 415.09122 512.567202 416.546853 516.061527 417.995839 515.47914 C 419.451472 514.896752 420.907105 513.731977 420.907105 513.731977 C 420.907105 513.731977 422.070282 516.636724 424.104181 516.061527 C 426.138079 515.47914 427.301256 512.279603 427.301256 512.279603 C 427.301256 512.279603 429.335155 512.861991 430.205876 512.567202 C 431.076597 512.279603 432.239774 507.627694 432.239774 507.627694 Z M 413.343131 540.773449 C 413.050675 541.348646 414.792117 542.80821 416.24775 542.80821 C 417.696736 542.80821 418.281648 540.773449 418.574104 541.348646 C 418.859914 541.931034 418.859914 544.548182 422.641901 543.678196 C 426.423888 542.80821 426.423888 540.191061 426.423888 540.191061 C 426.423888 540.191061 425.260711 541.061048 427.872875 541.348646 C 430.491685 541.643435 433.103848 537.573913 432.818039 537.573913 C 432.525583 537.573913 413.921396 541.061048 413.343131 540.773449 Z M 413.343131 540.773449 " transform="matrix(0.587695,0,0,0.543292,-40.197164,-186.157083)"/>
<path style="fill-rule:evenodd;fill:rgb(86.666667%,54.509804%,34.901961%);fill-opacity:1;stroke-width:0.475;stroke-linecap:butt;stroke-linejoin:miter;stroke:rgb(31.764706%,12.54902%,2.745098%);stroke-opacity:0.996078;stroke-miterlimit:4;" d="M 363.353101 513.14959 C 363.060645 514.314365 363.63891 515.766738 363.63891 515.766738 L 382.535553 509.374856 C 382.535553 509.374856 383.406275 507.915293 382.535553 507.915293 C 381.664832 507.915293 363.060645 513.731977 363.353101 513.14959 Z M 388.351439 509.080067 C 388.929704 509.080067 407.826348 502.975784 407.826348 502.975784 C 407.826348 502.975784 408.112157 505.592933 407.826348 505.592933 C 407.533892 505.592933 390.092881 510.82723 390.092881 510.82723 Z M 388.351439 509.080067 " transform="matrix(0.587695,0,0,0.543292,-40.197164,-186.157083)"/>
<path style="fill-rule:evenodd;fill:rgb(99.607843%,81.176471%,24.313725%);fill-opacity:1;stroke-width:0.475;stroke-linecap:butt;stroke-linejoin:miter;stroke:rgb(31.764706%,12.54902%,2.745098%);stroke-opacity:0.996078;stroke-miterlimit:4;" d="M 413.343131 521.878212 C 413.343131 521.878212 410.431864 525.077748 411.302586 529.434868 C 412.179953 533.799179 413.343131 537.573913 413.62894 537.573913 C 413.921396 537.573913 417.118471 531.764418 420.608003 531.46963 C 424.097534 531.182031 430.491685 534.669166 430.491685 534.669166 C 430.491685 534.669166 429.620964 527.694896 429.91342 524.49536 C 430.199229 521.295824 435.137747 515.773928 435.137747 515.773928 Z M 413.343131 521.878212 " transform="matrix(0.587695,0,0,0.543292,-40.197164,-186.157083)"/>
<path style="fill-rule:evenodd;fill:rgb(86.666667%,54.509804%,34.901961%);fill-opacity:1;stroke-width:0.475;stroke-linecap:butt;stroke-linejoin:miter;stroke:rgb(31.764706%,12.54902%,2.745098%);stroke-opacity:0.996078;stroke-miterlimit:4;" d="M 386.889159 516.636724 C 386.889159 516.636724 386.310894 519.253873 386.596703 519.253873 C 386.889159 519.253873 411.309232 512.861991 411.309232 512.861991 L 411.309232 511.114829 L 386.889159 516.643914 Z M 386.889159 516.636724 " transform="matrix(0.587695,0,0,0.543292,-40.197164,-186.157083)"/>
<path style="fill-rule:evenodd;fill:rgb(71.372549%,71.372549%,70.588235%);fill-opacity:0.996078;stroke-width:0.475;stroke-linecap:butt;stroke-linejoin:miter;stroke:rgb(31.764706%,12.54902%,2.745098%);stroke-opacity:0.996078;stroke-miterlimit:4;" d="M 355.503317 551.817241 C 355.503317 551.817241 349.687431 550.947254 349.979887 552.399628 C 350.265696 553.852002 352.884506 555.311565 353.176962 556.181551 C 353.462772 557.051538 352.306241 560.251074 354.047684 559.963475 C 355.789126 559.668686 357.537215 558.503911 357.537215 557.633925 C 357.537215 556.763939 357.244759 552.694417 357.244759 552.694417 Z M 355.503317 551.817241 " transform="matrix(0.587695,0,0,0.543292,-40.197164,-186.157083)"/>
<path style="fill-rule:evenodd;fill:rgb(86.666667%,54.509804%,34.901961%);fill-opacity:1;stroke-width:0.475;stroke-linecap:butt;stroke-linejoin:miter;stroke:rgb(31.764706%,12.54902%,2.745098%);stroke-opacity:0.996078;stroke-miterlimit:4;" d="M 387.75988 537.279124 L 387.75988 539.313885 L 408.690422 536.409138 L 408.10551 534.956764 Z M 387.75988 537.279124 " transform="matrix(0.587695,0,0,0.543292,-40.197164,-186.157083)"/>
<path style="fill-rule:evenodd;fill:rgb(99.607843%,81.176471%,24.313725%);fill-opacity:1;stroke-width:0.475;stroke-linecap:butt;stroke-linejoin:miter;stroke:rgb(31.764706%,12.54902%,2.745098%);stroke-opacity:0.996078;stroke-miterlimit:4;" d="M 363.060645 540.773449 C 363.353101 540.773449 363.060645 543.383407 365.386999 542.80821 C 367.713353 542.225823 368.291618 540.773449 368.291618 540.773449 C 368.291618 540.773449 368.869884 543.965795 372.073606 543.678196 C 375.270681 543.383407 377.012124 539.896273 377.012124 539.896273 C 377.012124 539.896273 377.30458 542.513421 379.338478 541.643435 C 381.372376 540.773449 381.957288 538.731498 381.957288 538.731498 L 363.63891 541.348646 Z M 363.060645 523.618184 C 363.060645 523.618184 360.441834 524.49536 361.319202 529.722467 C 362.189924 534.956764 364.223822 537.861512 364.516278 537.861512 C 364.802087 537.861512 367.128441 532.922003 370.617973 532.052017 C 374.107504 531.174841 380.209199 534.669166 380.209199 534.669166 C 380.209199 534.669166 379.630934 530.017256 380.501655 525.652945 C 381.372376 521.295824 384.276996 518.096288 384.276996 518.096288 C 384.276996 518.096288 363.931366 523.618184 363.060645 523.618184 Z M 363.060645 523.618184 " transform="matrix(0.587695,0,0,0.543292,-40.197164,-186.157083)"/>
<path style="fill-rule:evenodd;fill:rgb(86.666667%,54.509804%,34.901961%);fill-opacity:1;stroke-width:0.475;stroke-linecap:butt;stroke-linejoin:miter;stroke:rgb(31.764706%,12.54902%,2.745098%);stroke-opacity:0.996078;stroke-miterlimit:4;" d="M 411.887498 538.731498 L 412.179953 540.47147 C 412.179953 540.47147 433.110495 537.861512 433.110495 537.566723 C 433.110495 537.279124 433.110495 535.531962 432.818039 535.531962 C 432.525583 535.531962 412.179953 539.019097 411.887498 538.731498 Z M 411.601688 520.131049 L 411.887498 522.16581 L 436.600027 515.47914 C 436.600027 515.47914 437.178292 513.731977 436.885836 513.731977 C 436.59338 513.731977 412.179953 521.001035 411.601688 520.131049 Z M 411.601688 520.131049 " transform="matrix(0.587695,0,0,0.543292,-40.197164,-186.157083)"/>
<path style="fill:none;stroke-width:0.475;stroke-linecap:butt;stroke-linejoin:miter;stroke:rgb(31.764706%,12.54902%,2.745098%);stroke-opacity:0.996078;stroke-miterlimit:4;" d="M 414.220499 510.82723 C 414.220499 510.82723 413.928043 512.574392 414.220499 512.574392 C 414.512954 512.574392 432.53223 508.217271 432.53223 507.922483 C 432.53223 507.634884 434.280319 505.887721 432.824686 506.18251 C 431.369053 506.470109 414.80541 511.704406 414.220499 510.82723 Z M 452.87786 544.548182 L 434.851938 516.061527 M 432.53223 535.826751 C 432.818039 534.956764 433.695407 517.521091 433.695407 517.521091 " transform="matrix(0.587695,0,0,0.543292,-40.197164,-186.157083)"/>
<path style="fill-rule:evenodd;fill:rgb(99.607843%,81.176471%,24.313725%);fill-opacity:1;stroke-width:0.475;stroke-linecap:butt;stroke-linejoin:miter;stroke:rgb(31.764706%,12.54902%,2.745098%);stroke-opacity:0.996078;stroke-miterlimit:4;" d="M 388.929704 509.957244 C 390.092881 510.252032 392.12678 513.15678 393.289957 512.574392 C 394.453134 511.999195 396.194576 510.252032 396.194576 510.252032 C 396.194576 510.252032 395.908767 513.739167 398.235121 513.15678 C 400.554829 512.581582 400.847285 510.252032 400.847285 510.252032 C 400.847285 510.252032 402.588727 511.122019 404.04436 510.252032 C 405.499993 509.382046 406.94898 505.017735 406.370715 505.017735 C 405.792449 505.017735 389.514616 510.252032 388.929704 509.964434 Z M 388.351439 518.391077 C 388.351439 518.973464 385.440173 523.625374 386.317541 527.982495 C 387.188262 532.339616 388.929704 536.409138 389.22216 536.409138 C 389.514616 536.409138 393.874869 531.764418 397.650209 530.887242 C 401.432197 530.017256 406.94898 533.791989 406.66317 533.791989 C 406.370715 533.791989 405.207537 529.434868 405.207537 526.235332 C 405.207537 523.035796 409.56779 513.15678 409.56779 513.15678 Z M 388.351439 539.321075 C 388.351439 539.608674 389.22216 541.643435 391.256058 541.643435 C 393.289957 541.643435 393.582413 539.608674 393.582413 539.608674 C 393.582413 539.608674 393.289957 543.102999 396.487032 542.80821 C 399.684108 542.520611 400.847285 539.321075 400.847285 539.321075 C 400.847285 539.321075 401.139741 541.068238 403.751904 540.191061 C 406.370715 539.321075 409.860246 536.416328 409.56779 536.416328 C 409.275334 536.416328 388.637248 540.191061 388.344792 539.321075 Z M 388.351439 539.321075 " transform="matrix(0.587695,0,0,0.543292,-40.197164,-186.157083)"/>
<path style="fill-rule:evenodd;fill:rgb(74.509804%,5.882353%,9.019608%);fill-opacity:0.996078;stroke-width:0.581;stroke-linecap:butt;stroke-linejoin:miter;stroke:rgb(31.764706%,12.54902%,2.745098%);stroke-opacity:0.996078;stroke-miterlimit:4;" d="M 408.98255 476.958178 C 408.977856 478.000986 408.135993 478.84855 407.08775 478.84893 C 406.04823 478.848968 405.204181 478.002354 405.200153 476.959888 C 405.196124 475.917422 406.046709 475.069516 407.08623 475.069478 C 408.134472 475.069098 408.978521 475.915712 408.98255 476.958178 Z M 408.98255 476.958178 " transform="matrix(0.0188063,-0.447171,0.479559,0.0167167,-46.9251,275.724417)"/>
<path style="fill-rule:evenodd;fill:rgb(74.509804%,5.882353%,9.019608%);fill-opacity:0.996078;stroke-width:0.581;stroke-linecap:butt;stroke-linejoin:miter;stroke:rgb(31.764706%,12.54902%,2.745098%);stroke-opacity:0.996078;stroke-miterlimit:4;" d="M 408.977339 476.957379 C 408.981368 477.999844 408.130782 478.847751 407.091262 478.847789 C 406.043019 478.848169 405.198971 478.001555 405.203665 476.958747 C 405.199636 475.916281 406.050221 475.068375 407.089742 475.068337 C 408.137985 475.067957 408.982033 475.914571 408.977339 476.957379 Z M 408.977339 476.957379 " transform="matrix(0.0188063,-0.447171,0.479559,0.0167167,-40.75665,274.25335)"/>
<path style="fill-rule:evenodd;fill:rgb(74.509804%,5.882353%,9.019608%);fill-opacity:0.996078;stroke-width:0.581;stroke-linecap:butt;stroke-linejoin:miter;stroke:rgb(31.764706%,12.54902%,2.745098%);stroke-opacity:0.996078;stroke-miterlimit:4;" d="M 408.984427 476.961675 C 408.979734 478.004483 408.137871 478.852047 407.089628 478.852427 C 406.050108 478.852465 405.197336 478.006193 405.20203 476.963386 C 405.197698 475.912786 406.048587 475.073014 407.088107 475.072976 C 408.13635 475.072596 408.980399 475.919209 408.984427 476.961675 Z M 408.984427 476.961675 " transform="matrix(0.0188063,-0.447171,0.479559,0.0167167,-43.840875,277.291604)"/>
<path style="fill-rule:evenodd;fill:rgb(74.509804%,5.882353%,9.019608%);fill-opacity:0.996078;stroke-width:0.581;stroke-linecap:butt;stroke-linejoin:miter;stroke:rgb(31.764706%,12.54902%,2.745098%);stroke-opacity:0.996078;stroke-miterlimit:4;" d="M 408.983879 476.961697 C 408.979185 478.004505 408.137322 478.852069 407.089079 478.852449 C 406.049559 478.852487 405.196788 478.006215 405.201481 476.963407 C 405.197149 475.912808 406.048038 475.073035 407.087558 475.072997 C 408.135801 475.072617 408.97985 475.919231 408.983879 476.961697 Z M 408.983879 476.961697 " transform="matrix(0.0188063,-0.447171,0.479559,0.0167167,-43.840875,272.681983)"/>
<path style="fill:none;stroke-width:0.475;stroke-linecap:butt;stroke-linejoin:miter;stroke:rgb(31.764706%,12.54902%,2.745098%);stroke-opacity:0.996078;stroke-miterlimit:4;" d="M 398.228475 500.071037 C 398.228475 499.783438 407.241436 503.85296 407.241436 504.140559 C 407.241436 504.428158 439.21219 546.870542 439.504646 546.870542 M 423.519269 504.140559 L 431.661509 507.627694 L 434.273672 514.019576 M 372.93768 503.558172 C 372.651871 503.558172 381.950641 510.532441 381.950641 510.532441 L 383.113819 516.349126 M 341.259382 546.000556 C 345.327178 544.253394 373.522592 519.548662 373.522592 519.548662 M 333.702054 541.348646 C 337.191585 538.443899 365.386999 514.609153 365.386999 514.609153 M 386.596703 518.678676 L 416.540206 568.382928 M 413.010794 539.227606 C 413.010794 539.227606 416.540206 550.940064 420.029737 552.687227 C 423.519269 554.427199 427.587065 557.331946 427.587065 557.331946 " transform="matrix(0.587695,0,0,0.543292,-40.197164,-186.157083)"/>
<path style="fill:none;stroke-width:0.475;stroke-linecap:butt;stroke-linejoin:miter;stroke:rgb(31.764706%,12.54902%,2.745098%);stroke-opacity:0.996078;stroke-miterlimit:4;" d="M 412.611991 539.479255 C 412.611991 539.479255 415.09122 553.269614 418.580751 555.886763 C 422.070282 558.503911 425.553167 561.408659 425.553167 561.408659 " transform="matrix(0.587695,0,0,0.543292,-40.197164,-186.157083)"/>
<path style="fill:none;stroke-width:0.475;stroke-linecap:butt;stroke-linejoin:miter;stroke:rgb(31.764706%,12.54902%,2.745098%);stroke-opacity:0.996078;stroke-miterlimit:4;" d="M 390.96302 439.029427 C 390.96302 439.029427 394.445905 458.212263 401.424968 462.576574 C 408.404031 466.933695 414.21327 470.715619 414.21327 470.715619 " transform="matrix(0.587695,0,0,0.543292,-41.649947,-131.614779)"/>
<path style="fill:none;stroke-width:0.475;stroke-linecap:butt;stroke-linejoin:miter;stroke:rgb(31.764706%,12.54902%,2.745098%);stroke-opacity:0.996078;stroke-miterlimit:4;" d="M 390.670564 438.741828 C 390.670564 438.741828 398.227892 453.855142 404.622043 458.507052 C 411.016194 463.158962 419.736699 467.516083 419.736699 467.516083 M 366.257138 439.899413 C 368.291036 443.386548 368.005227 450.073219 370.331581 452.402769 C 372.651289 454.725128 376.14082 459.959426 376.14082 459.959426 " transform="matrix(0.587695,0,0,0.543292,-41.649947,-131.614779)"/>
<path style="fill:none;stroke-width:0.475;stroke-linecap:butt;stroke-linejoin:miter;stroke:rgb(31.764706%,12.54902%,2.745098%);stroke-opacity:0.996078;stroke-miterlimit:4;" d="M 366.84205 440.187012 C 368.005227 441.934174 371.24883 450.619656 373.236201 453.272755 C 374.691834 455.595115 389.514034 470.42083 389.514034 470.42083 " transform="matrix(0.587695,0,0,0.543292,-41.649947,-131.614779)"/>
<path style="fill-rule:evenodd;fill:rgb(0%,0%,0%);fill-opacity:1;stroke-width:0.475;stroke-linecap:butt;stroke-linejoin:miter;stroke:rgb(31.764706%,12.54902%,2.745098%);stroke-opacity:0.996078;stroke-miterlimit:4;" d="M 384.568869 471.147017 C 384.568869 472.354931 383.591801 473.332767 382.388743 473.332767 C 381.185686 473.332767 380.208617 472.354931 380.208617 471.147017 C 380.208617 469.946292 381.185686 468.968456 382.388743 468.968456 C 383.591801 468.968456 384.568869 469.946292 384.568869 471.147017 Z M 395.323273 475.798926 C 395.323273 476.841472 394.472492 477.689888 393.428956 477.689888 C 392.38542 477.689888 391.541285 476.841472 391.541285 475.798926 C 391.541285 474.756381 392.38542 473.907965 393.428956 473.907965 C 394.472492 473.907965 395.323273 474.756381 395.323273 475.798926 Z M 408.982296 476.956511 C 408.982296 478.006247 408.131515 478.847473 407.087979 478.847473 C 406.044443 478.847473 405.200308 478.006247 405.200308 476.956511 C 405.200308 475.913966 406.044443 475.072739 407.087979 475.072739 C 408.131515 475.072739 408.982296 475.913966 408.982296 476.956511 Z M 420.899876 472.462781 C 420.899876 473.426237 420.18203 474.202753 419.298015 474.202753 C 418.420647 474.202753 417.702801 473.426237 417.702801 472.462781 C 417.702801 471.499325 418.420647 470.715619 419.298015 470.715619 C 420.18203 470.715619 420.899876 471.499325 420.899876 472.462781 Z M 430.491103 466.789896 C 430.491103 467.674262 429.646968 468.393259 428.596786 468.393259 C 427.55325 468.393259 426.709115 467.674262 426.709115 466.789896 C 426.709115 465.90553 427.559896 465.186533 428.596786 465.186533 C 429.640322 465.186533 430.491103 465.90553 430.491103 466.789896 Z M 430.491103 466.789896 " transform="matrix(0.587695,0,0,0.543292,-41.649947,-131.614779)"/>
<path style="fill-rule:evenodd;fill:rgb(100%,0%,0%);fill-opacity:0.996078;stroke-width:0.475;stroke-linecap:butt;stroke-linejoin:miter;stroke:rgb(31.764706%,12.54902%,2.745098%);stroke-opacity:0.996078;stroke-miterlimit:4;" d="M 374.100275 404.438488 C 373.229554 405.020876 358.693163 408.508011 360.727061 408.220412 C 362.76096 407.932813 374.392731 411.125159 374.100275 410.255173 C 373.807819 409.385187 374.100275 405.020876 374.100275 404.438488 Z M 398.812804 400.081367 C 398.227892 400.081367 389.799843 403.280903 390.092299 403.280903 C 390.384755 403.280903 399.683525 405.890862 399.391069 405.308475 C 399.098613 404.733277 399.098613 400.951354 398.812804 400.081367 Z M 424.096952 402.993305 C 423.518687 403.280903 413.635004 405.603263 415.383093 405.898052 C 417.124536 406.185651 423.811143 408.515201 423.811143 407.932813 C 423.811143 407.350426 423.811143 403.280903 424.096952 402.993305 Z M 424.096952 402.993305 " transform="matrix(0.587695,0,0,0.543292,-41.649947,-131.614779)"/>
<path style="fill:none;stroke-width:0.475;stroke-linecap:butt;stroke-linejoin:miter;stroke:rgb(31.764706%,12.54902%,2.745098%);stroke-opacity:0.996078;stroke-miterlimit:4;" d="M 413.641651 471.010407 C 413.92746 466.358498 422.362156 439.906603 422.362156 439.906603 M 416.539624 470.133231 C 416.539624 469.838442 423.226231 440.187012 423.226231 440.187012 M 419.45089 467.810871 C 419.736699 466.063709 424.389408 440.194202 424.389408 440.194202 M 413.92746 467.228484 C 415.383093 466.358498 419.743346 465.193723 419.743346 465.193723 M 415.961359 462.576574 C 417.410345 462.576574 420.321611 461.418989 420.321611 461.418989 M 416.83208 459.089439 C 416.83208 458.801841 421.192332 457.924664 421.192332 457.924664 M 417.410345 454.732318 L 422.063054 453.855142 M 419.45089 450.950395 C 419.45089 451.237994 422.647965 451.237994 422.647965 451.237994 M 420.321611 447.46326 C 420.899876 447.46326 423.518687 448.038458 423.518687 448.038458 " transform="matrix(0.587695,0,0,0.543292,-41.649947,-131.614779)"/>
<path style="fill:none;stroke-width:0.475;stroke-linecap:butt;stroke-linejoin:miter;stroke:rgb(31.764706%,12.54902%,2.745098%);stroke-opacity:0.996078;stroke-miterlimit:4;" d="M 413.642595 471.012206 C 413.928404 466.359345 422.3631 439.906076 422.3631 439.906076 M 416.540568 471.32148 C 416.540568 471.032824 423.227174 440.194732 423.227174 440.194732 M 418.827042 471.36959 C 419.119498 469.623908 424.390352 440.194732 424.390352 440.194732 M 413.928404 467.232186 C 415.384037 466.359345 419.74429 465.197848 419.74429 465.197848 M 415.962302 462.579325 C 417.411289 462.579325 420.322555 461.417827 420.322555 461.417827 M 416.833024 459.08796 C 416.833024 458.799304 421.193276 457.926463 421.193276 457.926463 M 417.411289 454.730628 L 422.057351 453.857787 M 419.451834 450.950608 C 419.451834 451.239264 422.648909 451.239264 422.648909 451.239264 M 420.322555 447.459244 C 420.90082 447.459244 423.51963 448.043429 423.51963 448.043429 " transform="matrix(0.587695,0,0,0.568367,-56.201283,-141.59045)"/>
<path style="fill:none;stroke-width:0.474;stroke-linecap:butt;stroke-linejoin:miter;stroke:rgb(31.764706%,12.54902%,2.745098%);stroke-opacity:0.996078;stroke-miterlimit:4;" d="M 413.64222 471.0075 C 413.928029 466.362345 422.362725 439.907618 422.362725 439.907618 M 416.540193 470.129453 C 416.540193 469.83913 423.2268 440.190859 423.2268 440.190859 M 419.451459 467.806875 C 419.737268 466.064942 424.389977 440.19794 424.389977 440.19794 M 413.928029 467.233311 C 415.383662 466.355264 419.743915 465.193975 419.743915 465.193975 M 415.961928 462.581075 C 417.410914 462.581075 420.32218 461.419786 420.32218 461.419786 M 416.832649 459.090127 C 416.832649 458.799805 421.192901 457.928838 421.192901 457.928838 M 417.410914 454.728213 L 422.056976 453.857246 M 419.451459 450.946943 C 419.451459 451.237265 422.648534 451.237265 422.648534 451.237265 M 420.32218 447.463077 C 420.900445 447.463077 423.519256 448.03664 423.519256 448.03664 " transform="matrix(-0.587695,0,0,0.55165,429.888563,-134.87035)"/>
<path style="fill-rule:evenodd;fill:rgb(86.666667%,54.509804%,34.901961%);fill-opacity:1;stroke-width:0.475;stroke-linecap:butt;stroke-linejoin:miter;stroke:rgb(31.764706%,12.54902%,2.745098%);stroke-opacity:0.996078;stroke-miterlimit:4;" d="M 426.417242 558.496721 L 454.03439 559.079109 L 454.326846 557.044348 L 425.838976 556.756749 Z M 427.587065 551.227663 C 430.790788 551.227663 454.911758 546.582943 454.911758 546.582943 C 454.911758 546.582943 455.789126 543.671006 454.911758 543.671006 C 454.041037 543.671006 427.587065 549.192902 427.587065 549.192902 Z M 427.587065 551.227663 " transform="matrix(0.587695,0,0,0.543292,-40.197164,-186.157083)"/>
<path style="fill-rule:evenodd;fill:rgb(74.509804%,5.882353%,9.019608%);fill-opacity:0.996078;stroke-width:0.581;stroke-linecap:butt;stroke-linejoin:miter;stroke:rgb(31.764706%,12.54902%,2.745098%);stroke-opacity:0.996078;stroke-miterlimit:4;" d="M 408.980096 476.961845 C 408.984125 478.004311 408.13354 478.852217 407.094019 478.852255 C 406.045776 478.852635 405.201728 478.006021 405.197699 476.963555 C 405.202089 475.912614 406.044256 475.073183 407.092499 475.072803 C 408.132019 475.072765 408.976068 475.919379 408.980096 476.961845 Z M 408.980096 476.961845 " transform="matrix(0.0188063,-0.447171,0.479559,0.0167167,-43.840875,274.988883)"/>
</g>
</svg>
