<?xml version="1.0" encoding="UTF-8"?>
<svg xmlns="http://www.w3.org/2000/svg" xmlns:xlink="http://www.w3.org/1999/xlink" width="255pt" height="170pt" viewBox="0 0 255 170" version="1.1">
<g id="surface1">
<path style=" stroke:none;fill-rule:nonzero;fill:rgb(100%,60%,20%);fill-opacity:1;" d="M 0 0 L 255 0 L 255 56.667969 L 0 56.667969 Z M 0 0 "/>
<path style=" stroke:none;fill-rule:nonzero;fill:rgb(100%,100%,100%);fill-opacity:1;" d="M 0 56.667969 L 255 56.667969 L 255 113.332031 L 0 113.332031 Z M 0 56.667969 "/>
<path style=" stroke:none;fill-rule:nonzero;fill:rgb(7.058824%,53.333333%,2.745098%);fill-opacity:1;" d="M 0 113.332031 L 255 113.332031 L 255 170 L 0 170 Z M 0 113.332031 "/>
<path style=" stroke:none;fill-rule:nonzero;fill:rgb(0%,0%,53.333333%);fill-opacity:1;" d="M 153 85 C 153 97.519531 141.582031 107.667969 127.5 107.667969 C 113.417969 107.667969 102 97.519531 102 85 C 102 72.480469 113.417969 62.332031 127.5 62.332031 C 141.582031 62.332031 153 72.480469 153 85 Z M 153 85 "/>
<path style=" stroke:none;fill-rule:nonzero;fill:rgb(100%,100%,100%);fill-opacity:1;" d="M 149.8125 85 C 149.8125 95.953125 139.824219 104.832031 127.5 104.832031 C 115.175781 104.832031 105.1875 95.953125 105.1875 85 C 105.1875 74.046875 115.175781 65.167969 127.5 65.167969 C 139.824219 65.167969 149.8125 74.046875 149.8125 85 Z M 149.8125 85 "/>
<path style=" stroke:none;fill-rule:nonzero;fill:rgb(0%,0%,53.333333%);fill-opacity:1;" d="M 131.960938 85 C 131.960938 87.191406 129.964844 88.964844 127.5 88.964844 C 125.035156 88.964844 123.039062 87.191406 123.039062 85 C 123.039062 82.808594 125.035156 81.035156 127.5 81.035156 C 129.964844 81.035156 131.960938 82.808594 131.960938 85 Z M 131.960938 85 "/>
<path style=" stroke:none;fill-rule:nonzero;fill:rgb(0%,0%,53.333333%);fill-opacity:1;" d="M 150.726562 87.71875 C 150.648438 88.261719 150.085938 88.644531 149.476562 88.570312 C 148.867188 88.5 148.433594 88.003906 148.515625 87.460938 C 148.597656 86.917969 149.15625 86.535156 149.765625 86.605469 C 150.378906 86.675781 150.808594 87.175781 150.726562 87.71875 Z M 150.726562 87.71875 "/>
<path style=" stroke:none;fill-rule:nonzero;fill:rgb(0%,0%,53.333333%);fill-opacity:1;" d="M 127.5 104.832031 L 128.265625 92.933594 L 127.5 87.265625 L 126.734375 92.933594 Z M 127.5 104.832031 "/>
<path style=" stroke:none;fill-rule:nonzero;fill:rgb(0%,0%,53.333333%);fill-opacity:1;" d="M 149.144531 92.96875 C 148.910156 93.476562 148.257812 93.714844 147.6875 93.507812 C 147.117188 93.296875 146.847656 92.714844 147.082031 92.210938 C 147.320312 91.703125 147.972656 91.464844 148.542969 91.671875 C 149.109375 91.882812 149.378906 92.464844 149.144531 92.96875 Z M 149.144531 92.96875 "/>
<path style=" stroke:none;fill-rule:nonzero;fill:rgb(0%,0%,53.333333%);fill-opacity:1;" d="M 121.726562 104.15625 L 125.929688 92.839844 L 126.839844 87.1875 L 124.449219 92.488281 Z M 121.726562 104.15625 "/>
<path style=" stroke:none;fill-rule:nonzero;fill:rgb(0%,0%,53.333333%);fill-opacity:1;" d="M 146.085938 97.675781 C 145.710938 98.113281 145.011719 98.195312 144.523438 97.859375 C 144.035156 97.527344 143.941406 96.90625 144.316406 96.46875 C 144.691406 96.035156 145.390625 95.953125 145.882812 96.285156 C 146.371094 96.621094 146.460938 97.242188 146.085938 97.675781 Z M 146.085938 97.675781 "/>
<path style=" stroke:none;fill-rule:nonzero;fill:rgb(0%,0%,53.333333%);fill-opacity:1;" d="M 116.34375 102.175781 L 123.699219 92.210938 L 126.226562 86.964844 L 122.375 91.53125 Z M 116.34375 102.175781 "/>
<path style=" stroke:none;fill-rule:nonzero;fill:rgb(0%,0%,53.333333%);fill-opacity:1;" d="M 141.761719 101.523438 C 141.273438 101.855469 140.574219 101.773438 140.199219 101.339844 C 139.824219 100.902344 139.914062 100.28125 140.402344 99.949219 C 140.894531 99.613281 141.59375 99.695312 141.96875 100.132812 C 142.34375 100.566406 142.25 101.1875 141.761719 101.523438 Z M 141.761719 101.523438 "/>
<path style=" stroke:none;fill-rule:nonzero;fill:rgb(0%,0%,53.333333%);fill-opacity:1;" d="M 111.722656 99.023438 L 121.730469 91.089844 L 125.695312 86.601562 L 120.648438 90.128906 Z M 111.722656 99.023438 "/>
<path style=" stroke:none;fill-rule:nonzero;fill:rgb(0%,0%,53.333333%);fill-opacity:1;" d="M 136.464844 104.238281 C 135.894531 104.449219 135.242188 104.210938 135.007812 103.703125 C 134.773438 103.195312 135.042969 102.617188 135.613281 102.40625 C 136.179688 102.199219 136.832031 102.4375 137.070312 102.945312 C 137.304688 103.449219 137.035156 104.03125 136.464844 104.238281 Z M 136.464844 104.238281 "/>
<path style=" stroke:none;fill-rule:nonzero;fill:rgb(0%,0%,53.333333%);fill-opacity:1;" d="M 108.175781 94.917969 L 120.152344 89.554688 L 125.292969 86.132812 L 119.386719 88.378906 Z M 108.175781 94.917969 "/>
<path style=" stroke:none;fill-rule:nonzero;fill:rgb(0%,0%,53.333333%);fill-opacity:1;" d="M 130.558594 105.648438 C 129.945312 105.71875 129.386719 105.335938 129.304688 104.792969 C 129.226562 104.25 129.65625 103.753906 130.265625 103.679688 C 130.878906 103.609375 131.4375 103.992188 131.519531 104.535156 C 131.597656 105.078125 131.167969 105.574219 130.558594 105.648438 Z M 130.558594 105.648438 "/>
<path style=" stroke:none;fill-rule:nonzero;fill:rgb(0%,0%,53.333333%);fill-opacity:1;" d="M 105.949219 90.132812 L 119.078125 87.710938 L 125.035156 85.585938 L 118.679688 86.394531 Z M 105.949219 90.132812 "/>
<path style=" stroke:none;fill-rule:nonzero;fill:rgb(0%,0%,53.333333%);fill-opacity:1;" d="M 124.441406 105.648438 C 123.832031 105.574219 123.402344 105.078125 123.480469 104.535156 C 123.5625 103.992188 124.121094 103.609375 124.734375 103.679688 C 125.34375 103.753906 125.773438 104.25 125.695312 104.792969 C 125.613281 105.335938 125.054688 105.71875 124.441406 105.648438 Z M 124.441406 105.648438 "/>
<path style=" stroke:none;fill-rule:nonzero;fill:rgb(0%,0%,53.333333%);fill-opacity:1;" d="M 105.1875 85 L 118.574219 85.679688 L 124.949219 85 L 118.574219 84.320312 Z M 105.1875 85 "/>
<path style=" stroke:none;fill-rule:nonzero;fill:rgb(0%,0%,53.333333%);fill-opacity:1;" d="M 118.535156 104.238281 C 117.964844 104.03125 117.695312 103.449219 117.929688 102.945312 C 118.167969 102.4375 118.820312 102.199219 119.386719 102.40625 C 119.957031 102.617188 120.226562 103.195312 119.992188 103.703125 C 119.757812 104.210938 119.105469 104.449219 118.535156 104.238281 Z M 118.535156 104.238281 "/>
<path style=" stroke:none;fill-rule:nonzero;fill:rgb(0%,0%,53.333333%);fill-opacity:1;" d="M 105.949219 79.867188 L 118.679688 83.605469 L 125.035156 84.414062 L 119.078125 82.289062 Z M 105.949219 79.867188 "/>
<path style=" stroke:none;fill-rule:nonzero;fill:rgb(0%,0%,53.333333%);fill-opacity:1;" d="M 113.238281 101.523438 C 112.75 101.1875 112.65625 100.566406 113.03125 100.132812 C 113.40625 99.695312 114.105469 99.613281 114.597656 99.949219 C 115.085938 100.28125 115.175781 100.902344 114.800781 101.339844 C 114.425781 101.773438 113.726562 101.855469 113.238281 101.523438 Z M 113.238281 101.523438 "/>
<path style=" stroke:none;fill-rule:nonzero;fill:rgb(0%,0%,53.333333%);fill-opacity:1;" d="M 108.175781 75.082031 L 119.386719 81.621094 L 125.292969 83.867188 L 120.152344 80.445312 Z M 108.175781 75.082031 "/>
<path style=" stroke:none;fill-rule:nonzero;fill:rgb(0%,0%,53.333333%);fill-opacity:1;" d="M 108.914062 97.675781 C 108.539062 97.242188 108.628906 96.621094 109.117188 96.285156 C 109.609375 95.953125 110.308594 96.035156 110.683594 96.46875 C 111.058594 96.90625 110.964844 97.527344 110.476562 97.859375 C 109.988281 98.195312 109.289062 98.113281 108.914062 97.675781 Z M 108.914062 97.675781 "/>
<path style=" stroke:none;fill-rule:nonzero;fill:rgb(0%,0%,53.333333%);fill-opacity:1;" d="M 111.722656 70.976562 L 120.648438 79.871094 L 125.695312 83.398438 L 121.730469 78.910156 Z M 111.722656 70.976562 "/>
<path style=" stroke:none;fill-rule:nonzero;fill:rgb(0%,0%,53.333333%);fill-opacity:1;" d="M 105.855469 92.96875 C 105.621094 92.464844 105.890625 91.882812 106.457031 91.671875 C 107.027344 91.464844 107.679688 91.703125 107.917969 92.210938 C 108.152344 92.714844 107.882812 93.296875 107.3125 93.507812 C 106.742188 93.714844 106.089844 93.476562 105.855469 92.96875 Z M 105.855469 92.96875 "/>
<path style=" stroke:none;fill-rule:nonzero;fill:rgb(0%,0%,53.333333%);fill-opacity:1;" d="M 116.34375 67.824219 L 122.375 78.46875 L 126.226562 83.035156 L 123.699219 77.789062 Z M 116.34375 67.824219 "/>
<path style=" stroke:none;fill-rule:nonzero;fill:rgb(0%,0%,53.333333%);fill-opacity:1;" d="M 104.273438 87.71875 C 104.191406 87.175781 104.621094 86.675781 105.234375 86.605469 C 105.84375 86.535156 106.402344 86.917969 106.484375 87.460938 C 106.566406 88.003906 106.132812 88.5 105.523438 88.570312 C 104.914062 88.644531 104.351562 88.261719 104.273438 87.71875 Z M 104.273438 87.71875 "/>
<path style=" stroke:none;fill-rule:nonzero;fill:rgb(0%,0%,53.333333%);fill-opacity:1;" d="M 121.726562 65.84375 L 124.449219 77.511719 L 126.839844 82.8125 L 125.929688 77.160156 Z M 121.726562 65.84375 "/>
<path style=" stroke:none;fill-rule:nonzero;fill:rgb(0%,0%,53.333333%);fill-opacity:1;" d="M 104.273438 82.28125 C 104.351562 81.738281 104.914062 81.355469 105.523438 81.429688 C 106.132812 81.5 106.566406 81.996094 106.484375 82.539062 C 106.402344 83.082031 105.84375 83.464844 105.234375 83.394531 C 104.621094 83.324219 104.191406 82.824219 104.273438 82.28125 Z M 104.273438 82.28125 "/>
<path style=" stroke:none;fill-rule:nonzero;fill:rgb(0%,0%,53.333333%);fill-opacity:1;" d="M 127.5 65.167969 L 126.734375 77.066406 L 127.5 82.734375 L 128.265625 77.066406 Z M 127.5 65.167969 "/>
<path style=" stroke:none;fill-rule:nonzero;fill:rgb(0%,0%,53.333333%);fill-opacity:1;" d="M 105.855469 77.03125 C 106.089844 76.523438 106.742188 76.285156 107.3125 76.492188 C 107.882812 76.703125 108.152344 77.285156 107.917969 77.789062 C 107.679688 78.296875 107.027344 78.535156 106.457031 78.328125 C 105.890625 78.117188 105.621094 77.535156 105.855469 77.03125 Z M 105.855469 77.03125 "/>
<path style=" stroke:none;fill-rule:nonzero;fill:rgb(0%,0%,53.333333%);fill-opacity:1;" d="M 133.273438 65.84375 L 129.070312 77.160156 L 128.160156 82.8125 L 130.550781 77.511719 Z M 133.273438 65.84375 "/>
<path style=" stroke:none;fill-rule:nonzero;fill:rgb(0%,0%,53.333333%);fill-opacity:1;" d="M 108.914062 72.324219 C 109.289062 71.886719 109.988281 71.804688 110.476562 72.140625 C 110.964844 72.472656 111.058594 73.09375 110.683594 73.53125 C 110.308594 73.964844 109.609375 74.046875 109.117188 73.714844 C 108.628906 73.378906 108.539062 72.757812 108.914062 72.324219 Z M 108.914062 72.324219 "/>
<path style=" stroke:none;fill-rule:nonzero;fill:rgb(0%,0%,53.333333%);fill-opacity:1;" d="M 138.65625 67.824219 L 131.300781 77.789062 L 128.773438 83.035156 L 132.625 78.46875 Z M 138.65625 67.824219 "/>
<path style=" stroke:none;fill-rule:nonzero;fill:rgb(0%,0%,53.333333%);fill-opacity:1;" d="M 113.238281 68.476562 C 113.726562 68.144531 114.425781 68.226562 114.800781 68.660156 C 115.175781 69.097656 115.085938 69.71875 114.597656 70.050781 C 114.105469 70.386719 113.40625 70.304688 113.03125 69.867188 C 112.65625 69.433594 112.75 68.8125 113.238281 68.476562 Z M 113.238281 68.476562 "/>
<path style=" stroke:none;fill-rule:nonzero;fill:rgb(0%,0%,53.333333%);fill-opacity:1;" d="M 143.277344 70.976562 L 133.269531 78.910156 L 129.304688 83.398438 L 134.351562 79.871094 Z M 143.277344 70.976562 "/>
<path style=" stroke:none;fill-rule:nonzero;fill:rgb(0%,0%,53.333333%);fill-opacity:1;" d="M 118.535156 65.761719 C 119.105469 65.550781 119.757812 65.789062 119.992188 66.296875 C 120.226562 66.804688 119.957031 67.382812 119.386719 67.59375 C 118.820312 67.800781 118.167969 67.5625 117.929688 67.054688 C 117.695312 66.550781 117.964844 65.96875 118.535156 65.761719 Z M 118.535156 65.761719 "/>
<path style=" stroke:none;fill-rule:nonzero;fill:rgb(0%,0%,53.333333%);fill-opacity:1;" d="M 146.824219 75.082031 L 134.847656 80.445312 L 129.707031 83.867188 L 135.613281 81.621094 Z M 146.824219 75.082031 "/>
<path style=" stroke:none;fill-rule:nonzero;fill:rgb(0%,0%,53.333333%);fill-opacity:1;" d="M 124.441406 64.351562 C 125.054688 64.28125 125.613281 64.664062 125.695312 65.207031 C 125.773438 65.75 125.34375 66.246094 124.734375 66.320312 C 124.121094 66.390625 123.5625 66.007812 123.480469 65.464844 C 123.402344 64.921875 123.832031 64.425781 124.441406 64.351562 Z M 124.441406 64.351562 "/>
<path style=" stroke:none;fill-rule:nonzero;fill:rgb(0%,0%,53.333333%);fill-opacity:1;" d="M 149.050781 79.867188 L 135.921875 82.289062 L 129.964844 84.414062 L 136.320312 83.605469 Z M 149.050781 79.867188 "/>
<path style=" stroke:none;fill-rule:nonzero;fill:rgb(0%,0%,53.333333%);fill-opacity:1;" d="M 130.558594 64.351562 C 131.167969 64.425781 131.597656 64.921875 131.519531 65.464844 C 131.4375 66.007812 130.878906 66.390625 130.265625 66.320312 C 129.65625 66.246094 129.226562 65.75 129.304688 65.207031 C 129.386719 64.664062 129.945312 64.28125 130.558594 64.351562 Z M 130.558594 64.351562 "/>
<path style=" stroke:none;fill-rule:nonzero;fill:rgb(0%,0%,53.333333%);fill-opacity:1;" d="M 149.8125 85 L 136.425781 84.320312 L 130.050781 85 L 136.425781 85.679688 Z M 149.8125 85 "/>
<path style=" stroke:none;fill-rule:nonzero;fill:rgb(0%,0%,53.333333%);fill-opacity:1;" d="M 136.464844 65.761719 C 137.035156 65.96875 137.304688 66.550781 137.070312 67.054688 C 136.832031 67.5625 136.179688 67.800781 135.613281 67.59375 C 135.042969 67.382812 134.773438 66.804688 135.007812 66.296875 C 135.242188 65.789062 135.894531 65.550781 136.464844 65.761719 Z M 136.464844 65.761719 "/>
<path style=" stroke:none;fill-rule:nonzero;fill:rgb(0%,0%,53.333333%);fill-opacity:1;" d="M 149.050781 90.132812 L 136.320312 86.394531 L 129.964844 85.585938 L 135.921875 87.710938 Z M 149.050781 90.132812 "/>
<path style=" stroke:none;fill-rule:nonzero;fill:rgb(0%,0%,53.333333%);fill-opacity:1;" d="M 141.761719 68.476562 C 142.25 68.8125 142.34375 69.433594 141.96875 69.867188 C 141.59375 70.304688 140.894531 70.386719 140.402344 70.050781 C 139.914062 69.71875 139.824219 69.097656 140.199219 68.660156 C 140.574219 68.226562 141.273438 68.144531 141.761719 68.476562 Z M 141.761719 68.476562 "/>
<path style=" stroke:none;fill-rule:nonzero;fill:rgb(0%,0%,53.333333%);fill-opacity:1;" d="M 146.824219 94.917969 L 135.613281 88.378906 L 129.707031 86.132812 L 134.847656 89.554688 Z M 146.824219 94.917969 "/>
<path style=" stroke:none;fill-rule:nonzero;fill:rgb(0%,0%,53.333333%);fill-opacity:1;" d="M 146.085938 72.324219 C 146.460938 72.757812 146.371094 73.378906 145.882812 73.714844 C 145.390625 74.046875 144.691406 73.964844 144.316406 73.53125 C 143.941406 73.09375 144.035156 72.472656 144.523438 72.140625 C 145.011719 71.804688 145.710938 71.886719 146.085938 72.324219 Z M 146.085938 72.324219 "/>
<path style=" stroke:none;fill-rule:nonzero;fill:rgb(0%,0%,53.333333%);fill-opacity:1;" d="M 143.277344 99.023438 L 134.351562 90.128906 L 129.304688 86.601562 L 133.269531 91.089844 Z M 143.277344 99.023438 "/>
<path style=" stroke:none;fill-rule:nonzero;fill:rgb(0%,0%,53.333333%);fill-opacity:1;" d="M 149.144531 77.03125 C 149.378906 77.535156 149.109375 78.117188 148.542969 78.328125 C 147.972656 78.535156 147.320312 78.296875 147.082031 77.789062 C 146.847656 77.285156 147.117188 76.703125 147.6875 76.492188 C 148.257812 76.285156 148.910156 76.523438 149.144531 77.03125 Z M 149.144531 77.03125 "/>
<path style=" stroke:none;fill-rule:nonzero;fill:rgb(0%,0%,53.333333%);fill-opacity:1;" d="M 138.65625 102.175781 L 132.625 91.53125 L 128.773438 86.964844 L 131.300781 92.210938 Z M 138.65625 102.175781 "/>
<path style=" stroke:none;fill-rule:nonzero;fill:rgb(0%,0%,53.333333%);fill-opacity:1;" d="M 150.726562 82.28125 C 150.808594 82.824219 150.378906 83.324219 149.765625 83.394531 C 149.15625 83.464844 148.597656 83.082031 148.515625 82.539062 C 148.433594 81.996094 148.867188 81.5 149.476562 81.429688 C 150.085938 81.355469 150.648438 81.738281 150.726562 82.28125 Z M 150.726562 82.28125 "/>
<path style=" stroke:none;fill-rule:nonzero;fill:rgb(0%,0%,53.333333%);fill-opacity:1;" d="M 133.273438 104.15625 L 130.550781 92.488281 L 128.160156 87.1875 L 129.070312 92.839844 Z M 133.273438 104.15625 "/>
</g>
</svg>
