<?xml version="1.0" encoding="UTF-8"?>
<svg xmlns="http://www.w3.org/2000/svg" xmlns:xlink="http://www.w3.org/1999/xlink" width="255pt" height="170pt" viewBox="0 0 255 170" version="1.1">
<g id="surface1">
<rect x="0" y="0" width="255" height="170" style="fill:rgb(100%,100%,100%);fill-opacity:1;stroke:none;"/>
<path style=" stroke:none;fill-rule:evenodd;fill:rgb(85.490196%,0%,0%);fill-opacity:1;" d="M -39.835938 114.164062 L 294.851562 114.164062 L 294.851562 170 L -39.835938 170 Z M -39.835938 114.164062 "/>
<path style=" stroke:none;fill-rule:evenodd;fill:rgb(100%,100%,100%);fill-opacity:1;" d="M 23.789062 116.527344 L 42.117188 116.527344 L 42.117188 117.648438 L 23.789062 117.648438 Z M 26.519531 122.136719 L 27.78125 122.136719 L 27.78125 123.222656 L 26.519531 123.222656 Z M 42.164062 122.101562 L 42.164062 123.222656 L 38.503906 123.222656 L 38.503906 122.101562 Z M 44.136719 116.527344 L 45.398438 116.527344 L 45.398438 123.222656 L 44.136719 123.222656 Z M 44.136719 116.527344 "/>
<path style=" stroke:none;fill-rule:evenodd;fill:rgb(100%,100%,100%);fill-opacity:1;" d="M 51.433594 122.101562 L 51.433594 123.222656 L 44.492188 123.222656 L 44.492188 122.101562 Z M 38.503906 119.480469 L 39.761719 119.480469 L 39.761719 123.222656 L 38.503906 123.222656 Z M 38.503906 119.480469 "/>
<path style=" stroke:none;fill-rule:evenodd;fill:rgb(100%,100%,100%);fill-opacity:1;" d="M 50.398438 116.527344 L 51.660156 116.527344 L 51.660156 123.222656 L 50.398438 123.222656 Z M 47.246094 116.527344 L 48.507812 116.527344 L 48.507812 123.222656 L 47.246094 123.222656 Z M 30.511719 119.191406 L 30.511719 120.316406 L 23.820312 120.316406 L 23.820312 119.191406 Z M 45.191406 119.191406 L 45.191406 120.316406 L 38.503906 120.316406 L 38.503906 119.191406 Z M 45.191406 119.191406 "/>
<path style=" stroke:none;fill-rule:evenodd;fill:rgb(100%,100%,100%);fill-opacity:1;" d="M 38.503906 119.480469 L 39.761719 119.480469 L 39.761719 123.222656 L 38.503906 123.222656 Z M 38.503906 119.480469 "/>
<path style=" stroke:none;fill-rule:evenodd;fill:rgb(100%,100%,100%);fill-opacity:1;" d="M 38.503906 119.480469 L 39.761719 119.480469 L 39.761719 123.222656 L 38.503906 123.222656 Z M 38.503906 119.480469 "/>
<path style=" stroke:none;fill-rule:evenodd;fill:rgb(100%,100%,100%);fill-opacity:1;" d="M 38.503906 119.480469 L 39.761719 119.480469 L 39.761719 123.222656 L 38.503906 123.222656 Z M 23.820312 119.480469 L 25.082031 119.480469 L 25.082031 123.222656 L 23.820312 123.222656 Z M 34.582031 119.480469 L 35.84375 119.480469 L 35.84375 123.222656 L 34.582031 123.222656 Z M 29.25 119.480469 L 30.511719 119.480469 L 30.511719 123.222656 L 29.25 123.222656 Z M 29.25 119.480469 "/>
<path style=" stroke:none;fill-rule:evenodd;fill:rgb(100%,100%,100%);fill-opacity:1;" d="M 35.46875 122.101562 L 35.46875 123.222656 L 29.8125 123.222656 L 29.8125 122.101562 Z M 35.84375 119.191406 L 35.84375 120.316406 L 32.257812 120.316406 L 32.257812 119.191406 Z M 35.84375 119.191406 "/>
<path style=" stroke:none;fill-rule:evenodd;fill:rgb(100%,100%,100%);fill-opacity:1;" d="M -6.320312 116.527344 L 12.011719 116.527344 L 12.011719 117.648438 L -6.320312 117.648438 Z M -3.585938 122.136719 L -2.324219 122.136719 L -2.324219 123.222656 L -3.585938 123.222656 Z M 12.058594 122.101562 L 12.058594 123.222656 L 8.394531 123.222656 L 8.394531 122.101562 Z M 14.027344 116.527344 L 15.289062 116.527344 L 15.289062 123.222656 L 14.027344 123.222656 Z M 14.027344 116.527344 "/>
<path style=" stroke:none;fill-rule:evenodd;fill:rgb(100%,100%,100%);fill-opacity:1;" d="M 21.324219 122.101562 L 21.324219 123.222656 L 14.382812 123.222656 L 14.382812 122.101562 Z M 8.394531 119.480469 L 9.65625 119.480469 L 9.65625 123.222656 L 8.394531 123.222656 Z M 8.394531 119.480469 "/>
<path style=" stroke:none;fill-rule:evenodd;fill:rgb(100%,100%,100%);fill-opacity:1;" d="M 20.292969 116.527344 L 21.554688 116.527344 L 21.554688 123.222656 L 20.292969 123.222656 Z M 17.140625 116.527344 L 18.402344 116.527344 L 18.402344 123.222656 L 17.140625 123.222656 Z M 0.40625 119.191406 L 0.40625 120.316406 L -6.285156 120.316406 L -6.285156 119.191406 Z M 15.085938 119.191406 L 15.085938 120.316406 L 8.394531 120.316406 L 8.394531 119.191406 Z M 15.085938 119.191406 "/>
<path style=" stroke:none;fill-rule:evenodd;fill:rgb(100%,100%,100%);fill-opacity:1;" d="M 8.394531 119.480469 L 9.65625 119.480469 L 9.65625 123.222656 L 8.394531 123.222656 Z M 8.394531 119.480469 "/>
<path style=" stroke:none;fill-rule:evenodd;fill:rgb(100%,100%,100%);fill-opacity:1;" d="M 8.394531 119.480469 L 9.65625 119.480469 L 9.65625 123.222656 L 8.394531 123.222656 Z M 8.394531 119.480469 "/>
<path style=" stroke:none;fill-rule:evenodd;fill:rgb(100%,100%,100%);fill-opacity:1;" d="M 8.394531 119.480469 L 9.65625 119.480469 L 9.65625 123.222656 L 8.394531 123.222656 Z M -6.285156 119.480469 L -5.023438 119.480469 L -5.023438 123.222656 L -6.285156 123.222656 Z M 4.476562 119.480469 L 5.738281 119.480469 L 5.738281 123.222656 L 4.476562 123.222656 Z M -0.855469 119.480469 L 0.40625 119.480469 L 0.40625 123.222656 L -0.855469 123.222656 Z M -0.855469 119.480469 "/>
<path style=" stroke:none;fill-rule:evenodd;fill:rgb(100%,100%,100%);fill-opacity:1;" d="M 5.359375 122.101562 L 5.359375 123.222656 L -0.292969 123.222656 L -0.292969 122.101562 Z M 5.738281 119.191406 L 5.738281 120.316406 L 2.152344 120.316406 L 2.152344 119.191406 Z M 5.738281 119.191406 "/>
<path style=" stroke:none;fill-rule:evenodd;fill:rgb(100%,100%,100%);fill-opacity:1;" d="M 53.644531 116.527344 L 71.972656 116.527344 L 71.972656 117.648438 L 53.644531 117.648438 Z M 56.375 122.136719 L 57.636719 122.136719 L 57.636719 123.222656 L 56.375 123.222656 Z M 72.019531 122.101562 L 72.019531 123.222656 L 68.355469 123.222656 L 68.355469 122.101562 Z M 73.988281 116.527344 L 75.25 116.527344 L 75.25 123.222656 L 73.988281 123.222656 Z M 73.988281 116.527344 "/>
<path style=" stroke:none;fill-rule:evenodd;fill:rgb(100%,100%,100%);fill-opacity:1;" d="M 81.285156 122.101562 L 81.285156 123.222656 L 74.34375 123.222656 L 74.34375 122.101562 Z M 68.355469 119.480469 L 69.617188 119.480469 L 69.617188 123.222656 L 68.355469 123.222656 Z M 68.355469 119.480469 "/>
<path style=" stroke:none;fill-rule:evenodd;fill:rgb(100%,100%,100%);fill-opacity:1;" d="M 80.253906 116.527344 L 81.515625 116.527344 L 81.515625 123.222656 L 80.253906 123.222656 Z M 77.101562 116.527344 L 78.363281 116.527344 L 78.363281 123.222656 L 77.101562 123.222656 Z M 60.367188 119.191406 L 60.367188 120.316406 L 53.675781 120.316406 L 53.675781 119.191406 Z M 75.046875 119.191406 L 75.046875 120.316406 L 68.355469 120.316406 L 68.355469 119.191406 Z M 75.046875 119.191406 "/>
<path style=" stroke:none;fill-rule:evenodd;fill:rgb(100%,100%,100%);fill-opacity:1;" d="M 68.355469 119.480469 L 69.617188 119.480469 L 69.617188 123.222656 L 68.355469 123.222656 Z M 68.355469 119.480469 "/>
<path style=" stroke:none;fill-rule:evenodd;fill:rgb(100%,100%,100%);fill-opacity:1;" d="M 68.355469 119.480469 L 69.617188 119.480469 L 69.617188 123.222656 L 68.355469 123.222656 Z M 68.355469 119.480469 "/>
<path style=" stroke:none;fill-rule:evenodd;fill:rgb(100%,100%,100%);fill-opacity:1;" d="M 68.355469 119.480469 L 69.617188 119.480469 L 69.617188 123.222656 L 68.355469 123.222656 Z M 53.675781 119.480469 L 54.9375 119.480469 L 54.9375 123.222656 L 53.675781 123.222656 Z M 64.4375 119.480469 L 65.699219 119.480469 L 65.699219 123.222656 L 64.4375 123.222656 Z M 59.105469 119.480469 L 60.367188 119.480469 L 60.367188 123.222656 L 59.105469 123.222656 Z M 59.105469 119.480469 "/>
<path style=" stroke:none;fill-rule:evenodd;fill:rgb(100%,100%,100%);fill-opacity:1;" d="M 65.320312 122.101562 L 65.320312 123.222656 L 59.667969 123.222656 L 59.667969 122.101562 Z M 65.699219 119.191406 L 65.699219 120.316406 L 62.113281 120.316406 L 62.113281 119.191406 Z M 65.699219 119.191406 "/>
<path style=" stroke:none;fill-rule:evenodd;fill:rgb(100%,100%,100%);fill-opacity:1;" d="M 83.691406 116.527344 L 102.019531 116.527344 L 102.019531 117.648438 L 83.691406 117.648438 Z M 86.425781 122.136719 L 87.6875 122.136719 L 87.6875 123.222656 L 86.425781 123.222656 Z M 102.070312 122.101562 L 102.070312 123.222656 L 98.40625 123.222656 L 98.40625 122.101562 Z M 104.039062 116.527344 L 105.300781 116.527344 L 105.300781 123.222656 L 104.039062 123.222656 Z M 104.039062 116.527344 "/>
<path style=" stroke:none;fill-rule:evenodd;fill:rgb(100%,100%,100%);fill-opacity:1;" d="M 111.335938 122.101562 L 111.335938 123.222656 L 104.394531 123.222656 L 104.394531 122.101562 Z M 98.40625 119.480469 L 99.667969 119.480469 L 99.667969 123.222656 L 98.40625 123.222656 Z M 98.40625 119.480469 "/>
<path style=" stroke:none;fill-rule:evenodd;fill:rgb(100%,100%,100%);fill-opacity:1;" d="M 110.304688 116.527344 L 111.566406 116.527344 L 111.566406 123.222656 L 110.304688 123.222656 Z M 107.148438 116.527344 L 108.410156 116.527344 L 108.410156 123.222656 L 107.148438 123.222656 Z M 90.417969 119.191406 L 90.417969 120.316406 L 83.726562 120.316406 L 83.726562 119.191406 Z M 105.097656 119.191406 L 105.097656 120.316406 L 98.40625 120.316406 L 98.40625 119.191406 Z M 105.097656 119.191406 "/>
<path style=" stroke:none;fill-rule:evenodd;fill:rgb(100%,100%,100%);fill-opacity:1;" d="M 98.40625 119.480469 L 99.667969 119.480469 L 99.667969 123.222656 L 98.40625 123.222656 Z M 98.40625 119.480469 "/>
<path style=" stroke:none;fill-rule:evenodd;fill:rgb(100%,100%,100%);fill-opacity:1;" d="M 98.40625 119.480469 L 99.667969 119.480469 L 99.667969 123.222656 L 98.40625 123.222656 Z M 98.40625 119.480469 "/>
<path style=" stroke:none;fill-rule:evenodd;fill:rgb(100%,100%,100%);fill-opacity:1;" d="M 98.40625 119.480469 L 99.667969 119.480469 L 99.667969 123.222656 L 98.40625 123.222656 Z M 83.726562 119.480469 L 84.988281 119.480469 L 84.988281 123.222656 L 83.726562 123.222656 Z M 94.488281 119.480469 L 95.746094 119.480469 L 95.746094 123.222656 L 94.484375 123.222656 Z M 89.15625 119.480469 L 90.417969 119.480469 L 90.417969 123.222656 L 89.15625 123.222656 Z M 89.15625 119.480469 "/>
<path style=" stroke:none;fill-rule:evenodd;fill:rgb(100%,100%,100%);fill-opacity:1;" d="M 95.371094 122.101562 L 95.371094 123.222656 L 89.714844 123.222656 L 89.714844 122.101562 Z M 95.746094 119.191406 L 95.746094 120.316406 L 92.164062 120.316406 L 92.164062 119.191406 Z M 95.746094 119.191406 "/>
<path style=" stroke:none;fill-rule:evenodd;fill:rgb(100%,100%,100%);fill-opacity:1;" d="M 113.851562 116.527344 L 132.179688 116.527344 L 132.179688 117.648438 L 113.851562 117.648438 Z M 116.585938 122.136719 L 117.84375 122.136719 L 117.84375 123.222656 L 116.585938 123.222656 Z M 132.226562 122.101562 L 132.226562 123.222656 L 128.566406 123.222656 L 128.566406 122.101562 Z M 134.199219 116.527344 L 135.460938 116.527344 L 135.460938 123.222656 L 134.199219 123.222656 Z M 134.199219 116.527344 "/>
<path style=" stroke:none;fill-rule:evenodd;fill:rgb(100%,100%,100%);fill-opacity:1;" d="M 141.496094 122.101562 L 141.496094 123.222656 L 134.554688 123.222656 L 134.554688 122.101562 Z M 128.566406 119.480469 L 129.828125 119.480469 L 129.828125 123.222656 L 128.566406 123.222656 Z M 128.566406 119.480469 "/>
<path style=" stroke:none;fill-rule:evenodd;fill:rgb(100%,100%,100%);fill-opacity:1;" d="M 140.460938 116.527344 L 141.722656 116.527344 L 141.722656 123.222656 L 140.460938 123.222656 Z M 137.308594 116.527344 L 138.570312 116.527344 L 138.570312 123.222656 L 137.308594 123.222656 Z M 120.574219 119.191406 L 120.574219 120.316406 L 113.886719 120.316406 L 113.886719 119.191406 Z M 135.253906 119.191406 L 135.253906 120.316406 L 128.566406 120.316406 L 128.566406 119.191406 Z M 135.253906 119.191406 "/>
<path style=" stroke:none;fill-rule:evenodd;fill:rgb(100%,100%,100%);fill-opacity:1;" d="M 128.566406 119.480469 L 129.828125 119.480469 L 129.828125 123.222656 L 128.566406 123.222656 Z M 128.566406 119.480469 "/>
<path style=" stroke:none;fill-rule:evenodd;fill:rgb(100%,100%,100%);fill-opacity:1;" d="M 128.566406 119.480469 L 129.828125 119.480469 L 129.828125 123.222656 L 128.566406 123.222656 Z M 128.566406 119.480469 "/>
<path style=" stroke:none;fill-rule:evenodd;fill:rgb(100%,100%,100%);fill-opacity:1;" d="M 128.566406 119.480469 L 129.828125 119.480469 L 129.828125 123.222656 L 128.566406 123.222656 Z M 113.886719 119.480469 L 115.148438 119.480469 L 115.148438 123.222656 L 113.886719 123.222656 Z M 124.644531 119.480469 L 125.90625 119.480469 L 125.90625 123.222656 L 124.644531 123.222656 Z M 119.316406 119.480469 L 120.574219 119.480469 L 120.574219 123.222656 L 119.316406 123.222656 Z M 119.316406 119.480469 "/>
<path style=" stroke:none;fill-rule:evenodd;fill:rgb(100%,100%,100%);fill-opacity:1;" d="M 125.53125 122.101562 L 125.53125 123.222656 L 119.875 123.222656 L 119.875 122.101562 Z M 125.90625 119.191406 L 125.90625 120.316406 L 122.320312 120.316406 L 122.320312 119.191406 Z M 125.90625 119.191406 "/>
<path style=" stroke:none;fill-rule:evenodd;fill:rgb(13.72549%,62.352941%,25.098039%);fill-opacity:1;" d="M -39.835938 0 L 294.851562 0 L 294.851562 55.835938 L -39.835938 55.835938 Z M -39.835938 0 "/>
<path style=" stroke:none;fill-rule:evenodd;fill:rgb(100%,100%,100%);fill-opacity:1;" d="M 144.1875 116.527344 L 162.515625 116.527344 L 162.515625 117.648438 L 144.1875 117.648438 Z M 146.917969 122.136719 L 148.179688 122.136719 L 148.179688 123.222656 L 146.917969 123.222656 Z M 162.5625 122.101562 L 162.5625 123.222656 L 158.898438 123.222656 L 158.898438 122.101562 Z M 164.535156 116.527344 L 165.792969 116.527344 L 165.792969 123.222656 L 164.535156 123.222656 Z M 164.535156 116.527344 "/>
<path style=" stroke:none;fill-rule:evenodd;fill:rgb(100%,100%,100%);fill-opacity:1;" d="M 171.832031 122.101562 L 171.832031 123.222656 L 164.886719 123.222656 L 164.886719 122.101562 Z M 158.898438 119.480469 L 160.160156 119.480469 L 160.160156 123.222656 L 158.898438 123.222656 Z M 158.898438 119.480469 "/>
<path style=" stroke:none;fill-rule:evenodd;fill:rgb(100%,100%,100%);fill-opacity:1;" d="M 170.796875 116.527344 L 172.058594 116.527344 L 172.058594 123.222656 L 170.796875 123.222656 Z M 167.644531 116.527344 L 168.90625 116.527344 L 168.90625 123.222656 L 167.644531 123.222656 Z M 150.910156 119.191406 L 150.910156 120.316406 L 144.21875 120.316406 L 144.21875 119.191406 Z M 165.589844 119.191406 L 165.589844 120.316406 L 158.898438 120.316406 L 158.898438 119.191406 Z M 165.589844 119.191406 "/>
<path style=" stroke:none;fill-rule:evenodd;fill:rgb(100%,100%,100%);fill-opacity:1;" d="M 158.898438 119.480469 L 160.160156 119.480469 L 160.160156 123.222656 L 158.898438 123.222656 Z M 158.898438 119.480469 "/>
<path style=" stroke:none;fill-rule:evenodd;fill:rgb(100%,100%,100%);fill-opacity:1;" d="M 158.898438 119.480469 L 160.160156 119.480469 L 160.160156 123.222656 L 158.898438 123.222656 Z M 158.898438 119.480469 "/>
<path style=" stroke:none;fill-rule:evenodd;fill:rgb(100%,100%,100%);fill-opacity:1;" d="M 158.898438 119.480469 L 160.160156 119.480469 L 160.160156 123.222656 L 158.898438 123.222656 Z M 144.21875 119.480469 L 145.480469 119.480469 L 145.480469 123.222656 L 144.21875 123.222656 Z M 154.980469 119.480469 L 156.242188 119.480469 L 156.242188 123.222656 L 154.980469 123.222656 Z M 149.648438 119.480469 L 150.910156 119.480469 L 150.910156 123.222656 L 149.648438 123.222656 Z M 149.648438 119.480469 "/>
<path style=" stroke:none;fill-rule:evenodd;fill:rgb(100%,100%,100%);fill-opacity:1;" d="M 155.867188 122.101562 L 155.867188 123.222656 L 150.210938 123.222656 L 150.210938 122.101562 Z M 156.242188 119.191406 L 156.242188 120.316406 L 152.65625 120.316406 L 152.65625 119.191406 Z M 156.242188 119.191406 "/>
<path style=" stroke:none;fill-rule:evenodd;fill:rgb(100%,100%,100%);fill-opacity:1;" d="M 174.339844 116.527344 L 192.671875 116.527344 L 192.671875 117.648438 L 174.339844 117.648438 Z M 177.074219 122.136719 L 178.335938 122.136719 L 178.335938 123.222656 L 177.074219 123.222656 Z M 192.71875 122.101562 L 192.71875 123.222656 L 189.054688 123.222656 L 189.054688 122.101562 Z M 194.6875 116.527344 L 195.949219 116.527344 L 195.949219 123.222656 L 194.6875 123.222656 Z M 194.6875 116.527344 "/>
<path style=" stroke:none;fill-rule:evenodd;fill:rgb(100%,100%,100%);fill-opacity:1;" d="M 201.984375 122.101562 L 201.984375 123.222656 L 195.042969 123.222656 L 195.042969 122.101562 Z M 189.054688 119.480469 L 190.316406 119.480469 L 190.316406 123.222656 L 189.054688 123.222656 Z M 189.054688 119.480469 "/>
<path style=" stroke:none;fill-rule:evenodd;fill:rgb(100%,100%,100%);fill-opacity:1;" d="M 200.953125 116.527344 L 202.214844 116.527344 L 202.214844 123.222656 L 200.953125 123.222656 Z M 197.800781 116.527344 L 199.0625 116.527344 L 199.0625 123.222656 L 197.800781 123.222656 Z M 181.066406 119.191406 L 181.066406 120.316406 L 174.375 120.316406 L 174.375 119.191406 Z M 195.746094 119.191406 L 195.746094 120.316406 L 189.054688 120.316406 L 189.054688 119.191406 Z M 195.746094 119.191406 "/>
<path style=" stroke:none;fill-rule:evenodd;fill:rgb(100%,100%,100%);fill-opacity:1;" d="M 189.054688 119.480469 L 190.316406 119.480469 L 190.316406 123.222656 L 189.054688 123.222656 Z M 189.054688 119.480469 "/>
<path style=" stroke:none;fill-rule:evenodd;fill:rgb(100%,100%,100%);fill-opacity:1;" d="M 189.054688 119.480469 L 190.316406 119.480469 L 190.316406 123.222656 L 189.054688 123.222656 Z M 189.054688 119.480469 "/>
<path style=" stroke:none;fill-rule:evenodd;fill:rgb(100%,100%,100%);fill-opacity:1;" d="M 189.054688 119.480469 L 190.316406 119.480469 L 190.316406 123.222656 L 189.054688 123.222656 Z M 174.375 119.480469 L 175.636719 119.480469 L 175.636719 123.222656 L 174.375 123.222656 Z M 185.136719 119.480469 L 186.398438 119.480469 L 186.398438 123.222656 L 185.136719 123.222656 Z M 179.804688 119.480469 L 181.066406 119.480469 L 181.066406 123.222656 L 179.804688 123.222656 Z M 179.804688 119.480469 "/>
<path style=" stroke:none;fill-rule:evenodd;fill:rgb(100%,100%,100%);fill-opacity:1;" d="M 186.019531 122.101562 L 186.019531 123.222656 L 180.367188 123.222656 L 180.367188 122.101562 Z M 186.398438 119.191406 L 186.398438 120.316406 L 182.8125 120.316406 L 182.8125 119.191406 Z M 186.398438 119.191406 "/>
<path style=" stroke:none;fill-rule:evenodd;fill:rgb(100%,100%,100%);fill-opacity:1;" d="M 204.5 116.527344 L 222.832031 116.527344 L 222.832031 117.648438 L 204.5 117.648438 Z M 207.234375 122.136719 L 208.496094 122.136719 L 208.496094 123.222656 L 207.234375 123.222656 Z M 222.878906 122.101562 L 222.878906 123.222656 L 219.214844 123.222656 L 219.214844 122.101562 Z M 224.847656 116.527344 L 226.109375 116.527344 L 226.109375 123.222656 L 224.847656 123.222656 Z M 224.847656 116.527344 "/>
<path style=" stroke:none;fill-rule:evenodd;fill:rgb(100%,100%,100%);fill-opacity:1;" d="M 232.144531 122.101562 L 232.144531 123.222656 L 225.203125 123.222656 L 225.203125 122.101562 Z M 219.214844 119.480469 L 220.476562 119.480469 L 220.476562 123.222656 L 219.214844 123.222656 Z M 219.214844 119.480469 "/>
<path style=" stroke:none;fill-rule:evenodd;fill:rgb(100%,100%,100%);fill-opacity:1;" d="M 231.113281 116.527344 L 232.375 116.527344 L 232.375 123.222656 L 231.113281 123.222656 Z M 227.957031 116.527344 L 229.21875 116.527344 L 229.21875 123.222656 L 227.957031 123.222656 Z M 211.226562 119.191406 L 211.226562 120.316406 L 204.535156 120.316406 L 204.535156 119.191406 Z M 225.90625 119.191406 L 225.90625 120.316406 L 219.214844 120.316406 L 219.214844 119.191406 Z M 225.90625 119.191406 "/>
<path style=" stroke:none;fill-rule:evenodd;fill:rgb(100%,100%,100%);fill-opacity:1;" d="M 219.214844 119.480469 L 220.476562 119.480469 L 220.476562 123.222656 L 219.214844 123.222656 Z M 219.214844 119.480469 "/>
<path style=" stroke:none;fill-rule:evenodd;fill:rgb(100%,100%,100%);fill-opacity:1;" d="M 219.214844 119.480469 L 220.476562 119.480469 L 220.476562 123.222656 L 219.214844 123.222656 Z M 219.214844 119.480469 "/>
<path style=" stroke:none;fill-rule:evenodd;fill:rgb(100%,100%,100%);fill-opacity:1;" d="M 219.214844 119.480469 L 220.476562 119.480469 L 220.476562 123.222656 L 219.214844 123.222656 Z M 204.535156 119.480469 L 205.796875 119.480469 L 205.796875 123.222656 L 204.535156 123.222656 Z M 215.296875 119.480469 L 216.554688 119.480469 L 216.554688 123.222656 L 215.292969 123.222656 Z M 209.964844 119.480469 L 211.226562 119.480469 L 211.226562 123.222656 L 209.964844 123.222656 Z M 209.964844 119.480469 "/>
<path style=" stroke:none;fill-rule:evenodd;fill:rgb(100%,100%,100%);fill-opacity:1;" d="M 216.179688 122.101562 L 216.179688 123.222656 L 210.523438 123.222656 L 210.523438 122.101562 Z M 216.554688 119.191406 L 216.554688 120.316406 L 212.972656 120.316406 L 212.972656 119.191406 Z M 216.554688 119.191406 "/>
<path style=" stroke:none;fill-rule:evenodd;fill:rgb(100%,100%,100%);fill-opacity:1;" d="M 234.835938 116.527344 L 253.164062 116.527344 L 253.164062 117.648438 L 234.835938 117.648438 Z M 237.570312 122.136719 L 238.828125 122.136719 L 238.828125 123.222656 L 237.570312 123.222656 Z M 253.210938 122.101562 L 253.210938 123.222656 L 249.550781 123.222656 L 249.550781 122.101562 Z M 255.183594 116.527344 L 256.445312 116.527344 L 256.445312 123.222656 L 255.183594 123.222656 Z M 255.183594 116.527344 "/>
<path style=" stroke:none;fill-rule:evenodd;fill:rgb(100%,100%,100%);fill-opacity:1;" d="M 262.480469 122.101562 L 262.480469 123.222656 L 255.539062 123.222656 L 255.539062 122.101562 Z M 249.550781 119.480469 L 250.8125 119.480469 L 250.8125 123.222656 L 249.550781 123.222656 Z M 249.550781 119.480469 "/>
<path style=" stroke:none;fill-rule:evenodd;fill:rgb(100%,100%,100%);fill-opacity:1;" d="M 261.445312 116.527344 L 262.707031 116.527344 L 262.707031 123.222656 L 261.445312 123.222656 Z M 258.292969 116.527344 L 259.554688 116.527344 L 259.554688 123.222656 L 258.292969 123.222656 Z M 241.558594 119.191406 L 241.558594 120.316406 L 234.871094 120.316406 L 234.871094 119.191406 Z M 256.238281 119.191406 L 256.238281 120.316406 L 249.550781 120.316406 L 249.550781 119.191406 Z M 256.238281 119.191406 "/>
<path style=" stroke:none;fill-rule:evenodd;fill:rgb(100%,100%,100%);fill-opacity:1;" d="M 249.550781 119.480469 L 250.8125 119.480469 L 250.8125 123.222656 L 249.550781 123.222656 Z M 249.550781 119.480469 "/>
<path style=" stroke:none;fill-rule:evenodd;fill:rgb(100%,100%,100%);fill-opacity:1;" d="M 249.550781 119.480469 L 250.8125 119.480469 L 250.8125 123.222656 L 249.550781 123.222656 Z M 249.550781 119.480469 "/>
<path style=" stroke:none;fill-rule:evenodd;fill:rgb(100%,100%,100%);fill-opacity:1;" d="M 249.550781 119.480469 L 250.8125 119.480469 L 250.8125 123.222656 L 249.550781 123.222656 Z M 234.871094 119.480469 L 236.132812 119.480469 L 236.132812 123.222656 L 234.871094 123.222656 Z M 245.628906 119.480469 L 246.890625 119.480469 L 246.890625 123.222656 L 245.628906 123.222656 Z M 240.300781 119.480469 L 241.558594 119.480469 L 241.558594 123.222656 L 240.300781 123.222656 Z M 240.300781 119.480469 "/>
<path style=" stroke:none;fill-rule:evenodd;fill:rgb(100%,100%,100%);fill-opacity:1;" d="M 246.515625 122.101562 L 246.515625 123.222656 L 240.859375 123.222656 L 240.859375 122.101562 Z M 246.890625 119.191406 L 246.890625 120.316406 L 243.304688 120.316406 L 243.304688 119.191406 Z M 246.890625 119.191406 "/>
<path style=" stroke:none;fill-rule:evenodd;fill:rgb(100%,100%,100%);fill-opacity:1;" d="M 23.789062 47.628906 L 42.117188 47.628906 L 42.117188 48.75 L 23.789062 48.75 Z M 26.519531 53.234375 L 27.78125 53.234375 L 27.78125 54.324219 L 26.519531 54.324219 Z M 42.164062 53.199219 L 42.164062 54.320312 L 38.503906 54.320312 L 38.503906 53.199219 Z M 44.136719 47.628906 L 45.398438 47.628906 L 45.398438 54.320312 L 44.136719 54.320312 Z M 44.136719 47.628906 "/>
<path style=" stroke:none;fill-rule:evenodd;fill:rgb(100%,100%,100%);fill-opacity:1;" d="M 51.433594 53.199219 L 51.433594 54.320312 L 44.492188 54.320312 L 44.492188 53.199219 Z M 38.503906 50.578125 L 39.761719 50.578125 L 39.761719 54.320312 L 38.503906 54.320312 Z M 38.503906 50.578125 "/>
<path style=" stroke:none;fill-rule:evenodd;fill:rgb(100%,100%,100%);fill-opacity:1;" d="M 50.398438 47.628906 L 51.660156 47.628906 L 51.660156 54.320312 L 50.398438 54.320312 Z M 47.246094 47.628906 L 48.507812 47.628906 L 48.507812 54.320312 L 47.246094 54.320312 Z M 30.511719 50.292969 L 30.511719 51.414062 L 23.820312 51.414062 L 23.820312 50.292969 Z M 45.191406 50.292969 L 45.191406 51.414062 L 38.503906 51.414062 L 38.503906 50.292969 Z M 45.191406 50.292969 "/>
<path style=" stroke:none;fill-rule:evenodd;fill:rgb(100%,100%,100%);fill-opacity:1;" d="M 38.503906 50.578125 L 39.761719 50.578125 L 39.761719 54.320312 L 38.503906 54.320312 Z M 38.503906 50.578125 "/>
<path style=" stroke:none;fill-rule:evenodd;fill:rgb(100%,100%,100%);fill-opacity:1;" d="M 38.503906 50.578125 L 39.761719 50.578125 L 39.761719 54.320312 L 38.503906 54.320312 Z M 38.503906 50.578125 "/>
<path style=" stroke:none;fill-rule:evenodd;fill:rgb(100%,100%,100%);fill-opacity:1;" d="M 38.503906 50.578125 L 39.761719 50.578125 L 39.761719 54.320312 L 38.503906 54.320312 Z M 23.820312 50.578125 L 25.082031 50.578125 L 25.082031 54.320312 L 23.820312 54.320312 Z M 34.582031 50.578125 L 35.84375 50.578125 L 35.84375 54.320312 L 34.582031 54.320312 Z M 29.25 50.578125 L 30.511719 50.578125 L 30.511719 54.320312 L 29.25 54.320312 Z M 29.25 50.578125 "/>
<path style=" stroke:none;fill-rule:evenodd;fill:rgb(100%,100%,100%);fill-opacity:1;" d="M 35.46875 53.199219 L 35.46875 54.320312 L 29.8125 54.320312 L 29.8125 53.199219 Z M 35.84375 50.292969 L 35.84375 51.414062 L 32.257812 51.414062 L 32.257812 50.292969 Z M 35.84375 50.292969 "/>
<path style=" stroke:none;fill-rule:evenodd;fill:rgb(100%,100%,100%);fill-opacity:1;" d="M -6.320312 47.628906 L 12.011719 47.628906 L 12.011719 48.75 L -6.320312 48.75 Z M -3.585938 53.234375 L -2.324219 53.234375 L -2.324219 54.324219 L -3.585938 54.324219 Z M 12.058594 53.199219 L 12.058594 54.320312 L 8.394531 54.320312 L 8.394531 53.199219 Z M 14.027344 47.628906 L 15.289062 47.628906 L 15.289062 54.320312 L 14.027344 54.320312 Z M 14.027344 47.628906 "/>
<path style=" stroke:none;fill-rule:evenodd;fill:rgb(100%,100%,100%);fill-opacity:1;" d="M 21.324219 53.199219 L 21.324219 54.320312 L 14.382812 54.320312 L 14.382812 53.199219 Z M 8.394531 50.578125 L 9.65625 50.578125 L 9.65625 54.320312 L 8.394531 54.320312 Z M 8.394531 50.578125 "/>
<path style=" stroke:none;fill-rule:evenodd;fill:rgb(100%,100%,100%);fill-opacity:1;" d="M 20.292969 47.628906 L 21.554688 47.628906 L 21.554688 54.320312 L 20.292969 54.320312 Z M 17.140625 47.628906 L 18.402344 47.628906 L 18.402344 54.320312 L 17.140625 54.320312 Z M 0.40625 50.292969 L 0.40625 51.414062 L -6.285156 51.414062 L -6.285156 50.292969 Z M 15.085938 50.292969 L 15.085938 51.414062 L 8.394531 51.414062 L 8.394531 50.292969 Z M 15.085938 50.292969 "/>
<path style=" stroke:none;fill-rule:evenodd;fill:rgb(100%,100%,100%);fill-opacity:1;" d="M 8.394531 50.578125 L 9.65625 50.578125 L 9.65625 54.320312 L 8.394531 54.320312 Z M 8.394531 50.578125 "/>
<path style=" stroke:none;fill-rule:evenodd;fill:rgb(100%,100%,100%);fill-opacity:1;" d="M 8.394531 50.578125 L 9.65625 50.578125 L 9.65625 54.320312 L 8.394531 54.320312 Z M 8.394531 50.578125 "/>
<path style=" stroke:none;fill-rule:evenodd;fill:rgb(100%,100%,100%);fill-opacity:1;" d="M 8.394531 50.578125 L 9.65625 50.578125 L 9.65625 54.320312 L 8.394531 54.320312 Z M -6.285156 50.578125 L -5.023438 50.578125 L -5.023438 54.320312 L -6.285156 54.320312 Z M 4.476562 50.578125 L 5.738281 50.578125 L 5.738281 54.320312 L 4.476562 54.320312 Z M -0.855469 50.578125 L 0.40625 50.578125 L 0.40625 54.320312 L -0.855469 54.320312 Z M -0.855469 50.578125 "/>
<path style=" stroke:none;fill-rule:evenodd;fill:rgb(100%,100%,100%);fill-opacity:1;" d="M 5.359375 53.199219 L 5.359375 54.320312 L -0.292969 54.320312 L -0.292969 53.199219 Z M 5.738281 50.292969 L 5.738281 51.414062 L 2.152344 51.414062 L 2.152344 50.292969 Z M 5.738281 50.292969 "/>
<path style=" stroke:none;fill-rule:evenodd;fill:rgb(100%,100%,100%);fill-opacity:1;" d="M 53.644531 47.628906 L 71.972656 47.628906 L 71.972656 48.75 L 53.644531 48.75 Z M 56.375 53.234375 L 57.636719 53.234375 L 57.636719 54.324219 L 56.375 54.324219 Z M 72.019531 53.199219 L 72.019531 54.320312 L 68.355469 54.320312 L 68.355469 53.199219 Z M 73.988281 47.628906 L 75.25 47.628906 L 75.25 54.320312 L 73.988281 54.320312 Z M 73.988281 47.628906 "/>
<path style=" stroke:none;fill-rule:evenodd;fill:rgb(100%,100%,100%);fill-opacity:1;" d="M 81.285156 53.199219 L 81.285156 54.320312 L 74.34375 54.320312 L 74.34375 53.199219 Z M 68.355469 50.578125 L 69.617188 50.578125 L 69.617188 54.320312 L 68.355469 54.320312 Z M 68.355469 50.578125 "/>
<path style=" stroke:none;fill-rule:evenodd;fill:rgb(100%,100%,100%);fill-opacity:1;" d="M 80.253906 47.628906 L 81.515625 47.628906 L 81.515625 54.320312 L 80.253906 54.320312 Z M 77.101562 47.628906 L 78.363281 47.628906 L 78.363281 54.320312 L 77.101562 54.320312 Z M 60.367188 50.292969 L 60.367188 51.414062 L 53.675781 51.414062 L 53.675781 50.292969 Z M 75.046875 50.292969 L 75.046875 51.414062 L 68.355469 51.414062 L 68.355469 50.292969 Z M 75.046875 50.292969 "/>
<path style=" stroke:none;fill-rule:evenodd;fill:rgb(100%,100%,100%);fill-opacity:1;" d="M 68.355469 50.578125 L 69.617188 50.578125 L 69.617188 54.320312 L 68.355469 54.320312 Z M 68.355469 50.578125 "/>
<path style=" stroke:none;fill-rule:evenodd;fill:rgb(100%,100%,100%);fill-opacity:1;" d="M 68.355469 50.578125 L 69.617188 50.578125 L 69.617188 54.320312 L 68.355469 54.320312 Z M 68.355469 50.578125 "/>
<path style=" stroke:none;fill-rule:evenodd;fill:rgb(100%,100%,100%);fill-opacity:1;" d="M 68.355469 50.578125 L 69.617188 50.578125 L 69.617188 54.320312 L 68.355469 54.320312 Z M 53.675781 50.578125 L 54.9375 50.578125 L 54.9375 54.320312 L 53.675781 54.320312 Z M 64.4375 50.578125 L 65.699219 50.578125 L 65.699219 54.320312 L 64.4375 54.320312 Z M 59.105469 50.578125 L 60.367188 50.578125 L 60.367188 54.320312 L 59.105469 54.320312 Z M 59.105469 50.578125 "/>
<path style=" stroke:none;fill-rule:evenodd;fill:rgb(100%,100%,100%);fill-opacity:1;" d="M 65.320312 53.199219 L 65.320312 54.320312 L 59.667969 54.320312 L 59.667969 53.199219 Z M 65.699219 50.292969 L 65.699219 51.414062 L 62.113281 51.414062 L 62.113281 50.292969 Z M 65.699219 50.292969 "/>
<path style=" stroke:none;fill-rule:evenodd;fill:rgb(100%,100%,100%);fill-opacity:1;" d="M 83.691406 47.628906 L 102.019531 47.628906 L 102.019531 48.75 L 83.691406 48.75 Z M 86.425781 53.234375 L 87.6875 53.234375 L 87.6875 54.324219 L 86.425781 54.324219 Z M 102.070312 53.199219 L 102.070312 54.320312 L 98.40625 54.320312 L 98.40625 53.199219 Z M 104.039062 47.628906 L 105.300781 47.628906 L 105.300781 54.320312 L 104.039062 54.320312 Z M 104.039062 47.628906 "/>
<path style=" stroke:none;fill-rule:evenodd;fill:rgb(100%,100%,100%);fill-opacity:1;" d="M 111.335938 53.199219 L 111.335938 54.320312 L 104.394531 54.320312 L 104.394531 53.199219 Z M 98.40625 50.578125 L 99.667969 50.578125 L 99.667969 54.320312 L 98.40625 54.320312 Z M 98.40625 50.578125 "/>
<path style=" stroke:none;fill-rule:evenodd;fill:rgb(100%,100%,100%);fill-opacity:1;" d="M 110.304688 47.628906 L 111.566406 47.628906 L 111.566406 54.320312 L 110.304688 54.320312 Z M 107.148438 47.628906 L 108.410156 47.628906 L 108.410156 54.320312 L 107.148438 54.320312 Z M 90.417969 50.292969 L 90.417969 51.414062 L 83.726562 51.414062 L 83.726562 50.292969 Z M 105.097656 50.292969 L 105.097656 51.414062 L 98.40625 51.414062 L 98.40625 50.292969 Z M 105.097656 50.292969 "/>
<path style=" stroke:none;fill-rule:evenodd;fill:rgb(100%,100%,100%);fill-opacity:1;" d="M 98.40625 50.578125 L 99.667969 50.578125 L 99.667969 54.320312 L 98.40625 54.320312 Z M 98.40625 50.578125 "/>
<path style=" stroke:none;fill-rule:evenodd;fill:rgb(100%,100%,100%);fill-opacity:1;" d="M 98.40625 50.578125 L 99.667969 50.578125 L 99.667969 54.320312 L 98.40625 54.320312 Z M 98.40625 50.578125 "/>
<path style=" stroke:none;fill-rule:evenodd;fill:rgb(100%,100%,100%);fill-opacity:1;" d="M 98.40625 50.578125 L 99.667969 50.578125 L 99.667969 54.320312 L 98.40625 54.320312 Z M 83.726562 50.578125 L 84.988281 50.578125 L 84.988281 54.320312 L 83.726562 54.320312 Z M 94.488281 50.578125 L 95.746094 50.578125 L 95.746094 54.320312 L 94.484375 54.320312 Z M 89.15625 50.578125 L 90.417969 50.578125 L 90.417969 54.320312 L 89.15625 54.320312 Z M 89.15625 50.578125 "/>
<path style=" stroke:none;fill-rule:evenodd;fill:rgb(100%,100%,100%);fill-opacity:1;" d="M 95.371094 53.199219 L 95.371094 54.320312 L 89.714844 54.320312 L 89.714844 53.199219 Z M 95.746094 50.292969 L 95.746094 51.414062 L 92.164062 51.414062 L 92.164062 50.292969 Z M 95.746094 50.292969 "/>
<path style=" stroke:none;fill-rule:evenodd;fill:rgb(100%,100%,100%);fill-opacity:1;" d="M 113.851562 47.628906 L 132.179688 47.628906 L 132.179688 48.75 L 113.851562 48.75 Z M 116.585938 53.234375 L 117.84375 53.234375 L 117.84375 54.324219 L 116.585938 54.324219 Z M 132.226562 53.199219 L 132.226562 54.320312 L 128.566406 54.320312 L 128.566406 53.199219 Z M 134.199219 47.628906 L 135.460938 47.628906 L 135.460938 54.320312 L 134.199219 54.320312 Z M 134.199219 47.628906 "/>
<path style=" stroke:none;fill-rule:evenodd;fill:rgb(100%,100%,100%);fill-opacity:1;" d="M 141.496094 53.199219 L 141.496094 54.320312 L 134.554688 54.320312 L 134.554688 53.199219 Z M 128.566406 50.578125 L 129.828125 50.578125 L 129.828125 54.320312 L 128.566406 54.320312 Z M 128.566406 50.578125 "/>
<path style=" stroke:none;fill-rule:evenodd;fill:rgb(100%,100%,100%);fill-opacity:1;" d="M 140.460938 47.628906 L 141.722656 47.628906 L 141.722656 54.320312 L 140.460938 54.320312 Z M 137.308594 47.628906 L 138.570312 47.628906 L 138.570312 54.320312 L 137.308594 54.320312 Z M 120.574219 50.292969 L 120.574219 51.414062 L 113.886719 51.414062 L 113.886719 50.292969 Z M 135.253906 50.292969 L 135.253906 51.414062 L 128.566406 51.414062 L 128.566406 50.292969 Z M 135.253906 50.292969 "/>
<path style=" stroke:none;fill-rule:evenodd;fill:rgb(100%,100%,100%);fill-opacity:1;" d="M 128.566406 50.578125 L 129.828125 50.578125 L 129.828125 54.320312 L 128.566406 54.320312 Z M 128.566406 50.578125 "/>
<path style=" stroke:none;fill-rule:evenodd;fill:rgb(100%,100%,100%);fill-opacity:1;" d="M 128.566406 50.578125 L 129.828125 50.578125 L 129.828125 54.320312 L 128.566406 54.320312 Z M 128.566406 50.578125 "/>
<path style=" stroke:none;fill-rule:evenodd;fill:rgb(100%,100%,100%);fill-opacity:1;" d="M 128.566406 50.578125 L 129.828125 50.578125 L 129.828125 54.320312 L 128.566406 54.320312 Z M 113.886719 50.578125 L 115.148438 50.578125 L 115.148438 54.320312 L 113.886719 54.320312 Z M 124.644531 50.578125 L 125.90625 50.578125 L 125.90625 54.320312 L 124.644531 54.320312 Z M 119.316406 50.578125 L 120.574219 50.578125 L 120.574219 54.320312 L 119.316406 54.320312 Z M 119.316406 50.578125 "/>
<path style=" stroke:none;fill-rule:evenodd;fill:rgb(100%,100%,100%);fill-opacity:1;" d="M 125.53125 53.199219 L 125.53125 54.320312 L 119.875 54.320312 L 119.875 53.199219 Z M 125.90625 50.292969 L 125.90625 51.414062 L 122.320312 51.414062 L 122.320312 50.292969 Z M 125.90625 50.292969 "/>
<path style=" stroke:none;fill-rule:evenodd;fill:rgb(100%,100%,100%);fill-opacity:1;" d="M 144.1875 47.628906 L 162.515625 47.628906 L 162.515625 48.75 L 144.1875 48.75 Z M 146.917969 53.234375 L 148.179688 53.234375 L 148.179688 54.324219 L 146.917969 54.324219 Z M 162.5625 53.199219 L 162.5625 54.320312 L 158.898438 54.320312 L 158.898438 53.199219 Z M 164.535156 47.628906 L 165.792969 47.628906 L 165.792969 54.320312 L 164.535156 54.320312 Z M 164.535156 47.628906 "/>
<path style=" stroke:none;fill-rule:evenodd;fill:rgb(100%,100%,100%);fill-opacity:1;" d="M 171.832031 53.199219 L 171.832031 54.320312 L 164.886719 54.320312 L 164.886719 53.199219 Z M 158.898438 50.578125 L 160.160156 50.578125 L 160.160156 54.320312 L 158.898438 54.320312 Z M 158.898438 50.578125 "/>
<path style=" stroke:none;fill-rule:evenodd;fill:rgb(100%,100%,100%);fill-opacity:1;" d="M 170.796875 47.628906 L 172.058594 47.628906 L 172.058594 54.320312 L 170.796875 54.320312 Z M 167.644531 47.628906 L 168.90625 47.628906 L 168.90625 54.320312 L 167.644531 54.320312 Z M 150.910156 50.292969 L 150.910156 51.414062 L 144.21875 51.414062 L 144.21875 50.292969 Z M 165.589844 50.292969 L 165.589844 51.414062 L 158.898438 51.414062 L 158.898438 50.292969 Z M 165.589844 50.292969 "/>
<path style=" stroke:none;fill-rule:evenodd;fill:rgb(100%,100%,100%);fill-opacity:1;" d="M 158.898438 50.578125 L 160.160156 50.578125 L 160.160156 54.320312 L 158.898438 54.320312 Z M 158.898438 50.578125 "/>
<path style=" stroke:none;fill-rule:evenodd;fill:rgb(100%,100%,100%);fill-opacity:1;" d="M 158.898438 50.578125 L 160.160156 50.578125 L 160.160156 54.320312 L 158.898438 54.320312 Z M 158.898438 50.578125 "/>
<path style=" stroke:none;fill-rule:evenodd;fill:rgb(100%,100%,100%);fill-opacity:1;" d="M 158.898438 50.578125 L 160.160156 50.578125 L 160.160156 54.320312 L 158.898438 54.320312 Z M 144.21875 50.578125 L 145.480469 50.578125 L 145.480469 54.320312 L 144.21875 54.320312 Z M 154.980469 50.578125 L 156.242188 50.578125 L 156.242188 54.320312 L 154.980469 54.320312 Z M 149.648438 50.578125 L 150.910156 50.578125 L 150.910156 54.320312 L 149.648438 54.320312 Z M 149.648438 50.578125 "/>
<path style=" stroke:none;fill-rule:evenodd;fill:rgb(100%,100%,100%);fill-opacity:1;" d="M 155.867188 53.199219 L 155.867188 54.320312 L 150.210938 54.320312 L 150.210938 53.199219 Z M 156.242188 50.292969 L 156.242188 51.414062 L 152.65625 51.414062 L 152.65625 50.292969 Z M 156.242188 50.292969 "/>
<path style=" stroke:none;fill-rule:evenodd;fill:rgb(100%,100%,100%);fill-opacity:1;" d="M 174.339844 47.628906 L 192.671875 47.628906 L 192.671875 48.75 L 174.339844 48.75 Z M 177.074219 53.234375 L 178.335938 53.234375 L 178.335938 54.324219 L 177.074219 54.324219 Z M 192.71875 53.199219 L 192.71875 54.320312 L 189.054688 54.320312 L 189.054688 53.199219 Z M 194.6875 47.628906 L 195.949219 47.628906 L 195.949219 54.320312 L 194.6875 54.320312 Z M 194.6875 47.628906 "/>
<path style=" stroke:none;fill-rule:evenodd;fill:rgb(100%,100%,100%);fill-opacity:1;" d="M 201.984375 53.199219 L 201.984375 54.320312 L 195.042969 54.320312 L 195.042969 53.199219 Z M 189.054688 50.578125 L 190.316406 50.578125 L 190.316406 54.320312 L 189.054688 54.320312 Z M 189.054688 50.578125 "/>
<path style=" stroke:none;fill-rule:evenodd;fill:rgb(100%,100%,100%);fill-opacity:1;" d="M 200.953125 47.628906 L 202.214844 47.628906 L 202.214844 54.320312 L 200.953125 54.320312 Z M 197.800781 47.628906 L 199.0625 47.628906 L 199.0625 54.320312 L 197.800781 54.320312 Z M 181.066406 50.292969 L 181.066406 51.414062 L 174.375 51.414062 L 174.375 50.292969 Z M 195.746094 50.292969 L 195.746094 51.414062 L 189.054688 51.414062 L 189.054688 50.292969 Z M 195.746094 50.292969 "/>
<path style=" stroke:none;fill-rule:evenodd;fill:rgb(100%,100%,100%);fill-opacity:1;" d="M 189.054688 50.578125 L 190.316406 50.578125 L 190.316406 54.320312 L 189.054688 54.320312 Z M 189.054688 50.578125 "/>
<path style=" stroke:none;fill-rule:evenodd;fill:rgb(100%,100%,100%);fill-opacity:1;" d="M 189.054688 50.578125 L 190.316406 50.578125 L 190.316406 54.320312 L 189.054688 54.320312 Z M 189.054688 50.578125 "/>
<path style=" stroke:none;fill-rule:evenodd;fill:rgb(100%,100%,100%);fill-opacity:1;" d="M 189.054688 50.578125 L 190.316406 50.578125 L 190.316406 54.320312 L 189.054688 54.320312 Z M 174.375 50.578125 L 175.636719 50.578125 L 175.636719 54.320312 L 174.375 54.320312 Z M 185.136719 50.578125 L 186.398438 50.578125 L 186.398438 54.320312 L 185.136719 54.320312 Z M 179.804688 50.578125 L 181.066406 50.578125 L 181.066406 54.320312 L 179.804688 54.320312 Z M 179.804688 50.578125 "/>
<path style=" stroke:none;fill-rule:evenodd;fill:rgb(100%,100%,100%);fill-opacity:1;" d="M 186.019531 53.199219 L 186.019531 54.320312 L 180.367188 54.320312 L 180.367188 53.199219 Z M 186.398438 50.292969 L 186.398438 51.414062 L 182.8125 51.414062 L 182.8125 50.292969 Z M 186.398438 50.292969 "/>
<path style=" stroke:none;fill-rule:evenodd;fill:rgb(100%,100%,100%);fill-opacity:1;" d="M 204.5 47.628906 L 222.832031 47.628906 L 222.832031 48.75 L 204.5 48.75 Z M 207.234375 53.234375 L 208.496094 53.234375 L 208.496094 54.324219 L 207.234375 54.324219 Z M 222.878906 53.199219 L 222.878906 54.320312 L 219.214844 54.320312 L 219.214844 53.199219 Z M 224.847656 47.628906 L 226.109375 47.628906 L 226.109375 54.320312 L 224.847656 54.320312 Z M 224.847656 47.628906 "/>
<path style=" stroke:none;fill-rule:evenodd;fill:rgb(100%,100%,100%);fill-opacity:1;" d="M 232.144531 53.199219 L 232.144531 54.320312 L 225.203125 54.320312 L 225.203125 53.199219 Z M 219.214844 50.578125 L 220.476562 50.578125 L 220.476562 54.320312 L 219.214844 54.320312 Z M 219.214844 50.578125 "/>
<path style=" stroke:none;fill-rule:evenodd;fill:rgb(100%,100%,100%);fill-opacity:1;" d="M 231.113281 47.628906 L 232.375 47.628906 L 232.375 54.320312 L 231.113281 54.320312 Z M 227.957031 47.628906 L 229.21875 47.628906 L 229.21875 54.320312 L 227.957031 54.320312 Z M 211.226562 50.292969 L 211.226562 51.414062 L 204.535156 51.414062 L 204.535156 50.292969 Z M 225.90625 50.292969 L 225.90625 51.414062 L 219.214844 51.414062 L 219.214844 50.292969 Z M 225.90625 50.292969 "/>
<path style=" stroke:none;fill-rule:evenodd;fill:rgb(100%,100%,100%);fill-opacity:1;" d="M 219.214844 50.578125 L 220.476562 50.578125 L 220.476562 54.320312 L 219.214844 54.320312 Z M 219.214844 50.578125 "/>
<path style=" stroke:none;fill-rule:evenodd;fill:rgb(100%,100%,100%);fill-opacity:1;" d="M 219.214844 50.578125 L 220.476562 50.578125 L 220.476562 54.320312 L 219.214844 54.320312 Z M 219.214844 50.578125 "/>
<path style=" stroke:none;fill-rule:evenodd;fill:rgb(100%,100%,100%);fill-opacity:1;" d="M 219.214844 50.578125 L 220.476562 50.578125 L 220.476562 54.320312 L 219.214844 54.320312 Z M 204.535156 50.578125 L 205.796875 50.578125 L 205.796875 54.320312 L 204.535156 54.320312 Z M 215.296875 50.578125 L 216.554688 50.578125 L 216.554688 54.320312 L 215.292969 54.320312 Z M 209.964844 50.578125 L 211.226562 50.578125 L 211.226562 54.320312 L 209.964844 54.320312 Z M 209.964844 50.578125 "/>
<path style=" stroke:none;fill-rule:evenodd;fill:rgb(100%,100%,100%);fill-opacity:1;" d="M 216.179688 53.199219 L 216.179688 54.320312 L 210.523438 54.320312 L 210.523438 53.199219 Z M 216.554688 50.292969 L 216.554688 51.414062 L 212.972656 51.414062 L 212.972656 50.292969 Z M 216.554688 50.292969 "/>
<path style=" stroke:none;fill-rule:evenodd;fill:rgb(100%,100%,100%);fill-opacity:1;" d="M 234.835938 47.628906 L 253.164062 47.628906 L 253.164062 48.75 L 234.835938 48.75 Z M 237.570312 53.234375 L 238.828125 53.234375 L 238.828125 54.324219 L 237.570312 54.324219 Z M 253.210938 53.199219 L 253.210938 54.320312 L 249.550781 54.320312 L 249.550781 53.199219 Z M 255.183594 47.628906 L 256.445312 47.628906 L 256.445312 54.320312 L 255.183594 54.320312 Z M 255.183594 47.628906 "/>
<path style=" stroke:none;fill-rule:evenodd;fill:rgb(100%,100%,100%);fill-opacity:1;" d="M 262.480469 53.199219 L 262.480469 54.320312 L 255.539062 54.320312 L 255.539062 53.199219 Z M 249.550781 50.578125 L 250.8125 50.578125 L 250.8125 54.320312 L 249.550781 54.320312 Z M 249.550781 50.578125 "/>
<path style=" stroke:none;fill-rule:evenodd;fill:rgb(100%,100%,100%);fill-opacity:1;" d="M 261.445312 47.628906 L 262.707031 47.628906 L 262.707031 54.320312 L 261.445312 54.320312 Z M 258.292969 47.628906 L 259.554688 47.628906 L 259.554688 54.320312 L 258.292969 54.320312 Z M 241.558594 50.292969 L 241.558594 51.414062 L 234.871094 51.414062 L 234.871094 50.292969 Z M 256.238281 50.292969 L 256.238281 51.414062 L 249.550781 51.414062 L 249.550781 50.292969 Z M 256.238281 50.292969 "/>
<path style=" stroke:none;fill-rule:evenodd;fill:rgb(100%,100%,100%);fill-opacity:1;" d="M 249.550781 50.578125 L 250.8125 50.578125 L 250.8125 54.320312 L 249.550781 54.320312 Z M 249.550781 50.578125 "/>
<path style=" stroke:none;fill-rule:evenodd;fill:rgb(100%,100%,100%);fill-opacity:1;" d="M 249.550781 50.578125 L 250.8125 50.578125 L 250.8125 54.320312 L 249.550781 54.320312 Z M 249.550781 50.578125 "/>
<path style=" stroke:none;fill-rule:evenodd;fill:rgb(100%,100%,100%);fill-opacity:1;" d="M 249.550781 50.578125 L 250.8125 50.578125 L 250.8125 54.320312 L 249.550781 54.320312 Z M 234.871094 50.578125 L 236.132812 50.578125 L 236.132812 54.320312 L 234.871094 54.320312 Z M 245.628906 50.578125 L 246.890625 50.578125 L 246.890625 54.320312 L 245.628906 54.320312 Z M 240.300781 50.578125 L 241.558594 50.578125 L 241.558594 54.320312 L 240.300781 54.320312 Z M 240.300781 50.578125 "/>
<path style=" stroke:none;fill-rule:evenodd;fill:rgb(100%,100%,100%);fill-opacity:1;" d="M 246.515625 53.199219 L 246.515625 54.320312 L 240.859375 54.320312 L 240.859375 53.199219 Z M 246.890625 50.292969 L 246.890625 51.414062 L 243.304688 51.414062 L 243.304688 50.292969 Z M 246.890625 50.292969 "/>
<path style=" stroke:none;fill-rule:evenodd;fill:rgb(85.098039%,0%,0%);fill-opacity:1;" d="M 6.15625 112.726562 L 8.414062 112.726562 L 8.414062 116.214844 L 6.15625 116.214844 Z M 66.121094 112.726562 L 68.378906 112.726562 L 68.378906 116.214844 L 66.121094 116.214844 Z M -39.851562 112.726562 L -37.59375 112.726562 L -37.59375 116.214844 L -39.851562 116.214844 Z M -9.417969 112.726562 L -7.160156 112.726562 L -7.160156 116.214844 L -9.417969 116.214844 Z M 20.796875 112.726562 L 23.058594 112.726562 L 23.058594 116.214844 L 20.796875 116.214844 Z M 35.75 112.726562 L 38.007812 112.726562 L 38.007812 116.214844 L 35.75 116.214844 Z M 51.011719 112.726562 L 53.269531 112.726562 L 53.269531 116.214844 L 51.011719 116.214844 Z M 81.070312 112.726562 L 83.332031 112.726562 L 83.332031 116.214844 L 81.070312 116.214844 Z M 156.921875 112.726562 L 159.179688 112.726562 L 159.179688 116.214844 L 156.921875 116.214844 Z M 96.332031 112.726562 L 98.59375 112.726562 L 98.59375 116.214844 L 96.332031 116.214844 Z M 111.289062 112.726562 L 113.546875 112.726562 L 113.546875 116.214844 L 111.289062 116.214844 Z M 126.394531 112.726562 L 128.652344 112.726562 L 128.652344 116.214844 L 126.394531 116.214844 Z M 141.503906 112.726562 L 143.761719 112.726562 L 143.761719 116.214844 L 141.503906 116.214844 Z M 262.207031 112.726562 L 264.464844 112.726562 L 264.464844 116.214844 L 262.207031 116.214844 Z M 171.5625 112.726562 L 173.820312 112.726562 L 173.820312 116.214844 L 171.5625 116.214844 Z M 186.824219 112.726562 L 189.082031 112.726562 L 189.082031 116.214844 L 186.824219 116.214844 Z M 202.246094 112.726562 L 204.503906 112.726562 L 204.503906 116.214844 L 202.246094 116.214844 Z M 216.730469 112.726562 L 218.988281 112.726562 L 218.988281 116.214844 L 216.730469 116.214844 Z M 232.148438 112.726562 L 234.40625 112.726562 L 234.40625 116.214844 L 232.148438 116.214844 Z M 247.253906 112.726562 L 249.515625 112.726562 L 249.515625 116.214844 L 247.253906 116.214844 Z M 291.957031 112.726562 L 294.21875 112.726562 L 294.21875 116.214844 L 291.957031 116.214844 Z M 277.472656 112.726562 L 279.730469 112.726562 L 279.730469 116.214844 L 277.472656 116.214844 Z M -24.683594 112.726562 L -22.421875 112.726562 L -22.421875 116.214844 L -24.683594 116.214844 Z M -24.683594 112.726562 "/>
<path style=" stroke:none;fill-rule:evenodd;fill:rgb(13.72549%,61.960784%,24.705882%);fill-opacity:1;" d="M 6.15625 53.992188 L 8.414062 53.992188 L 8.414062 57.480469 L 6.15625 57.480469 Z M 66.121094 53.992188 L 68.378906 53.992188 L 68.378906 57.480469 L 66.121094 57.480469 Z M -39.851562 53.992188 L -37.59375 53.992188 L -37.59375 57.480469 L -39.851562 57.480469 Z M -9.417969 53.992188 L -7.160156 53.992188 L -7.160156 57.480469 L -9.417969 57.480469 Z M 20.796875 53.992188 L 23.058594 53.992188 L 23.058594 57.480469 L 20.796875 57.480469 Z M 35.75 53.992188 L 38.007812 53.992188 L 38.007812 57.480469 L 35.75 57.480469 Z M 51.011719 53.992188 L 53.269531 53.992188 L 53.269531 57.480469 L 51.011719 57.480469 Z M 81.070312 53.992188 L 83.332031 53.992188 L 83.332031 57.480469 L 81.070312 57.480469 Z M 156.921875 53.992188 L 159.179688 53.992188 L 159.179688 57.480469 L 156.921875 57.480469 Z M 96.332031 53.992188 L 98.59375 53.992188 L 98.59375 57.480469 L 96.332031 57.480469 Z M 111.289062 53.992188 L 113.546875 53.992188 L 113.546875 57.480469 L 111.289062 57.480469 Z M 126.394531 53.992188 L 128.652344 53.992188 L 128.652344 57.480469 L 126.394531 57.480469 Z M 141.503906 53.992188 L 143.761719 53.992188 L 143.761719 57.480469 L 141.503906 57.480469 Z M 262.207031 53.992188 L 264.464844 53.992188 L 264.464844 57.480469 L 262.207031 57.480469 Z M 171.5625 53.992188 L 173.820312 53.992188 L 173.820312 57.480469 L 171.5625 57.480469 Z M 186.824219 53.992188 L 189.082031 53.992188 L 189.082031 57.480469 L 186.824219 57.480469 Z M 202.246094 53.992188 L 204.503906 53.992188 L 204.503906 57.480469 L 202.246094 57.480469 Z M 216.730469 53.992188 L 218.988281 53.992188 L 218.988281 57.480469 L 216.730469 57.480469 Z M 232.148438 53.992188 L 234.40625 53.992188 L 234.40625 57.480469 L 232.148438 57.480469 Z M 247.253906 53.992188 L 249.515625 53.992188 L 249.515625 57.480469 L 247.253906 57.480469 Z M 291.957031 53.992188 L 294.21875 53.992188 L 294.21875 57.480469 L 291.957031 57.480469 Z M 277.472656 53.992188 L 279.730469 53.992188 L 279.730469 57.480469 L 277.472656 57.480469 Z M -24.683594 53.992188 L -22.421875 53.992188 L -22.421875 57.480469 L -24.683594 57.480469 Z M -24.683594 53.992188 "/>
<path style=" stroke:none;fill-rule:evenodd;fill:rgb(85.490196%,0%,0%);fill-opacity:1;" d="M 136.382812 65.574219 C 139.539062 69.011719 149.273438 88.035156 130.507812 100.496094 C 121.683594 106.398438 127.148438 106.695312 127.40625 107.6875 C 141.589844 100.992188 146.222656 91.921875 146.113281 83.792969 C 146.003906 75.667969 141.15625 68.484375 136.382812 65.574219 Z M 136.382812 65.574219 "/>
<path style=" stroke:none;fill-rule:evenodd;fill:rgb(85.490196%,0%,0%);fill-opacity:1;" d="M 138.257812 64.6875 C 145.261719 67.875 160.503906 83.90625 144.101562 101.988281 C 154.292969 99.980469 167.25 73.296875 138.257812 64.6875 Z M 116.75 64.6875 C 109.746094 67.875 94.507812 83.90625 110.910156 101.988281 C 100.71875 99.980469 87.757812 73.296875 116.75 64.6875 Z M 116.75 64.6875 "/>
<path style=" stroke:none;fill-rule:evenodd;fill:rgb(85.490196%,0%,0%);fill-opacity:1;" d="M 118.601562 65.574219 C 115.445312 69.011719 105.710938 88.035156 124.476562 100.496094 C 133.300781 106.398438 127.835938 106.695312 127.574219 107.6875 C 113.394531 100.992188 108.761719 91.921875 108.871094 83.792969 C 108.976562 75.667969 113.824219 68.484375 118.601562 65.574219 Z M 118.601562 65.574219 "/>
<path style=" stroke:none;fill-rule:evenodd;fill:rgb(85.490196%,0%,0%);fill-opacity:1;" d="M 145.496094 105.953125 C 139.945312 106.03125 132.949219 105.273438 127.757812 102.878906 C 128.613281 104.355469 129.324219 105.285156 130.175781 106.761719 C 135.125 107.167969 141.957031 107.671875 145.496094 105.953125 Z M 110.019531 105.953125 C 115.570312 106.03125 122.566406 105.273438 127.757812 102.878906 C 126.902344 104.355469 126.191406 105.285156 125.339844 106.761719 C 120.390625 107.167969 113.558594 107.671875 110.019531 105.953125 Z M 120.203125 59.898438 C 121.324219 62.554688 124.277344 62.941406 127.433594 61.375 C 129.734375 62.605469 133.296875 62.679688 134.523438 60.027344 C 135.457031 66.59375 127.683594 65.039062 127.394531 63.753906 C 124.503906 66.242188 119.117188 64.804688 120.203125 59.898438 Z M 120.203125 59.898438 "/>
<path style=" stroke:none;fill-rule:evenodd;fill:rgb(85.490196%,0%,0%);fill-opacity:1;" d="M 127.640625 110.089844 L 130.5625 107.125 L 130.976562 67.222656 L 127.503906 64.503906 L 124.03125 67.101562 L 124.722656 107.25 Z M 127.640625 110.089844 "/>
</g>
</svg>
