<?xml version="1.0" encoding="UTF-8"?>
<svg xmlns="http://www.w3.org/2000/svg" xmlns:xlink="http://www.w3.org/1999/xlink" width="255pt" height="170pt" viewBox="0 0 255 170" version="1.1">
<g id="surface1">
<rect x="0" y="0" width="255" height="170" style="fill:rgb(1.176471%,18.039216%,63.137255%);fill-opacity:1;stroke:none;"/>
<path style=" stroke:none;fill-rule:nonzero;fill:rgb(87.843137%,0%,14.509804%);fill-opacity:1;" d="M 0 42.5 L 255 42.5 L 255 127.5 L 0 127.5 Z M 0 42.5 "/>
<path style="fill-rule:nonzero;fill:rgb(100%,100%,100%);fill-opacity:1;stroke-width:0.96;stroke-linecap:butt;stroke-linejoin:bevel;stroke:rgb(0%,0%,0%);stroke-opacity:1;stroke-miterlimit:4;" d="M 139.017631 623.462745 L 252.81665 623.462745 L 252.81665 667.24951 L 139.017631 667.24951 Z M 139.017631 623.462745 " transform="matrix(0.478125,0,0,0.425,34.094695,-184.846667)"/>
<path style="fill-rule:nonzero;fill:rgb(100%,100%,100%);fill-opacity:1;stroke-width:0.96;stroke-linecap:butt;stroke-linejoin:bevel;stroke:rgb(0%,0%,0%);stroke-opacity:1;stroke-miterlimit:4;" d="M 246.950637 647.635539 L 250.537239 647.635539 L 250.537239 664.133701 L 246.950637 664.133701 Z M 139.017631 639.492157 L 252.81665 639.492157 L 252.81665 644.584069 L 139.017631 644.584069 Z M 139.017631 632.589583 L 252.81665 632.589583 L 252.81665 637.074877 L 139.017631 637.074877 Z M 139.017631 632.589583 " transform="matrix(0.478125,0,0,0.425,34.094695,-184.846667)"/>
<path style="fill-rule:nonzero;fill:rgb(100%,100%,100%);fill-opacity:1;stroke-width:0.945;stroke-linecap:butt;stroke-linejoin:bevel;stroke:rgb(0%,0%,0%);stroke-opacity:1;stroke-miterlimit:4;" d="M 139.017631 625.696201 L 252.81665 625.696201 L 252.81665 630.052819 L 139.017631 630.052819 Z M 139.017631 625.696201 " transform="matrix(0.478125,0,0,0.425,34.094695,-184.846667)"/>
<path style="fill-rule:nonzero;fill:rgb(100%,100%,100%);fill-opacity:1;stroke-width:0.96;stroke-linecap:butt;stroke-linejoin:bevel;stroke:rgb(0%,0%,0%);stroke-opacity:1;stroke-miterlimit:4;" d="M 168.976781 647.635539 L 172.563382 647.635539 L 172.563382 664.133701 L 168.976781 664.133701 Z M 217.971879 647.635539 L 221.55848 647.635539 L 221.55848 664.133701 L 217.971879 664.133701 Z M 139.916324 647.635539 L 143.502925 647.635539 L 143.502925 664.133701 L 139.916324 664.133701 Z M 146.950637 647.635539 L 150.537239 647.635539 L 150.537239 664.133701 L 146.950637 664.133701 Z M 154.450637 647.635539 L 158.037239 647.635539 L 158.037239 664.133701 L 154.450637 664.133701 Z M 161.950637 647.635539 L 165.537239 647.635539 L 165.537239 664.133701 L 161.950637 664.133701 Z M 224.769265 647.635539 L 228.355866 647.635539 L 228.355866 664.133701 L 224.769265 664.133701 Z M 232.269265 647.635539 L 235.855866 647.635539 L 235.855866 664.133701 L 232.269265 664.133701 Z M 239.769265 647.635539 L 243.355866 647.635539 L 243.355866 664.133701 L 239.769265 664.133701 Z M 239.769265 647.635539 " transform="matrix(0.478125,0,0,0.425,34.094695,-184.846667)"/>
<path style="fill-rule:nonzero;fill:rgb(100%,100%,100%);fill-opacity:1;stroke-width:0.96;stroke-linecap:butt;stroke-linejoin:miter;stroke:rgb(0%,0%,0%);stroke-opacity:1;stroke-miterlimit:4;" d="M 94.507827 669.547304 C 96.272533 668.65576 98.274167 666.569363 98.935931 664.234804 L 292.007827 664.234804 C 292.661422 666.569363 294.671225 668.65576 296.427761 669.547304 Z M 94.507827 669.547304 " transform="matrix(0.478125,0,0,0.425,34.094695,-184.846667)"/>
<path style="fill-rule:nonzero;fill:rgb(100%,100%,100%);fill-opacity:1;stroke-width:0.96;stroke-linecap:butt;stroke-linejoin:miter;stroke:rgb(0%,0%,0%);stroke-opacity:1;stroke-miterlimit:4;" d="M 192.996389 556.799142 C 192.996389 556.799142 192.8575 552.690686 195.251291 552.64473 C 197.645082 552.690686 197.498023 556.799142 197.498023 556.799142 Z M 180.512729 611.339583 L 180.512729 605.806495 C 180.431029 603.039951 177.751291 602.837745 177.669592 600.815686 C 177.669592 600.815686 177.326454 597.791789 178.127108 596.413113 C 179.205539 600.45723 181.182663 599.712745 181.182663 598.049142 C 181.182663 596.596936 180.063382 595.245833 177.775801 591.716422 C 177.040507 590.595098 177.489853 587.056495 178.519265 585.797304 C 178.919592 588.867157 179.368938 590.337745 180.692467 590.337745 C 181.493121 590.337745 182.154886 589.813848 182.154886 588.278922 C 182.154886 586.321201 180.823186 585.328554 180.177761 583.545466 C 179.417958 581.46826 179.940833 579.354289 181.199003 578.168627 C 181.738219 581.201716 181.58299 582.40576 182.931029 582.40576 C 185.643448 581.55098 182.931029 577.617157 182.350964 576.633701 C 181.681029 575.475613 183.241487 573.168627 183.241487 573.168627 C 184.1075 575.861642 184.385278 576.08223 185.31665 575.834069 C 186.484951 575.512377 186.337892 573.775245 184.899984 572.368995 C 184.001291 571.477451 184.09933 570.153922 185.063382 569.096936 C 186.043775 570.99951 187.293775 570.880025 187.408154 569.74951 L 186.62384 565.356127 L 203.878742 565.356127 L 203.020899 569.602451 C 202.775801 570.824877 204.417958 571.091422 205.439199 569.096936 C 206.411422 570.153922 206.509461 571.477451 205.602598 572.368995 C 204.172859 573.775245 204.017631 575.512377 205.194101 575.834069 C 206.125474 576.08223 206.403252 575.861642 207.261095 573.168627 C 207.261095 573.168627 208.666324 574.740319 208.159788 576.633701 C 207.579722 577.617157 204.867304 581.55098 207.579722 582.40576 C 208.927761 582.40576 208.764363 581.201716 209.303578 578.168627 C 210.569918 579.354289 211.092794 581.46826 210.33299 583.545466 C 209.679395 585.328554 208.355866 586.321201 208.355866 588.278922 C 208.355866 589.813848 209.009461 590.337745 209.818284 590.337745 C 211.133644 590.337745 211.59116 588.867157 211.991487 585.797304 C 213.012729 587.056495 213.470245 590.595098 212.734951 591.716422 C 210.447369 595.245833 209.328088 596.596936 209.328088 598.049142 C 209.328088 599.712745 211.297042 600.45723 212.383644 596.413113 C 213.184297 597.791789 212.83299 600.815686 212.83299 600.815686 C 212.759461 602.837745 210.079722 603.039951 209.998023 605.806495 L 209.998023 611.339583 Z M 187.726781 565.319363 L 187.334624 562.194363 L 203.167958 562.194363 L 202.775801 565.319363 Z M 188.788873 562.130025 L 188.445735 559.556495 L 202.056846 559.556495 L 201.713709 562.130025 Z M 190.953905 559.473775 L 190.725147 556.900245 L 199.777435 556.900245 L 199.556846 559.473775 Z M 223.968611 669.547304 C 221.942467 668.766054 218.993121 666.633701 218.993121 664.482966 L 218.993121 640.181495 L 221.63201 636.826716 L 168.854232 636.826716 L 171.386912 640.181495 L 171.386912 664.482966 C 171.386912 666.633701 169.360768 668.766054 167.334624 669.547304 Z M 223.968611 669.547304 " transform="matrix(0.478125,0,0,0.425,34.094695,-184.846667)"/>
<path style="fill-rule:nonzero;fill:rgb(100%,100%,100%);fill-opacity:1;stroke-width:0.96;stroke-linecap:butt;stroke-linejoin:bevel;stroke:rgb(0%,0%,0%);stroke-opacity:1;stroke-miterlimit:4;" d="M 178.241487 647.635539 L 181.828088 647.635539 L 181.828088 664.133701 L 178.241487 664.133701 Z M 208.560114 647.635539 L 212.146716 647.635539 L 212.146716 664.133701 L 208.560114 664.133701 Z M 208.560114 647.635539 " transform="matrix(0.478125,0,0,0.425,34.094695,-184.846667)"/>
<path style="fill-rule:nonzero;fill:rgb(100%,100%,100%);fill-opacity:1;stroke-width:0.96;stroke-linecap:butt;stroke-linejoin:miter;stroke:rgb(0%,0%,0%);stroke-opacity:1;stroke-miterlimit:4;" d="M 167.90652 609.170466 L 167.90652 636.826716 L 221.934297 636.826716 L 221.934297 630.870833 L 222.007827 609.170466 C 219.801944 610.034436 219.417958 612.038113 219.417958 612.038113 L 219.417958 623.821201 L 170.667958 623.821201 L 170.667958 612.038113 C 170.667958 612.038113 170.120572 610.034436 167.90652 609.170466 Z M 167.90652 609.170466 " transform="matrix(0.478125,0,0,0.425,34.094695,-184.846667)"/>
<path style="fill-rule:nonzero;fill:rgb(100%,100%,100%);fill-opacity:1;stroke-width:0.96;stroke-linecap:butt;stroke-linejoin:miter;stroke:rgb(0%,0%,0%);stroke-opacity:1;stroke-miterlimit:4;" d="M 214.597696 669.547304 C 212.83299 668.766054 208.984951 666.633701 208.984951 664.482966 L 208.984951 637.286275 C 209.368938 635.76973 211.427761 634.878186 212.751291 633.931495 L 176.926127 633.931495 C 178.633644 634.83223 180.529069 635.585907 181.207173 637.286275 L 181.207173 664.482966 C 181.207173 666.633701 178.167958 668.766054 176.403252 669.547304 Z M 214.597696 669.547304 " transform="matrix(0.478125,0,0,0.425,34.094695,-184.846667)"/>
<path style="fill-rule:nonzero;fill:rgb(100%,100%,100%);fill-opacity:1;stroke-width:0.96;stroke-linecap:butt;stroke-linejoin:miter;stroke:rgb(0%,0%,0%);stroke-opacity:1;stroke-miterlimit:4;" d="M 219.409788 634.216422 L 219.409788 614.630025 L 214.499657 614.630025 L 214.499657 612.727451 L 175.659788 612.727451 L 175.659788 614.630025 L 170.749657 614.630025 L 170.749657 634.216422 Z M 206.860768 669.547304 C 205.128742 668.766054 202.612402 666.633701 202.612402 664.482966 L 202.612402 641.266054 L 204.033971 639.152083 L 186.337892 639.152083 L 187.759461 641.266054 L 187.759461 664.482966 C 187.759461 666.633701 185.243121 668.766054 183.511095 669.547304 Z M 206.860768 669.547304 " transform="matrix(0.478125,0,0,0.425,34.094695,-184.846667)"/>
<path style="fill-rule:nonzero;fill:rgb(100%,100%,100%);fill-opacity:1;stroke-width:0.981;stroke-linecap:butt;stroke-linejoin:miter;stroke:rgb(0%,0%,0%);stroke-opacity:1;stroke-miterlimit:4;" d="M 190.708807 639.161275 L 199.679395 639.161275 L 199.679395 669.538113 L 190.708807 669.538113 Z M 190.708807 639.161275 " transform="matrix(0.478125,0,0,0.425,34.094695,-184.846667)"/>
<path style="fill-rule:nonzero;fill:rgb(100%,100%,100%);fill-opacity:1;stroke-width:0.96;stroke-linecap:butt;stroke-linejoin:bevel;stroke:rgb(0%,0%,0%);stroke-opacity:1;stroke-miterlimit:4;" d="M 204.377108 632.479289 C 204.401618 630.475613 210.218611 630.392892 213.208807 628.683333 L 177.261095 628.683333 C 180.251291 630.392892 185.937565 630.53076 185.937565 632.479289 L 187.154886 636.357966 L 202.032337 636.964583 Z M 204.377108 632.479289 " transform="matrix(0.478125,0,0,0.425,34.094695,-184.846667)"/>
<path style="fill-rule:nonzero;fill:rgb(100%,100%,100%);fill-opacity:1;stroke-width:0.96;stroke-linecap:butt;stroke-linejoin:miter;stroke:rgb(0%,0%,0%);stroke-opacity:1;stroke-miterlimit:4;" d="M 211.411422 611.339583 C 211.411422 606.440686 211.61567 604.556495 213.118938 604.556495 L 213.118938 620.135539 C 209.426127 621.477451 206.795408 626.183333 206.795408 626.183333 L 183.584624 626.183333 C 183.584624 626.183333 180.953905 621.477451 177.261095 620.135539 L 177.261095 604.556495 C 179.11567 604.556495 179.12384 606.523407 179.12384 611.339583 Z M 213.118938 609.326716 C 213.118938 603.710907 217.971879 603.076716 217.971879 603.076716 L 217.971879 608.076716 C 216.125474 608.003186 215.234951 609.657598 215.234951 612.120833 C 215.234951 614.59326 216.721879 614.630025 216.721879 614.630025 L 216.721879 628.821201 L 213.118938 628.821201 Z M 213.118938 609.326716 " transform="matrix(0.478125,0,0,0.425,34.094695,-184.846667)"/>
<path style="fill-rule:nonzero;fill:rgb(100%,100%,100%);fill-opacity:1;stroke-width:0.96;stroke-linecap:butt;stroke-linejoin:miter;stroke:rgb(0%,0%,0%);stroke-opacity:1;stroke-miterlimit:4;" d="M 177.277435 609.326716 C 177.277435 603.710907 172.432663 603.076716 172.432663 603.076716 L 172.432663 608.076716 C 174.279069 608.003186 175.169592 609.657598 175.169592 612.120833 C 175.169592 614.59326 173.682663 614.630025 173.682663 614.630025 L 173.682663 628.821201 L 177.277435 628.821201 Z M 177.277435 609.326716 " transform="matrix(0.478125,0,0,0.425,34.094695,-184.846667)"/>
<path style="fill:none;stroke-width:0.8;stroke-linecap:butt;stroke-linejoin:miter;stroke:rgb(0%,0%,0%);stroke-opacity:1;stroke-miterlimit:4;" d="M 186.836258 570.622672 L 203.968611 570.622672 M 184.810114 575.971936 L 205.733317 575.971936 M 182.783971 582.460907 L 207.685931 582.460907 M 180.659788 590.392892 L 210.194101 590.392892 M 179.981683 599.427819 L 210.40652 599.427819 " transform="matrix(0.478125,0,0,0.425,34.094695,-184.846667)"/>
<path style="fill:none;stroke-width:0.96;stroke-linecap:butt;stroke-linejoin:miter;stroke:rgb(0%,0%,0%);stroke-opacity:1;stroke-miterlimit:4;" d="M 170.749657 628.922304 L 219.409788 628.922304 M 186.190833 628.931495 L 204.230049 628.931495 L 204.230049 635.558333 L 186.190833 635.558333 Z M 186.190833 628.931495 " transform="matrix(0.478125,0,0,0.425,34.094695,-184.846667)"/>
<path style="fill-rule:nonzero;fill:rgb(100%,100%,100%);fill-opacity:1;stroke-width:0.96;stroke-linecap:butt;stroke-linejoin:miter;stroke:rgb(0%,0%,0%);stroke-opacity:1;stroke-miterlimit:4;" d="M 183.927761 614.243995 C 186.917958 617.828554 186.64018 623.922304 186.6075 627.506863 L 203.952271 627.506863 C 203.919592 623.922304 203.641814 617.828554 206.63201 614.243995 Z M 193.682663 573.11348 L 191.305212 571.881863 L 191.305212 568.389216 C 192.277435 568.683333 193.364036 568.802819 193.470245 570.346936 C 193.813382 568.141054 194.417958 568.242157 195.38201 567.387377 C 196.337892 568.242157 196.950637 568.141054 197.285605 570.346936 C 197.391814 568.802819 198.478415 568.683333 199.450637 568.389216 L 199.450637 571.881863 L 197.073186 573.11348 Z M 193.682663 573.11348 " transform="matrix(0.478125,0,0,0.425,34.094695,-184.846667)"/>
<path style="fill-rule:nonzero;fill:rgb(100%,100%,100%);fill-opacity:1;stroke-width:0.96;stroke-linecap:butt;stroke-linejoin:miter;stroke:rgb(0%,0%,0%);stroke-opacity:1;stroke-miterlimit:4;" d="M 193.519265 578.848775 L 189.573186 576.137377 L 189.573186 572.911275 C 190.953905 573.232966 192.506193 573.361642 192.661422 575.06201 C 193.143448 572.635539 194.009461 571.385539 195.37384 570.438848 C 196.738219 571.385539 197.612402 572.635539 198.094428 575.06201 C 198.241487 573.361642 199.793775 573.232966 201.182663 572.911275 L 201.182663 576.137377 L 197.236585 578.848775 Z M 193.519265 578.848775 " transform="matrix(0.478125,0,0,0.425,34.094695,-184.846667)"/>
<path style="fill-rule:nonzero;fill:rgb(100%,100%,100%);fill-opacity:1;stroke-width:0.96;stroke-linecap:butt;stroke-linejoin:miter;stroke:rgb(0%,0%,0%);stroke-opacity:1;stroke-miterlimit:4;" d="M 193.241487 587.80098 L 188.699003 583.81201 L 188.699003 579.078554 C 190.292141 579.547304 192.081356 579.740319 192.252925 582.240319 C 192.80848 578.674142 193.805212 576.835907 195.37384 575.448039 C 196.942467 576.835907 197.939199 578.674142 198.494755 582.240319 C 198.674493 579.740319 200.455539 579.547304 202.048676 579.078554 L 202.048676 583.81201 L 197.514363 587.80098 Z M 201.6075 593.085907 L 197.506193 598.766054 L 192.8575 598.766054 L 188.756193 593.085907 Z M 186.386912 602.617157 C 188.445735 603.73848 189.197369 605.981127 189.417958 610.172304 L 200.970245 610.172304 C 201.190833 605.981127 201.950637 603.73848 204.001291 602.617157 Z M 186.386912 602.617157 " transform="matrix(0.478125,0,0,0.425,34.094695,-184.846667)"/>
<path style="fill-rule:nonzero;fill:rgb(100%,100%,100%);fill-opacity:1;stroke-width:0.96;stroke-linecap:butt;stroke-linejoin:bevel;stroke:rgb(0%,0%,0%);stroke-opacity:1;stroke-miterlimit:4;" d="M 204.172859 593.085907 L 204.172859 587.387377 C 202.220245 587.920466 200.953905 589.078554 200.39018 590.650245 C 200.39018 588.756863 197.90652 584.391054 195.185931 582.212745 C 192.465343 584.648407 189.932663 588.591422 189.981683 590.650245 C 189.515997 589.152083 188.151618 587.920466 186.207173 587.387377 L 186.207173 593.085907 Z M 204.172859 593.085907 " transform="matrix(0.478125,0,0,0.425,34.094695,-184.846667)"/>
<path style="fill-rule:nonzero;fill:rgb(100%,100%,100%);fill-opacity:1;stroke-width:0.96;stroke-linecap:butt;stroke-linejoin:bevel;stroke:rgb(0%,0%,0%);stroke-opacity:1;stroke-miterlimit:4;" d="M 205.038873 602.617157 L 205.038873 596.918627 C 202.89835 597.451716 201.517631 598.609804 200.904886 600.172304 C 200.904886 598.278922 198.167958 593.922304 195.194101 591.743995 C 192.203905 594.179657 189.426127 598.122672 189.483317 600.172304 C 188.976781 598.683333 187.481683 597.451716 185.34933 596.918627 L 185.34933 602.617157 Z M 205.038873 602.617157 " transform="matrix(0.478125,0,0,0.425,34.094695,-184.846667)"/>
<path style="fill-rule:nonzero;fill:rgb(100%,100%,100%);fill-opacity:1;stroke-width:0.96;stroke-linecap:butt;stroke-linejoin:bevel;stroke:rgb(0%,0%,0%);stroke-opacity:1;stroke-miterlimit:4;" d="M 207.440833 614.317525 L 207.440833 607.745833 C 204.777435 608.42598 203.127108 610.392892 202.293775 611.541789 C 202.293775 607.984804 198.265997 602.552819 195.185931 600.778922 C 192.032337 602.598775 188.086258 608.214583 188.086258 611.541789 C 187.228415 610.402083 185.602598 608.42598 182.939199 607.745833 L 182.939199 614.317525 Z M 207.440833 614.317525 " transform="matrix(0.478125,0,0,0.425,34.094695,-184.846667)"/>
<path style="fill-rule:nonzero;fill:rgb(100%,100%,100%);fill-opacity:1;stroke-width:0.96;stroke-linecap:butt;stroke-linejoin:bevel;stroke:rgb(0%,0%,0%);stroke-opacity:1;stroke-miterlimit:4;" d="M 206.002925 628.922304 L 206.002925 622.157598 C 203.649984 623.076716 202.955539 625.337745 202.212075 626.872672 C 202.506193 620.016054 198.355866 612.64473 195.185931 610.778922 C 192.024167 612.64473 187.80031 620.172304 188.167958 626.872672 C 187.408154 625.346936 186.730049 623.076716 184.377108 622.157598 L 184.377108 628.922304 Z M 206.002925 628.922304 " transform="matrix(0.478125,0,0,0.425,34.094695,-184.846667)"/>
<path style="fill-rule:nonzero;fill:rgb(100%,100%,100%);fill-opacity:1;stroke-width:0.96;stroke-linecap:butt;stroke-linejoin:miter;stroke:rgb(0%,0%,0%);stroke-opacity:1;stroke-miterlimit:4;" d="M 204.360768 639.161275 L 204.360768 632.396569 C 201.901618 632.984804 201.746389 633.885539 200.970245 635.402083 C 201.256193 631.302819 198.355866 626.633701 195.194101 624.767892 C 192.032337 626.633701 189.13201 631.31201 189.417958 635.402083 C 188.641814 633.885539 188.543775 632.984804 186.027435 632.396569 L 186.027435 639.161275 Z M 204.360768 639.161275 " transform="matrix(0.478125,0,0,0.425,34.094695,-184.846667)"/>
<path style="fill-rule:nonzero;fill:rgb(100%,100%,100%);fill-opacity:1;stroke-width:0.96;stroke-linecap:butt;stroke-linejoin:miter;stroke:rgb(0%,0%,0%);stroke-opacity:1;stroke-miterlimit:4;" d="M 98.935931 664.225613 L 98.935931 643.793627 C 98.265997 641.183333 96.051944 638.885539 94.393448 638.42598 L 94.393448 620.429657 L 98.135278 622.451716 L 102.408154 641.266054 L 102.408154 664.225613 Z M 98.935931 664.225613 " transform="matrix(0.478125,0,0,0.425,34.094695,-184.846667)"/>
<path style="fill-rule:nonzero;fill:rgb(100%,100%,100%);fill-opacity:1;stroke-width:0.96;stroke-linecap:butt;stroke-linejoin:miter;stroke:rgb(0%,0%,0%);stroke-opacity:1;stroke-miterlimit:4;" d="M 98.935931 664.308333 L 98.935931 643.793627 C 98.265997 641.192525 96.051944 638.885539 94.393448 638.42598 L 94.393448 619.179657 C 96.909788 619.179657 98.135278 622.451716 98.135278 622.451716 L 102.408154 641.266054 L 102.408154 664.152083 Z M 98.935931 664.308333 " transform="matrix(0.478125,0,0,0.425,34.094695,-184.846667)"/>
<path style="fill-rule:nonzero;fill:rgb(100%,100%,100%);fill-opacity:1;stroke-width:0.96;stroke-linecap:butt;stroke-linejoin:miter;stroke:rgb(0%,0%,0%);stroke-opacity:1;stroke-miterlimit:4;" d="M 96.272533 669.547304 C 98.004559 668.766054 100.520899 666.633701 100.520899 664.482966 L 100.520899 638.931495 L 99.336258 636.826716 L 142.8575 636.826716 L 141.158154 638.931495 L 141.158154 664.482966 C 141.158154 666.633701 142.89018 668.766054 144.622206 669.547304 Z M 96.272533 669.547304 " transform="matrix(0.478125,0,0,0.425,34.094695,-184.846667)"/>
<path style="fill-rule:nonzero;fill:rgb(100%,100%,100%);fill-opacity:1;stroke-width:0.96;stroke-linecap:butt;stroke-linejoin:miter;stroke:rgb(0%,0%,0%);stroke-opacity:1;stroke-miterlimit:4;" d="M 135.839526 669.547304 C 134.1075 668.766054 131.59116 666.633701 131.59116 664.482966 L 131.59116 640.181495 L 135.210441 636.826716 L 105.618938 636.826716 L 109.238219 640.181495 L 109.238219 664.482966 C 109.238219 666.633701 106.721879 668.766054 104.989853 669.547304 Z M 135.839526 669.547304 " transform="matrix(0.478125,0,0,0.425,34.094695,-184.846667)"/>
<path style="fill-rule:nonzero;fill:rgb(100%,100%,100%);fill-opacity:1;stroke-width:0.96;stroke-linecap:butt;stroke-linejoin:miter;stroke:rgb(0%,0%,0%);stroke-opacity:1;stroke-miterlimit:4;" d="M 131.689199 669.547304 C 129.957173 668.766054 127.440833 666.633701 127.440833 664.482966 L 127.440833 642.516054 L 129.810114 639.152083 L 111.011095 639.152083 L 113.380376 642.516054 L 113.380376 664.482966 C 113.380376 666.633701 110.864036 668.766054 109.13201 669.547304 Z M 131.689199 669.547304 " transform="matrix(0.478125,0,0,0.425,34.094695,-184.846667)"/>
<path style="fill-rule:nonzero;fill:rgb(100%,100%,100%);fill-opacity:1;stroke-width:0.96;stroke-linecap:butt;stroke-linejoin:miter;stroke:rgb(0%,0%,0%);stroke-opacity:1;stroke-miterlimit:4;" d="M 115.921225 639.161275 L 124.899984 639.161275 L 124.899984 669.556495 L 115.921225 669.556495 Z M 115.921225 639.161275 " transform="matrix(0.478125,0,0,0.425,34.094695,-184.846667)"/>
<path style="fill-rule:nonzero;fill:rgb(100%,100%,100%);fill-opacity:1;stroke-width:0.96;stroke-linecap:butt;stroke-linejoin:bevel;stroke:rgb(0%,0%,0%);stroke-opacity:1;stroke-miterlimit:4;" d="M 103.699003 647.635539 L 107.285605 647.635539 L 107.285605 664.133701 L 103.699003 664.133701 Z M 134.450637 647.635539 L 138.037239 647.635539 L 138.037239 664.133701 L 134.450637 664.133701 Z M 100.643448 619.823039 L 104.957173 619.823039 L 104.957173 636.725613 L 100.643448 636.725613 Z M 100.643448 616.642892 L 104.932663 616.642892 L 104.932663 619.777083 L 100.643448 619.777083 Z M 100.643448 616.642892 " transform="matrix(0.478125,0,0,0.425,34.094695,-184.846667)"/>
<path style="fill-rule:nonzero;fill:rgb(100%,100%,100%);fill-opacity:1;stroke-width:1.034;stroke-linecap:butt;stroke-linejoin:bevel;stroke:rgb(0%,0%,0%);stroke-opacity:1;stroke-miterlimit:4;" d="M 136.166324 623.462745 L 142.326454 623.462745 L 142.326454 636.514216 L 136.166324 636.514216 Z M 136.166324 623.462745 " transform="matrix(0.478125,0,0,0.425,34.094695,-184.846667)"/>
<path style="fill-rule:nonzero;fill:rgb(100%,100%,100%);fill-opacity:1;stroke-width:0.96;stroke-linecap:butt;stroke-linejoin:miter;stroke:rgb(0%,0%,0%);stroke-opacity:1;stroke-miterlimit:4;" d="M 104.891814 636.596936 L 104.891814 607.663113 C 106.125474 607.663113 106.313382 611.900245 109.14018 611.900245 C 110.610768 611.900245 110.455539 610.14473 109.630376 608.710907 C 108.895082 607.442525 107.988219 605.696201 109.221879 602.433333 C 110.063382 604.933333 112.334624 605.723775 111.917958 604.152083 C 111.190833 601.46826 109.11567 601.027083 110.676127 596.854289 C 111.215343 600.337745 113.445735 600.181495 112.90652 598.159436 C 112.293775 595.880025 111.035605 594.942525 112.587892 591.725613 C 113.462075 595.383701 114.638546 595.163113 114.638546 592.902083 C 114.638546 589.556495 114.515997 585.944363 118.846062 584.602451 C 118.846062 584.602451 119.09116 581.532598 120.659788 581.532598 C 122.220245 581.532598 122.473513 584.602451 122.473513 584.602451 C 126.803578 585.944363 126.672859 589.556495 126.672859 592.902083 C 126.672859 595.163113 127.84933 595.37451 128.723513 591.734804 C 130.283971 594.942525 129.017631 595.880025 128.413056 598.159436 C 127.86567 600.181495 130.096062 600.337745 130.635278 596.854289 C 132.195735 601.027083 130.120572 601.46826 129.401618 604.152083 C 128.984951 605.723775 131.248023 604.933333 132.097696 602.433333 C 133.323186 605.696201 132.416324 607.442525 131.689199 608.710907 C 130.864036 610.14473 130.700637 611.900245 132.179395 611.900245 C 135.006193 611.900245 135.194101 607.663113 136.427761 607.663113 L 136.427761 636.596936 Z M 98.127108 614.740319 L 98.127108 636.817525 L 100.635278 636.817525 L 100.635278 614.685172 C 99.728415 614.225613 98.878742 614.161275 98.127108 614.740319 Z M 98.127108 614.740319 " transform="matrix(0.478125,0,0,0.425,34.094695,-184.846667)"/>
<path style="fill-rule:nonzero;fill:rgb(100%,100%,100%);fill-opacity:1;stroke-width:0.96;stroke-linecap:butt;stroke-linejoin:miter;stroke:rgb(0%,0%,0%);stroke-opacity:1;stroke-miterlimit:4;" d="M 98.200637 629.032598 C 101.313382 630.622672 104.401618 632.460907 105.177761 636.826716 L 98.200637 636.826716 Z M 141.370572 622.424142 L 141.370572 636.826716 L 143.404886 636.826716 L 143.404886 622.387377 C 142.767631 622.084069 141.901618 622.038113 141.370572 622.424142 Z M 141.370572 622.424142 " transform="matrix(0.478125,0,0,0.425,34.094695,-184.846667)"/>
<path style="fill-rule:nonzero;fill:rgb(100%,100%,100%);fill-opacity:1;stroke-width:0.96;stroke-linecap:butt;stroke-linejoin:miter;stroke:rgb(0%,0%,0%);stroke-opacity:1;stroke-miterlimit:4;" d="M 143.413056 628.922304 C 140.30031 630.512377 137.212075 632.350613 136.435931 636.716422 L 143.413056 636.716422 Z M 143.413056 628.922304 " transform="matrix(0.478125,0,0,0.425,34.094695,-184.846667)"/>
<path style="fill-rule:nonzero;fill:rgb(100%,100%,100%);fill-opacity:1;stroke-width:0.96;stroke-linecap:butt;stroke-linejoin:miter;stroke:rgb(0%,0%,0%);stroke-opacity:1;stroke-miterlimit:4;" d="M 122.83299 595.273407 L 124.646716 593.747672 L 124.646716 591.789951 C 123.976781 591.854289 123.617304 592.084069 123.127108 592.727451 C 122.710441 591.431495 121.795408 590.420466 120.569918 589.795466 C 119.336258 590.420466 118.421225 591.385539 118.004559 592.681495 C 117.514363 592.038113 117.154886 591.854289 116.484951 591.789951 L 116.484951 593.747672 L 118.298676 595.273407 Z M 122.83299 595.273407 " transform="matrix(0.478125,0,0,0.425,34.094695,-184.846667)"/>
<path style="fill-rule:nonzero;fill:rgb(100%,100%,100%);fill-opacity:1;stroke-width:0.96;stroke-linecap:butt;stroke-linejoin:miter;stroke:rgb(0%,0%,0%);stroke-opacity:1;stroke-miterlimit:4;" d="M 123.797042 600.163113 L 124.646716 598.334069 L 124.646716 595.797304 C 123.976781 595.861642 123.617304 596.091422 123.127108 596.743995 C 122.710441 595.429657 121.795408 594.409436 120.561748 593.775245 C 119.336258 594.409436 118.421225 595.383701 118.004559 596.698039 C 117.514363 596.045466 117.146716 595.861642 116.484951 595.797304 L 116.484951 598.334069 L 117.326454 600.163113 Z M 123.797042 600.163113 " transform="matrix(0.478125,0,0,0.425,34.094695,-184.846667)"/>
<path style="fill-rule:nonzero;fill:rgb(100%,100%,100%);fill-opacity:1;stroke-width:0.96;stroke-linecap:butt;stroke-linejoin:miter;stroke:rgb(0%,0%,0%);stroke-opacity:1;stroke-miterlimit:4;" d="M 123.927761 606.789951 L 126.62384 603.49951 L 126.62384 600.264216 C 125.635278 600.37451 125.104232 600.760539 124.368938 601.86348 C 123.756193 599.648407 122.391814 599.161275 120.569918 598.076716 C 118.739853 599.161275 117.383644 599.565686 116.762729 601.789951 C 116.035605 600.68701 115.496389 600.37451 114.507827 600.264216 L 114.507827 603.49951 L 117.203905 606.789951 Z M 123.927761 606.789951 " transform="matrix(0.478125,0,0,0.425,34.094695,-184.846667)"/>
<path style="fill-rule:nonzero;fill:rgb(100%,100%,100%);fill-opacity:1;stroke-width:0.96;stroke-linecap:butt;stroke-linejoin:miter;stroke:rgb(0%,0%,0%);stroke-opacity:1;stroke-miterlimit:4;" d="M 124.720245 613.297304 C 124.720245 613.297304 127.8575 610.558333 128.045408 609.060172 L 128.045408 605.585907 C 126.828088 605.732966 125.676127 606.045466 124.777435 607.470098 C 124.017631 604.602451 122.82482 603.802819 120.569918 602.40576 C 118.315016 603.802819 117.122206 604.602451 116.354232 607.470098 C 115.455539 606.045466 114.303578 605.732966 113.086258 605.585907 L 113.086258 609.060172 C 113.486585 610.558333 116.419592 613.297304 116.419592 613.297304 Z M 124.720245 613.297304 " transform="matrix(0.478125,0,0,0.425,34.094695,-184.846667)"/>
<path style="fill-rule:nonzero;fill:rgb(100%,100%,100%);fill-opacity:1;stroke-width:0.96;stroke-linecap:butt;stroke-linejoin:miter;stroke:rgb(0%,0%,0%);stroke-opacity:1;stroke-miterlimit:4;" d="M 126.060114 625.319363 C 126.060114 625.319363 130.3575 620.558333 130.463709 618.701716 L 130.463709 613.297304 C 128.846062 613.517892 127.326454 614.630025 126.141814 616.845098 C 125.128742 612.378186 123.551944 609.253186 120.569918 607.084069 C 117.587892 609.253186 116.011095 612.378186 114.998023 616.845098 C 113.805212 614.630025 112.285605 613.517892 110.676127 613.297304 L 110.676127 618.701716 C 110.986585 620.558333 115.079722 625.319363 115.079722 625.319363 Z M 126.060114 625.319363 " transform="matrix(0.478125,0,0,0.425,34.094695,-184.846667)"/>
<path style="fill-rule:nonzero;fill:rgb(100%,100%,100%);fill-opacity:1;stroke-width:0.96;stroke-linecap:butt;stroke-linejoin:miter;stroke:rgb(0%,0%,0%);stroke-opacity:1;stroke-miterlimit:4;" d="M 126.060114 632.433333 C 126.060114 632.433333 129.736585 628.692525 130.463709 627.065686 L 130.463709 621.661275 C 128.846062 621.881863 127.326454 622.984804 126.141814 625.209069 C 125.128742 620.732966 123.551944 618.168627 120.569918 615.99951 C 117.587892 618.168627 116.011095 620.732966 114.998023 625.209069 C 113.805212 622.984804 112.285605 621.881863 110.676127 621.661275 L 110.676127 627.065686 C 111.6075 628.692525 115.079722 632.433333 115.079722 632.433333 Z M 126.060114 632.433333 " transform="matrix(0.478125,0,0,0.425,34.094695,-184.846667)"/>
<path style="fill-rule:nonzero;fill:rgb(100%,100%,100%);fill-opacity:1;stroke-width:0.96;stroke-linecap:butt;stroke-linejoin:miter;stroke:rgb(0%,0%,0%);stroke-opacity:1;stroke-miterlimit:4;" d="M 127.538873 636.560172 C 126.468611 631.891054 125.545408 628.42598 120.37384 624.914951 C 115.210441 628.42598 114.287239 631.891054 113.216977 636.560172 Z M 127.538873 636.560172 " transform="matrix(0.478125,0,0,0.425,34.094695,-184.846667)"/>
<path style="fill-rule:nonzero;fill:rgb(100%,100%,100%);fill-opacity:1;stroke-width:0.96;stroke-linecap:butt;stroke-linejoin:miter;stroke:rgb(0%,0%,0%);stroke-opacity:1;stroke-miterlimit:4;" d="M 130.202271 639.161275 L 130.202271 632.396569 C 127.8575 633.315686 125.733317 634.67598 124.949003 636.192525 C 124.07482 632.442525 122.391814 630.788113 120.30031 628.517892 C 118.200637 630.788113 116.795408 632.442525 115.921225 636.192525 C 115.145082 634.67598 113.020899 633.315686 110.676127 632.396569 L 110.676127 639.161275 Z M 130.202271 639.161275 " transform="matrix(0.478125,0,0,0.425,34.094695,-184.846667)"/>
<path style="fill-rule:nonzero;fill:rgb(100%,100%,100%);fill-opacity:1;stroke-width:0.96;stroke-linecap:butt;stroke-linejoin:miter;stroke:rgb(0%,0%,0%);stroke-opacity:1;stroke-miterlimit:4;" d="M 98.936422 664.225613 L 98.936422 643.793627 C 98.266487 641.183333 96.052435 638.885539 94.393938 638.42598 L 94.393938 620.429657 L 98.135768 622.451716 L 102.408644 641.266054 L 102.408644 664.225613 Z M 98.936422 664.225613 " transform="matrix(-0.478125,0,0,0.425,220.917258,-184.846667)"/>
<path style="fill-rule:nonzero;fill:rgb(100%,100%,100%);fill-opacity:1;stroke-width:0.96;stroke-linecap:butt;stroke-linejoin:miter;stroke:rgb(0%,0%,0%);stroke-opacity:1;stroke-miterlimit:4;" d="M 98.936422 664.308333 L 98.936422 643.793627 C 98.266487 641.192525 96.052435 638.885539 94.393938 638.42598 L 94.393938 619.179657 C 96.902108 619.179657 98.135768 622.451716 98.135768 622.451716 L 102.408644 641.266054 L 102.408644 664.152083 Z M 98.936422 664.308333 " transform="matrix(-0.478125,0,0,0.425,220.917258,-184.846667)"/>
<path style="fill-rule:nonzero;fill:rgb(100%,100%,100%);fill-opacity:1;stroke-width:0.96;stroke-linecap:butt;stroke-linejoin:miter;stroke:rgb(0%,0%,0%);stroke-opacity:1;stroke-miterlimit:4;" d="M 96.273023 669.547304 C 98.005049 668.766054 100.521389 666.633701 100.521389 664.482966 L 100.521389 638.931495 L 99.336748 636.826716 L 142.85799 636.826716 L 141.158644 638.931495 L 141.158644 664.482966 C 141.158644 666.633701 142.89067 668.766054 144.622696 669.547304 Z M 96.273023 669.547304 " transform="matrix(-0.478125,0,0,0.425,220.917258,-184.846667)"/>
<path style="fill-rule:nonzero;fill:rgb(100%,100%,100%);fill-opacity:1;stroke-width:0.96;stroke-linecap:butt;stroke-linejoin:miter;stroke:rgb(0%,0%,0%);stroke-opacity:1;stroke-miterlimit:4;" d="M 135.840016 669.547304 C 134.10799 668.766054 131.59165 666.633701 131.59165 664.482966 L 131.59165 640.181495 L 135.210931 636.826716 L 105.619428 636.826716 L 109.238709 640.181495 L 109.238709 664.482966 C 109.238709 666.633701 106.722369 668.766054 104.990343 669.547304 Z M 135.840016 669.547304 " transform="matrix(-0.478125,0,0,0.425,220.917258,-184.846667)"/>
<path style="fill-rule:nonzero;fill:rgb(100%,100%,100%);fill-opacity:1;stroke-width:0.96;stroke-linecap:butt;stroke-linejoin:miter;stroke:rgb(0%,0%,0%);stroke-opacity:1;stroke-miterlimit:4;" d="M 131.68969 669.547304 C 129.957663 668.766054 127.441324 666.633701 127.441324 664.482966 L 127.441324 642.516054 L 129.810605 639.152083 L 111.011585 639.152083 L 113.380866 642.516054 L 113.380866 664.482966 C 113.380866 666.633701 110.864526 668.766054 109.1325 669.547304 Z M 131.68969 669.547304 " transform="matrix(-0.478125,0,0,0.425,220.917258,-184.846667)"/>
<path style="fill-rule:nonzero;fill:rgb(100%,100%,100%);fill-opacity:1;stroke-width:0.96;stroke-linecap:butt;stroke-linejoin:miter;stroke:rgb(0%,0%,0%);stroke-opacity:1;stroke-miterlimit:4;" d="M 115.921716 639.161275 L 124.900474 639.161275 L 124.900474 669.556495 L 115.921716 669.556495 Z M 115.921716 639.161275 " transform="matrix(-0.478125,0,0,0.425,220.917258,-184.846667)"/>
<path style="fill-rule:nonzero;fill:rgb(100%,100%,100%);fill-opacity:1;stroke-width:0.96;stroke-linecap:butt;stroke-linejoin:bevel;stroke:rgb(0%,0%,0%);stroke-opacity:1;stroke-miterlimit:4;" d="M 103.699493 647.635539 L 107.286095 647.635539 L 107.286095 664.133701 L 103.699493 664.133701 Z M 134.451127 647.635539 L 138.037729 647.635539 L 138.037729 664.133701 L 134.451127 664.133701 Z M 100.643938 619.823039 L 104.957663 619.823039 L 104.957663 636.725613 L 100.643938 636.725613 Z M 100.643938 616.642892 L 104.933154 616.642892 L 104.933154 619.777083 L 100.643938 619.777083 Z M 100.643938 616.642892 " transform="matrix(-0.478125,0,0,0.425,220.917258,-184.846667)"/>
<path style="fill-rule:nonzero;fill:rgb(100%,100%,100%);fill-opacity:1;stroke-width:1.034;stroke-linecap:butt;stroke-linejoin:bevel;stroke:rgb(0%,0%,0%);stroke-opacity:1;stroke-miterlimit:4;" d="M 136.166814 623.462745 L 142.326944 623.462745 L 142.326944 636.514216 L 136.166814 636.514216 Z M 136.166814 623.462745 " transform="matrix(-0.478125,0,0,0.425,220.917258,-184.846667)"/>
<path style="fill-rule:nonzero;fill:rgb(100%,100%,100%);fill-opacity:1;stroke-width:0.96;stroke-linecap:butt;stroke-linejoin:miter;stroke:rgb(0%,0%,0%);stroke-opacity:1;stroke-miterlimit:4;" d="M 104.892304 636.596936 L 104.892304 607.663113 C 106.125964 607.663113 106.313873 611.900245 109.14067 611.900245 C 110.611258 611.900245 110.456029 610.14473 109.630866 608.710907 C 108.895572 607.442525 107.988709 605.696201 109.222369 602.433333 C 110.063873 604.933333 112.335114 605.723775 111.910278 604.152083 C 111.191324 601.46826 109.11616 601.027083 110.676618 596.854289 C 111.215833 600.337745 113.446225 600.181495 112.90701 598.159436 C 112.294265 595.880025 111.036095 594.942525 112.588382 591.725613 C 113.462565 595.383701 114.639036 595.163113 114.639036 592.902083 C 114.639036 589.556495 114.516487 585.944363 118.846552 584.602451 C 118.846552 584.602451 119.09165 581.532598 120.660278 581.532598 C 122.220735 581.532598 122.474003 584.602451 122.474003 584.602451 C 126.804069 585.944363 126.67335 589.556495 126.67335 592.902083 C 126.67335 595.163113 127.84982 595.37451 128.724003 591.734804 C 130.284461 594.942525 129.018121 595.880025 128.405376 598.159436 C 127.86616 600.181495 130.096552 600.337745 130.635768 596.854289 C 132.196225 601.027083 130.121062 601.46826 129.402108 604.152083 C 128.977271 605.723775 131.248513 604.933333 132.090016 602.433333 C 133.323676 605.696201 132.416814 607.442525 131.68969 608.710907 C 130.864526 610.14473 130.701127 611.900245 132.179886 611.900245 C 135.006683 611.900245 135.194592 607.663113 136.428252 607.663113 L 136.428252 636.596936 Z M 98.127598 614.740319 L 98.127598 636.817525 L 100.635768 636.817525 L 100.635768 614.685172 C 99.728905 614.225613 98.879232 614.161275 98.127598 614.740319 Z M 98.127598 614.740319 " transform="matrix(-0.478125,0,0,0.425,220.917258,-184.846667)"/>
<path style="fill-rule:nonzero;fill:rgb(100%,100%,100%);fill-opacity:1;stroke-width:0.96;stroke-linecap:butt;stroke-linejoin:miter;stroke:rgb(0%,0%,0%);stroke-opacity:1;stroke-miterlimit:4;" d="M 98.201127 629.032598 C 101.313873 630.622672 104.393938 632.460907 105.178252 636.826716 L 98.201127 636.826716 Z M 141.371062 622.424142 L 141.371062 636.826716 L 143.405376 636.826716 L 143.405376 622.387377 C 142.768121 622.084069 141.902108 622.038113 141.371062 622.424142 Z M 141.371062 622.424142 " transform="matrix(-0.478125,0,0,0.425,220.917258,-184.846667)"/>
<path style="fill-rule:nonzero;fill:rgb(100%,100%,100%);fill-opacity:1;stroke-width:0.96;stroke-linecap:butt;stroke-linejoin:miter;stroke:rgb(0%,0%,0%);stroke-opacity:1;stroke-miterlimit:4;" d="M 143.413546 628.922304 C 140.300801 630.512377 137.212565 632.350613 136.436422 636.716422 L 143.413546 636.716422 Z M 143.413546 628.922304 " transform="matrix(-0.478125,0,0,0.425,220.917258,-184.846667)"/>
<path style="fill-rule:nonzero;fill:rgb(100%,100%,100%);fill-opacity:1;stroke-width:0.96;stroke-linecap:butt;stroke-linejoin:miter;stroke:rgb(0%,0%,0%);stroke-opacity:1;stroke-miterlimit:4;" d="M 122.83348 595.273407 L 124.647206 593.747672 L 124.647206 591.789951 C 123.977271 591.854289 123.617794 592.084069 123.127598 592.727451 C 122.710931 591.431495 121.795899 590.420466 120.562239 589.795466 C 119.336748 590.420466 118.421716 591.385539 118.005049 592.681495 C 117.514853 592.038113 117.147206 591.854289 116.485441 591.789951 L 116.485441 593.747672 L 118.299167 595.273407 Z M 122.83348 595.273407 " transform="matrix(-0.478125,0,0,0.425,220.917258,-184.846667)"/>
<path style="fill-rule:nonzero;fill:rgb(100%,100%,100%);fill-opacity:1;stroke-width:0.96;stroke-linecap:butt;stroke-linejoin:miter;stroke:rgb(0%,0%,0%);stroke-opacity:1;stroke-miterlimit:4;" d="M 123.797533 600.163113 L 124.639036 598.334069 L 124.639036 595.797304 C 123.977271 595.861642 123.617794 596.091422 123.127598 596.743995 C 122.710931 595.429657 121.795899 594.409436 120.562239 593.775245 C 119.336748 594.409436 118.421716 595.383701 118.005049 596.698039 C 117.514853 596.045466 117.147206 595.861642 116.485441 595.797304 L 116.485441 598.334069 L 117.326944 600.163113 Z M 123.797533 600.163113 " transform="matrix(-0.478125,0,0,0.425,220.917258,-184.846667)"/>
<path style="fill-rule:nonzero;fill:rgb(100%,100%,100%);fill-opacity:1;stroke-width:0.96;stroke-linecap:butt;stroke-linejoin:miter;stroke:rgb(0%,0%,0%);stroke-opacity:1;stroke-miterlimit:4;" d="M 123.928252 606.789951 L 126.62433 603.49951 L 126.62433 600.264216 C 125.635768 600.37451 125.104722 600.760539 124.369428 601.86348 C 123.756683 599.648407 122.392304 599.161275 120.570408 598.076716 C 118.740343 599.161275 117.375964 599.565686 116.763219 601.789951 C 116.027925 600.68701 115.496879 600.37451 114.508317 600.264216 L 114.508317 603.49951 L 117.204395 606.789951 Z M 123.928252 606.789951 " transform="matrix(-0.478125,0,0,0.425,220.917258,-184.846667)"/>
<path style="fill-rule:nonzero;fill:rgb(100%,100%,100%);fill-opacity:1;stroke-width:0.96;stroke-linecap:butt;stroke-linejoin:miter;stroke:rgb(0%,0%,0%);stroke-opacity:1;stroke-miterlimit:4;" d="M 124.720735 613.297304 C 124.720735 613.297304 127.85799 610.558333 128.045899 609.060172 L 128.045899 605.585907 C 126.828578 605.732966 125.676618 606.045466 124.777925 607.470098 C 124.018121 604.602451 122.817141 603.802819 120.570408 602.40576 C 118.315507 603.802819 117.122696 604.602451 116.354722 607.470098 C 115.456029 606.045466 114.304069 605.732966 113.086748 605.585907 L 113.086748 609.060172 C 113.487075 610.558333 116.420082 613.297304 116.420082 613.297304 Z M 124.720735 613.297304 " transform="matrix(-0.478125,0,0,0.425,220.917258,-184.846667)"/>
<path style="fill-rule:nonzero;fill:rgb(100%,100%,100%);fill-opacity:1;stroke-width:0.96;stroke-linecap:butt;stroke-linejoin:miter;stroke:rgb(0%,0%,0%);stroke-opacity:1;stroke-miterlimit:4;" d="M 126.060605 625.319363 C 126.060605 625.319363 130.35799 620.558333 130.456029 618.701716 L 130.456029 613.297304 C 128.846552 613.517892 127.326944 614.630025 126.142304 616.845098 C 125.129232 612.378186 123.552435 609.253186 120.570408 607.084069 C 117.588382 609.253186 116.011585 612.378186 114.998513 616.845098 C 113.805703 614.630025 112.286095 613.517892 110.676618 613.297304 L 110.676618 618.701716 C 110.987075 620.558333 115.080212 625.319363 115.080212 625.319363 Z M 126.060605 625.319363 " transform="matrix(-0.478125,0,0,0.425,220.917258,-184.846667)"/>
<path style="fill-rule:nonzero;fill:rgb(100%,100%,100%);fill-opacity:1;stroke-width:0.96;stroke-linecap:butt;stroke-linejoin:miter;stroke:rgb(0%,0%,0%);stroke-opacity:1;stroke-miterlimit:4;" d="M 126.060605 632.433333 C 126.060605 632.433333 129.737075 628.692525 130.456029 627.065686 L 130.456029 621.661275 C 128.846552 621.881863 127.326944 622.984804 126.142304 625.209069 C 125.129232 620.732966 123.552435 618.168627 120.570408 615.99951 C 117.588382 618.168627 116.011585 620.732966 114.998513 625.209069 C 113.805703 622.984804 112.286095 621.881863 110.676618 621.661275 L 110.676618 627.065686 C 111.60799 628.692525 115.080212 632.433333 115.080212 632.433333 Z M 126.060605 632.433333 " transform="matrix(-0.478125,0,0,0.425,220.917258,-184.846667)"/>
<path style="fill-rule:nonzero;fill:rgb(100%,100%,100%);fill-opacity:1;stroke-width:0.96;stroke-linecap:butt;stroke-linejoin:miter;stroke:rgb(0%,0%,0%);stroke-opacity:1;stroke-miterlimit:4;" d="M 127.539363 636.560172 C 126.469101 631.891054 125.545899 628.42598 120.37433 624.914951 C 115.210931 628.42598 114.287729 631.891054 113.217467 636.560172 Z M 127.539363 636.560172 " transform="matrix(-0.478125,0,0,0.425,220.917258,-184.846667)"/>
<path style="fill-rule:nonzero;fill:rgb(100%,100%,100%);fill-opacity:1;stroke-width:0.96;stroke-linecap:butt;stroke-linejoin:miter;stroke:rgb(0%,0%,0%);stroke-opacity:1;stroke-miterlimit:4;" d="M 130.202761 639.161275 L 130.202761 632.396569 C 127.85799 633.315686 125.733807 634.67598 124.949493 636.192525 C 124.07531 632.442525 122.392304 630.788113 120.300801 628.517892 C 118.201127 630.788113 116.795899 632.442525 115.921716 636.192525 C 115.137402 634.67598 113.021389 633.315686 110.676618 632.396569 L 110.676618 639.161275 Z M 130.202761 639.161275 " transform="matrix(-0.478125,0,0,0.425,220.917258,-184.846667)"/>
<path style="fill-rule:nonzero;fill:rgb(100%,100%,100%);fill-opacity:1;stroke-width:0.96;stroke-linecap:butt;stroke-linejoin:miter;stroke:rgb(0%,0%,0%);stroke-opacity:1;stroke-miterlimit:4;" d="M 72.694101 694.253186 L 318.020899 694.253186 L 318.020899 706.78076 L 72.694101 706.78076 Z M 72.694101 694.253186 " transform="matrix(0.478125,0,0,0.425,34.094695,-184.846667)"/>
<path style="fill-rule:nonzero;fill:rgb(100%,100%,100%);fill-opacity:1;stroke-width:0.96;stroke-linecap:butt;stroke-linejoin:miter;stroke:rgb(0%,0%,0%);stroke-opacity:1;stroke-miterlimit:4;" d="M 66.231683 706.762377 L 324.491487 706.762377 L 324.491487 719.271569 L 66.231683 719.271569 Z M 85.578088 675.512377 L 305.136912 675.512377 L 305.136912 683.618995 L 85.578088 683.618995 Z M 85.578088 675.512377 " transform="matrix(0.478125,0,0,0.425,34.094695,-184.846667)"/>
<path style="fill-rule:nonzero;fill:rgb(100%,100%,100%);fill-opacity:1;stroke-width:0.96;stroke-linecap:butt;stroke-linejoin:miter;stroke:rgb(0%,0%,0%);stroke-opacity:1;stroke-miterlimit:4;" d="M 79.15652 683.563848 L 311.55848 683.563848 L 311.55848 694.179657 L 79.15652 694.179657 Z M 89.409788 669.28076 L 301.305212 669.28076 L 301.305212 675.45723 L 89.409788 675.45723 Z M 89.409788 669.28076 " transform="matrix(0.478125,0,0,0.425,34.094695,-184.846667)"/>
<path style="fill-rule:nonzero;fill:rgb(100%,100%,100%);fill-opacity:1;stroke-width:1.045;stroke-linecap:butt;stroke-linejoin:miter;stroke:rgb(0%,0%,0%);stroke-opacity:1;stroke-miterlimit:4;" d="M 112.408154 669.308333 L 128.413056 669.308333 L 128.413056 719.243995 L 112.408154 719.243995 Z M 112.408154 669.308333 " transform="matrix(0.478125,0,0,0.425,34.094695,-184.846667)"/>
<path style="fill-rule:nonzero;fill:rgb(100%,100%,100%);fill-opacity:1;stroke-width:1.043;stroke-linecap:butt;stroke-linejoin:miter;stroke:rgb(0%,0%,0%);stroke-opacity:1;stroke-miterlimit:4;" d="M 115.953905 669.308333 L 124.867304 669.308333 L 124.867304 719.243995 L 115.953905 719.243995 Z M 115.953905 669.308333 " transform="matrix(0.478125,0,0,0.425,34.094695,-184.846667)"/>
<path style="fill-rule:nonzero;fill:rgb(100%,100%,100%);fill-opacity:1;stroke-width:1.045;stroke-linecap:butt;stroke-linejoin:miter;stroke:rgb(0%,0%,0%);stroke-opacity:1;stroke-miterlimit:4;" d="M 187.081356 669.308333 L 203.086258 669.308333 L 203.086258 719.243995 L 187.081356 719.243995 Z M 187.081356 669.308333 " transform="matrix(0.478125,0,0,0.425,34.094695,-184.846667)"/>
<path style="fill-rule:nonzero;fill:rgb(100%,100%,100%);fill-opacity:1;stroke-width:1.043;stroke-linecap:butt;stroke-linejoin:miter;stroke:rgb(0%,0%,0%);stroke-opacity:1;stroke-miterlimit:4;" d="M 190.733317 669.308333 L 199.646716 669.308333 L 199.646716 719.243995 L 190.733317 719.243995 Z M 190.733317 669.308333 " transform="matrix(0.478125,0,0,0.425,34.094695,-184.846667)"/>
<path style="fill-rule:nonzero;fill:rgb(100%,100%,100%);fill-opacity:1;stroke-width:1.045;stroke-linecap:butt;stroke-linejoin:miter;stroke:rgb(0%,0%,0%);stroke-opacity:1;stroke-miterlimit:4;" d="M 262.187565 669.308333 L 278.192467 669.308333 L 278.192467 719.243995 L 262.187565 719.243995 Z M 262.187565 669.308333 " transform="matrix(0.478125,0,0,0.425,34.094695,-184.846667)"/>
<path style="fill-rule:nonzero;fill:rgb(100%,100%,100%);fill-opacity:1;stroke-width:1.043;stroke-linecap:butt;stroke-linejoin:miter;stroke:rgb(0%,0%,0%);stroke-opacity:1;stroke-miterlimit:4;" d="M 265.733317 669.308333 L 274.646716 669.308333 L 274.646716 719.243995 L 265.733317 719.243995 Z M 265.733317 669.308333 " transform="matrix(0.478125,0,0,0.425,34.094695,-184.846667)"/>
<path style="fill:none;stroke-width:0.96;stroke-linecap:butt;stroke-linejoin:miter;stroke:rgb(0%,0%,0%);stroke-opacity:1;stroke-miterlimit:4;" d="M 98.935931 664.225613 L 292.007827 664.225613 M 115.790507 712.966422 L 125.030703 712.966422 M 115.790507 706.716422 L 125.030703 706.716422 M 115.790507 700.466422 L 125.030703 700.466422 M 115.790507 694.216422 L 125.030703 694.216422 M 115.790507 687.966422 L 125.030703 687.966422 M 115.790507 681.716422 L 125.030703 681.716422 M 115.790507 675.466422 L 125.030703 675.466422 M 190.765997 712.975613 L 199.377108 712.975613 M 190.765997 706.725613 L 199.377108 706.725613 M 190.765997 700.475613 L 199.377108 700.475613 M 190.765997 694.216422 L 199.377108 694.216422 M 190.765997 687.966422 L 199.377108 687.966422 M 190.765997 681.716422 L 199.377108 681.716422 M 190.765997 675.45723 L 199.377108 675.45723 M 265.569918 712.966422 L 274.810114 712.966422 M 265.569918 706.716422 L 274.810114 706.716422 M 265.569918 700.466422 L 274.810114 700.466422 M 265.569918 694.216422 L 274.810114 694.216422 M 265.569918 687.966422 L 274.810114 687.966422 M 265.569918 681.716422 L 274.810114 681.716422 M 265.569918 675.466422 L 274.810114 675.466422 " transform="matrix(0.478125,0,0,0.425,34.094695,-184.846667)"/>
</g>
</svg>
