<?xml version="1.0" encoding="UTF-8"?>
<svg xmlns="http://www.w3.org/2000/svg" xmlns:xlink="http://www.w3.org/1999/xlink" width="255pt" height="170pt" viewBox="0 0 255 170" version="1.1">
<g id="surface1">
<path style=" stroke:none;fill-rule:evenodd;fill:rgb(80.784314%,0%,0%);fill-opacity:1;" d="M 127.5 0 L 255 0 L 255 170 L 127.5 170 Z M 127.5 0 "/>
<path style=" stroke:none;fill-rule:evenodd;fill:rgb(100%,100%,100%);fill-opacity:1;" d="M 0 0 L 127.5 0 L 127.5 170 L 0 170 Z M 0 0 "/>
<path style=" stroke:none;fill-rule:evenodd;fill:rgb(94.509804%,93.333333%,93.333333%);fill-opacity:1;" d="M 61.835938 50.292969 C 61.835938 50.753906 61.25 51.125 60.527344 51.125 C 59.808594 51.125 59.222656 50.753906 59.222656 50.292969 C 59.222656 49.835938 59.808594 49.464844 60.527344 49.464844 C 61.25 49.464844 61.835938 49.835938 61.835938 50.292969 Z M 61.835938 50.292969 "/>
<path style=" stroke:none;fill-rule:evenodd;fill:rgb(80%,0%,0%);fill-opacity:1;" d="M 21.007812 46.28125 L 21.007812 67.347656 L 44.710938 67.347656 C 44.710938 70.859375 48.660156 74.371094 52.609375 74.371094 L 52.609375 95.433594 L 76.308594 95.433594 L 76.308594 74.371094 C 80.257812 74.371094 84.210938 70.859375 84.210938 67.347656 L 107.910156 67.347656 L 107.910156 46.28125 L 84.210938 46.28125 C 84.210938 42.769531 80.257812 39.257812 76.308594 39.257812 L 76.308594 18.195312 L 52.609375 18.195312 L 52.609375 39.257812 C 48.660156 39.257812 44.710938 42.769531 44.710938 46.28125 Z M 21.007812 46.28125 "/>
<path style=" stroke:none;fill-rule:evenodd;fill:rgb(100%,90.196078%,0%);fill-opacity:1;" d="M 21.800781 46.984375 L 21.800781 66.644531 L 45.5 66.644531 C 45.5 70.15625 49.449219 73.667969 53.398438 73.667969 L 53.398438 94.734375 L 75.519531 94.734375 L 75.519531 73.667969 C 79.472656 73.667969 83.421875 70.15625 83.421875 66.644531 L 107.121094 66.644531 L 107.121094 46.984375 L 83.421875 46.984375 C 83.421875 43.472656 79.472656 39.960938 75.519531 39.960938 L 75.519531 18.894531 L 53.398438 18.894531 L 53.398438 39.960938 C 49.449219 39.960938 45.5 43.472656 45.5 46.984375 Z M 21.800781 46.984375 "/>
<path style=" stroke:none;fill-rule:evenodd;fill:rgb(43.921569%,43.921569%,43.921569%);fill-opacity:1;" d="M 22.589844 47.683594 L 22.589844 65.945312 L 46.289062 65.945312 C 46.289062 69.453125 50.238281 72.964844 54.1875 72.964844 L 54.1875 94.03125 L 74.730469 94.03125 L 74.730469 72.964844 C 78.679688 72.964844 82.628906 69.453125 82.628906 65.945312 L 106.328125 65.945312 L 106.328125 47.683594 L 82.628906 47.683594 C 82.628906 44.175781 78.679688 40.664062 74.730469 40.664062 L 74.730469 19.597656 L 54.1875 19.597656 L 54.1875 40.664062 C 50.238281 40.664062 46.289062 44.175781 46.289062 47.683594 Z M 22.589844 47.683594 "/>
<path style=" stroke:none;fill-rule:evenodd;fill:rgb(62.745098%,62.745098%,62.745098%);fill-opacity:1;" d="M 23.378906 48.386719 L 23.378906 65.238281 L 47.078125 65.238281 C 47.078125 68.75 51.027344 72.261719 54.980469 72.261719 L 54.980469 93.328125 L 73.9375 93.328125 L 73.9375 72.261719 C 77.890625 72.261719 81.839844 68.75 81.839844 65.238281 L 105.539062 65.238281 L 105.539062 48.386719 L 81.839844 48.386719 C 81.839844 44.875 77.890625 41.367188 73.9375 41.367188 L 73.9375 20.300781 L 54.980469 20.300781 L 54.980469 41.367188 C 51.027344 41.367188 47.078125 44.875 47.078125 48.386719 Z M 23.378906 48.386719 "/>
<path style=" stroke:none;fill-rule:evenodd;fill:rgb(81.568627%,81.568627%,81.568627%);fill-opacity:1;" d="M 55.175781 39.625 C 56.5625 40.859375 55.4375 43.859375 52.660156 46.328125 C 49.886719 48.796875 46.507812 49.796875 45.121094 48.5625 C 43.730469 47.328125 44.855469 44.328125 47.632812 41.859375 C 50.410156 39.390625 53.785156 38.390625 55.175781 39.625 Z M 55.175781 39.625 "/>
<path style=" stroke:none;fill-rule:evenodd;fill:rgb(50.196078%,50.196078%,50.196078%);fill-opacity:1;" d="M 53.5 41.113281 C 54.890625 42.347656 54.511719 44.679688 52.664062 46.328125 C 50.8125 47.972656 48.183594 48.304688 46.796875 47.070312 C 45.40625 45.835938 45.785156 43.503906 47.636719 41.859375 C 49.484375 40.210938 52.113281 39.878906 53.5 41.113281 Z M 53.5 41.113281 "/>
<path style=" stroke:none;fill-rule:evenodd;fill:rgb(81.568627%,81.568627%,81.568627%);fill-opacity:1;" d="M 46.515625 44.835938 L 47.074219 44.339844 L 49.308594 45.332031 L 48.191406 43.347656 L 48.75 42.851562 L 50.984375 46.824219 Z M 49.867188 41.859375 L 50.425781 41.359375 L 53.777344 44.339844 L 53.21875 44.835938 Z M 49.867188 41.859375 "/>
<path style=" stroke:none;fill-rule:evenodd;fill:rgb(81.568627%,81.568627%,81.568627%);fill-opacity:1;" d="M 83.796875 48.5625 C 82.410156 49.796875 79.035156 48.796875 76.257812 46.328125 C 73.480469 43.859375 72.355469 40.859375 73.742188 39.625 C 75.132812 38.390625 78.507812 39.390625 81.285156 41.859375 C 84.0625 44.328125 85.1875 47.328125 83.796875 48.5625 Z M 83.796875 48.5625 "/>
<path style=" stroke:none;fill-rule:evenodd;fill:rgb(50.196078%,50.196078%,50.196078%);fill-opacity:1;" d="M 82.125 47.074219 C 80.734375 48.308594 78.109375 47.972656 76.257812 46.328125 C 74.40625 44.683594 74.03125 42.347656 75.421875 41.113281 C 76.808594 39.878906 79.433594 40.214844 81.285156 41.859375 C 83.136719 43.503906 83.511719 45.839844 82.125 47.074219 Z M 82.125 47.074219 "/>
<path style=" stroke:none;fill-rule:evenodd;fill:rgb(81.568627%,81.568627%,81.568627%);fill-opacity:1;" d="M 77.933594 40.863281 L 78.492188 41.363281 L 77.375 43.347656 L 79.609375 42.355469 L 80.167969 42.851562 L 75.699219 44.835938 Z M 81.285156 43.84375 L 81.84375 44.339844 L 78.492188 47.320312 L 77.933594 46.824219 Z M 81.285156 43.84375 "/>
<path style=" stroke:none;fill-rule:evenodd;fill:rgb(81.568627%,81.568627%,81.568627%);fill-opacity:1;" d="M 73.742188 74.003906 C 72.355469 72.769531 73.480469 69.769531 76.257812 67.300781 C 79.03125 64.832031 82.410156 63.832031 83.796875 65.066406 C 85.1875 66.300781 84.0625 69.300781 81.285156 71.769531 C 78.507812 74.238281 75.132812 75.238281 73.742188 74.003906 Z M 73.742188 74.003906 "/>
<path style=" stroke:none;fill-rule:evenodd;fill:rgb(50.196078%,50.196078%,50.196078%);fill-opacity:1;" d="M 75.417969 72.515625 C 74.027344 71.28125 74.40625 68.949219 76.253906 67.300781 C 78.105469 65.65625 80.734375 65.324219 82.121094 66.558594 C 83.511719 67.792969 83.132812 70.125 81.28125 71.769531 C 79.433594 73.417969 76.804688 73.75 75.417969 72.515625 Z M 75.417969 72.515625 "/>
<path style=" stroke:none;fill-rule:evenodd;fill:rgb(81.568627%,81.568627%,81.568627%);fill-opacity:1;" d="M 82.402344 68.792969 L 81.84375 69.289062 L 79.609375 68.296875 L 80.726562 70.28125 L 80.167969 70.777344 L 77.933594 66.804688 Z M 79.050781 71.773438 L 78.492188 72.269531 L 75.140625 69.289062 L 75.699219 68.792969 Z M 79.050781 71.773438 "/>
<path style=" stroke:none;fill-rule:evenodd;fill:rgb(81.568627%,81.568627%,81.568627%);fill-opacity:1;" d="M 45.121094 65.066406 C 46.511719 63.832031 49.886719 64.832031 52.664062 67.300781 C 55.4375 69.765625 56.566406 72.769531 55.175781 74.003906 C 53.789062 75.238281 50.414062 74.234375 47.636719 71.769531 C 44.859375 69.300781 43.734375 66.300781 45.121094 65.066406 Z M 45.121094 65.066406 "/>
<path style=" stroke:none;fill-rule:evenodd;fill:rgb(50.196078%,50.196078%,50.196078%);fill-opacity:1;" d="M 46.796875 66.554688 C 48.183594 65.320312 50.8125 65.652344 52.664062 67.296875 C 54.511719 68.941406 54.886719 71.277344 53.5 72.511719 C 52.109375 73.746094 49.484375 73.414062 47.632812 71.765625 C 45.78125 70.121094 45.40625 67.789062 46.796875 66.554688 Z M 46.796875 66.554688 "/>
<path style=" stroke:none;fill-rule:evenodd;fill:rgb(81.568627%,81.568627%,81.568627%);fill-opacity:1;" d="M 50.984375 72.761719 L 50.425781 72.265625 L 51.542969 70.277344 L 49.308594 71.273438 L 48.75 70.777344 L 53.21875 68.789062 Z M 47.632812 69.78125 L 47.074219 69.285156 L 50.425781 66.304688 L 50.984375 66.804688 Z M 47.632812 69.78125 "/>
<path style="fill:none;stroke-width:1.25;stroke-linecap:butt;stroke-linejoin:miter;stroke:rgb(43.921569%,43.921569%,43.921569%);stroke-opacity:1;stroke-miterlimit:4;" d="M 269.290457 414.579496 C 269.290457 455.657089 235.174408 488.988284 193.112297 488.988284 C 151.03225 488.988284 116.934138 455.657089 116.934138 414.579496 C 116.934138 373.482192 151.03225 340.170708 193.112297 340.170708 C 235.174408 340.170708 269.290457 373.482192 269.290457 414.579496 Z M 269.290457 414.579496 " transform="matrix(0.217777,0,0,0.198177,22.405539,-25.343622)"/>
<path style="fill:none;stroke-width:1.25;stroke-linecap:butt;stroke-linejoin:miter;stroke:rgb(43.921569%,43.921569%,43.921569%);stroke-opacity:1;stroke-miterlimit:4;" d="M 269.30066 414.557582 C 269.30066 455.6659 235.1876 488.98718 193.117181 488.98718 C 151.046761 488.98718 116.933701 455.6659 116.933701 414.557582 C 116.933701 373.475135 151.046761 340.153855 193.117181 340.153855 C 235.1876 340.153855 269.30066 373.475135 269.30066 414.557582 Z M 269.30066 414.557582 " transform="matrix(0.165923,0,0,0.150992,32.418271,-5.78242)"/>
<path style=" stroke:none;fill-rule:evenodd;fill:rgb(81.568627%,81.568627%,81.568627%);fill-opacity:1;" d="M 58.929688 68.75 C 58.929688 69.136719 58.578125 69.453125 58.140625 69.453125 C 57.703125 69.453125 57.351562 69.136719 57.351562 68.75 C 57.351562 68.363281 57.703125 68.046875 58.140625 68.046875 C 58.574219 68.046875 58.929688 68.363281 58.929688 68.75 Z M 71.570312 68.75 C 71.570312 69.136719 71.21875 69.453125 70.78125 69.453125 C 70.34375 69.453125 69.992188 69.136719 69.992188 68.75 C 69.992188 68.363281 70.34375 68.046875 70.78125 68.046875 C 71.21875 68.046875 71.570312 68.363281 71.570312 68.75 Z M 63.933594 68.753906 L 63.933594 69.484375 L 62.878906 69.484375 C 61.828125 69.484375 61.828125 70.214844 62.878906 70.214844 L 63.933594 70.214844 L 63.933594 70.949219 C 63.9375 71.707031 64.851562 71.800781 64.921875 71.007812 L 64.988281 70.214844 L 66.039062 70.214844 C 67.09375 70.214844 67.09375 69.484375 66.039062 69.484375 L 64.988281 69.484375 L 64.988281 68.753906 C 64.988281 68.019531 63.933594 68.019531 63.933594 68.753906 Z M 63.933594 68.753906 "/>
<path style="fill-rule:evenodd;fill:rgb(81.568627%,81.568627%,81.568627%);fill-opacity:1;stroke-width:0.146;stroke-linecap:butt;stroke-linejoin:miter;stroke:rgb(43.921569%,43.921569%,43.921569%);stroke-opacity:1;stroke-miterlimit:4;" d="M 102.772279 122.348029 L 102.772279 123.086267 C 102.772279 123.086267 102.379778 123.64512 99.90212 123.817605 C 97.424462 123.990091 97.031962 123.817605 97.031962 123.817605 C 97.099423 124.459251 97.583915 125.666649 97.442861 127.115528 C 97.540986 128.798986 96.970634 130.323758 96.970634 130.323758 C 97.031962 130.41345 96.737587 130.461746 96.216297 130.41345 C 96.627196 130.047781 96.578133 128.98527 96.627196 127.481197 C 96.670126 125.977123 95.057195 123.707214 95.3945 123.086267 C 95.731805 122.458419 102.772279 122.348029 102.772279 122.348029 Z M 112.609317 119.691752 C 115.019515 119.581362 119.067174 119.60206 119.067174 119.60206 C 119.067174 119.60206 120.023893 121.520098 119.980964 122.57571 C 119.944167 123.631321 119.612995 124.535145 119.165299 124.079783 C 118.717603 123.631321 119.373815 123.714114 119.453541 122.57571 C 119.533268 121.430406 118.686939 120.250605 118.686939 120.250605 C 118.686939 120.250605 116.951352 121.002642 114.351038 120.850855 C 111.750723 120.699068 112.903693 119.733149 112.609317 119.691752 Z M 112.609317 119.691752 " transform="matrix(0.636942,0,0,0.566171,-4.932656,-10.890979)"/>
<path style="fill-rule:evenodd;fill:rgb(81.568627%,81.568627%,81.568627%);fill-opacity:1;stroke-width:0.146;stroke-linecap:butt;stroke-linejoin:miter;stroke:rgb(43.921569%,43.921569%,43.921569%);stroke-opacity:1;stroke-miterlimit:4;" d="M 113.431115 121.582193 C 115.841312 121.471803 117.423579 121.837472 117.423579 121.837472 C 117.423579 121.837472 118.380298 123.75551 118.337369 124.811121 C 118.300572 125.866733 117.9694 126.763657 117.521704 126.315195 C 117.074008 125.866733 117.73022 125.949526 117.809946 124.811121 C 117.889673 123.665818 117.037211 122.486017 117.037211 122.486017 C 117.037211 122.486017 115.307757 123.238054 112.707443 123.086267 C 110.107128 122.934479 110.849199 122.775793 110.554824 122.734396 C 110.266581 122.6861 110.192987 123.451936 106.255719 123.562327 C 102.31845 123.665818 100.313019 122.734396 100.313019 122.734396 C 100.313019 122.734396 99.926652 123.293249 97.448993 123.465735 C 94.965202 123.63822 94.578835 123.465735 94.578835 123.465735 C 94.640163 124.107381 95.124656 125.321679 94.989734 126.763657 C 95.081726 128.454015 94.511374 129.978787 94.511374 129.978787 C 94.578835 130.068479 94.278327 130.109876 93.757037 130.068479 C 94.167936 129.69591 94.118874 128.640299 94.167936 127.136226 C 94.216999 125.625253 92.604068 123.362243 92.93524 122.734396 C 93.272545 122.106549 95.057195 122.693 95.400632 122.368727 C 95.737937 122.044454 93.8061 119.746948 94.167936 117.601228 C 94.529772 115.455509 96.572001 116.062658 99.086456 116.138551 C 101.594778 116.207546 107.163376 116.86299 108.506463 116.138551 C 109.855683 115.414112 109.273065 112.730238 110.554824 111.005383 C 111.376621 109.901476 112.603185 109.535807 113.835881 109.535807 C 114.651546 109.535807 115.884242 112.46806 115.884242 113.206298 L 115.473343 113.571967 L 115.062444 113.571967 L 115.062444 113.937637 C 114.130256 114.027329 113.995334 113.137304 113.424982 112.46806 C 113.179669 113.502973 114.24678 116.86989 114.24678 119.070805 C 114.24678 120.899151 113.480178 121.706383 113.431115 121.582193 Z M 113.431115 121.582193 " transform="matrix(0.636942,0,0,0.566171,-4.932656,-10.890979)"/>
<path style="fill-rule:evenodd;fill:rgb(81.568627%,81.568627%,81.568627%);fill-opacity:1;stroke-width:0.146;stroke-linecap:butt;stroke-linejoin:miter;stroke:rgb(43.921569%,43.921569%,43.921569%);stroke-opacity:1;stroke-miterlimit:4;" d="M 105.538179 118.401561 C 105.574976 119.132899 102.373646 120.768062 102.109934 121.416607 C 101.852356 122.065153 102.925599 122.423922 102.594427 122.796491 C 102.263255 123.16216 101.987278 123.031071 101.919817 123.100065 C 101.852356 123.16216 100.717785 120.55418 100.717785 120.55418 C 100.717785 120.55418 103.716733 119.201894 103.606342 118.615443 C 103.489818 118.035892 101.386262 117.677122 101.006027 116.207546 C 100.625793 114.73107 100.834308 111.888509 100.527668 111.295159 C 100.214894 110.701809 96.529071 110.136057 96.522938 109.239132 C 96.522938 108.335308 100.313019 105.872215 100.723918 105.499647 C 101.134816 105.133978 101.545715 105.872215 101.134816 106.237885 C 100.723918 106.603554 97.755634 108.866563 97.755634 109.239132 C 97.755634 109.604801 100.214894 109.97047 101.030559 109.97047 C 101.852356 109.97047 102.263255 109.604801 102.263255 109.239132 C 102.269388 108.921759 101.441457 108.866563 101.441457 108.135225 C 101.441457 107.403886 101.852356 107.038217 102.674154 107.038217 C 103.085052 107.038217 103.870053 107.507378 103.900717 108.135225 C 103.931381 108.763072 103.170912 108.818267 103.07892 109.239132 C 102.99306 109.653097 103.900717 109.97047 104.722515 109.97047 C 105.538179 109.97047 108.334744 112.102391 108.745643 112.46806 C 109.156541 112.83373 109.56744 112.83373 109.156541 113.199399 C 108.745643 113.565068 108.984823 113.999731 108.580057 113.634062 C 108.230486 113.282192 108.169158 112.902724 108.169158 112.902724 C 108.132361 112.564652 105.12728 111.067478 104.722515 111.433147 C 104.311616 111.798817 104.722515 116.200646 104.722515 116.566315 C 104.722515 117.297654 105.574976 117.297654 105.538179 118.401561 Z M 105.538179 118.401561 " transform="matrix(0.636942,0,0,0.566171,-4.932656,-10.890979)"/>
<path style=" stroke:none;fill-rule:evenodd;fill:rgb(65.490196%,65.490196%,65.490196%);fill-opacity:1;" d="M 58.964844 51.332031 L 62.097656 51.332031 L 62.097656 54.238281 L 58.964844 54.238281 Z M 58.964844 51.332031 "/>
<path style=" stroke:none;fill-rule:evenodd;fill:rgb(50.196078%,50.196078%,50.196078%);fill-opacity:1;" d="M 58.597656 47.785156 L 69.105469 61.804688 C 69.191406 61.921875 69.210938 62.039062 69.152344 62.070312 L 69.148438 62.070312 C 69.089844 62.097656 68.96875 62.027344 68.882812 61.914062 L 58.371094 47.890625 C 58.285156 47.777344 58.265625 47.660156 58.328125 47.628906 C 58.390625 47.597656 58.511719 47.667969 58.597656 47.785156 Z M 58.597656 47.785156 "/>
<path style="fill-rule:evenodd;fill:rgb(81.568627%,81.568627%,81.568627%);fill-opacity:1;stroke-width:1.25;stroke-linecap:butt;stroke-linejoin:miter;stroke:rgb(43.921569%,43.921569%,43.921569%);stroke-opacity:1;stroke-miterlimit:4;" d="M 180.711885 42.487346 C 180.764923 45.088384 179.385928 47.422649 177.211358 48.756514 C 174.98375 50.023686 172.278797 50.023686 170.051189 48.756514 C 167.876619 47.422649 166.497624 45.088384 166.550662 42.487346 C 166.6037 38.619136 169.732959 35.484552 173.604754 35.484552 C 177.529588 35.484552 180.658847 38.619136 180.711885 42.487346 Z M 180.711885 42.487346 " transform="matrix(0.0736496,0,0,0.0585704,46.436731,46.558375)"/>
<path style=" stroke:none;fill-rule:evenodd;fill:rgb(50.196078%,50.196078%,50.196078%);fill-opacity:1;" d="M 68.875 52.824219 C 68.875 52.996094 67.664062 53.199219 66.265625 53.199219 C 64.867188 53.199219 63.65625 52.996094 63.65625 52.824219 C 63.65625 52.652344 64.867188 53.074219 66.265625 53.074219 C 67.664062 53.074219 68.875 52.652344 68.875 52.824219 Z M 68.875 52.824219 "/>
<path style=" stroke:none;fill-rule:evenodd;fill:rgb(65.490196%,65.490196%,65.490196%);fill-opacity:1;" d="M 59.226562 54.234375 L 61.835938 54.234375 L 61.835938 55.066406 L 59.226562 55.066406 Z M 59.226562 54.234375 "/>
<path style=" stroke:none;fill-rule:evenodd;fill:rgb(50.196078%,50.196078%,50.196078%);fill-opacity:1;" d="M 67.710938 52.191406 C 67.457031 52.609375 67.214844 52.910156 67.171875 52.863281 C 67.128906 52.8125 67.300781 52.429688 67.554688 52.007812 C 67.804688 51.585938 68.046875 51.285156 68.089844 51.335938 C 68.132812 51.386719 67.960938 51.769531 67.710938 52.191406 Z M 68.367188 53.28125 C 68.082031 53.503906 67.839844 53.652344 67.832031 53.605469 C 67.824219 53.558594 68.050781 53.339844 68.339844 53.117188 C 68.628906 52.890625 68.867188 52.746094 68.875 52.792969 C 68.882812 52.835938 68.65625 53.054688 68.367188 53.28125 Z M 68.367188 53.28125 "/>
<path style=" stroke:none;fill-rule:evenodd;fill:rgb(50.196078%,50.196078%,50.196078%);fill-opacity:1;" d="M 68.039062 52.753906 C 68.25 53.097656 68.390625 53.386719 68.351562 53.402344 C 68.3125 53.417969 68.105469 53.152344 67.894531 52.808594 C 67.679688 52.464844 67.542969 52.175781 67.582031 52.160156 C 67.621094 52.144531 67.824219 52.410156 68.039062 52.753906 Z M 67.835938 54.546875 C 67.835938 54.605469 67.015625 54.652344 66.007812 54.652344 C 65 54.652344 64.179688 54.605469 64.179688 54.546875 C 64.179688 54.492188 65 54.445312 66.007812 54.445312 C 67.015625 54.445312 67.835938 54.492188 67.835938 54.546875 Z M 61.835938 54.339844 C 61.835938 54.398438 61.25 54.445312 60.527344 54.445312 C 59.808594 54.445312 59.222656 54.398438 59.222656 54.339844 C 59.222656 54.285156 59.808594 54.238281 60.527344 54.238281 C 61.25 54.238281 61.835938 54.285156 61.835938 54.339844 Z M 61.835938 54.339844 "/>
<path style="fill-rule:evenodd;fill:rgb(81.568627%,81.568627%,81.568627%);fill-opacity:1;stroke-width:0.078;stroke-linecap:butt;stroke-linejoin:miter;stroke:rgb(50.196078%,50.196078%,50.196078%);stroke-opacity:1;stroke-miterlimit:4;" d="M 95.811531 127.957257 C 95.811531 127.957257 96.486141 129.606218 99.368565 129.626916 C 102.250989 129.647614 103.238373 129.130158 102.073138 128.260831 C 100.914035 127.391504 98.743018 127.660582 99.025127 128.412618 C 99.301104 129.164655 98.209463 129.413034 97.951884 128.888678 C 97.694306 128.357423 96.663993 126.798154 98.522236 126.694663 C 100.374347 126.584272 104.305483 126.01852 105.286734 127.108628 C 106.267984 128.198736 104.176694 129.185353 105.758961 129.419934 C 107.341227 129.647614 107.562009 129.150856 110.28498 129.005968 C 113.007951 128.854181 114.044397 129.509626 114.982718 129.419934 C 115.914906 129.330241 115.779984 127.722676 115.044046 127.315611 C 114.301975 126.908545 112.885294 126.832651 112.523458 126.391089 C 112.161622 125.942626 111.174238 126.308295 111.266231 125.804638 C 111.358223 125.30098 112.664513 126.149609 112.682911 125.89433 C 112.682911 125.887431 112.89756 125.714945 112.94049 125.666649 C 112.774904 125.632152 112.682911 125.694247 112.560255 125.756342 C 112.695177 125.652851 112.682911 125.604555 112.731974 125.514862 C 112.707443 125.480365 112.541856 125.639052 112.517325 125.604555 C 112.486661 125.570058 112.707443 125.349276 112.609317 125.432069 C 112.572521 125.452767 112.314942 125.583856 112.314942 125.494164 C 112.314942 125.459667 112.449864 125.363075 112.400802 125.314779 C 112.364005 125.273383 112.167755 125.363075 112.143223 125.376874 C 112.253614 125.225087 112.247481 125.225087 112.137091 125.114696 C 112.045098 125.004305 111.977637 125.004305 111.818184 125.128495 C 111.885645 124.94911 111.904043 124.914613 111.74459 124.845619 C 111.621934 124.776624 111.615801 124.70763 111.456348 125.031903 C 111.517676 124.686932 111.35209 124.673133 111.419551 124.507547 C 111.462481 124.35576 111.670996 124.293665 112.020567 124.328162 C 112.695177 124.335062 113.057013 125.142294 113.277795 125.142294 C 113.498576 125.135394 113.750021 124.279866 114.694475 124.631737 C 115.645062 124.976708 115.761586 125.045702 116.239945 125.252684 C 116.712172 125.459667 115.90264 125.77704 116.172484 126.184106 C 116.448461 126.591172 118.306705 127.943458 117.779282 129.357839 C 117.25186 130.779119 115.890375 130.999901 115.767718 131.613949 C 115.645062 132.227997 120.079089 131.972719 121.21366 132.179701 C 122.342098 132.386684 123.053505 133.228413 123.096435 133.373301 C 123.145497 133.518189 121.115535 133.50439 121.115535 133.50439 C 121.115535 133.50439 120.072956 132.966235 117.589165 132.917939 C 115.105374 132.869643 114.16092 131.869227 113.234865 131.745038 C 112.302677 131.613949 110.321777 131.952021 109.21787 131.903725 C 108.10783 131.855429 106.985524 131.676044 106.267984 131.579452 C 105.550445 131.48286 101.981145 133.193916 101.993411 133.594082 C 101.25134 133.559585 99.497354 133.469893 99.570948 133.518189 C 99.644542 133.559585 99.883722 132.738554 101.25134 132.593667 C 102.618958 132.448779 103.943647 131.800233 103.900717 131.36557 C 103.857787 130.937806 104.164428 129.46133 104.280952 128.833483 C 104.391342 128.198736 104.906499 127.895162 104.783843 127.56399 C 104.661186 127.232818 103.097318 126.887847 101.600911 126.901646 C 100.104503 126.908545 98.448643 126.991338 98.20333 127.357007 C 97.96415 127.715777 98.142002 128.764489 98.454775 128.640299 C 98.767549 128.523009 98.381182 127.833067 98.706221 127.695079 C 99.037393 127.55709 99.871456 127.426001 100.656457 127.412203 C 101.44759 127.391504 102.815208 128.081446 102.79681 128.302228 C 102.784544 128.523009 103.238373 129.254348 102.612825 129.530324 C 101.981145 129.813201 100.693254 129.93739 99.460557 129.868396 C 98.233994 129.813201 96.982899 129.385437 96.535204 129.116359 C 96.087508 128.840382 95.811531 128.019351 95.811531 127.957257 Z M 95.811531 127.957257 " transform="matrix(0.636942,0,0,0.566171,-4.932656,-10.890979)"/>
<path style=" stroke:none;fill-rule:evenodd;fill:rgb(0%,0%,0%);fill-opacity:1;" d="M 67.710938 60.179688 C 67.714844 60.25 67.679688 60.316406 67.613281 60.351562 C 67.542969 60.386719 67.460938 60.386719 67.394531 60.351562 C 67.328125 60.316406 67.289062 60.25 67.292969 60.179688 C 67.300781 60.082031 67.390625 60.003906 67.503906 60.003906 C 67.613281 60.003906 67.707031 60.082031 67.710938 60.179688 Z M 67.710938 60.179688 "/>
<path style=" stroke:none;fill-rule:nonzero;fill:rgb(81.568627%,81.568627%,81.568627%);fill-opacity:1;" d="M 77.558594 57.484375 L 78.574219 57.679688 L 80.269531 56.648438 L 80.140625 57.191406 L 79.253906 57.714844 C 79.089844 57.8125 78.929688 57.898438 78.765625 57.980469 C 78.867188 58.105469 78.980469 58.253906 79.101562 58.429688 L 79.648438 59.214844 L 79.523438 59.734375 L 78.464844 58.125 L 77.449219 57.929688 Z M 75.824219 50.84375 L 77.789062 50.039062 L 77.257812 49.007812 L 77.519531 48.902344 L 78.804688 51.382812 L 78.542969 51.488281 L 78.003906 50.453125 L 76.039062 51.257812 Z M 72.78125 47.554688 L 74.589844 46.082031 L 74.945312 46.425781 L 74.898438 48.917969 L 76.320312 47.761719 L 76.652344 48.082031 L 74.84375 49.554688 L 74.488281 49.210938 L 74.535156 46.71875 L 73.113281 47.878906 Z M 64.871094 44.714844 L 65.167969 42.550781 L 65.675781 42.605469 L 65.414062 44.515625 L 67.308594 44.71875 L 67.273438 44.976562 Z M 60.976562 45.023438 L 60.539062 42.878906 L 61.042969 42.796875 L 61.429688 44.691406 L 63.308594 44.386719 L 63.359375 44.640625 Z M 53.792969 48.175781 L 53.613281 47.976562 L 54.890625 47.066406 L 55.460938 47.695312 C 55.347656 47.921875 55.203125 48.132812 55.03125 48.328125 C 54.863281 48.523438 54.667969 48.699219 54.449219 48.855469 C 54.152344 49.066406 53.847656 49.222656 53.542969 49.324219 C 53.234375 49.425781 52.957031 49.449219 52.710938 49.402344 C 52.476562 49.363281 52.265625 49.246094 52.117188 49.082031 C 51.96875 48.910156 51.886719 48.703125 51.882812 48.488281 C 51.878906 48.253906 51.960938 48.023438 52.128906 47.789062 C 52.296875 47.554688 52.53125 47.328125 52.832031 47.113281 C 53.03125 46.972656 53.246094 46.851562 53.476562 46.753906 C 53.691406 46.667969 53.878906 46.625 54.046875 46.625 C 54.210938 46.625 54.371094 46.660156 54.523438 46.738281 L 54.214844 47.050781 C 54.105469 47 53.984375 46.972656 53.859375 46.96875 C 53.75 46.964844 53.617188 46.996094 53.464844 47.054688 C 53.300781 47.121094 53.148438 47.203125 53.007812 47.304688 C 52.824219 47.4375 52.679688 47.566406 52.578125 47.691406 C 52.46875 47.816406 52.398438 47.933594 52.363281 48.046875 C 52.328125 48.15625 52.316406 48.253906 52.324219 48.347656 C 52.34375 48.507812 52.40625 48.652344 52.519531 48.773438 C 52.65625 48.925781 52.816406 49.019531 53 49.058594 C 53.183594 49.09375 53.390625 49.070312 53.609375 48.996094 C 53.832031 48.917969 54.042969 48.808594 54.242188 48.667969 C 54.417969 48.542969 54.570312 48.402344 54.699219 48.25 C 54.832031 48.09375 54.921875 47.964844 54.96875 47.863281 L 54.679688 47.542969 Z M 53.710938 63.859375 L 51.707031 65.125 L 50.195312 63.230469 L 50.429688 63.078125 L 51.648438 64.601562 L 52.265625 64.210938 L 51.214844 62.894531 L 51.449219 62.746094 L 52.503906 64.0625 L 53.414062 63.488281 Z M 50.761719 61.023438 C 51.046875 60.953125 51.238281 60.789062 51.332031 60.535156 C 51.429688 60.277344 51.425781 59.988281 51.320312 59.664062 C 51.214844 59.332031 51.046875 59.082031 50.816406 58.910156 C 50.582031 58.738281 50.3125 58.691406 50.007812 58.765625 C 49.828125 58.808594 49.667969 58.902344 49.550781 59.03125 C 49.433594 59.15625 49.367188 59.320312 49.34375 59.515625 C 49.320312 59.710938 49.34375 59.917969 49.410156 60.136719 C 49.511719 60.445312 49.671875 60.695312 49.894531 60.878906 C 50.117188 61.066406 50.40625 61.113281 50.761719 61.023438 Z M 50.902344 61.476562 C 50.507812 61.574219 50.15625 61.503906 49.839844 61.265625 C 49.523438 61.023438 49.292969 60.671875 49.144531 60.203125 C 49.046875 59.898438 49.011719 59.609375 49.039062 59.339844 C 49.0625 59.066406 49.148438 58.84375 49.296875 58.667969 C 49.433594 58.496094 49.636719 58.371094 49.867188 58.3125 C 50.105469 58.253906 50.34375 58.269531 50.574219 58.355469 C 50.804688 58.445312 51.011719 58.601562 51.1875 58.824219 C 51.363281 59.050781 51.496094 59.304688 51.589844 59.59375 C 51.6875 59.90625 51.722656 60.199219 51.691406 60.472656 C 51.664062 60.742188 51.578125 60.964844 51.429688 61.140625 C 51.285156 61.3125 51.109375 61.425781 50.902344 61.476562 Z M 51.105469 57.050781 L 48.652344 57 L 48.691406 55.472656 C 48.699219 55.167969 48.726562 54.933594 48.777344 54.773438 C 48.824219 54.617188 48.902344 54.488281 49.019531 54.394531 C 49.117188 54.308594 49.253906 54.257812 49.390625 54.261719 C 49.566406 54.265625 49.710938 54.347656 49.828125 54.507812 C 49.941406 54.667969 50.011719 54.914062 50.035156 55.242188 C 50.078125 55.125 50.121094 55.035156 50.164062 54.972656 C 50.253906 54.839844 50.367188 54.714844 50.5 54.601562 L 51.183594 54.015625 L 51.167969 54.585938 L 50.644531 55.035156 C 50.496094 55.164062 50.378906 55.269531 50.300781 55.355469 C 50.21875 55.441406 50.164062 55.515625 50.128906 55.585938 C 50.097656 55.652344 50.074219 55.71875 50.058594 55.789062 C 50.050781 55.84375 50.046875 55.925781 50.042969 56.042969 L 50.027344 56.570312 L 51.117188 56.59375 Z M 49.746094 56.566406 L 49.773438 55.585938 C 49.78125 55.421875 49.769531 55.257812 49.738281 55.097656 C 49.710938 54.980469 49.664062 54.890625 49.597656 54.828125 C 49.542969 54.769531 49.464844 54.734375 49.378906 54.730469 C 49.265625 54.726562 49.167969 54.785156 49.089844 54.902344 C 49.011719 55.019531 48.96875 55.203125 48.964844 55.460938 L 48.933594 56.550781 Z M 56.5625 46.972656 L 56.582031 44.421875 L 57.054688 44.167969 L 59.675781 45.316406 L 59.175781 45.582031 L 58.40625 45.222656 L 57.015625 45.960938 L 57.03125 46.722656 Z M 57.007812 45.691406 L 58.132812 45.09375 L 57.4375 44.757812 C 57.265625 44.679688 57.101562 44.59375 56.941406 44.496094 C 56.980469 44.640625 57 44.789062 57 44.949219 Z M 68.855469 45.007812 L 71.503906 44.023438 L 71.949219 44.3125 L 71.789062 46.90625 L 71.316406 46.601562 L 71.386719 45.832031 L 70.078125 44.984375 L 69.296875 45.292969 Z M 70.355469 44.871094 L 71.414062 45.558594 L 71.488281 44.859375 C 71.503906 44.6875 71.53125 44.515625 71.566406 44.347656 C 71.429688 44.4375 71.277344 44.515625 71.121094 44.578125 Z M 76.914062 52.988281 L 79.300781 52.480469 L 79.699219 53.96875 C 79.78125 54.265625 79.820312 54.496094 79.820312 54.664062 C 79.820312 54.828125 79.777344 54.96875 79.691406 55.082031 C 79.621094 55.191406 79.507812 55.269531 79.371094 55.300781 C 79.203125 55.335938 79.039062 55.289062 78.878906 55.160156 C 78.722656 55.03125 78.585938 54.808594 78.46875 54.492188 C 78.464844 54.59375 78.449219 54.691406 78.421875 54.785156 C 78.371094 54.933594 78.296875 55.078125 78.203125 55.222656 L 77.710938 55.941406 L 77.558594 55.386719 L 77.9375 54.835938 C 78.042969 54.675781 78.125 54.546875 78.179688 54.445312 C 78.230469 54.347656 78.265625 54.257812 78.277344 54.1875 C 78.289062 54.113281 78.292969 54.042969 78.285156 53.972656 C 78.273438 53.886719 78.253906 53.804688 78.230469 53.722656 L 78.09375 53.207031 L 77.035156 53.433594 Z M 78.367188 53.148438 L 78.625 54.101562 C 78.679688 54.304688 78.734375 54.460938 78.796875 54.570312 C 78.855469 54.675781 78.929688 54.753906 79.007812 54.796875 C 79.089844 54.84375 79.171875 54.859375 79.246094 54.84375 C 79.359375 54.816406 79.4375 54.738281 79.480469 54.609375 C 79.519531 54.480469 79.507812 54.289062 79.441406 54.042969 L 79.15625 52.980469 Z M 78.367188 53.148438 "/>
</g>
</svg>
