<?xml version="1.0" encoding="UTF-8"?>
<svg xmlns="http://www.w3.org/2000/svg" xmlns:xlink="http://www.w3.org/1999/xlink" width="255pt" height="170pt" viewBox="0 0 255 170" version="1.1">
<g id="surface1">
<path style=" stroke:none;fill-rule:nonzero;fill:rgb(99.607843%,79.607843%,0%);fill-opacity:1;" d="M 0 -0.0351562 L 255 -0.0351562 L 255 56.667969 L 0 56.667969 Z M 0 -0.0351562 "/>
<path style=" stroke:none;fill-rule:nonzero;fill:rgb(91.764706%,15.686275%,22.352941%);fill-opacity:1;" d="M 0 113.332031 L 255 113.332031 L 255 170 L 0 170 Z M 0 113.332031 "/>
<path style=" stroke:none;fill-rule:nonzero;fill:rgb(20.392157%,69.803922%,20%);fill-opacity:1;" d="M 0 56.667969 L 255 56.667969 L 255 113.332031 L 0 113.332031 Z M 0 56.667969 "/>
<path style=" stroke:none;fill-rule:nonzero;fill:rgb(100%,100%,100%);fill-opacity:1;" d="M 86.074219 141.660156 L 109.027344 79.046875 L 145.972656 102.910156 Z M 86.074219 141.660156 "/>
<path style=" stroke:none;fill-rule:nonzero;fill:rgb(100%,100%,100%);fill-opacity:1;" d="M 60.472656 71.621094 L 134.554688 71.675781 L 120.445312 110.28125 Z M 60.472656 71.621094 "/>
<path style=" stroke:none;fill-rule:nonzero;fill:rgb(100%,100%,100%);fill-opacity:1;" d="M 127.5 28.332031 L 150.335938 90.976562 L 104.664062 90.976562 Z M 127.5 28.332031 "/>
<path style=" stroke:none;fill-rule:nonzero;fill:rgb(100%,100%,100%);fill-opacity:1;" d="M 194.527344 71.621094 L 134.554688 110.28125 L 120.445312 71.675781 Z M 194.527344 71.621094 "/>
<path style=" stroke:none;fill-rule:nonzero;fill:rgb(100%,100%,100%);fill-opacity:1;" d="M 168.925781 141.660156 L 109.027344 102.910156 L 145.972656 79.046875 Z M 168.925781 141.660156 "/>
</g>
</svg>
