<?xml version="1.0" encoding="UTF-8"?>
<svg xmlns="http://www.w3.org/2000/svg" xmlns:xlink="http://www.w3.org/1999/xlink" width="255pt" height="170pt" viewBox="0 0 255 170" version="1.1">
<g id="surface1">
<path style="fill-rule:evenodd;fill:rgb(80.784314%,0%,0%);fill-opacity:1;stroke-width:365.99;stroke-linecap:butt;stroke-linejoin:miter;stroke:rgb(0%,0%,38.823529%);stroke-opacity:1;stroke-miterlimit:4;" d="M 210.931713 14782.146324 L 11095.963542 14782.146324 L 3972.057292 7557.048621 L 11364.037905 7566.001654 L 212.034144 442.142096 Z M 210.931713 14782.146324 " transform="matrix(0.0212598,0,0,0.0113439,0.000000000000017053,0)"/>
<path style=" stroke:none;fill-rule:evenodd;fill:rgb(100%,100%,100%);fill-opacity:1;" d="M 105.875 121.585938 L 89.035156 124.554688 L 102.21875 131.167969 L 84.464844 130.570312 L 91.777344 139.292969 L 75.832031 135.195312 L 76.175781 144.714844 L 64.460938 137.761719 L 57.761719 146.621094 L 52.066406 137.863281 L 39.351562 144.714844 L 40.519531 135.480469 L 23.746094 139.292969 L 31.632812 130.988281 L 13.308594 131.167969 L 26.679688 125.066406 L 9.652344 121.585938 L 26.488281 118.625 L 13.308594 112 L 31.0625 112.609375 L 23.746094 103.886719 L 39.691406 107.984375 L 39.351562 98.464844 L 51.066406 105.417969 L 57.761719 96.558594 L 63.480469 105.316406 L 76.175781 98.464844 L 75.027344 107.6875 L 91.777344 103.886719 L 83.933594 112.179688 L 102.21875 112 L 88.84375 118.101562 Z M 85.675781 60.144531 L 78.597656 62.9375 L 82.085938 64.46875 C 90.523438 60.972656 96.5625 57.785156 101.238281 52.5 C 102.34375 59.566406 90.226562 75.402344 58.402344 75.585938 C 24.320312 75.574219 12.523438 58.75 13.839844 52.203125 C 20.070312 58.25 23.894531 61.210938 33.71875 64.367188 L 36.714844 62.890625 L 30.0625 59.941406 L 38.652344 58.75 L 34.035156 54.609375 L 43.007812 54.960938 L 41.882812 50.140625 L 49.746094 52.589844 L 52.191406 48.109375 L 57.847656 51.726562 L 63.164062 48.292969 L 66.03125 52.953125 L 73.390625 50.21875 L 72.453125 54.960938 L 81.253906 54.40625 L 77.128906 58.785156 Z M 85.675781 60.144531 "/>
</g>
</svg>
