<?xml version="1.0" encoding="UTF-8"?>
<svg xmlns="http://www.w3.org/2000/svg" xmlns:xlink="http://www.w3.org/1999/xlink" width="255pt" height="170pt" viewBox="0 0 255 170" version="1.1">
<g id="surface1">
<rect x="0" y="0" width="255" height="170" style="fill:rgb(100%,100%,100%);fill-opacity:1;stroke:none;"/>
<path style="fill-rule:evenodd;fill:rgb(80.784314%,0%,0%);fill-opacity:1;stroke-width:13.832832;stroke-linecap:butt;stroke-linejoin:miter;stroke:rgb(0%,0%,38.823529%);stroke-opacity:1;stroke-miterlimit:4;" d="M 6.535948 489.536784 L 385.328105 489.52502 L 137.401307 238.113255 L 394.666667 238.407373 L 6.556863 -9.47498 Z M 6.535948 489.536784 " transform="matrix(0.373535,0,0,0.332031,0,5.298333)"/>
<path style=" stroke:none;fill-rule:evenodd;fill:rgb(100%,100%,100%);fill-opacity:1;" d="M 67.511719 123.4375 L 57.429688 126.402344 L 65.316406 132.996094 L 54.695312 132.390625 L 59.070312 141.101562 L 49.527344 137.019531 L 49.722656 146.515625 L 42.707031 139.574219 L 38.695312 148.417969 L 35.277344 139.679688 L 27.667969 146.515625 L 28.363281 137.308594 L 18.324219 141.101562 L 23.03125 132.828125 L 12.070312 132.996094 L 20.078125 126.914062 L 9.882812 123.4375 L 19.960938 120.472656 L 12.070312 113.878906 L 22.695312 114.480469 L 18.324219 105.773438 L 27.867188 109.855469 L 27.667969 100.355469 L 34.6875 107.296875 L 38.695312 98.457031 L 42.117188 107.195312 L 49.722656 100.355469 L 49.023438 109.566406 L 59.070312 105.777344 L 54.363281 114.050781 L 65.316406 113.878906 L 57.3125 119.960938 Z M 55.402344 62.117188 L 51.171875 64.902344 L 53.257812 66.433594 C 58.320312 62.953125 61.925781 59.773438 64.742188 54.492188 C 65.40625 61.539062 58.136719 77.355469 39.070312 77.53125 C 18.664062 77.515625 11.582031 60.734375 12.371094 54.195312 C 16.117188 60.242188 18.40625 63.191406 24.292969 66.339844 L 26.09375 64.871094 L 22.105469 61.917969 L 27.238281 60.730469 L 24.476562 56.601562 L 29.851562 56.949219 L 29.175781 52.140625 L 33.890625 54.589844 L 35.363281 50.113281 L 38.75 53.71875 L 41.921875 50.300781 L 43.648438 54.945312 L 48.054688 52.222656 L 47.488281 56.945312 L 52.765625 56.394531 L 50.292969 60.761719 Z M 55.402344 62.117188 "/>
</g>
</svg>
