<?xml version="1.0" encoding="UTF-8"?>
<svg xmlns="http://www.w3.org/2000/svg" xmlns:xlink="http://www.w3.org/1999/xlink" width="255pt" height="170pt" viewBox="0 0 255 170" version="1.1">
<g id="surface1">
<path style=" stroke:none;fill-rule:nonzero;fill:rgb(0%,58.431373%,26.27451%);fill-opacity:1;" d="M 0 169.632812 L 255.082031 169.632812 L 255.082031 113.085938 L 0 113.085938 Z M 0 169.632812 "/>
<path style=" stroke:none;fill-rule:nonzero;fill:rgb(92.941176%,25.490196%,20.784314%);fill-opacity:1;" d="M 0 113.085938 L 255.082031 113.085938 L 255.082031 56.542969 L 0 56.542969 Z M 0 113.085938 "/>
<path style=" stroke:none;fill-rule:nonzero;fill:rgb(0%,20.784314%,67.843137%);fill-opacity:1;" d="M 0 56.542969 L 255.082031 56.542969 L 255.082031 0 L 0 0 Z M 0 56.542969 "/>
<path style=" stroke:none;fill-rule:nonzero;fill:rgb(98.039216%,90.196078%,0%);fill-opacity:1;" d="M 85.027344 29.21875 C 108.027344 29.21875 126.828125 54.171875 126.828125 84.8125 C 126.828125 115.398438 108.027344 140.414062 85.027344 140.414062 C 61.992188 140.414062 43.226562 115.398438 43.226562 84.8125 C 43.226562 54.171875 61.992188 29.21875 85.027344 29.21875 Z M 85.027344 29.21875 "/>
<path style="fill:none;stroke-width:189.913;stroke-linecap:butt;stroke-linejoin:miter;stroke:rgb(0%,0%,0%);stroke-opacity:1;stroke-miterlimit:4;" d="M 11301.997525 2920.085142 C 14359.201615 2920.085142 16858.237499 5413.911902 16858.237499 8476.930808 C 16858.237499 11532.922649 14359.201615 14032.995689 11301.997525 14032.995689 C 8239.081947 14032.995689 5745.757551 11532.922649 5745.757551 8476.930808 C 5745.757551 5413.911902 8239.081947 2920.085142 11301.997525 2920.085142 Z M 11301.997525 2920.085142 Z M 11301.997525 2920.085142 " transform="matrix(0.00752321,0,0,0.010006,0,0.000501688)"/>
<path style=" stroke:none;fill-rule:evenodd;fill:rgb(12.156863%,10.196078%,9.019608%);fill-opacity:1;" d="M 77.203125 93.074219 L 92.183594 92.886719 Z M 77.203125 93.074219 "/>
<path style="fill:none;stroke-width:230.6;stroke-linecap:butt;stroke-linejoin:miter;stroke:rgb(0%,0%,0%);stroke-opacity:1;stroke-miterlimit:4;" d="M 10261.98737 9301.829985 L 12253.219993 9283.091149 " transform="matrix(0.00752321,0,0,0.010006,0,0.000501688)"/>
<path style="fill:none;stroke-width:230.6;stroke-linecap:butt;stroke-linejoin:miter;stroke:rgb(0%,0%,0%);stroke-opacity:1;stroke-miterlimit:4;" d="M 10242.775999 7924.135145 L 12271.912138 7924.135145 " transform="matrix(0.00752321,0,0,0.010006,0,0.000501688)"/>
<path style=" stroke:none;fill-rule:evenodd;fill:rgb(12.156863%,10.196078%,9.019608%);fill-opacity:1;" d="M 84.839844 29.429688 L 84.980469 123.875 L 84.839844 123.683594 Z M 84.839844 29.429688 "/>
<path style="fill:none;stroke-width:230.6;stroke-linecap:butt;stroke-linejoin:miter;stroke:rgb(0%,0%,0%);stroke-opacity:1;stroke-miterlimit:4;" d="M 11277.074666 2941.166332 L 11295.76681 12380.074194 L 11277.074666 12360.944966 " transform="matrix(0.00752321,0,0,0.010006,0,0.000501688)"/>
<path style=" stroke:none;fill-rule:evenodd;fill:rgb(0%,0%,0%);fill-opacity:1;" d="M 68.199219 135.863281 C 85.253906 145.125 101.246094 136.433594 101.246094 136.433594 C 101.246094 136.433594 95.207031 127.746094 92.113281 124.355469 C 89.097656 121.042969 80.210938 121.171875 77.179688 124.355469 C 74.652344 127.007812 67.402344 136.78125 68.199219 135.863281 Z M 68.199219 135.863281 "/>
<path style="fill:none;stroke-width:14.5368;stroke-linecap:butt;stroke-linejoin:round;stroke:rgb(0%,0%,0%);stroke-opacity:1;stroke-miterlimit:4;" d="M 9065.170891 13578.188523 C 11332.112647 14503.808944 13457.824866 13635.185816 13457.824866 13635.185816 C 13457.824866 13635.185816 12655.101102 12766.95308 12243.873921 12428.092462 C 11843.031265 12097.039692 10661.791574 12109.922642 10258.872013 12428.092462 C 9922.932637 12693.168913 8959.248739 13669.930741 9065.170891 13578.188523 Z M 9065.170891 13578.188523 Z M 9065.170891 13578.188523 " transform="matrix(0.00752321,0,0,0.010006,0,0.000501688)"/>
<path style=" stroke:none;fill-rule:nonzero;fill:rgb(0%,0%,0%);fill-opacity:1;" d="M 89.503906 110.277344 C 89.503906 115.230469 87.425781 119.242188 84.863281 119.242188 C 82.304688 119.242188 80.21875 115.230469 80.226562 110.277344 C 80.21875 105.332031 82.304688 101.320312 84.863281 101.320312 C 87.425781 101.320312 89.503906 105.332031 89.503906 110.277344 Z M 89.503906 110.277344 "/>
<path style="fill:none;stroke-width:27.7253;stroke-linecap:round;stroke-linejoin:round;stroke:rgb(0%,0%,0%);stroke-opacity:1;stroke-miterlimit:4;" d="M 11897.030794 11021.11819 C 11897.030794 11516.135775 11620.802435 11917.068788 11280.190023 11917.068788 C 10940.096837 11917.068788 10662.830026 11516.135775 10663.868479 11021.11819 C 10662.830026 10526.88139 10940.096837 10125.948378 11280.190023 10125.948378 C 11620.802435 10125.948378 11897.030794 10526.88139 11897.030794 11021.11819 Z M 11897.030794 11021.11819 Z M 11897.030794 11021.11819 " transform="matrix(0.00752321,0,0,0.010006,0,0.000501688)"/>
<path style=" stroke:none;fill-rule:nonzero;fill:rgb(0%,0%,0%);fill-opacity:1;" d="M 90.460938 86.183594 C 90.460938 88.824219 87.921875 90.953125 84.792969 90.953125 C 81.664062 90.953125 79.128906 88.824219 79.128906 86.183594 C 79.128906 83.550781 81.664062 81.410156 84.792969 81.410156 C 87.921875 81.410156 90.460938 83.550781 90.460938 86.183594 Z M 90.460938 86.183594 "/>
<path style="fill:none;stroke-width:1.0145;stroke-linecap:round;stroke-linejoin:round;stroke:rgb(0%,0%,0%);stroke-opacity:1;stroke-miterlimit:4;" d="M 12024.241222 8613.177761 C 12024.241222 8877.083035 11686.744168 9089.846903 11270.843951 9089.846903 C 10854.943734 9089.846903 10517.965906 8877.083035 10517.965906 8613.177761 C 10517.965906 8350.053272 10854.943734 8136.118227 11270.843951 8136.118227 C 11686.744168 8136.118227 12024.241222 8350.053272 12024.241222 8613.177761 Z M 12024.241222 8613.177761 Z M 12024.241222 8613.177761 " transform="matrix(0.00752321,0,0,0.010006,0,0.000501688)"/>
<path style=" stroke:none;fill-rule:nonzero;fill:rgb(0%,0%,0%);fill-opacity:1;" d="M 90.382812 64.238281 C 90.382812 68.242188 87.855469 71.484375 84.734375 71.484375 C 81.613281 71.484375 79.085938 68.242188 79.085938 64.238281 C 79.085938 60.238281 81.613281 56.996094 84.734375 56.996094 C 87.855469 56.996094 90.382812 60.238281 90.382812 64.238281 Z M 90.382812 64.238281 "/>
<path style="fill:none;stroke-width:1.0145;stroke-linecap:round;stroke-linejoin:round;stroke:rgb(0%,0%,0%);stroke-opacity:1;stroke-miterlimit:4;" d="M 12013.856698 6419.953161 C 12013.856698 6820.105389 11677.917322 7144.131095 11263.055557 7144.131095 C 10848.193793 7144.131095 10512.254417 6820.105389 10512.254417 6419.953161 C 10512.254417 6020.191326 10848.193793 5696.16562 11263.055557 5696.16562 C 11677.917322 5696.16562 12013.856698 6020.191326 12013.856698 6419.953161 Z M 12013.856698 6419.953161 Z M 12013.856698 6419.953161 " transform="matrix(0.00752321,0,0,0.010006,0,0.000501688)"/>
<path style=" stroke:none;fill-rule:evenodd;fill:rgb(0%,0%,0%);fill-opacity:1;" d="M 91.828125 35.992188 C 91.828125 35.992188 92.316406 37.082031 91.285156 39.554688 C 86.34375 51.390625 81.394531 51.640625 80.453125 52.660156 C 79.414062 53.78125 78.980469 53.710938 78.980469 53.710938 L 79.046875 52.691406 C 79.046875 52.691406 79.121094 48.550781 79.175781 48.148438 C 79.925781 42.625 86.199219 42.695312 91.113281 37.042969 C 91.882812 36.160156 91.828125 35.992188 91.828125 35.992188 Z M 91.828125 35.992188 "/>
<path style="fill:none;stroke-width:19.3824;stroke-linecap:butt;stroke-linejoin:round;stroke:rgb(0%,0%,0%);stroke-opacity:1;stroke-miterlimit:4;" d="M 12205.970406 3597.025593 C 12205.970406 3597.025593 12270.873686 3705.945077 12133.797959 3953.063477 C 11476.976767 5135.952501 10819.117124 5160.937616 10693.9836 5262.830037 C 10555.869421 5374.872661 10498.235309 5367.845597 10498.235309 5367.845597 L 10507.062155 5265.953176 C 10507.062155 5265.953176 10516.927453 4852.137214 10524.19662 4811.926795 C 10623.888058 4259.911917 11457.765397 4268.110158 12110.952004 3702.041153 C 12213.239573 3613.812467 12205.970406 3597.025593 12205.970406 3597.025593 Z M 12205.970406 3597.025593 Z M 12205.970406 3597.025593 " transform="matrix(0.00752321,0,0,0.010006,0,0.000501688)"/>
<path style=" stroke:none;fill-rule:evenodd;fill:rgb(0%,0%,0%);fill-opacity:1;" d="M 84.921875 73.234375 C 86.839844 72.964844 89.058594 71.921875 89.757812 70.421875 C 93.917969 61.605469 94.386719 61.539062 94.386719 61.539062 C 94.386719 61.539062 93.753906 63.796875 93.324219 66.601562 C 92.890625 69.410156 92.957031 71.683594 92.460938 72.773438 C 91.820312 74.164062 90.804688 75.605469 89.480469 76.175781 C 87.757812 76.917969 84.875 77.046875 84.875 77.046875 C 84.875 77.046875 84.757812 73.265625 84.921875 73.234375 Z M 84.921875 73.234375 "/>
<path style="fill:none;stroke-width:14.3632;stroke-linecap:butt;stroke-linejoin:round;stroke:rgb(0%,0%,0%);stroke-opacity:1;stroke-miterlimit:4;" d="M 11287.978417 7319.026898 C 11542.9185 7292.089821 11837.839003 7187.855046 11930.7805 7037.944358 C 12483.756443 6156.828672 12546.063592 6150.192001 12546.063592 6150.192001 C 12546.063592 6150.192001 12461.948941 6375.838818 12404.834055 6656.140574 C 12347.199943 6936.832722 12356.026789 7164.041109 12290.085056 7272.960593 C 12204.931953 7411.940294 12069.933131 7555.995095 11893.915437 7612.992388 C 11664.936666 7687.166948 11281.747702 7700.049897 11281.747702 7700.049897 C 11281.747702 7700.049897 11266.170915 7322.150038 11287.978417 7319.026898 Z M 11287.978417 7319.026898 Z M 11287.978417 7319.026898 " transform="matrix(0.00752321,0,0,0.010006,0,0.000501688)"/>
<path style=" stroke:none;fill-rule:evenodd;fill:rgb(0%,0%,0%);fill-opacity:1;" d="M 84.507812 73.234375 C 82.640625 72.953125 80.476562 71.914062 79.785156 70.414062 C 75.734375 61.597656 75.277344 61.527344 75.277344 61.527344 C 75.277344 61.527344 75.894531 63.777344 76.316406 66.589844 C 76.738281 69.402344 76.667969 71.671875 77.15625 72.765625 C 77.78125 74.15625 78.769531 75.59375 80.0625 76.164062 C 81.738281 76.90625 84.5625 77.046875 84.5625 77.046875 C 84.5625 77.046875 84.671875 73.253906 84.507812 73.234375 Z M 84.507812 73.234375 "/>
<path style="fill:none;stroke-width:14.3632;stroke-linecap:butt;stroke-linejoin:round;stroke:rgb(0%,0%,0%);stroke-opacity:1;stroke-miterlimit:4;" d="M 11232.940436 7319.026898 C 10984.750294 7290.918644 10697.098958 7187.074261 10606.234366 7037.163573 C 10066.758305 6156.047887 10006.008835 6149.020824 10006.008835 6149.020824 C 10006.008835 6149.020824 10088.04658 6373.886856 10144.123014 6654.969397 C 10200.199448 6936.051937 10190.853376 7162.869931 10255.756655 7272.179808 C 10338.832853 7411.159509 10471.235544 7554.823918 10642.060977 7611.821211 C 10864.809033 7685.99577 11240.209603 7700.049897 11240.209603 7700.049897 C 11240.209603 7700.049897 11254.747938 7320.97886 11232.940436 7319.026898 Z M 11232.940436 7319.026898 Z M 11232.940436 7319.026898 " transform="matrix(0.00752321,0,0,0.010006,0,0.000501688)"/>
<path style=" stroke:none;fill-rule:evenodd;fill:rgb(0%,0%,0%);fill-opacity:1;" d="M 85.035156 100.46875 C 87.027344 100.839844 89.339844 102.25 90.074219 104.292969 C 94.410156 116.257812 94.898438 116.359375 94.898438 116.359375 C 94.898438 116.359375 94.234375 113.296875 93.792969 109.484375 C 93.339844 105.671875 93.410156 102.589844 92.890625 101.109375 C 92.21875 99.21875 91.160156 97.257812 89.78125 96.488281 C 87.992188 95.476562 84.976562 95.296875 84.976562 95.296875 C 84.976562 95.296875 84.855469 100.441406 85.035156 100.46875 Z M 85.035156 100.46875 "/>
<path style=" stroke:none;fill-rule:nonzero;fill:rgb(0%,0%,0%);fill-opacity:1;" d="M 90.128906 104.261719 L 90.023438 104.324219 L 89.953125 104.132812 L 89.871094 103.953125 L 89.78125 103.773438 L 89.683594 103.601562 L 89.578125 103.421875 L 89.464844 103.261719 L 89.34375 103.09375 L 89.21875 102.933594 L 89.082031 102.78125 L 88.945312 102.632812 L 88.796875 102.480469 L 88.644531 102.339844 L 88.496094 102.203125 L 88.328125 102.070312 L 88 101.8125 L 87.824219 101.699219 L 87.644531 101.582031 L 87.472656 101.472656 L 87.285156 101.371094 L 87.105469 101.269531 L 86.914062 101.171875 L 86.726562 101.089844 L 86.539062 101 L 86.351562 100.921875 L 86.15625 100.851562 L 85.96875 100.789062 L 85.78125 100.71875 L 85.585938 100.671875 L 85.394531 100.621094 L 85.207031 100.582031 L 85.027344 100.539062 L 85.042969 100.398438 L 85.230469 100.441406 L 85.417969 100.492188 L 85.613281 100.539062 L 85.800781 100.589844 L 85.996094 100.652344 L 86.195312 100.71875 L 86.382812 100.789062 L 86.578125 100.871094 L 86.765625 100.960938 L 86.960938 101.050781 L 87.148438 101.140625 L 87.335938 101.242188 L 87.515625 101.351562 L 87.699219 101.460938 L 87.878906 101.582031 L 88.050781 101.699219 L 88.226562 101.820312 L 88.398438 101.953125 L 88.554688 102.089844 L 88.714844 102.230469 L 88.871094 102.371094 L 89.023438 102.523438 L 89.164062 102.679688 L 89.300781 102.839844 L 89.429688 103 L 89.546875 103.171875 L 89.667969 103.34375 L 89.878906 103.703125 L 89.96875 103.882812 L 90.054688 104.074219 Z M 90.128906 104.261719 C 90.144531 104.300781 90.128906 104.34375 90.097656 104.351562 C 90.066406 104.371094 90.039062 104.351562 90.023438 104.324219 Z M 94.84375 116.371094 L 94.949219 116.339844 L 94.890625 116.417969 L 94.867188 116.417969 L 94.859375 116.410156 L 94.84375 116.398438 L 94.832031 116.378906 L 94.808594 116.351562 L 94.777344 116.308594 L 94.746094 116.257812 L 94.710938 116.191406 L 94.65625 116.109375 L 94.605469 116.007812 L 94.535156 115.878906 L 94.46875 115.730469 L 94.378906 115.558594 L 94.289062 115.347656 L 94.183594 115.109375 L 94.0625 114.847656 L 93.933594 114.539062 L 93.785156 114.199219 L 93.625 113.816406 L 93.453125 113.398438 L 93.265625 112.9375 L 93.0625 112.425781 L 92.84375 111.867188 L 92.601562 111.257812 L 92.355469 110.597656 L 92.078125 109.875 L 91.789062 109.105469 L 91.476562 108.273438 L 91.144531 107.382812 L 90.789062 106.425781 L 90.421875 105.402344 L 90.023438 104.324219 L 90.128906 104.261719 L 90.527344 105.351562 L 90.894531 106.375 L 91.25 107.324219 L 91.582031 108.214844 L 91.886719 109.046875 L 92.183594 109.824219 L 92.453125 110.535156 L 92.707031 111.195312 L 92.949219 111.808594 L 93.167969 112.367188 L 93.371094 112.878906 L 93.558594 113.339844 L 93.730469 113.757812 L 93.890625 114.136719 L 94.03125 114.480469 L 94.160156 114.777344 L 94.28125 115.050781 L 94.386719 115.277344 L 94.484375 115.488281 L 94.566406 115.660156 L 94.632812 115.808594 L 94.703125 115.929688 L 94.753906 116.03125 L 94.800781 116.121094 L 94.835938 116.179688 L 94.867188 116.230469 L 94.890625 116.257812 L 94.90625 116.28125 L 94.921875 116.289062 L 94.921875 116.300781 L 94.921875 116.289062 L 94.90625 116.289062 Z M 94.90625 116.289062 C 94.933594 116.289062 94.957031 116.328125 94.949219 116.371094 C 94.949219 116.398438 94.921875 116.429688 94.890625 116.417969 Z M 93.730469 109.496094 L 93.84375 109.476562 L 93.890625 109.824219 L 93.925781 110.175781 L 93.972656 110.527344 L 94.019531 110.867188 L 94.070312 111.195312 L 94.117188 111.515625 L 94.160156 111.835938 L 94.207031 112.15625 L 94.25 112.457031 L 94.304688 112.757812 L 94.347656 113.039062 L 94.394531 113.316406 L 94.4375 113.589844 L 94.484375 113.847656 L 94.523438 114.097656 L 94.566406 114.339844 L 94.605469 114.558594 L 94.648438 114.777344 L 94.6875 114.980469 L 94.71875 115.167969 L 94.753906 115.347656 L 94.785156 115.519531 L 94.816406 115.667969 L 94.84375 115.800781 L 94.867188 115.929688 L 94.890625 116.03125 L 94.90625 116.121094 L 94.933594 116.257812 L 94.941406 116.300781 L 94.949219 116.328125 L 94.949219 116.339844 L 94.84375 116.371094 L 94.84375 116.359375 L 94.835938 116.339844 L 94.832031 116.289062 L 94.816406 116.230469 L 94.800781 116.160156 L 94.777344 116.070312 L 94.753906 115.960938 L 94.730469 115.839844 L 94.703125 115.699219 L 94.679688 115.550781 L 94.640625 115.378906 L 94.613281 115.199219 L 94.574219 115.007812 L 94.535156 114.808594 L 94.5 114.589844 L 94.453125 114.367188 L 94.417969 114.128906 L 94.371094 113.878906 L 94.324219 113.617188 L 94.28125 113.347656 L 94.234375 113.066406 L 94.191406 112.777344 L 94.144531 112.488281 L 94.09375 112.175781 L 94.046875 111.867188 L 94.003906 111.546875 L 93.957031 111.214844 L 93.914062 110.886719 L 93.867188 110.546875 L 93.820312 110.195312 L 93.777344 109.847656 Z M 93.730469 109.496094 C 93.730469 109.457031 93.746094 109.425781 93.777344 109.414062 C 93.816406 109.40625 93.835938 109.4375 93.84375 109.476562 Z M 92.835938 101.128906 L 92.941406 101.082031 L 92.988281 101.230469 L 93.03125 101.382812 L 93.078125 101.550781 L 93.113281 101.722656 L 93.152344 101.902344 L 93.183594 102.089844 L 93.210938 102.292969 L 93.242188 102.492188 L 93.273438 102.710938 L 93.296875 102.933594 L 93.316406 103.160156 L 93.339844 103.390625 L 93.386719 103.890625 L 93.402344 104.152344 L 93.421875 104.414062 L 93.4375 104.683594 L 93.460938 104.964844 L 93.484375 105.253906 L 93.5 105.542969 L 93.519531 105.84375 L 93.542969 106.144531 L 93.566406 106.453125 L 93.589844 106.765625 L 93.613281 107.085938 L 93.640625 107.414062 L 93.671875 107.746094 L 93.703125 108.085938 L 93.730469 108.425781 L 93.769531 108.765625 L 93.808594 109.117188 L 93.84375 109.476562 L 93.730469 109.496094 L 93.695312 109.136719 L 93.617188 108.433594 L 93.589844 108.09375 L 93.558594 107.765625 L 93.527344 107.425781 L 93.5 107.105469 L 93.453125 106.464844 L 93.429688 106.152344 L 93.410156 105.855469 L 93.386719 105.554688 L 93.371094 105.261719 L 93.347656 104.972656 L 93.332031 104.703125 L 93.308594 104.421875 L 93.289062 104.164062 L 93.273438 103.902344 L 93.25 103.652344 L 93.226562 103.410156 L 93.207031 103.171875 L 93.183594 102.953125 L 93.160156 102.730469 L 93.128906 102.511719 L 93.101562 102.3125 L 93.039062 101.929688 L 93.003906 101.75 L 92.964844 101.582031 L 92.925781 101.421875 L 92.882812 101.269531 Z M 92.835938 101.128906 C 92.820312 101.101562 92.835938 101.0625 92.867188 101.039062 C 92.898438 101.03125 92.925781 101.039062 92.941406 101.082031 Z M 89.757812 96.546875 L 89.8125 96.417969 L 89.941406 96.496094 L 90.066406 96.589844 L 90.195312 96.679688 L 90.316406 96.769531 L 90.4375 96.878906 L 90.558594 96.976562 L 90.675781 97.097656 L 90.796875 97.21875 L 90.910156 97.339844 L 91.023438 97.46875 L 91.128906 97.597656 L 91.242188 97.738281 L 91.347656 97.890625 L 91.445312 98.027344 L 91.550781 98.179688 L 91.648438 98.339844 L 91.746094 98.488281 L 91.84375 98.648438 L 91.933594 98.808594 L 92.023438 98.980469 L 92.113281 99.148438 L 92.195312 99.320312 L 92.289062 99.488281 L 92.363281 99.660156 L 92.445312 99.839844 L 92.519531 100.011719 L 92.597656 100.191406 L 92.671875 100.371094 L 92.738281 100.539062 L 92.8125 100.71875 L 92.875 100.902344 L 92.941406 101.082031 L 92.835938 101.128906 L 92.777344 100.960938 L 92.707031 100.78125 L 92.640625 100.601562 L 92.574219 100.429688 L 92.496094 100.25 L 92.421875 100.082031 L 92.347656 99.898438 L 92.265625 99.730469 L 92.191406 99.558594 L 92.097656 99.390625 L 92.015625 99.21875 L 91.925781 99.058594 L 91.84375 98.890625 L 91.746094 98.730469 L 91.65625 98.570312 L 91.558594 98.417969 L 91.460938 98.269531 L 91.363281 98.117188 L 91.257812 97.980469 L 91.046875 97.699219 L 90.941406 97.570312 L 90.828125 97.4375 L 90.722656 97.320312 L 90.609375 97.199219 L 90.488281 97.089844 L 90.375 96.988281 L 90.257812 96.886719 L 90.136719 96.789062 L 90.007812 96.699219 L 89.886719 96.617188 Z M 89.757812 96.546875 C 89.730469 96.527344 89.722656 96.488281 89.738281 96.457031 C 89.746094 96.417969 89.78125 96.40625 89.8125 96.417969 Z M 85.035156 95.296875 L 84.921875 95.296875 L 84.980469 95.226562 L 85.058594 95.226562 L 85.117188 95.238281 L 85.183594 95.238281 L 85.277344 95.246094 L 85.375 95.257812 L 85.480469 95.265625 L 85.605469 95.289062 L 85.734375 95.296875 L 85.878906 95.316406 L 86.035156 95.335938 L 86.195312 95.355469 L 86.359375 95.386719 L 86.53125 95.417969 L 86.710938 95.449219 L 86.902344 95.476562 L 87.097656 95.515625 L 87.285156 95.558594 L 87.488281 95.597656 L 87.683594 95.648438 L 87.886719 95.699219 L 88.089844 95.746094 L 88.292969 95.808594 L 88.488281 95.867188 L 88.691406 95.9375 L 89.082031 96.078125 L 89.269531 96.15625 L 89.457031 96.238281 L 89.632812 96.328125 L 89.8125 96.417969 L 89.757812 96.546875 L 89.59375 96.457031 L 89.414062 96.367188 L 89.234375 96.289062 L 89.042969 96.207031 L 88.855469 96.136719 L 88.660156 96.066406 L 88.457031 95.996094 L 88.261719 95.9375 L 88.058594 95.886719 L 87.863281 95.828125 L 87.660156 95.777344 L 87.464844 95.738281 L 87.269531 95.6875 L 87.074219 95.648438 L 86.886719 95.617188 L 86.699219 95.578125 L 86.515625 95.546875 L 86.34375 95.515625 L 86.179688 95.496094 L 86.019531 95.476562 L 85.871094 95.457031 L 85.726562 95.4375 L 85.589844 95.417969 L 85.472656 95.40625 L 85.359375 95.398438 L 85.261719 95.386719 L 85.179688 95.378906 L 85.109375 95.378906 L 85.050781 95.367188 L 84.976562 95.367188 Z M 84.976562 95.367188 C 84.945312 95.355469 84.921875 95.328125 84.921875 95.289062 C 84.921875 95.257812 84.953125 95.226562 84.980469 95.226562 Z M 85.042969 100.398438 L 85.027344 100.539062 L 84.96875 100.492188 L 84.953125 100.429688 L 84.9375 100.351562 L 84.921875 100.25 L 84.914062 100.128906 L 84.90625 99.988281 L 84.898438 99.828125 L 84.890625 99.648438 L 84.890625 99.460938 L 84.882812 99.257812 L 84.882812 97.386719 L 84.890625 97.148438 L 84.890625 96.917969 L 84.898438 96.699219 L 84.898438 96.289062 L 84.90625 96.097656 L 84.90625 95.925781 L 84.914062 95.765625 L 84.914062 95.515625 L 84.921875 95.417969 L 84.921875 95.296875 L 85.035156 95.296875 L 85.035156 95.425781 L 85.027344 95.515625 L 85.027344 95.765625 L 85.019531 95.925781 L 85.019531 96.097656 L 85.011719 96.289062 L 85.011719 96.699219 L 85.003906 96.929688 L 85.003906 97.160156 L 84.996094 97.386719 L 84.996094 99.257812 L 85.003906 99.460938 L 85.003906 99.648438 L 85.011719 99.820312 L 85.019531 99.980469 L 85.027344 100.121094 L 85.035156 100.230469 L 85.050781 100.332031 L 85.058594 100.390625 L 85.066406 100.421875 Z M 85.042969 100.398438 C 85.074219 100.410156 85.09375 100.441406 85.085938 100.480469 C 85.085938 100.519531 85.058594 100.539062 85.027344 100.539062 Z M 85.042969 100.398438 "/>
<path style=" stroke:none;fill-rule:evenodd;fill:rgb(0%,0%,0%);fill-opacity:1;" d="M 84.597656 100.480469 C 82.648438 100.851562 80.394531 102.261719 79.679688 104.300781 C 75.449219 116.28125 74.96875 116.371094 74.96875 116.371094 C 74.96875 116.371094 75.617188 113.308594 76.050781 109.496094 C 76.488281 105.683594 76.421875 102.601562 76.933594 101.121094 C 77.578125 99.21875 78.617188 97.269531 79.957031 96.488281 C 81.71875 95.488281 84.652344 95.296875 84.652344 95.296875 C 84.652344 95.296875 84.773438 100.449219 84.597656 100.480469 Z M 84.597656 100.480469 "/>
<path style=" stroke:none;fill-rule:nonzero;fill:rgb(0%,0%,0%);fill-opacity:1;" d="M 79.730469 104.332031 L 79.625 104.273438 L 79.695312 104.082031 L 79.777344 103.890625 L 79.867188 103.710938 L 79.964844 103.53125 L 80.078125 103.351562 L 80.191406 103.183594 L 80.308594 103.011719 L 80.566406 102.691406 L 80.710938 102.53125 L 80.851562 102.382812 L 81.003906 102.242188 L 81.160156 102.101562 L 81.320312 101.960938 L 81.484375 101.832031 L 81.648438 101.710938 L 81.824219 101.582031 L 81.996094 101.472656 L 82.167969 101.359375 L 82.347656 101.25 L 82.539062 101.152344 L 82.90625 100.96875 L 83.09375 100.878906 L 83.28125 100.800781 L 83.65625 100.660156 L 83.847656 100.601562 L 84.035156 100.539062 L 84.222656 100.492188 L 84.410156 100.449219 L 84.589844 100.410156 L 84.605469 100.550781 L 84.246094 100.628906 L 84.058594 100.679688 L 83.875 100.730469 L 83.6875 100.789062 L 83.3125 100.929688 L 83.132812 101.011719 L 82.945312 101.089844 L 82.761719 101.179688 L 82.402344 101.382812 L 82.222656 101.480469 L 82.046875 101.589844 L 81.875 101.699219 L 81.710938 101.820312 L 81.542969 101.953125 L 81.378906 102.082031 L 81.21875 102.210938 L 81.070312 102.351562 L 80.925781 102.492188 L 80.785156 102.640625 L 80.648438 102.792969 L 80.511719 102.941406 L 80.394531 103.101562 L 80.273438 103.273438 L 80.167969 103.433594 L 80.0625 103.601562 L 79.964844 103.78125 L 79.875 103.960938 L 79.796875 104.140625 Z M 79.730469 104.332031 C 79.714844 104.363281 79.6875 104.382812 79.65625 104.363281 C 79.625 104.351562 79.609375 104.3125 79.625 104.273438 Z M 74.917969 116.359375 L 75.023438 116.390625 L 74.960938 116.308594 L 74.945312 116.308594 L 74.960938 116.300781 L 74.976562 116.28125 L 75 116.238281 L 75.027344 116.199219 L 75.066406 116.128906 L 75.113281 116.050781 L 75.164062 115.949219 L 75.226562 115.828125 L 75.292969 115.679688 L 75.375 115.5 L 75.464844 115.300781 L 75.570312 115.070312 L 75.683594 114.800781 L 75.8125 114.5 L 75.953125 114.160156 L 76.113281 113.777344 L 76.277344 113.359375 L 76.457031 112.886719 L 76.660156 112.378906 L 76.871094 111.816406 L 77.105469 111.214844 L 77.355469 110.554688 L 77.617188 109.835938 L 77.902344 109.066406 L 78.210938 108.234375 L 78.527344 107.34375 L 78.875 106.382812 L 79.234375 105.363281 L 79.625 104.273438 L 79.730469 104.332031 L 79.339844 105.414062 L 78.980469 106.433594 L 78.632812 107.394531 L 78.308594 108.285156 L 78.007812 109.117188 L 77.722656 109.894531 L 77.460938 110.605469 L 77.210938 111.265625 L 76.976562 111.878906 L 76.757812 112.4375 L 76.5625 112.949219 L 76.382812 113.417969 L 76.210938 113.839844 L 76.058594 114.21875 L 75.917969 114.558594 L 75.789062 114.859375 L 75.667969 115.128906 L 75.570312 115.371094 L 75.472656 115.570312 L 75.390625 115.75 L 75.324219 115.898438 L 75.253906 116.019531 L 75.203125 116.128906 L 75.15625 116.210938 L 75.121094 116.28125 L 75.089844 116.328125 L 75.058594 116.371094 L 75.035156 116.390625 L 75.023438 116.410156 L 75.007812 116.429688 L 75 116.429688 L 74.976562 116.441406 Z M 74.976562 116.441406 C 74.945312 116.449219 74.917969 116.417969 74.917969 116.378906 C 74.910156 116.351562 74.929688 116.308594 74.960938 116.308594 Z M 76 109.484375 L 76.105469 109.503906 L 76.066406 109.867188 L 76.023438 110.214844 L 75.984375 110.554688 L 75.9375 110.898438 L 75.894531 111.238281 L 75.847656 111.558594 L 75.804688 111.878906 L 75.757812 112.199219 L 75.707031 112.496094 L 75.660156 112.796875 L 75.617188 113.085938 L 75.570312 113.359375 L 75.53125 113.628906 L 75.488281 113.886719 L 75.441406 114.136719 L 75.40625 114.378906 L 75.359375 114.609375 L 75.324219 114.820312 L 75.285156 115.027344 L 75.253906 115.21875 L 75.21875 115.398438 L 75.1875 115.558594 L 75.15625 115.710938 L 75.132812 115.847656 L 75.113281 115.96875 L 75.089844 116.078125 L 75.066406 116.167969 L 75.050781 116.25 L 75.042969 116.308594 L 75.027344 116.351562 L 75.027344 116.378906 L 75.023438 116.390625 L 74.917969 116.359375 L 74.917969 116.351562 L 74.921875 116.320312 L 74.929688 116.28125 L 74.945312 116.21875 L 74.960938 116.140625 L 74.976562 116.050781 L 75 115.941406 L 75.023438 115.820312 L 75.050781 115.679688 L 75.082031 115.527344 L 75.113281 115.371094 L 75.140625 115.1875 L 75.179688 115 L 75.21875 114.800781 L 75.253906 114.578125 L 75.292969 114.347656 L 75.328125 114.109375 L 75.375 113.867188 L 75.421875 113.609375 L 75.464844 113.339844 L 75.511719 113.058594 L 75.554688 112.769531 L 75.601562 112.476562 L 75.644531 112.167969 L 75.691406 111.855469 L 75.734375 111.535156 L 75.78125 111.207031 L 75.828125 110.875 L 75.871094 110.535156 L 75.910156 110.195312 L 75.953125 109.847656 Z M 76 109.484375 C 76 109.457031 76.03125 109.425781 76.058594 109.425781 C 76.089844 109.4375 76.113281 109.464844 76.105469 109.503906 Z M 76.878906 101.089844 L 76.984375 101.140625 L 76.941406 101.28125 L 76.894531 101.429688 L 76.855469 101.589844 L 76.820312 101.761719 L 76.789062 101.941406 L 76.75 102.121094 L 76.722656 102.320312 L 76.699219 102.523438 L 76.667969 102.742188 L 76.648438 102.953125 L 76.625 103.183594 L 76.601562 103.421875 L 76.578125 103.664062 L 76.554688 103.914062 L 76.542969 104.171875 L 76.519531 104.441406 L 76.503906 104.710938 L 76.480469 104.992188 L 76.464844 105.273438 L 76.445312 105.5625 L 76.429688 105.863281 L 76.40625 106.164062 L 76.382812 106.472656 L 76.359375 106.792969 L 76.339844 107.113281 L 76.308594 107.445312 L 76.277344 107.773438 L 76.246094 108.113281 L 76.21875 108.453125 L 76.1875 108.796875 L 76.148438 109.15625 L 76.105469 109.503906 L 76 109.484375 L 76.039062 109.136719 L 76.074219 108.785156 L 76.105469 108.433594 L 76.136719 108.09375 L 76.164062 107.753906 L 76.195312 107.425781 L 76.226562 107.105469 L 76.246094 106.785156 L 76.269531 106.464844 L 76.292969 106.152344 L 76.316406 105.855469 L 76.332031 105.554688 L 76.351562 105.261719 L 76.367188 104.972656 L 76.390625 104.703125 L 76.40625 104.421875 L 76.429688 104.164062 L 76.445312 103.902344 L 76.464844 103.652344 L 76.488281 103.402344 L 76.535156 102.941406 L 76.554688 102.722656 L 76.585938 102.5 L 76.648438 102.101562 L 76.675781 101.910156 L 76.707031 101.730469 L 76.746094 101.550781 L 76.789062 101.390625 L 76.835938 101.242188 Z M 76.878906 101.089844 C 76.886719 101.050781 76.925781 101.039062 76.953125 101.050781 C 76.984375 101.070312 76.992188 101.109375 76.984375 101.140625 Z M 79.933594 96.429688 L 79.988281 96.546875 L 79.859375 96.628906 L 79.738281 96.707031 L 79.617188 96.796875 L 79.503906 96.886719 L 79.386719 96.988281 L 79.160156 97.207031 L 79.046875 97.328125 L 78.835938 97.570312 L 78.730469 97.707031 L 78.625 97.839844 L 78.519531 97.980469 L 78.421875 98.128906 L 78.324219 98.269531 L 78.234375 98.429688 L 78.136719 98.578125 L 77.867188 99.058594 L 77.78125 99.230469 L 77.699219 99.398438 L 77.617188 99.570312 L 77.542969 99.738281 L 77.460938 99.910156 L 77.382812 100.082031 L 77.316406 100.261719 L 77.242188 100.429688 L 77.171875 100.609375 L 77.105469 100.789062 L 77.046875 100.960938 L 76.984375 101.140625 L 76.878906 101.089844 L 76.941406 100.910156 L 77.074219 100.550781 L 77.144531 100.378906 L 77.210938 100.199219 L 77.285156 100.019531 L 77.359375 99.851562 L 77.4375 99.667969 L 77.519531 99.5 L 77.601562 99.328125 L 77.683594 99.160156 L 77.773438 98.988281 L 77.859375 98.820312 L 77.957031 98.660156 L 78.136719 98.339844 L 78.234375 98.1875 L 78.339844 98.039062 L 78.4375 97.890625 L 78.648438 97.609375 L 78.753906 97.480469 L 78.867188 97.347656 L 78.972656 97.21875 L 79.085938 97.097656 L 79.203125 96.988281 L 79.316406 96.878906 L 79.4375 96.777344 L 79.558594 96.679688 L 79.6875 96.589844 L 79.804688 96.507812 Z M 79.933594 96.429688 C 79.964844 96.40625 80 96.429688 80.007812 96.457031 C 80.023438 96.496094 80.007812 96.539062 79.988281 96.546875 Z M 84.710938 95.296875 L 84.597656 95.296875 L 84.660156 95.367188 L 84.621094 95.367188 L 84.582031 95.378906 L 84.53125 95.378906 L 84.457031 95.386719 L 84.371094 95.386719 L 84.28125 95.398438 L 84.167969 95.417969 L 84.050781 95.425781 L 83.921875 95.4375 L 83.785156 95.457031 L 83.636719 95.476562 L 83.476562 95.496094 L 83.320312 95.527344 L 83.148438 95.558594 L 82.972656 95.585938 L 82.792969 95.617188 L 82.605469 95.65625 L 82.417969 95.699219 L 82.230469 95.738281 L 82.03125 95.789062 L 81.835938 95.835938 L 81.640625 95.886719 L 81.445312 95.949219 L 81.25 96.007812 L 81.0625 96.066406 L 80.867188 96.136719 L 80.6875 96.21875 L 80.5 96.289062 L 80.324219 96.378906 L 80.152344 96.457031 L 79.988281 96.546875 L 79.933594 96.429688 L 80.105469 96.335938 L 80.28125 96.246094 L 80.460938 96.167969 L 80.648438 96.085938 L 80.835938 96.007812 L 81.03125 95.9375 L 81.21875 95.878906 L 81.417969 95.816406 L 81.621094 95.757812 L 81.816406 95.699219 L 82.011719 95.648438 L 82.207031 95.609375 L 82.394531 95.558594 L 82.589844 95.515625 L 82.769531 95.488281 L 82.957031 95.449219 L 83.132812 95.417969 L 83.304688 95.386719 L 83.46875 95.367188 L 83.621094 95.347656 L 83.769531 95.328125 L 83.914062 95.308594 L 84.042969 95.289062 L 84.164062 95.277344 L 84.265625 95.265625 L 84.367188 95.257812 L 84.449219 95.246094 L 84.515625 95.238281 L 84.613281 95.238281 L 84.644531 95.226562 L 84.652344 95.226562 Z M 84.652344 95.226562 C 84.679688 95.226562 84.710938 95.257812 84.710938 95.296875 C 84.710938 95.335938 84.6875 95.367188 84.660156 95.367188 Z M 84.605469 100.550781 L 84.589844 100.410156 L 84.570312 100.429688 L 84.574219 100.398438 L 84.582031 100.332031 L 84.597656 100.238281 L 84.605469 100.121094 L 84.613281 99.988281 L 84.621094 99.828125 L 84.621094 99.660156 L 84.628906 99.46875 L 84.628906 99.257812 L 84.636719 99.050781 L 84.636719 97.878906 L 84.628906 97.636719 L 84.628906 97.160156 L 84.621094 96.929688 L 84.621094 96.496094 L 84.613281 96.296875 L 84.613281 96.109375 L 84.605469 95.9375 L 84.605469 95.636719 L 84.597656 95.527344 L 84.597656 95.296875 L 84.710938 95.296875 L 84.710938 95.515625 L 84.71875 95.636719 L 84.71875 95.925781 L 84.726562 96.109375 L 84.726562 96.289062 L 84.734375 96.496094 L 84.734375 96.707031 L 84.742188 96.929688 L 84.742188 97.398438 L 84.75 97.636719 L 84.75 99.050781 L 84.742188 99.269531 L 84.742188 99.46875 L 84.734375 99.660156 L 84.734375 99.839844 L 84.726562 99.988281 L 84.71875 100.140625 L 84.710938 100.261719 L 84.695312 100.359375 L 84.679688 100.429688 L 84.667969 100.5 Z M 84.605469 100.550781 C 84.574219 100.550781 84.554688 100.53125 84.546875 100.492188 C 84.539062 100.449219 84.5625 100.421875 84.589844 100.410156 Z M 84.605469 100.550781 "/>
</g>
</svg>
