<?xml version="1.0" encoding="UTF-8"?>
<svg xmlns="http://www.w3.org/2000/svg" xmlns:xlink="http://www.w3.org/1999/xlink" width="255pt" height="170pt" viewBox="0 0 255 170" version="1.1">
<g id="surface1">
<path style=" stroke:none;fill-rule:evenodd;fill:rgb(0%,0%,0%);fill-opacity:1;" d="M 0.65625 0 L 0.457031 169.996094 L 255.449219 169.996094 L 0.652344 0 Z M 0.65625 0 "/>
<path style=" stroke:none;fill-rule:evenodd;fill:rgb(100%,0%,0%);fill-opacity:1;" d="M 255.25 169.996094 L 255.449219 0 L 0.457031 0 L 255.253906 169.996094 Z M 255.25 169.996094 "/>
<path style="fill-rule:nonzero;fill:rgb(100%,80%,0%);fill-opacity:1;stroke-width:1.065;stroke-linecap:butt;stroke-linejoin:miter;stroke:rgb(100%,80%,0%);stroke-opacity:1;stroke-miterlimit:4;" d="M 177.999502 54.001704 L 174.16165 53.802252 C 172.978055 51.019893 169.64809 49.977754 167.59888 51.14455 C 165.73516 51.309098 155.996998 50.999947 155.996998 50.999947 L 163.116235 54.121375 C 164.878378 58.878312 170.995092 60.000231 170.995092 60.000231 C 170.451875 68.776132 162.118128 58.86834 155.118135 63.864619 C 150.114354 66.866376 150.056941 70.451531 147.354104 76.235647 C 146.514988 77.846224 142.995117 81.999818 142.995117 81.999818 L 148.873346 81.501187 L 146.996376 83.999327 L 153.996369 82.997079 C 153.996369 82.997079 153.055676 83.784915 152.494793 84.378286 C 153.532647 84.582725 160.492893 82.747764 160.492893 82.747764 L 159.99384 84.996588 C 163.566707 83.570504 167.996356 82.119489 167.996356 82.119489 C 167.996356 82.119489 169.564178 83.430888 170.995092 83.999327 L 171.993198 80.000308 L 175.994456 80.99757 L 176.996979 76.998552 C 182.99445 84.996588 184.995079 92.999611 195.996331 94.99912 L 194.993808 91.000102 C 198.054373 92.306514 203.733863 95.088873 203.733863 95.088873 L 204.595061 93.258899 C 209.364772 96.679505 213.326283 96.61967 215.993788 96.998629 C 215.993788 96.998629 214.006409 92.017308 213.993159 91.997363 C 214.125651 92.047226 215.984956 93.009583 215.993788 92.999611 L 212.995053 84.996588 L 215.993788 85.998836 L 211.996947 80.000308 L 213.494106 78.998061 L 212.995053 76.00129 C 218.99694 78.000799 226.99504 80.99757 227.993146 87.998345 C 228.995669 98.998138 216.996311 101.999895 208.993795 100.997647 C 214.995682 105.998913 225.996934 103.999404 230.996298 98.998138 C 232.996927 96.998629 233.995034 93.996872 234.99314 91.000102 C 235.995663 93.996872 237.996292 98.000877 237.996292 101.999895 C 236.993769 111.000179 224.994411 113.996949 216.996311 114.999197 C 225.996934 120.000463 241.993134 113.996949 242.995656 100.997647 C 242.995656 89.997854 235.995663 84.996588 232.996927 80.000308 C 232.546455 78.180306 231.994405 74.620083 231.994405 74.620083 C 232.383048 74.734768 234.99314 76.011263 234.99314 76.011263 C 234.99314 76.011263 233.22658 72.700355 232.996927 71.997286 C 232.996927 71.997286 229.874533 63.500619 228.743934 61.620781 C 228.929423 61.516069 230.996298 61.969823 230.996298 61.969823 L 222.803877 51.69803 C 222.803877 51.69803 224.782424 51.518523 225.126903 51.458688 C 225.126903 51.458688 215.605145 43.949309 212.995053 42.996925 L 215.993788 41.999663 C 209.996318 38.997907 202.996324 40.997416 196.994437 45.00142 L 197.99696 41.999663 L 196.164154 42.169198 L 196.164154 38.738619 L 197.99696 36.001136 L 194.993808 34.998888 L 196.994437 29.997623 L 193.995701 30.99987 L 194.993808 25.998604 C 194.993808 25.998604 192.754693 27.040743 191.394442 26.891153 C 191.443022 27.000852 192.984346 23.470547 192.984346 23.470547 C 192.03482 21.979641 192.993179 18.997829 192.993179 18.997829 C 185.993185 20.000077 184.995079 20.997339 180.993821 27.000852 C 174.99635 38.000645 176.996979 42.996925 177.995085 53.996718 Z M 177.999502 54.001704 " transform="matrix(0.884487,0,0,0.783395,0.456211,0)"/>
<path style="fill-rule:evenodd;fill:rgb(100%,0%,0%);fill-opacity:1;stroke-width:1.42;stroke-linecap:butt;stroke-linejoin:miter;stroke:rgb(100%,0%,0%);stroke-opacity:1;stroke-miterlimit:4;" d="M 215.781801 70.436572 C 216.302936 71.299203 221.97801 74.031699 226.248669 76.455044 C 225.100405 71.84271 216.771075 70.83049 215.781801 70.436572 Z M 215.781801 70.436572 " transform="matrix(0.884487,0,0,0.783395,0.456211,0)"/>
<path style=" stroke:none;fill-rule:evenodd;fill:rgb(100%,100%,100%);fill-opacity:1;" d="M 69.707031 141.324219 L 64.082031 138.144531 L 56.53125 141.347656 L 58.203125 135.628906 L 52.433594 130.253906 L 59.09375 129.894531 L 63.078125 123.375 L 65.515625 128.875 L 73.753906 130.214844 L 68.601562 133.976562 Z M 84.144531 113.363281 L 81.535156 112.261719 L 79.023438 113.539062 L 79.40625 110.992188 L 77.261719 109.277344 L 80.105469 108.8125 L 81.289062 106.472656 L 82.664062 108.726562 L 85.542969 109 L 83.546875 110.859375 Z M 96.867188 97.328125 L 91.140625 94.851562 L 85.59375 97.625 L 86.480469 92.042969 L 81.785156 88.226562 L 88.058594 87.246094 L 90.699219 82.117188 L 93.699219 87.097656 L 100.023438 87.738281 L 95.601562 91.796875 Z M 70.683594 75.003906 L 63.945312 72.011719 L 57.339844 75.234375 L 58.46875 68.628906 L 52.96875 64.0625 L 60.40625 62.972656 L 63.613281 56.929688 L 67.082031 62.859375 L 74.5625 63.691406 L 69.265625 68.445312 Z M 46.460938 98.191406 L 39.660156 94.617188 L 32.882812 98.269531 L 34.621094 91.4375 L 28.597656 86.863281 L 36.472656 86.210938 L 39.53125 79.726562 L 42.660156 86.15625 L 50.570312 86.730469 L 44.628906 91.351562 Z M 46.460938 98.191406 "/>
</g>
</svg>
