<?xml version="1.0" encoding="UTF-8"?>
<svg xmlns="http://www.w3.org/2000/svg" xmlns:xlink="http://www.w3.org/1999/xlink" width="255pt" height="170pt" viewBox="0 0 255 170" version="1.1">
<g id="surface1">
<path style=" stroke:none;fill-rule:nonzero;fill:rgb(100%,0%,0%);fill-opacity:1;" d="M 102 0 L 255 0 L 255 170 L 102 170 Z M 102 0 "/>
<path style=" stroke:none;fill-rule:nonzero;fill:rgb(0%,40%,0%);fill-opacity:1;" d="M 0 0 L 102 0 L 102 170 L 0 170 Z M 0 0 "/>
<path style="fill-rule:evenodd;fill:rgb(100%,100%,0%);fill-opacity:1;stroke-width:0.611;stroke-linecap:round;stroke-linejoin:round;stroke:rgb(0%,0%,0%);stroke-opacity:1;stroke-miterlimit:4;" d="M 339.460784 306.176471 C 307.235294 305.205882 159.470588 212.966912 158.45098 198.286765 L 166.617647 184.676471 C 181.27451 205.974265 332.333333 295.676471 347.166667 292.5 L 339.460784 306.176471 " transform="matrix(0.398438,0,0,0.354167,0,0)"/>
<path style="fill-rule:evenodd;fill:rgb(100%,100%,0%);fill-opacity:1;stroke-width:0.611;stroke-linecap:round;stroke-linejoin:round;stroke:rgb(0%,0%,0%);stroke-opacity:1;stroke-miterlimit:4;" d="M 164.892157 182.823529 C 162.009804 190.610294 203.460784 216.231618 253.323529 246.5625 C 303.196078 276.893382 346.196078 295.632353 349.382353 292.952206 C 349.578431 292.599265 350.95098 290.238971 350.823529 290.261029 C 350.22549 291.154412 348.77451 291.441176 346.509804 290.790441 C 333.029412 286.897059 297.892157 270.772059 254.372549 244.378676 C 210.852941 217.985294 172.990196 193.665441 167.107843 183.330882 C 166.696078 182.613971 166.411765 181.3125 166.460784 180.297794 L 166.323529 180.297794 L 165.068627 182.481618 Z M 340.215686 306.606618 C 339.666667 307.588235 338.647059 307.632353 336.715686 307.411765 C 324.656863 306.077206 288.088235 288.297794 244.803922 262.389706 C 194.45098 232.246324 152.862745 204.772059 157.372549 197.591912 L 158.598039 195.430147 L 158.843137 195.507353 C 154.784314 207.672794 240.921569 256.919118 245.990196 260.0625 C 295.833333 290.933824 337.843137 308.966912 341.568627 304.279412 Z M 340.215686 306.606618 " transform="matrix(0.398438,0,0,0.354167,0,0)"/>
<path style="fill-rule:evenodd;fill:rgb(100%,100%,0%);fill-opacity:1;stroke-width:0.611;stroke-linecap:round;stroke-linejoin:round;stroke:rgb(0%,0%,0%);stroke-opacity:1;stroke-miterlimit:4;" d="M 256.176471 207.176471 C 288.431373 206.922794 328.235294 202.764706 351.137255 193.643382 L 346.205882 185.625 C 332.666667 193.113971 292.647059 198.044118 255.911765 198.783088 C 212.460784 198.386029 181.784314 194.338235 166.421569 184.025735 L 161.754902 192.5625 C 190.009804 204.518382 218.960784 207.055147 256.176471 207.176471 " transform="matrix(0.398438,0,0,0.354167,0,0)"/>
<path style="fill-rule:evenodd;fill:rgb(100%,100%,0%);fill-opacity:1;stroke-width:0.611;stroke-linecap:round;stroke-linejoin:round;stroke:rgb(0%,0%,0%);stroke-opacity:1;stroke-miterlimit:4;" d="M 352.470588 193.819853 C 351.676471 195.088235 336.745098 200.238971 314.735294 204.033088 C 299.813725 206.316176 280.352941 208.257353 256.068627 208.279412 C 232.990196 208.301471 214.137255 206.658088 199.872549 204.727941 C 176.77451 201.099265 164.852941 196.069853 160.441176 194.283088 C 160.862745 193.444853 161.137255 192.860294 161.539216 192.077206 C 174.22549 197.128676 186.205882 200.172794 200.235294 202.334559 C 214.411765 204.253676 233.039216 205.919118 256 205.897059 C 280.176471 205.875 299.421569 203.779412 314.254902 201.573529 C 336.823529 197.933824 349.147059 193.246324 350.882353 191.073529 Z M 348.137255 185.691176 C 345.696078 187.654412 333.509804 191.977941 312.068627 195.408088 C 297.754902 197.448529 279.558824 199.290441 256.313725 199.3125 C 234.235294 199.334559 216.186275 197.845588 202.460784 195.849265 C 180.686275 193.003676 169.098039 187.875 164.921569 186.375 C 165.333333 185.658088 165.764706 184.941176 166.196078 184.224265 C 169.441176 185.867647 180.627451 190.400735 202.705882 193.533088 C 216.27451 195.452206 234.343137 196.886029 256.313725 196.863971 C 279.45098 196.841912 297.441176 194.977941 311.656863 192.9375 C 333.205882 189.970588 344.803922 184.455882 346.568627 183.077206 Z M 150.27451 246.033088 C 170.107843 256.709559 214.176471 262.080882 255.862745 262.455882 C 293.833333 262.511029 343.284314 256.588235 361.784314 246.783088 L 361.27451 236.106618 C 355.490196 245.150735 302.490196 253.819853 255.45098 253.466912 C 208.421569 253.113971 164.745098 245.845588 150.186275 236.448529 L 150.27451 246.033088 " transform="matrix(0.398438,0,0,0.354167,0,0)"/>
<path style="fill-rule:evenodd;fill:rgb(100%,100%,0%);fill-opacity:1;stroke-width:0.611;stroke-linecap:round;stroke-linejoin:round;stroke:rgb(0%,0%,0%);stroke-opacity:1;stroke-miterlimit:4;" d="M 362.794118 244.5 L 362.794118 247.047794 C 360.019608 250.367647 342.588235 255.397059 320.72549 258.9375 C 304.098039 261.485294 282.401961 263.404412 255.382353 263.404412 C 229.705882 263.404412 209.235294 261.573529 193.362745 259.136029 C 168.254902 255.485294 152.205882 249.088235 148.980392 247.169118 L 149 244.202206 C 158.676471 250.643382 184.901961 255.341912 193.705882 256.786765 C 209.480392 259.202206 229.833333 261.022059 255.382353 261.022059 C 282.27451 261.022059 303.843137 259.113971 320.372549 256.577206 C 336.058824 254.316176 358.392157 248.426471 362.794118 244.5 Z M 362.803922 235.444853 L 362.803922 237.992647 C 360.029412 241.3125 342.598039 246.330882 320.735294 249.871324 C 304.107843 252.419118 282.421569 254.349265 255.392157 254.349265 C 229.715686 254.349265 209.245098 252.518382 193.372549 250.080882 C 168.27451 246.430147 152.215686 240.022059 148.990196 238.113971 L 149.009804 235.147059 C 158.686275 241.577206 184.911765 246.286765 193.72549 247.720588 C 209.490196 250.147059 229.843137 251.966912 255.392157 251.966912 C 282.284314 251.966912 303.852941 250.058824 320.382353 247.522059 C 336.068627 245.25 358.401961 239.360294 362.803922 235.444853 Z M 255.77451 304.334559 C 210.156863 304.069853 171.058824 291.904412 162.803922 289.897059 L 168.823529 299.316176 C 183.401961 305.448529 221.539216 314.591912 256.215686 313.577206 C 290.882353 312.573529 321.186275 309.882353 342.539216 299.492647 L 348.705882 289.720588 C 334.156863 296.580882 284.637255 304.268382 255.77451 304.345588 " transform="matrix(0.398438,0,0,0.354167,0,0)"/>
<path style="fill-rule:evenodd;fill:rgb(100%,100%,0%);fill-opacity:1;stroke-width:0.587;stroke-linecap:round;stroke-linejoin:round;stroke:rgb(0%,0%,0%);stroke-opacity:1;stroke-miterlimit:4;" d="M 344.852941 297.297794 C 343.95098 298.676471 343.029412 300.044118 342.078431 301.389706 C 332.009804 304.941176 316.147059 308.669118 309.45098 309.75 C 295.764706 312.573529 274.607843 314.658088 255.823529 314.658088 C 215.401961 314.073529 182.323529 306.154412 166.754902 299.415441 L 165.5 297.253676 L 165.705882 296.922794 L 167.833333 297.75 C 195.519608 307.654412 226.598039 311.602941 256.04902 312.319853 C 274.754902 312.386029 293.480392 310.169118 308.627451 307.466912 C 331.852941 302.8125 341.235294 299.305147 344.117647 297.716912 Z M 350.205882 288.474265 C 350.22549 288.507353 350.254902 288.529412 350.27451 288.5625 C 349.588235 289.720588 348.892157 290.878676 348.186275 292.036765 C 342.813725 293.955882 328.235294 298.224265 306.941176 301.202206 C 292.921569 303.110294 284.205882 304.963235 256.303922 305.503676 C 204.019608 304.169118 170.166667 293.944853 162.127451 291.430147 L 160.931373 289.136029 C 191.235294 297.055147 222.186275 302.569853 256.303922 303.132353 C 281.833333 302.591912 292.686275 300.716912 306.598039 298.819853 C 331.421569 294.959559 343.931373 290.867647 347.686275 289.6875 C 347.627451 289.621324 347.578431 289.544118 347.519608 289.477941 Z M 350.205882 288.474265 " transform="matrix(0.398438,0,0,0.354167,0,0)"/>
<path style="fill-rule:evenodd;fill:rgb(100%,100%,0%);fill-opacity:1;stroke-width:0.611;stroke-linecap:round;stroke-linejoin:round;stroke:rgb(0%,0%,0%);stroke-opacity:1;stroke-miterlimit:4;" d="M 350.754902 237.606618 C 350.901961 267.617647 335.539216 294.551471 323.166667 306.441176 C 305.666667 323.25 282.460784 334.058824 255.362745 334.555147 C 225.107843 335.117647 196.568627 315.386029 188.911765 306.716912 C 173.95098 289.775735 161.77451 268.257353 161.382353 239.261029 C 163.235294 206.503676 176.088235 183.683824 194.735294 168.044118 C 213.372549 152.393382 238.186275 144.772059 258.862745 145.3125 C 282.705882 145.941176 310.568627 157.643382 329.813725 180.871324 C 342.421569 196.091912 347.892157 212.602941 350.754902 237.606618 Z M 255.617647 134.845588 C 313.735294 134.845588 361.539216 182.139706 361.539216 240.132353 C 361.539216 298.113971 313.735294 345.408088 255.617647 345.408088 C 197.5 345.408088 150.098039 298.113971 150.098039 240.132353 C 150.098039 182.139706 197.5 134.845588 255.617647 134.845588 " transform="matrix(0.398438,0,0,0.354167,0,0)"/>
<path style="fill-rule:evenodd;fill:rgb(100%,100%,0%);fill-opacity:1;stroke-width:0.611;stroke-linecap:round;stroke-linejoin:round;stroke:rgb(0%,0%,0%);stroke-opacity:1;stroke-miterlimit:4;" d="M 255.901961 134.481618 C 314.078431 134.481618 361.519608 181.930147 361.519608 240.110294 C 361.519608 298.279412 314.068627 345.727941 255.901961 345.727941 C 197.735294 345.727941 150.294118 298.279412 150.294118 240.110294 C 150.294118 181.930147 197.735294 134.481618 255.901961 134.481618 Z M 152.617647 240.110294 C 152.617647 296.922794 199.264706 343.411765 255.901961 343.411765 C 312.539216 343.411765 359.196078 296.922794 359.196078 240.110294 C 359.196078 183.297794 312.539216 136.808824 255.901961 136.808824 C 199.264706 136.808824 152.617647 183.297794 152.617647 240.110294 Z M 152.617647 240.110294 " transform="matrix(0.398438,0,0,0.354167,0,0)"/>
<path style="fill-rule:evenodd;fill:rgb(100%,100%,0%);fill-opacity:1;stroke-width:0.611;stroke-linecap:round;stroke-linejoin:round;stroke:rgb(0%,0%,0%);stroke-opacity:1;stroke-miterlimit:4;" d="M 255.990196 143.261029 C 309.039216 143.261029 352.72549 186.805147 352.72549 240.011029 C 352.72549 293.227941 309.039216 336.761029 255.990196 336.761029 C 202.941176 336.761029 159.254902 293.227941 159.254902 240.011029 C 159.254902 186.805147 202.941176 143.261029 255.990196 143.261029 Z M 161.568627 240.011029 C 161.568627 291.948529 204.215686 334.444853 255.990196 334.444853 C 307.754902 334.444853 350.401961 291.948529 350.401961 240.011029 C 350.401961 188.084559 307.764706 145.588235 255.990196 145.588235 C 204.215686 145.588235 161.568627 188.084559 161.568627 240.011029 Z M 161.568627 240.011029 " transform="matrix(0.398438,0,0,0.354167,0,0)"/>
<path style="fill-rule:evenodd;fill:rgb(100%,100%,0%);fill-opacity:1;stroke-width:0.611;stroke-linecap:round;stroke-linejoin:round;stroke:rgb(0%,0%,0%);stroke-opacity:1;stroke-miterlimit:4;" d="M 260.245098 134.0625 L 251.196078 134.0625 L 251.205882 346.279412 L 260.284314 346.279412 Z M 260.245098 134.0625 " transform="matrix(0.398438,0,0,0.354167,0,0)"/>
<path style="fill-rule:evenodd;fill:rgb(100%,100%,0%);fill-opacity:1;stroke-width:0.611;stroke-linecap:round;stroke-linejoin:round;stroke:rgb(0%,0%,0%);stroke-opacity:1;stroke-miterlimit:4;" d="M 259.343137 132.849265 L 261.637255 132.849265 L 261.666667 347.514706 L 259.352941 347.514706 Z M 250.352941 132.849265 L 252.676471 132.849265 L 252.676471 347.514706 L 250.362745 347.514706 L 250.362745 132.849265 Z M 250.352941 132.849265 " transform="matrix(0.398438,0,0,0.354167,0,0)"/>
<path style="fill-rule:evenodd;fill:rgb(100%,100%,0%);fill-opacity:1;stroke-width:0.611;stroke-linecap:round;stroke-linejoin:round;stroke:rgb(0%,0%,0%);stroke-opacity:1;stroke-miterlimit:4;" d="M 361.588235 244.202206 L 361.588235 236.349265 L 355.196078 230.404412 L 318.931373 220.797794 L 266.666667 215.470588 L 203.735294 218.669118 L 158.931373 229.334559 L 149.892157 236.029412 L 149.892157 243.882353 L 172.803922 233.602941 L 227.196078 225.066176 L 279.470588 225.066176 L 317.862745 229.334559 L 344.529412 235.731618 Z M 361.588235 244.202206 " transform="matrix(0.398438,0,0,0.354167,0,0)"/>
<path style="fill-rule:evenodd;fill:rgb(100%,100%,0%);fill-opacity:1;stroke-width:0.611;stroke-linecap:round;stroke-linejoin:round;stroke:rgb(0%,0%,0%);stroke-opacity:1;stroke-miterlimit:4;" d="M 255.95098 223.753676 C 280.892157 223.709559 305.088235 226.113971 324.284314 229.852941 C 344.088235 233.8125 358.029412 238.764706 362.794118 244.334559 L 362.784314 247.091912 C 357.039216 240.165441 338.284314 235.091912 323.833333 232.191176 C 304.784314 228.485294 280.754902 226.091912 255.941176 226.136029 C 229.77451 226.180147 205.401961 228.661765 186.627451 232.323529 C 171.568627 235.3125 151.480392 241.246324 148.970588 247.102941 L 148.970588 244.235294 C 150.352941 240.1875 165.303922 234.132353 186.294118 229.930147 C 205.205882 226.235294 229.617647 223.797794 255.95098 223.753676 Z M 255.960784 214.698529 C 280.901961 214.654412 305.098039 217.058824 324.294118 220.797794 C 344.098039 224.757353 358.039216 229.709559 362.803922 235.268382 L 362.803922 238.025735 C 357.04902 231.110294 338.294118 226.025735 323.843137 223.125 C 304.794118 219.419118 280.764706 217.025735 255.960784 217.080882 C 229.784314 217.125 205.529412 219.606618 186.754902 223.268382 C 172.22549 226.025735 151.313725 232.191176 148.980392 238.047794 L 148.980392 235.180147 C 150.362745 231.165441 165.617647 224.900735 186.303922 220.875 C 205.215686 217.180147 229.627451 214.742647 255.960784 214.698529 Z M 255.441176 168.485294 C 294.754902 168.297794 329.039216 173.988971 344.715686 182.018382 L 350.441176 191.922794 C 336.803922 184.577206 299.823529 176.933824 255.5 178.069853 C 219.392157 178.301471 180.803922 182.051471 161.45098 192.375 L 168.27451 180.959559 C 184.166667 172.709559 221.637255 168.540441 255.45098 168.496324 " transform="matrix(0.398438,0,0,0.354167,0,0)"/>
<path style="fill-rule:evenodd;fill:rgb(100%,100%,0%);fill-opacity:1;stroke-width:0.611;stroke-linecap:round;stroke-linejoin:round;stroke:rgb(0%,0%,0%);stroke-opacity:1;stroke-miterlimit:4;" d="M 255.970588 176.658088 C 278.382353 176.602941 300.04902 177.871324 317.27451 180.970588 C 333.323529 183.959559 348.617647 188.4375 350.803922 190.852941 L 352.5 193.852941 C 347.186275 190.378676 333.941176 186.507353 316.941176 183.286765 C 299.872549 180.077206 278.22549 179.007353 255.931373 179.073529 C 230.627451 178.985294 210.970588 180.319853 194.098039 183.264706 C 176.254902 186.595588 163.872549 191.371324 160.813725 193.632353 L 162.480392 190.466912 C 168.411765 187.433824 177.833333 183.794118 193.647059 180.9375 C 211.098039 177.75 230.970588 176.801471 255.970588 176.658088 Z M 255.960784 167.613971 C 277.411765 167.558824 298.598039 168.75 315.107843 171.716912 C 328.127451 174.253676 341.009804 178.213235 345.72549 181.731618 L 348.205882 185.680147 C 343.990196 180.992647 328.117647 176.547794 314.098039 174.055147 C 297.715686 171.231618 277.411765 170.117647 255.960784 169.930147 C 233.441176 169.996324 212.637255 171.375 196.490196 174.319853 C 181.088235 177.242647 171.147059 180.716912 166.941176 183.430147 L 169.117647 180.132353 C 174.921569 177.077206 184.303922 174.275735 196.107843 171.981618 C 212.372549 169.014706 233.313725 167.669118 255.960784 167.613971 Z M 308.431373 284.007353 C 288.990196 280.378676 269.529412 279.860294 255.931373 280.014706 C 190.431373 280.786765 169.264706 293.470588 166.686275 297.308824 L 161.794118 289.323529 C 178.470588 277.235294 214.137255 270.463235 256.284314 271.158088 C 278.166667 271.511029 297.058824 272.966912 312.941176 276.044118 L 308.421569 284.018382 " transform="matrix(0.398438,0,0,0.354167,0,0)"/>
<path style="fill-rule:evenodd;fill:rgb(100%,100%,0%);fill-opacity:1;stroke-width:0.587;stroke-linecap:round;stroke-linejoin:round;stroke:rgb(0%,0%,0%);stroke-opacity:1;stroke-miterlimit:4;" d="M 255.54902 278.889706 C 273.77451 279.165441 291.656863 279.915441 308.921569 283.136029 L 307.666667 285.341912 C 291.637255 282.386029 274.54902 281.25 255.617647 281.338235 C 231.441176 281.150735 206.990196 283.411765 185.705882 289.522059 C 178.990196 291.386029 167.872549 295.709559 166.735294 299.272059 L 165.490196 297.220588 C 165.852941 295.113971 172.568627 290.735294 185.127451 287.205882 C 209.509804 280.224265 232.323529 279.044118 255.54902 278.889706 Z M 256.382353 269.724265 C 275.254902 270.077206 294.754902 270.948529 313.705882 274.698529 L 312.401961 277.003676 C 295.284314 273.606618 278.941176 272.470588 256.490196 272.128676 C 232.235294 272.172794 206.519608 273.893382 183.127451 280.698529 C 175.578431 282.893382 162.539216 287.658088 162.107843 291.419118 L 160.862745 289.213235 C 161.147059 285.794118 172.431373 281.338235 182.578431 278.382353 C 206.147059 271.533088 231.941176 269.768382 256.382353 269.724265 Z M 256.382353 269.724265 " transform="matrix(0.398438,0,0,0.354167,0,0)"/>
<path style="fill-rule:evenodd;fill:rgb(100%,100%,0%);fill-opacity:1;stroke-width:0.611;stroke-linecap:round;stroke-linejoin:round;stroke:rgb(0%,0%,0%);stroke-opacity:1;stroke-miterlimit:4;" d="M 349.421569 290.536765 L 341.54902 302.746324 L 318.931373 282.661765 L 260.264706 243.198529 L 194.137255 206.933824 L 159.794118 195.1875 L 167.117647 181.621324 L 169.598039 180.264706 L 190.931373 185.602941 L 261.333333 221.867647 L 301.862745 247.466912 L 336 271.996324 L 349.862745 288 Z M 349.421569 290.536765 " transform="matrix(0.398438,0,0,0.354167,0,0)"/>
<path style="fill-rule:evenodd;fill:rgb(100%,100%,0%);fill-opacity:1;stroke-width:0.611;stroke-linecap:round;stroke-linejoin:round;stroke:rgb(0%,0%,0%);stroke-opacity:1;stroke-miterlimit:4;" d="M 158.558824 195.507353 C 164.578431 191.426471 208.843137 211.136029 255.156863 239.0625 C 301.343137 267.066176 345.470588 298.720588 341.490196 304.632353 L 340.176471 306.694853 L 339.578431 307.169118 C 339.705882 307.080882 340.372549 306.264706 339.509804 304.069853 C 337.54902 297.595588 306.235294 272.613971 254.294118 241.257353 C 203.656863 211.058824 161.45098 192.860294 157.22549 198.055147 Z M 351.029412 290.360294 C 354.833333 282.838235 313.784314 251.922794 262.892157 221.8125 C 210.823529 192.297794 173.294118 174.926471 166.441176 180.110294 L 164.921569 182.878676 C 164.901961 183.033088 164.970588 182.691176 165.294118 182.4375 C 166.539216 181.356618 168.607843 181.422794 169.539216 181.411765 C 181.343137 181.588235 215.04902 197.095588 262.343137 224.216912 C 283.068627 236.283088 349.882353 279.132353 349.627451 291.1875 C 349.647059 292.224265 349.715686 292.433824 349.323529 292.952206 Z M 351.029412 290.360294 " transform="matrix(0.398438,0,0,0.354167,0,0)"/>
<path style="fill-rule:nonzero;fill:rgb(100%,100%,100%);fill-opacity:1;stroke-width:0.67;stroke-linecap:butt;stroke-linejoin:miter;stroke:rgb(0%,0%,0%);stroke-opacity:1;stroke-miterlimit:4;" d="M 180.596862 211.011206 C 180.596862 227.276091 187.260444 242.00031 198.060043 252.753953 C 208.868833 263.528276 223.565478 270.332023 239.870574 270.332023 C 256.249199 270.332023 271.111285 263.673036 281.88331 252.940074 C 292.655335 242.207111 299.328109 227.389832 299.328109 211.062907 L 299.328109 131.868531 L 180.587671 131.73411 Z M 180.596862 211.011206 " transform="matrix(0.425001,0,0,0.377779,0,9.444563)"/>
<path style="fill-rule:nonzero;fill:rgb(100%,0%,0%);fill-opacity:1;stroke-width:0.507;stroke-linecap:butt;stroke-linejoin:miter;stroke:rgb(0%,0%,0%);stroke-opacity:1;stroke-miterlimit:4;" d="M 182.82112 211.124947 L 182.82112 211.166307 C 182.82112 226.717729 189.264114 240.893926 199.594965 251.171926 C 209.953388 261.480948 224.208858 267.881433 239.806236 267.881433 C 255.486334 267.881433 269.723422 261.522308 280.026698 251.264987 C 290.339166 240.997326 296.727014 226.831469 296.727014 211.218007 L 296.727014 134.391501 L 182.885458 134.370821 L 182.82112 211.124947 M 273.841056 157.367073 L 273.841056 206.265127 L 273.804291 211.435148 C 273.804291 212.800034 273.721571 214.35104 273.565322 215.664225 C 272.637016 223.398576 269.080041 230.129943 263.813514 235.372344 C 257.655445 241.514328 249.144442 245.319463 239.769471 245.319463 C 230.440456 245.319463 222.131659 241.379907 215.946016 235.217243 C 209.594933 228.899478 205.909283 220.234523 205.909283 211.269707 L 205.900092 157.253332 L 273.841056 157.367073 L 273.841056 157.377413 Z M 273.841056 157.367073 " transform="matrix(0.425001,0,0,0.377779,0,9.444563)"/>
<path style=" stroke:none;fill-rule:nonzero;fill:rgb(100%,100%,0%);fill-opacity:1;" d="M 80.832031 67.785156 C 80.886719 65.699219 82.554688 65.207031 82.566406 65.199219 C 82.578125 65.191406 84.363281 65.730469 84.359375 67.804688 L 80.832031 67.785156 "/>
<path style="fill-rule:nonzero;fill:rgb(100%,100%,0%);fill-opacity:1;stroke-width:0.5;stroke-linecap:butt;stroke-linejoin:miter;stroke:rgb(0%,0%,0%);stroke-opacity:1;stroke-miterlimit:4;" d="M 186.810078 147.688794 L 186.129933 154.037579 L 190.26595 154.047919 C 190.311905 148.795178 194.245717 147.916275 194.337628 147.936955 C 194.429539 147.936955 198.326586 149.10538 198.427689 154.047919 L 202.582088 154.047919 L 201.828413 147.647434 Z M 185.854199 154.058259 L 202.793484 154.058259 C 203.151939 154.058259 203.446055 154.409821 203.446055 154.844103 C 203.446055 155.278384 203.151939 155.619606 202.793484 155.619606 L 185.854199 155.619606 C 185.495744 155.619606 185.201627 155.278384 185.201627 154.844103 C 185.201627 154.409821 185.495744 154.058259 185.854199 154.058259 Z M 185.854199 154.058259 " transform="matrix(0.425001,0,0,0.377779,0,9.444563)"/>
<path style="fill-rule:nonzero;fill:rgb(100%,100%,0%);fill-opacity:1;stroke-width:0.5;stroke-linecap:butt;stroke-linejoin:miter;stroke:rgb(0%,0%,0%);stroke-opacity:1;stroke-miterlimit:4;" d="M 192.012268 154.027239 C 192.03065 150.718426 194.27329 149.777482 194.282481 149.777482 C 194.282481 149.777482 196.626224 150.749446 196.644606 154.027239 L 192.012268 154.027239 M 186.212653 145.052083 L 202.453411 145.052083 C 202.793484 145.052083 203.078409 145.372625 203.078409 145.755206 C 203.078409 146.137788 202.793484 146.458329 202.453411 146.458329 L 186.212653 146.458329 C 185.872581 146.458329 185.587655 146.148128 185.587655 145.755206 C 185.587655 145.362285 185.86339 145.052083 186.212653 145.052083 Z M 186.552726 146.468669 L 202.085766 146.468669 C 202.416647 146.468669 202.68319 146.78921 202.68319 147.171792 C 202.68319 147.564713 202.416647 147.874915 202.085766 147.874915 L 186.552726 147.874915 C 186.221845 147.874915 185.955301 147.564713 185.955301 147.171792 C 185.955301 146.78921 186.221845 146.468669 186.552726 146.468669 Z M 191.571093 135.880467 L 192.793515 135.880467 L 192.793515 136.74903 L 193.694248 136.74903 L 193.694248 135.859787 L 194.953435 135.870127 L 194.953435 136.74903 L 195.844976 136.74903 L 195.844976 135.859787 L 197.104163 135.859787 L 197.104163 137.876095 C 197.104163 138.186296 196.846811 138.393097 196.552695 138.393097 L 192.140944 138.393097 C 191.846827 138.393097 191.571093 138.155276 191.571093 137.865755 Z M 196.19424 138.568878 L 196.469974 145.021063 L 192.168517 145.000383 L 192.453443 138.548198 L 196.185049 138.568878 " transform="matrix(0.425001,0,0,0.377779,0,9.444563)"/>
<path style="fill-rule:nonzero;fill:rgb(100%,100%,0%);fill-opacity:1;stroke-width:0.5;stroke-linecap:butt;stroke-linejoin:miter;stroke:rgb(0%,0%,0%);stroke-opacity:1;stroke-miterlimit:4;" d="M 190.936903 141.55715 L 191.065579 145.041743 L 186.947945 145.041743 L 187.058239 141.55715 L 190.946094 141.55715 Z M 190.936903 141.55715 " transform="matrix(0.425001,0,0,0.377779,0,9.444563)"/>
<path style="fill-rule:nonzero;fill:rgb(100%,100%,0%);fill-opacity:1;stroke-width:0.5;stroke-linecap:butt;stroke-linejoin:miter;stroke:rgb(0%,0%,0%);stroke-opacity:1;stroke-miterlimit:4;" d="M 190.943679 141.55715 L 191.072355 145.041743 L 186.94553 145.041743 L 187.065015 141.55715 Z M 190.943679 141.55715 " transform="matrix(0.425001,0,0,0.377779,4.508839,9.444563)"/>
<path style="fill-rule:nonzero;fill:rgb(100%,100%,0%);fill-opacity:1;stroke-width:0.5;stroke-linecap:butt;stroke-linejoin:miter;stroke:rgb(0%,0%,0%);stroke-opacity:1;stroke-miterlimit:4;" d="M 186.304565 139.04452 L 187.499414 139.04452 L 187.499414 139.913083 L 188.372573 139.913083 L 188.372573 139.023839 L 189.604187 139.023839 L 189.604187 139.913083 L 190.486537 139.913083 L 190.486537 139.023839 L 191.718151 139.023839 L 191.718151 141.040147 C 191.718151 141.350349 191.460799 141.55715 191.175873 141.55715 L 186.865225 141.55715 C 186.571108 141.55715 186.304565 141.319329 186.304565 141.029807 Z M 186.304565 139.04452 " transform="matrix(0.425001,0,0,0.377779,0,9.444563)"/>
<path style="fill-rule:nonzero;fill:rgb(100%,100%,0%);fill-opacity:1;stroke-width:0.5;stroke-linecap:butt;stroke-linejoin:miter;stroke:rgb(0%,0%,0%);stroke-opacity:1;stroke-miterlimit:4;" d="M 186.302149 139.04452 L 187.496999 139.04452 L 187.496999 139.913083 L 188.379349 139.913083 L 188.379349 139.023839 L 189.610963 139.023839 L 189.610963 139.913083 L 190.484122 139.913083 L 190.484122 139.023839 L 191.715735 139.023839 L 191.715735 141.040147 C 191.715735 141.350349 191.467574 141.55715 191.173458 141.55715 L 186.862809 141.55715 C 186.568693 141.55715 186.302149 141.319329 186.302149 141.029807 Z M 186.302149 139.04452 " transform="matrix(0.425001,0,0,0.377779,4.508839,9.444563)"/>
<path style=" stroke:none;fill-rule:nonzero;fill:rgb(0%,0%,0%);fill-opacity:1;" d="M 82.40625 62.5625 C 82.398438 62.328125 82.78125 62.324219 82.777344 62.5625 L 82.777344 63.144531 L 82.40625 63.144531 L 82.40625 62.5625 "/>
<path style=" stroke:none;fill-rule:nonzero;fill:rgb(0%,0%,0%);fill-opacity:1;" d="M 80.140625 63.40625 C 80.140625 63.175781 80.5 63.171875 80.492188 63.40625 L 80.492188 63.855469 L 80.140625 63.855469 L 80.140625 63.40625 "/>
<path style=" stroke:none;fill-rule:nonzero;fill:rgb(0%,0%,0%);fill-opacity:1;" d="M 84.664062 63.40625 C 84.664062 63.175781 85.019531 63.171875 85.015625 63.40625 L 85.015625 63.855469 L 84.664062 63.855469 L 84.664062 63.40625 "/>
<path style=" stroke:none;fill-rule:nonzero;fill:rgb(100%,100%,0%);fill-opacity:1;" d="M 80.832031 85.285156 C 80.886719 83.199219 82.554688 82.703125 82.566406 82.695312 C 82.578125 82.691406 84.363281 83.230469 84.359375 85.304688 L 80.832031 85.285156 "/>
<path style="fill-rule:nonzero;fill:rgb(100%,100%,0%);fill-opacity:1;stroke-width:0.5;stroke-linecap:butt;stroke-linejoin:miter;stroke:rgb(0%,0%,0%);stroke-opacity:1;stroke-miterlimit:4;" d="M 186.810078 147.692179 L 186.129933 154.030624 L 190.26595 154.040964 C 190.311905 148.798563 194.245717 147.91966 194.337628 147.94034 C 194.429539 147.94034 198.326586 149.098424 198.427689 154.040964 L 202.582088 154.040964 L 201.828413 147.650818 Z M 185.854199 154.061644 L 202.793484 154.061644 C 203.151939 154.061644 203.446055 154.413205 203.446055 154.847487 C 203.446055 155.271429 203.151939 155.62299 202.793484 155.62299 L 185.854199 155.62299 C 185.495744 155.62299 185.201627 155.271429 185.201627 154.847487 C 185.201627 154.413205 185.495744 154.061644 185.854199 154.061644 Z M 185.854199 154.061644 " transform="matrix(0.425001,0,0,0.377779,0,26.943284)"/>
<path style="fill-rule:nonzero;fill:rgb(100%,100%,0%);fill-opacity:1;stroke-width:0.5;stroke-linecap:butt;stroke-linejoin:miter;stroke:rgb(0%,0%,0%);stroke-opacity:1;stroke-miterlimit:4;" d="M 192.012268 154.030624 C 192.03065 150.721811 194.27329 149.780867 194.282481 149.780867 C 194.282481 149.780867 196.626224 150.752831 196.644606 154.030624 L 192.012268 154.030624 M 186.212653 145.045128 L 202.453411 145.045128 C 202.793484 145.045128 203.078409 145.365669 203.078409 145.758591 C 203.078409 146.141172 202.793484 146.461714 202.453411 146.461714 L 186.212653 146.461714 C 185.872581 146.461714 185.587655 146.141172 185.587655 145.758591 C 185.587655 145.365669 185.86339 145.045128 186.212653 145.045128 Z M 186.552726 146.472054 L 202.085766 146.472054 C 202.416647 146.472054 202.68319 146.782255 202.68319 147.175177 C 202.68319 147.557758 202.416647 147.878299 202.085766 147.878299 L 186.552726 147.878299 C 186.221845 147.878299 185.955301 147.557758 185.955301 147.175177 C 185.955301 146.782255 186.221845 146.472054 186.552726 146.472054 Z M 191.571093 135.883852 L 192.793515 135.883852 L 192.793515 136.752415 L 193.694248 136.752415 L 193.694248 135.863171 L 194.953435 135.863171 L 194.953435 136.752415 L 195.844976 136.752415 L 195.844976 135.863171 L 197.104163 135.863171 L 197.104163 137.869139 C 197.104163 138.189681 196.846811 138.396482 196.552695 138.396482 L 192.140944 138.396482 C 191.846827 138.396482 191.571093 138.158661 191.571093 137.869139 Z M 196.19424 138.572262 L 196.469974 145.024448 L 192.168517 145.003768 L 192.453443 138.551582 L 196.185049 138.572262 " transform="matrix(0.425001,0,0,0.377779,0,26.943284)"/>
<path style="fill-rule:nonzero;fill:rgb(100%,100%,0%);fill-opacity:1;stroke-width:0.5;stroke-linecap:butt;stroke-linejoin:miter;stroke:rgb(0%,0%,0%);stroke-opacity:1;stroke-miterlimit:4;" d="M 190.936903 141.560534 L 191.065579 145.034788 L 186.947945 145.034788 L 187.058239 141.560534 L 190.946094 141.560534 Z M 190.936903 141.560534 " transform="matrix(0.425001,0,0,0.377779,0,26.943284)"/>
<path style="fill-rule:nonzero;fill:rgb(100%,100%,0%);fill-opacity:1;stroke-width:0.5;stroke-linecap:butt;stroke-linejoin:miter;stroke:rgb(0%,0%,0%);stroke-opacity:1;stroke-miterlimit:4;" d="M 190.943679 141.560534 L 191.072355 145.034788 L 186.94553 145.034788 L 187.065015 141.560534 Z M 190.943679 141.560534 " transform="matrix(0.425001,0,0,0.377779,4.508839,26.943284)"/>
<path style="fill-rule:nonzero;fill:rgb(100%,100%,0%);fill-opacity:1;stroke-width:0.5;stroke-linecap:butt;stroke-linejoin:miter;stroke:rgb(0%,0%,0%);stroke-opacity:1;stroke-miterlimit:4;" d="M 186.304565 139.037564 L 187.499414 139.047904 L 187.499414 139.916468 L 188.372573 139.916468 L 188.372573 139.027224 L 189.604187 139.027224 L 189.604187 139.916468 L 190.486537 139.916468 L 190.486537 139.027224 L 191.718151 139.027224 L 191.718151 141.033192 C 191.718151 141.353733 191.460799 141.550194 191.175873 141.550194 L 186.865225 141.550194 C 186.571108 141.550194 186.304565 141.322713 186.304565 141.033192 Z M 186.304565 139.037564 " transform="matrix(0.425001,0,0,0.377779,0,26.943284)"/>
<path style="fill-rule:nonzero;fill:rgb(100%,100%,0%);fill-opacity:1;stroke-width:0.5;stroke-linecap:butt;stroke-linejoin:miter;stroke:rgb(0%,0%,0%);stroke-opacity:1;stroke-miterlimit:4;" d="M 186.302149 139.037564 L 187.496999 139.047904 L 187.496999 139.916468 L 188.379349 139.916468 L 188.379349 139.027224 L 189.610963 139.027224 L 189.610963 139.916468 L 190.484122 139.916468 L 190.484122 139.027224 L 191.715735 139.027224 L 191.715735 141.033192 C 191.715735 141.353733 191.467574 141.550194 191.173458 141.550194 L 186.862809 141.550194 C 186.568693 141.550194 186.302149 141.322713 186.302149 141.033192 Z M 186.302149 139.037564 " transform="matrix(0.425001,0,0,0.377779,4.508839,26.943284)"/>
<path style=" stroke:none;fill-rule:nonzero;fill:rgb(0%,0%,0%);fill-opacity:1;" d="M 82.40625 80.0625 C 82.398438 79.824219 82.78125 79.824219 82.777344 80.0625 L 82.777344 80.644531 L 82.40625 80.644531 L 82.40625 80.0625 "/>
<path style=" stroke:none;fill-rule:nonzero;fill:rgb(0%,0%,0%);fill-opacity:1;" d="M 80.140625 80.90625 C 80.140625 80.675781 80.5 80.671875 80.492188 80.90625 L 80.492188 81.355469 L 80.140625 81.355469 L 80.140625 80.90625 "/>
<path style=" stroke:none;fill-rule:nonzero;fill:rgb(0%,0%,0%);fill-opacity:1;" d="M 84.664062 80.90625 C 84.664062 80.675781 85.019531 80.671875 85.015625 80.90625 L 85.015625 81.355469 L 84.664062 81.355469 L 84.664062 80.90625 "/>
<path style=" stroke:none;fill-rule:nonzero;fill:rgb(100%,100%,0%);fill-opacity:1;" d="M 88.507812 103.496094 C 86.882812 101.992188 87.660156 100.59375 87.664062 100.582031 C 87.667969 100.566406 89.355469 99.820312 91.007812 101.285156 L 88.507812 103.5 "/>
<path style="fill-rule:nonzero;fill:rgb(100%,100%,0%);fill-opacity:1;stroke-width:0.5;stroke-linecap:butt;stroke-linejoin:miter;stroke:rgb(0%,0%,0%);stroke-opacity:1;stroke-miterlimit:4;" d="M 186.809056 147.687528 L 186.131078 154.034008 L 190.26694 154.046152 C 190.312265 148.794175 194.241643 147.92333 194.336614 147.9456 C 194.426832 147.933732 198.325464 149.101078 198.429879 154.048934 L 202.580416 154.046507 L 201.836886 147.647897 Z M 185.847472 154.056567 L 202.799709 154.061903 C 203.150659 154.063141 203.445119 154.418383 203.446052 154.844894 C 203.446986 155.271405 203.156528 155.624585 202.791764 155.624112 L 185.846004 155.625298 C 185.495053 155.624061 185.200594 155.268818 185.19966 154.842307 C 185.198727 154.415796 185.489185 154.062616 185.847472 154.056567 Z M 185.847472 154.056567 " transform="matrix(0.29946,-0.26807,0.301579,0.266187,-15.020344,113.374869)"/>
<path style="fill-rule:nonzero;fill:rgb(100%,100%,0%);fill-opacity:1;stroke-width:0.5;stroke-linecap:butt;stroke-linejoin:miter;stroke:rgb(0%,0%,0%);stroke-opacity:1;stroke-miterlimit:4;" d="M 192.009601 154.025487 C 192.030209 150.715048 194.277345 149.778967 194.283821 149.785489 C 194.283821 149.785489 196.625807 150.749935 196.648361 154.030468 L 192.009601 154.025487 M 186.209891 145.044318 L 202.452889 145.054465 C 202.797363 145.04918 203.080592 145.363764 203.076772 145.756137 C 203.080289 146.141225 202.79889 146.459504 202.454416 146.464789 L 186.211418 146.454642 C 185.866943 146.459927 185.583714 146.145343 185.587535 145.75297 C 185.584018 145.367882 185.865416 145.049603 186.209891 145.044318 Z M 186.547694 146.470451 L 202.082315 146.471601 C 202.412975 146.46708 202.682391 146.782427 202.678571 147.1748 C 202.682088 147.559888 202.414502 147.877404 202.091179 147.874639 L 186.549221 147.880774 C 186.225897 147.87801 185.956481 147.562663 185.952964 147.177575 C 185.956785 146.785202 186.22437 146.467686 186.547694 146.470451 Z M 191.565015 135.87988 L 192.79658 135.887472 L 192.797586 136.754301 L 193.692875 136.746084 L 193.69273 135.865447 L 194.945445 135.864989 L 194.952066 136.752148 L 195.846494 136.757739 L 195.84721 135.863294 L 197.099925 135.862836 L 197.098529 137.871885 C 197.099014 138.19522 196.845655 138.394989 196.549958 138.390697 L 192.137827 138.393826 C 191.848607 138.396056 191.567548 138.157034 191.571817 137.867836 Z M 196.187813 138.568959 L 196.467303 145.013865 L 192.159203 145.004363 L 192.451679 138.548476 L 196.187813 138.568959 " transform="matrix(0.29946,-0.26807,0.301579,0.266187,-15.020344,113.374869)"/>
<path style="fill-rule:nonzero;fill:rgb(100%,100%,0%);fill-opacity:1;stroke-width:0.5;stroke-linecap:butt;stroke-linejoin:miter;stroke:rgb(0%,0%,0%);stroke-opacity:1;stroke-miterlimit:4;" d="M 190.942182 141.562828 L 191.069666 145.03708 L 186.946756 145.03798 L 187.060577 141.557267 Z M 190.942182 141.562828 " transform="matrix(0.29946,-0.26807,0.301579,0.266187,-15.020344,113.374869)"/>
<path style="fill-rule:nonzero;fill:rgb(100%,100%,0%);fill-opacity:1;stroke-width:0.5;stroke-linecap:butt;stroke-linejoin:miter;stroke:rgb(0%,0%,0%);stroke-opacity:1;stroke-miterlimit:4;" d="M 190.939822 141.561227 L 191.067306 145.035479 L 186.944396 145.036379 L 187.064693 141.562188 Z M 190.939822 141.561227 " transform="matrix(0.29946,-0.26807,0.301579,0.266187,-11.843373,110.530913)"/>
<path style="fill-rule:nonzero;fill:rgb(100%,100%,0%);fill-opacity:1;stroke-width:0.5;stroke-linecap:butt;stroke-linejoin:miter;stroke:rgb(0%,0%,0%);stroke-opacity:1;stroke-miterlimit:4;" d="M 186.295238 139.040205 L 187.499176 139.049323 L 187.500182 139.916153 L 188.37432 139.915985 L 188.375036 139.02154 L 189.606601 139.029132 L 189.613222 139.916291 L 190.48736 139.916123 L 190.488076 139.021679 L 191.713164 139.022748 L 191.718244 141.038319 C 191.712253 141.355132 191.458894 141.554901 191.17701 141.549845 L 186.860713 141.561436 C 186.572353 141.549859 186.304247 141.32388 186.30204 141.02816 Z M 186.295238 139.040205 " transform="matrix(0.29946,-0.26807,0.301579,0.266187,-15.020344,113.374869)"/>
<path style="fill-rule:nonzero;fill:rgb(100%,100%,0%);fill-opacity:1;stroke-width:0.5;stroke-linecap:butt;stroke-linejoin:miter;stroke:rgb(0%,0%,0%);stroke-opacity:1;stroke-miterlimit:4;" d="M 186.299354 139.045126 L 187.504153 139.040437 L 187.497822 139.914553 L 188.37196 139.914385 L 188.379152 139.026462 L 189.604241 139.027532 L 189.610862 139.914691 L 190.485 139.914523 L 190.485716 139.020078 L 191.717281 139.02767 L 191.715884 141.036719 C 191.709893 141.353532 191.46301 141.559822 191.181127 141.554766 L 186.86569 141.55255 C 186.576469 141.55478 186.301887 141.322279 186.306156 141.033082 Z M 186.299354 139.045126 " transform="matrix(0.29946,-0.26807,0.301579,0.266187,-11.843373,110.530913)"/>
<path style=" stroke:none;fill-rule:nonzero;fill:rgb(0%,0%,0%);fill-opacity:1;" d="M 85.449219 98.824219 C 85.253906 98.664062 85.519531 98.421875 85.710938 98.59375 L 86.171875 99 L 85.914062 99.234375 L 85.449219 98.824219 "/>
<path style=" stroke:none;fill-rule:nonzero;fill:rgb(0%,0%,0%);fill-opacity:1;" d="M 84.527344 100.847656 C 84.34375 100.6875 84.589844 100.457031 84.773438 100.625 L 85.132812 100.941406 L 84.882812 101.164062 L 84.527344 100.847656 "/>
<path style=" stroke:none;fill-rule:nonzero;fill:rgb(0%,0%,0%);fill-opacity:1;" d="M 87.714844 97.996094 C 87.527344 97.832031 87.777344 97.605469 87.960938 97.773438 L 88.316406 98.089844 L 88.070312 98.308594 L 87.714844 97.996094 "/>
<path style=" stroke:none;fill-rule:nonzero;fill:rgb(100%,100%,0%);fill-opacity:1;" d="M 100.257812 67.785156 C 100.316406 65.699219 101.980469 65.207031 101.992188 65.199219 C 102.007812 65.191406 103.792969 65.730469 103.785156 67.804688 L 100.257812 67.785156 "/>
<path style="fill-rule:nonzero;fill:rgb(100%,100%,0%);fill-opacity:1;stroke-width:0.5;stroke-linecap:butt;stroke-linejoin:miter;stroke:rgb(0%,0%,0%);stroke-opacity:1;stroke-miterlimit:4;" d="M 186.812847 147.688794 L 186.123511 154.037579 L 190.268718 154.047919 C 190.305483 148.795178 194.239294 147.916275 194.340397 147.936955 C 194.432308 147.936955 198.329355 149.10538 198.430458 154.047919 L 202.584856 154.047919 L 201.831182 147.647434 Z M 185.847776 154.058259 L 202.796253 154.058259 C 203.154708 154.058259 203.448824 154.409821 203.448824 154.844103 C 203.448824 155.278384 203.154708 155.619606 202.796253 155.619606 L 185.847776 155.619606 C 185.489322 155.619606 185.204396 155.278384 185.204396 154.844103 C 185.204396 154.409821 185.489322 154.058259 185.847776 154.058259 Z M 185.847776 154.058259 " transform="matrix(0.425001,0,0,0.377779,19.428511,9.444563)"/>
<path style="fill-rule:nonzero;fill:rgb(100%,100%,0%);fill-opacity:1;stroke-width:0.5;stroke-linecap:butt;stroke-linejoin:miter;stroke:rgb(0%,0%,0%);stroke-opacity:1;stroke-miterlimit:4;" d="M 192.005845 154.027239 C 192.024228 150.718426 194.276059 149.777482 194.28525 149.777482 C 194.28525 149.777482 196.628993 150.749446 196.647375 154.027239 L 192.005845 154.027239 M 186.206231 145.052083 L 202.45618 145.052083 C 202.796253 145.052083 203.081178 145.372625 203.081178 145.755206 C 203.081178 146.137788 202.796253 146.458329 202.45618 146.458329 L 186.206231 146.458329 C 185.866159 146.458329 185.590424 146.148128 185.590424 145.755206 C 185.590424 145.362285 185.866159 145.052083 186.206231 145.052083 Z M 186.546304 146.468669 L 202.088534 146.468669 C 202.419416 146.468669 202.685959 146.78921 202.685959 147.171792 C 202.685959 147.564713 202.419416 147.874915 202.088534 147.874915 L 186.546304 147.874915 C 186.224613 147.874915 185.95807 147.564713 185.95807 147.171792 C 185.95807 146.78921 186.224613 146.468669 186.546304 146.468669 Z M 191.573861 135.880467 L 192.796284 135.880467 L 192.796284 136.74903 L 193.687825 136.74903 L 193.687825 135.859787 L 194.947013 135.870127 L 194.947013 136.74903 L 195.847745 136.74903 L 195.847745 135.859787 L 197.106932 135.859787 L 197.097741 137.876095 C 197.097741 138.186296 196.84958 138.393097 196.555463 138.393097 L 192.143713 138.393097 C 191.840405 138.393097 191.573861 138.155276 191.573861 137.865755 L 191.56467 135.880467 Z M 196.187818 138.568878 L 196.463552 145.021063 L 192.162095 145.000383 L 192.44702 138.548198 L 196.187818 138.568878 " transform="matrix(0.425001,0,0,0.377779,19.428511,9.444563)"/>
<path style="fill-rule:nonzero;fill:rgb(100%,100%,0%);fill-opacity:1;stroke-width:0.5;stroke-linecap:butt;stroke-linejoin:miter;stroke:rgb(0%,0%,0%);stroke-opacity:1;stroke-miterlimit:4;" d="M 190.939672 141.55715 L 191.068348 145.041743 L 186.941523 145.041743 L 187.061008 141.55715 Z M 190.939672 141.55715 " transform="matrix(0.425001,0,0,0.377779,19.428511,9.444563)"/>
<path style="fill-rule:nonzero;fill:rgb(100%,100%,0%);fill-opacity:1;stroke-width:0.5;stroke-linecap:butt;stroke-linejoin:miter;stroke:rgb(0%,0%,0%);stroke-opacity:1;stroke-miterlimit:4;" d="M 190.937257 141.55715 L 191.065933 145.041743 L 186.948299 145.041743 L 187.058592 141.55715 L 190.946448 141.55715 Z M 190.937257 141.55715 " transform="matrix(0.425001,0,0,0.377779,23.93735,9.444563)"/>
<path style="fill-rule:nonzero;fill:rgb(100%,100%,0%);fill-opacity:1;stroke-width:0.5;stroke-linecap:butt;stroke-linejoin:miter;stroke:rgb(0%,0%,0%);stroke-opacity:1;stroke-miterlimit:4;" d="M 186.298143 139.04452 L 187.502183 139.04452 L 187.502183 139.913083 L 188.375342 139.913083 L 188.375342 139.023839 L 189.606956 139.023839 L 189.606956 139.913083 L 190.489306 139.913083 L 190.489306 139.023839 L 191.72092 139.023839 L 191.711729 141.040147 C 191.711729 141.350349 191.463568 141.55715 191.178642 141.55715 L 186.858803 141.55715 C 186.573877 141.55715 186.307334 141.319329 186.307334 141.029807 Z M 186.298143 139.04452 " transform="matrix(0.425001,0,0,0.377779,19.428511,9.444563)"/>
<path style="fill-rule:nonzero;fill:rgb(100%,100%,0%);fill-opacity:1;stroke-width:0.5;stroke-linecap:butt;stroke-linejoin:miter;stroke:rgb(0%,0%,0%);stroke-opacity:1;stroke-miterlimit:4;" d="M 186.295727 139.04452 L 187.499767 139.04452 L 187.499767 139.913083 L 188.372927 139.913083 L 188.372927 139.023839 L 189.60454 139.023839 L 189.60454 139.913083 L 190.48689 139.913083 L 190.48689 139.023839 L 191.718504 139.023839 L 191.718504 141.040147 C 191.718504 141.350349 191.461152 141.55715 191.176227 141.55715 L 186.865578 141.55715 C 186.571462 141.55715 186.304918 141.319329 186.304918 141.029807 Z M 186.295727 139.04452 " transform="matrix(0.425001,0,0,0.377779,23.93735,9.444563)"/>
<path style=" stroke:none;fill-rule:nonzero;fill:rgb(0%,0%,0%);fill-opacity:1;" d="M 101.835938 62.5625 C 101.824219 62.328125 102.210938 62.324219 102.203125 62.5625 L 102.203125 63.144531 L 101.835938 63.144531 L 101.835938 62.5625 "/>
<path style=" stroke:none;fill-rule:nonzero;fill:rgb(0%,0%,0%);fill-opacity:1;" d="M 99.570312 63.40625 C 99.570312 63.175781 99.925781 63.171875 99.921875 63.40625 L 99.921875 63.855469 L 99.570312 63.855469 L 99.570312 63.40625 "/>
<path style=" stroke:none;fill-rule:nonzero;fill:rgb(0%,0%,0%);fill-opacity:1;" d="M 104.09375 63.40625 C 104.09375 63.175781 104.449219 63.171875 104.445312 63.40625 L 104.445312 63.855469 L 104.09375 63.855469 L 104.09375 63.40625 "/>
<path style=" stroke:none;fill-rule:nonzero;fill:rgb(100%,100%,0%);fill-opacity:1;" d="M 123.082031 67.785156 C 123.023438 65.699219 121.359375 65.207031 121.347656 65.199219 C 121.335938 65.191406 119.546875 65.730469 119.554688 67.804688 L 123.082031 67.785156 "/>
<path style="fill-rule:nonzero;fill:rgb(100%,100%,0%);fill-opacity:1;stroke-width:0.5;stroke-linecap:butt;stroke-linejoin:miter;stroke:rgb(0%,0%,0%);stroke-opacity:1;stroke-miterlimit:4;" d="M 186.805783 147.688794 L 186.125638 154.037579 L 190.270846 154.047919 C 190.307611 148.795178 194.241422 147.916275 194.342524 147.936955 C 194.425245 147.936955 198.331483 149.10538 198.432585 154.047919 L 202.586984 154.047919 L 201.83331 147.647434 L 186.814974 147.688794 Z M 185.849904 154.058259 L 202.79838 154.058259 C 203.156835 154.058259 203.441761 154.409821 203.441761 154.844103 C 203.441761 155.278384 203.156835 155.619606 202.79838 155.619606 L 185.849904 155.619606 C 185.491449 155.619606 185.197332 155.278384 185.197332 154.844103 C 185.197332 154.409821 185.491449 154.058259 185.849904 154.058259 Z M 185.849904 154.058259 " transform="matrix(-0.425001,0,0,0.377779,203.912237,9.444563)"/>
<path style="fill-rule:nonzero;fill:rgb(100%,100%,0%);fill-opacity:1;stroke-width:0.5;stroke-linecap:butt;stroke-linejoin:miter;stroke:rgb(0%,0%,0%);stroke-opacity:1;stroke-miterlimit:4;" d="M 192.007973 154.027239 C 192.026355 150.718426 194.268995 149.777482 194.287377 149.777482 C 194.287377 149.777482 196.621929 150.749446 196.640311 154.027239 L 192.007973 154.027239 M 186.208359 145.052083 L 202.458308 145.052083 C 202.79838 145.052083 203.074115 145.372625 203.074115 145.755206 C 203.074115 146.137788 202.79838 146.458329 202.458308 146.458329 L 186.208359 146.458329 C 185.868286 146.458329 185.583361 146.148128 185.583361 145.755206 C 185.583361 145.362285 185.868286 145.052083 186.208359 145.052083 Z M 186.548431 146.468669 L 202.090662 146.468669 C 202.412352 146.468669 202.678895 146.78921 202.678895 147.171792 C 202.678895 147.564713 202.412352 147.874915 202.090662 147.874915 L 186.548431 147.874915 C 186.226741 147.874915 185.951006 147.564713 185.951006 147.171792 C 185.951006 146.78921 186.226741 146.468669 186.548431 146.468669 Z M 191.566798 135.880467 L 192.798412 135.880467 L 192.798412 136.74903 L 193.689953 136.74903 L 193.689953 135.859787 L 194.94914 135.870127 L 194.94914 136.74903 L 195.840681 136.74903 L 195.840681 135.859787 L 197.099869 135.859787 L 197.099869 137.876095 C 197.099869 138.186296 196.842517 138.393097 196.5484 138.393097 L 192.136649 138.393097 C 191.842532 138.393097 191.566798 138.155276 191.566798 137.865755 Z M 196.189945 138.568878 L 196.46568 145.021063 L 192.164222 145.000383 L 192.449148 138.548198 L 196.189945 138.568878 " transform="matrix(-0.425001,0,0,0.377779,203.912237,9.444563)"/>
<path style="fill-rule:nonzero;fill:rgb(100%,100%,0%);fill-opacity:1;stroke-width:0.5;stroke-linecap:butt;stroke-linejoin:miter;stroke:rgb(0%,0%,0%);stroke-opacity:1;stroke-miterlimit:4;" d="M 190.9418 141.55715 L 191.070476 145.041743 L 186.94365 145.041743 L 187.063135 141.55715 Z M 190.9418 141.55715 " transform="matrix(-0.425001,0,0,0.377779,203.912237,9.444563)"/>
<path style="fill-rule:nonzero;fill:rgb(100%,100%,0%);fill-opacity:1;stroke-width:0.5;stroke-linecap:butt;stroke-linejoin:miter;stroke:rgb(0%,0%,0%);stroke-opacity:1;stroke-miterlimit:4;" d="M 190.939384 141.55715 L 191.06806 145.041743 L 186.950426 145.041743 L 187.06072 141.55715 Z M 190.939384 141.55715 " transform="matrix(-0.425001,0,0,0.377779,199.403398,9.444563)"/>
<path style="fill-rule:nonzero;fill:rgb(100%,100%,0%);fill-opacity:1;stroke-width:0.5;stroke-linecap:butt;stroke-linejoin:miter;stroke:rgb(0%,0%,0%);stroke-opacity:1;stroke-miterlimit:4;" d="M 186.30027 139.04452 L 187.50431 139.04452 L 187.50431 139.913083 L 188.377469 139.913083 L 188.377469 139.023839 L 189.609083 139.023839 L 189.609083 139.913083 L 190.491433 139.913083 L 190.491433 139.023839 L 191.713856 139.023839 L 191.713856 141.040147 C 191.713856 141.350349 191.465695 141.55715 191.18077 141.55715 L 186.86093 141.55715 C 186.566813 141.55715 186.30027 141.319329 186.30027 141.029807 Z M 186.30027 139.04452 " transform="matrix(-0.425001,0,0,0.377779,203.912237,9.444563)"/>
<path style="fill-rule:nonzero;fill:rgb(100%,100%,0%);fill-opacity:1;stroke-width:0.5;stroke-linecap:butt;stroke-linejoin:miter;stroke:rgb(0%,0%,0%);stroke-opacity:1;stroke-miterlimit:4;" d="M 186.297855 139.04452 L 187.501895 139.04452 L 187.501895 139.913083 L 188.375054 139.913083 L 188.375054 139.023839 L 189.606668 139.023839 L 189.606668 139.913083 L 190.489018 139.913083 L 190.489018 139.023839 L 191.720632 139.023839 L 191.711441 141.040147 C 191.711441 141.350349 191.46328 141.55715 191.178354 141.55715 L 186.858515 141.55715 C 186.573589 141.55715 186.307046 141.319329 186.307046 141.029807 Z M 186.297855 139.04452 " transform="matrix(-0.425001,0,0,0.377779,199.403398,9.444563)"/>
<path style=" stroke:none;fill-rule:nonzero;fill:rgb(0%,0%,0%);fill-opacity:1;" d="M 121.503906 62.5625 C 121.515625 62.328125 121.132812 62.324219 121.136719 62.5625 L 121.136719 63.144531 L 121.503906 63.144531 L 121.503906 62.5625 "/>
<path style=" stroke:none;fill-rule:nonzero;fill:rgb(0%,0%,0%);fill-opacity:1;" d="M 123.769531 63.40625 C 123.769531 63.175781 123.414062 63.171875 123.417969 63.40625 L 123.417969 63.855469 L 123.769531 63.855469 L 123.769531 63.40625 "/>
<path style=" stroke:none;fill-rule:nonzero;fill:rgb(0%,0%,0%);fill-opacity:1;" d="M 119.246094 63.40625 C 119.25 63.175781 118.890625 63.171875 118.894531 63.40625 L 118.894531 63.855469 L 119.246094 63.855469 L 119.246094 63.40625 "/>
<path style=" stroke:none;fill-rule:nonzero;fill:rgb(100%,100%,0%);fill-opacity:1;" d="M 123.082031 85.285156 C 123.023438 83.199219 121.359375 82.703125 121.347656 82.695312 C 121.335938 82.691406 119.546875 83.230469 119.554688 85.304688 L 123.082031 85.285156 "/>
<path style="fill-rule:nonzero;fill:rgb(100%,100%,0%);fill-opacity:1;stroke-width:0.5;stroke-linecap:butt;stroke-linejoin:miter;stroke:rgb(0%,0%,0%);stroke-opacity:1;stroke-miterlimit:4;" d="M 186.805783 147.692179 L 186.125638 154.030624 L 190.270846 154.040964 C 190.307611 148.798563 194.241422 147.91966 194.342524 147.94034 C 194.425245 147.94034 198.331483 149.098424 198.432585 154.040964 L 202.586984 154.040964 L 201.83331 147.650818 L 186.814974 147.692179 Z M 185.849904 154.061644 L 202.79838 154.061644 C 203.156835 154.061644 203.441761 154.413205 203.441761 154.847487 C 203.441761 155.271429 203.156835 155.62299 202.79838 155.62299 L 185.849904 155.62299 C 185.491449 155.62299 185.197332 155.271429 185.197332 154.847487 C 185.197332 154.413205 185.491449 154.061644 185.849904 154.061644 Z M 185.849904 154.061644 " transform="matrix(-0.425001,0,0,0.377779,203.912237,26.943284)"/>
<path style="fill-rule:nonzero;fill:rgb(100%,100%,0%);fill-opacity:1;stroke-width:0.5;stroke-linecap:butt;stroke-linejoin:miter;stroke:rgb(0%,0%,0%);stroke-opacity:1;stroke-miterlimit:4;" d="M 192.007973 154.030624 C 192.026355 150.721811 194.268995 149.780867 194.287377 149.780867 C 194.287377 149.780867 196.621929 150.752831 196.640311 154.030624 L 192.007973 154.030624 M 186.208359 145.045128 L 202.458308 145.045128 C 202.79838 145.045128 203.074115 145.365669 203.074115 145.758591 C 203.074115 146.141172 202.79838 146.461714 202.458308 146.461714 L 186.208359 146.461714 C 185.868286 146.461714 185.583361 146.141172 185.583361 145.758591 C 185.583361 145.365669 185.868286 145.045128 186.208359 145.045128 Z M 186.548431 146.472054 L 202.090662 146.472054 C 202.412352 146.472054 202.678895 146.782255 202.678895 147.175177 C 202.678895 147.557758 202.412352 147.878299 202.090662 147.878299 L 186.548431 147.878299 C 186.226741 147.878299 185.951006 147.557758 185.951006 147.175177 C 185.951006 146.782255 186.226741 146.472054 186.548431 146.472054 Z M 191.566798 135.883852 L 192.798412 135.883852 L 192.798412 136.752415 L 193.689953 136.752415 L 193.689953 135.863171 L 194.94914 135.863171 L 194.94914 136.752415 L 195.840681 136.752415 L 195.840681 135.863171 L 197.099869 135.863171 L 197.099869 137.869139 C 197.099869 138.189681 196.842517 138.396482 196.5484 138.396482 L 192.136649 138.396482 C 191.842532 138.396482 191.566798 138.158661 191.566798 137.869139 Z M 196.189945 138.572262 L 196.46568 145.024448 L 192.164222 145.003768 L 192.449148 138.551582 L 196.189945 138.572262 " transform="matrix(-0.425001,0,0,0.377779,203.912237,26.943284)"/>
<path style="fill-rule:nonzero;fill:rgb(100%,100%,0%);fill-opacity:1;stroke-width:0.5;stroke-linecap:butt;stroke-linejoin:miter;stroke:rgb(0%,0%,0%);stroke-opacity:1;stroke-miterlimit:4;" d="M 190.9418 141.560534 L 191.070476 145.034788 L 186.94365 145.034788 L 187.063135 141.560534 Z M 190.9418 141.560534 " transform="matrix(-0.425001,0,0,0.377779,203.912237,26.943284)"/>
<path style="fill-rule:nonzero;fill:rgb(100%,100%,0%);fill-opacity:1;stroke-width:0.5;stroke-linecap:butt;stroke-linejoin:miter;stroke:rgb(0%,0%,0%);stroke-opacity:1;stroke-miterlimit:4;" d="M 190.939384 141.560534 L 191.06806 145.034788 L 186.950426 145.034788 L 187.06072 141.560534 Z M 190.939384 141.560534 " transform="matrix(-0.425001,0,0,0.377779,199.403398,26.943284)"/>
<path style="fill-rule:nonzero;fill:rgb(100%,100%,0%);fill-opacity:1;stroke-width:0.5;stroke-linecap:butt;stroke-linejoin:miter;stroke:rgb(0%,0%,0%);stroke-opacity:1;stroke-miterlimit:4;" d="M 186.30027 139.037564 L 187.50431 139.047904 L 187.50431 139.916468 L 188.377469 139.916468 L 188.377469 139.027224 L 189.609083 139.027224 L 189.609083 139.916468 L 190.491433 139.916468 L 190.491433 139.027224 L 191.713856 139.027224 L 191.713856 141.033192 C 191.713856 141.353733 191.465695 141.550194 191.18077 141.550194 L 186.86093 141.550194 C 186.566813 141.550194 186.30027 141.322713 186.30027 141.033192 Z M 186.30027 139.037564 " transform="matrix(-0.425001,0,0,0.377779,203.912237,26.943284)"/>
<path style="fill-rule:nonzero;fill:rgb(100%,100%,0%);fill-opacity:1;stroke-width:0.5;stroke-linecap:butt;stroke-linejoin:miter;stroke:rgb(0%,0%,0%);stroke-opacity:1;stroke-miterlimit:4;" d="M 186.297855 139.037564 L 187.501895 139.047904 L 187.501895 139.916468 L 188.375054 139.916468 L 188.375054 139.027224 L 189.606668 139.027224 L 189.606668 139.916468 L 190.489018 139.916468 L 190.489018 139.027224 L 191.720632 139.027224 L 191.711441 141.033192 C 191.711441 141.353733 191.46328 141.550194 191.178354 141.550194 L 186.858515 141.550194 C 186.573589 141.550194 186.307046 141.322713 186.307046 141.033192 Z M 186.297855 139.037564 " transform="matrix(-0.425001,0,0,0.377779,199.403398,26.943284)"/>
<path style=" stroke:none;fill-rule:nonzero;fill:rgb(0%,0%,0%);fill-opacity:1;" d="M 121.503906 80.0625 C 121.515625 79.824219 121.132812 79.824219 121.136719 80.0625 L 121.136719 80.644531 L 121.503906 80.644531 L 121.503906 80.0625 "/>
<path style=" stroke:none;fill-rule:nonzero;fill:rgb(0%,0%,0%);fill-opacity:1;" d="M 123.769531 80.90625 C 123.769531 80.675781 123.414062 80.671875 123.417969 80.90625 L 123.417969 81.355469 L 123.769531 81.355469 L 123.769531 80.90625 "/>
<path style=" stroke:none;fill-rule:nonzero;fill:rgb(0%,0%,0%);fill-opacity:1;" d="M 119.246094 80.90625 C 119.25 80.675781 118.890625 80.671875 118.894531 80.90625 L 118.894531 81.355469 L 119.246094 81.355469 L 119.246094 80.90625 "/>
<path style=" stroke:none;fill-rule:nonzero;fill:rgb(100%,100%,0%);fill-opacity:1;" d="M 115.40625 103.496094 C 117.03125 101.992188 116.25 100.59375 116.25 100.582031 C 116.246094 100.566406 114.558594 99.820312 112.90625 101.285156 L 115.40625 103.5 "/>
<path style="fill-rule:nonzero;fill:rgb(100%,100%,0%);fill-opacity:1;stroke-width:0.5;stroke-linecap:butt;stroke-linejoin:miter;stroke:rgb(0%,0%,0%);stroke-opacity:1;stroke-miterlimit:4;" d="M 186.812506 147.691002 L 186.128052 154.03096 L 190.263914 154.043104 C 190.309239 148.791128 194.238617 147.920283 194.333588 147.942552 C 194.430282 147.937206 198.328914 149.104553 198.426853 154.045887 L 202.583866 154.049982 L 201.83386 147.644849 Z M 185.850922 154.060042 L 202.796682 154.058856 C 203.147633 154.060093 203.442092 154.415336 203.443026 154.841847 C 203.450436 155.27488 203.153501 155.621538 202.795214 155.627586 L 185.849454 155.628772 C 185.492027 155.621013 185.204044 155.272292 185.20311 154.845782 C 185.195701 154.412749 185.492635 154.06609 185.850922 154.060042 Z M 185.850922 154.060042 " transform="matrix(-0.29946,-0.26807,-0.301579,0.266187,218.932581,113.374869)"/>
<path style="fill-rule:nonzero;fill:rgb(100%,100%,0%);fill-opacity:1;stroke-width:0.5;stroke-linecap:butt;stroke-linejoin:miter;stroke:rgb(0%,0%,0%);stroke-opacity:1;stroke-miterlimit:4;" d="M 192.013051 154.028961 C 192.027183 150.712001 194.274319 149.77592 194.280795 149.782442 C 194.280795 149.782442 196.62278 150.746888 196.645335 154.02742 L 192.013051 154.028961 M 186.213341 145.047793 L 202.449863 145.051418 C 202.800813 145.052655 203.084042 145.367238 203.073746 145.75309 C 203.077262 146.138177 202.795864 146.456457 202.45139 146.461741 L 186.214868 146.458116 C 185.863917 146.456879 185.587164 146.148818 185.590985 145.756444 C 185.587468 145.371357 185.868866 145.053077 186.213341 145.047793 Z M 186.551144 146.473925 L 202.085765 146.475076 C 202.416426 146.470555 202.685841 146.785901 202.682021 147.178275 C 202.685538 147.563363 202.417952 147.880878 202.088153 147.871592 L 186.546194 147.877727 C 186.222871 147.874962 185.953455 147.559615 185.949938 147.174528 C 185.953759 146.782154 186.22782 146.47116 186.551144 146.473925 Z M 191.568465 135.883355 L 192.793554 135.884424 L 192.79456 136.751254 L 193.696325 136.749559 L 193.689704 135.8624 L 194.948895 135.868464 L 194.94904 136.749101 L 195.843468 136.754691 L 195.844184 135.860247 L 197.103375 135.866311 L 197.101979 137.87536 C 197.095988 138.192173 196.842629 138.391941 196.553408 138.394171 L 192.141277 138.397301 C 191.845581 138.393009 191.570998 138.160508 191.568791 137.864788 Z M 196.191263 138.572434 L 196.470753 145.017339 L 192.162653 145.007838 L 192.455129 138.55195 L 196.191263 138.572434 " transform="matrix(-0.29946,-0.26807,-0.301579,0.266187,218.932581,113.374869)"/>
<path style="fill-rule:nonzero;fill:rgb(100%,100%,0%);fill-opacity:1;stroke-width:0.5;stroke-linecap:butt;stroke-linejoin:miter;stroke:rgb(0%,0%,0%);stroke-opacity:1;stroke-miterlimit:4;" d="M 190.939156 141.55978 L 191.073116 145.040554 L 186.94373 145.034932 L 187.064027 141.560741 Z M 190.939156 141.55978 " transform="matrix(-0.29946,-0.26807,-0.301579,0.266187,218.932581,113.374869)"/>
<path style="fill-rule:nonzero;fill:rgb(100%,100%,0%);fill-opacity:1;stroke-width:0.5;stroke-linecap:butt;stroke-linejoin:miter;stroke:rgb(0%,0%,0%);stroke-opacity:1;stroke-miterlimit:4;" d="M 190.936796 141.55818 L 191.070756 145.038954 L 186.947846 145.039854 L 187.061667 141.559141 L 190.943272 141.564702 Z M 190.936796 141.55818 " transform="matrix(-0.29946,-0.26807,-0.301579,0.266187,215.75561,110.530913)"/>
<path style="fill-rule:nonzero;fill:rgb(100%,100%,0%);fill-opacity:1;stroke-width:0.5;stroke-linecap:butt;stroke-linejoin:miter;stroke:rgb(0%,0%,0%);stroke-opacity:1;stroke-miterlimit:4;" d="M 186.298688 139.043679 L 187.49615 139.046276 L 187.497156 139.913105 L 188.37777 139.91946 L 188.378486 139.025015 L 189.603575 139.026084 L 189.610196 139.913244 L 190.49081 139.919598 L 190.48505 139.018631 L 191.716614 139.026223 L 191.715218 141.035271 C 191.709227 141.352085 191.462344 141.558375 191.18046 141.553319 L 186.857687 141.558389 C 186.575803 141.553333 186.301221 141.320832 186.30549 141.031635 Z M 186.298688 139.043679 " transform="matrix(-0.29946,-0.26807,-0.301579,0.266187,218.932581,113.374869)"/>
<path style="fill-rule:nonzero;fill:rgb(100%,100%,0%);fill-opacity:1;stroke-width:0.5;stroke-linecap:butt;stroke-linejoin:miter;stroke:rgb(0%,0%,0%);stroke-opacity:1;stroke-miterlimit:4;" d="M 186.296328 139.042079 L 187.501127 139.03739 L 187.501272 139.918027 L 188.37541 139.917859 L 188.376126 139.023414 L 189.607691 139.031006 L 189.607836 139.911643 L 190.48845 139.917997 L 190.489166 139.023553 L 191.714255 139.024622 L 191.712858 141.033671 C 191.713343 141.357006 191.459984 141.556775 191.178101 141.551719 L 186.862664 141.549503 C 186.573443 141.551733 186.298861 141.319232 186.30313 141.030034 Z M 186.296328 139.042079 " transform="matrix(-0.29946,-0.26807,-0.301579,0.266187,215.75561,110.530913)"/>
<path style=" stroke:none;fill-rule:nonzero;fill:rgb(0%,0%,0%);fill-opacity:1;" d="M 118.460938 98.824219 C 118.660156 98.664062 118.390625 98.421875 118.203125 98.59375 L 117.738281 99 L 118 99.234375 L 118.460938 98.824219 "/>
<path style=" stroke:none;fill-rule:nonzero;fill:rgb(0%,0%,0%);fill-opacity:1;" d="M 119.386719 100.847656 C 119.570312 100.6875 119.320312 100.457031 119.136719 100.625 L 118.78125 100.941406 L 119.027344 101.164062 L 119.386719 100.847656 "/>
<path style=" stroke:none;fill-rule:nonzero;fill:rgb(0%,0%,0%);fill-opacity:1;" d="M 116.199219 97.996094 C 116.382812 97.832031 116.136719 97.605469 115.953125 97.773438 L 115.59375 98.089844 L 115.839844 98.308594 L 116.199219 97.996094 "/>
<path style=" stroke:none;fill-rule:nonzero;fill:rgb(0%,20%,60%);fill-opacity:1;" d="M 98.871094 85.910156 C 98.867188 86.707031 99.203125 87.476562 99.8125 88.0625 C 100.390625 88.613281 101.191406 88.960938 102.0625 88.960938 C 102.941406 88.960938 103.742188 88.617188 104.316406 88.066406 C 104.894531 87.515625 105.253906 86.753906 105.253906 85.914062 L 105.253906 81.847656 L 98.882812 81.84375 L 98.871094 85.910156 "/>
<path style=" stroke:none;fill-rule:nonzero;fill:rgb(100%,100%,100%);fill-opacity:1;" d="M 100.964844 83.390625 C 100.964844 83.699219 100.679688 83.949219 100.332031 83.949219 C 99.984375 83.949219 99.699219 83.699219 99.699219 83.390625 C 99.699219 83.078125 99.984375 82.828125 100.332031 82.828125 C 100.679688 82.828125 100.964844 83.078125 100.964844 83.390625 Z M 100.964844 83.390625 "/>
<path style=" stroke:none;fill-rule:nonzero;fill:rgb(100%,100%,100%);fill-opacity:1;" d="M 104.5 83.390625 C 104.5 83.703125 104.214844 83.953125 103.867188 83.953125 C 103.519531 83.953125 103.234375 83.703125 103.234375 83.390625 C 103.234375 83.082031 103.519531 82.832031 103.867188 82.832031 C 104.214844 82.832031 104.5 83.082031 104.5 83.390625 Z M 104.5 83.390625 "/>
<path style=" stroke:none;fill-rule:nonzero;fill:rgb(100%,100%,100%);fill-opacity:1;" d="M 102.726562 84.898438 C 102.726562 85.210938 102.445312 85.460938 102.097656 85.460938 C 101.746094 85.460938 101.464844 85.210938 101.464844 84.898438 C 101.464844 84.589844 101.746094 84.339844 102.097656 84.339844 C 102.445312 84.339844 102.726562 84.589844 102.726562 84.898438 Z M 102.726562 84.898438 "/>
<path style=" stroke:none;fill-rule:nonzero;fill:rgb(100%,100%,100%);fill-opacity:1;" d="M 100.964844 86.480469 C 100.964844 86.789062 100.679688 87.042969 100.332031 87.042969 C 99.984375 87.042969 99.699219 86.789062 99.699219 86.480469 C 99.699219 86.167969 99.984375 85.917969 100.332031 85.917969 C 100.679688 85.917969 100.964844 86.167969 100.964844 86.480469 Z M 100.964844 86.480469 "/>
<path style=" stroke:none;fill-rule:nonzero;fill:rgb(100%,100%,100%);fill-opacity:1;" d="M 104.496094 86.476562 C 104.496094 86.785156 104.210938 87.035156 103.863281 87.035156 C 103.515625 87.035156 103.230469 86.785156 103.230469 86.476562 C 103.230469 86.164062 103.515625 85.914062 103.863281 85.914062 C 104.210938 85.914062 104.496094 86.164062 104.496094 86.476562 Z M 104.496094 86.476562 "/>
<path style=" stroke:none;fill-rule:nonzero;fill:rgb(0%,20%,60%);fill-opacity:1;" d="M 98.871094 76.082031 C 98.867188 76.878906 99.203125 77.648438 99.8125 78.234375 C 100.390625 78.785156 101.191406 79.128906 102.0625 79.128906 C 102.941406 79.128906 103.742188 78.789062 104.316406 78.238281 C 104.894531 77.6875 105.253906 76.925781 105.253906 76.085938 L 105.253906 72.019531 L 98.882812 72.015625 L 98.871094 76.082031 "/>
<path style=" stroke:none;fill-rule:nonzero;fill:rgb(100%,100%,100%);fill-opacity:1;" d="M 100.964844 73.5625 C 100.964844 73.871094 100.679688 74.121094 100.332031 74.121094 C 99.984375 74.121094 99.699219 73.871094 99.699219 73.5625 C 99.699219 73.25 99.984375 73 100.332031 73 C 100.679688 73 100.964844 73.25 100.964844 73.5625 Z M 100.964844 73.5625 "/>
<path style=" stroke:none;fill-rule:nonzero;fill:rgb(100%,100%,100%);fill-opacity:1;" d="M 104.5 73.5625 C 104.5 73.875 104.214844 74.125 103.867188 74.125 C 103.519531 74.125 103.234375 73.875 103.234375 73.5625 C 103.234375 73.253906 103.519531 73.003906 103.867188 73.003906 C 104.214844 73.003906 104.5 73.253906 104.5 73.5625 Z M 104.5 73.5625 "/>
<path style=" stroke:none;fill-rule:nonzero;fill:rgb(100%,100%,100%);fill-opacity:1;" d="M 102.726562 75.070312 C 102.726562 75.382812 102.445312 75.632812 102.097656 75.632812 C 101.746094 75.632812 101.464844 75.382812 101.464844 75.070312 C 101.464844 74.761719 101.746094 74.511719 102.097656 74.511719 C 102.445312 74.511719 102.726562 74.761719 102.726562 75.070312 Z M 102.726562 75.070312 "/>
<path style=" stroke:none;fill-rule:nonzero;fill:rgb(100%,100%,100%);fill-opacity:1;" d="M 100.964844 76.652344 C 100.964844 76.960938 100.679688 77.210938 100.332031 77.210938 C 99.984375 77.210938 99.699219 76.960938 99.699219 76.652344 C 99.699219 76.339844 99.984375 76.089844 100.332031 76.089844 C 100.679688 76.089844 100.964844 76.339844 100.964844 76.652344 Z M 100.964844 76.652344 "/>
<path style=" stroke:none;fill-rule:nonzero;fill:rgb(100%,100%,100%);fill-opacity:1;" d="M 104.496094 76.648438 C 104.496094 76.957031 104.210938 77.207031 103.863281 77.207031 C 103.515625 77.207031 103.230469 76.957031 103.230469 76.648438 C 103.230469 76.335938 103.515625 76.085938 103.863281 76.085938 C 104.210938 76.085938 104.496094 76.335938 104.496094 76.648438 Z M 104.496094 76.648438 "/>
<path style=" stroke:none;fill-rule:nonzero;fill:rgb(0%,20%,60%);fill-opacity:1;" d="M 90.03125 85.910156 C 90.027344 86.707031 90.363281 87.476562 90.972656 88.0625 C 91.550781 88.613281 92.351562 88.960938 93.222656 88.960938 C 94.101562 88.960938 94.902344 88.617188 95.476562 88.066406 C 96.054688 87.515625 96.414062 86.753906 96.414062 85.914062 L 96.414062 81.847656 L 90.042969 81.84375 L 90.03125 85.910156 "/>
<path style=" stroke:none;fill-rule:nonzero;fill:rgb(100%,100%,100%);fill-opacity:1;" d="M 92.125 83.390625 C 92.125 83.699219 91.839844 83.949219 91.492188 83.949219 C 91.144531 83.949219 90.859375 83.699219 90.859375 83.390625 C 90.859375 83.078125 91.144531 82.828125 91.492188 82.828125 C 91.839844 82.828125 92.125 83.078125 92.125 83.390625 Z M 92.125 83.390625 "/>
<path style=" stroke:none;fill-rule:nonzero;fill:rgb(100%,100%,100%);fill-opacity:1;" d="M 95.660156 83.390625 C 95.660156 83.703125 95.375 83.953125 95.027344 83.953125 C 94.679688 83.953125 94.394531 83.703125 94.394531 83.390625 C 94.394531 83.082031 94.679688 82.832031 95.027344 82.832031 C 95.375 82.832031 95.660156 83.082031 95.660156 83.390625 Z M 95.660156 83.390625 "/>
<path style=" stroke:none;fill-rule:nonzero;fill:rgb(100%,100%,100%);fill-opacity:1;" d="M 93.886719 84.898438 C 93.886719 85.210938 93.605469 85.460938 93.257812 85.460938 C 92.90625 85.460938 92.625 85.210938 92.625 84.898438 C 92.625 84.589844 92.90625 84.339844 93.257812 84.339844 C 93.605469 84.339844 93.886719 84.589844 93.886719 84.898438 Z M 93.886719 84.898438 "/>
<path style=" stroke:none;fill-rule:nonzero;fill:rgb(100%,100%,100%);fill-opacity:1;" d="M 92.125 86.480469 C 92.125 86.789062 91.839844 87.042969 91.492188 87.042969 C 91.144531 87.042969 90.859375 86.789062 90.859375 86.480469 C 90.859375 86.167969 91.144531 85.917969 91.492188 85.917969 C 91.839844 85.917969 92.125 86.167969 92.125 86.480469 Z M 92.125 86.480469 "/>
<path style=" stroke:none;fill-rule:nonzero;fill:rgb(100%,100%,100%);fill-opacity:1;" d="M 95.65625 86.476562 C 95.65625 86.785156 95.371094 87.035156 95.023438 87.035156 C 94.675781 87.035156 94.390625 86.785156 94.390625 86.476562 C 94.390625 86.164062 94.675781 85.914062 95.023438 85.914062 C 95.371094 85.914062 95.65625 86.164062 95.65625 86.476562 Z M 95.65625 86.476562 "/>
<path style=" stroke:none;fill-rule:nonzero;fill:rgb(0%,20%,60%);fill-opacity:1;" d="M 107.6875 85.910156 C 107.683594 86.707031 108.019531 87.476562 108.628906 88.0625 C 109.207031 88.613281 110.007812 88.960938 110.878906 88.960938 C 111.757812 88.960938 112.558594 88.617188 113.132812 88.066406 C 113.710938 87.515625 114.070312 86.753906 114.070312 85.914062 L 114.070312 81.847656 L 107.699219 81.84375 L 107.6875 85.910156 "/>
<path style=" stroke:none;fill-rule:nonzero;fill:rgb(100%,100%,100%);fill-opacity:1;" d="M 109.78125 83.390625 C 109.78125 83.699219 109.496094 83.949219 109.148438 83.949219 C 108.800781 83.949219 108.515625 83.699219 108.515625 83.390625 C 108.515625 83.078125 108.800781 82.828125 109.148438 82.828125 C 109.496094 82.828125 109.78125 83.078125 109.78125 83.390625 Z M 109.78125 83.390625 "/>
<path style=" stroke:none;fill-rule:nonzero;fill:rgb(100%,100%,100%);fill-opacity:1;" d="M 113.316406 83.390625 C 113.316406 83.703125 113.03125 83.953125 112.683594 83.953125 C 112.335938 83.953125 112.050781 83.703125 112.050781 83.390625 C 112.050781 83.082031 112.335938 82.832031 112.683594 82.832031 C 113.03125 82.832031 113.316406 83.082031 113.316406 83.390625 Z M 113.316406 83.390625 "/>
<path style=" stroke:none;fill-rule:nonzero;fill:rgb(100%,100%,100%);fill-opacity:1;" d="M 111.542969 84.898438 C 111.542969 85.210938 111.261719 85.460938 110.914062 85.460938 C 110.5625 85.460938 110.28125 85.210938 110.28125 84.898438 C 110.28125 84.589844 110.5625 84.339844 110.914062 84.339844 C 111.261719 84.339844 111.542969 84.589844 111.542969 84.898438 Z M 111.542969 84.898438 "/>
<path style=" stroke:none;fill-rule:nonzero;fill:rgb(100%,100%,100%);fill-opacity:1;" d="M 109.78125 86.480469 C 109.78125 86.789062 109.496094 87.042969 109.148438 87.042969 C 108.800781 87.042969 108.515625 86.789062 108.515625 86.480469 C 108.515625 86.167969 108.800781 85.917969 109.148438 85.917969 C 109.496094 85.917969 109.78125 86.167969 109.78125 86.480469 Z M 109.78125 86.480469 "/>
<path style=" stroke:none;fill-rule:nonzero;fill:rgb(100%,100%,100%);fill-opacity:1;" d="M 113.3125 86.476562 C 113.3125 86.785156 113.027344 87.035156 112.679688 87.035156 C 112.332031 87.035156 112.046875 86.785156 112.046875 86.476562 C 112.046875 86.164062 112.332031 85.914062 112.679688 85.914062 C 113.027344 85.914062 113.3125 86.164062 113.3125 86.476562 Z M 113.3125 86.476562 "/>
<path style=" stroke:none;fill-rule:nonzero;fill:rgb(0%,20%,60%);fill-opacity:1;" d="M 98.871094 95.648438 L 98.871094 95.652344 C 98.867188 96.449219 99.203125 97.214844 99.8125 97.800781 C 100.390625 98.355469 101.191406 98.699219 102.0625 98.699219 C 102.941406 98.699219 103.742188 98.359375 104.316406 97.804688 C 104.894531 97.253906 105.253906 96.496094 105.253906 95.65625 L 105.253906 91.585938 L 98.882812 91.582031 L 98.871094 95.648438 "/>
<path style=" stroke:none;fill-rule:nonzero;fill:rgb(100%,100%,100%);fill-opacity:1;" d="M 100.964844 93.128906 C 100.964844 93.441406 100.679688 93.691406 100.332031 93.691406 C 99.984375 93.691406 99.699219 93.441406 99.699219 93.128906 C 99.699219 92.820312 99.984375 92.570312 100.332031 92.570312 C 100.679688 92.570312 100.964844 92.820312 100.964844 93.128906 Z M 100.964844 93.128906 "/>
<path style=" stroke:none;fill-rule:nonzero;fill:rgb(100%,100%,100%);fill-opacity:1;" d="M 104.5 93.132812 C 104.5 93.441406 104.214844 93.695312 103.867188 93.695312 C 103.519531 93.695312 103.234375 93.441406 103.234375 93.132812 C 103.234375 92.824219 103.519531 92.570312 103.867188 92.570312 C 104.214844 92.570312 104.5 92.824219 104.5 93.132812 Z M 104.5 93.132812 "/>
<path style=" stroke:none;fill-rule:nonzero;fill:rgb(100%,100%,100%);fill-opacity:1;" d="M 102.726562 94.640625 C 102.726562 94.949219 102.445312 95.203125 102.097656 95.203125 C 101.746094 95.203125 101.464844 94.949219 101.464844 94.640625 C 101.464844 94.332031 101.746094 94.078125 102.097656 94.078125 C 102.445312 94.078125 102.726562 94.332031 102.726562 94.640625 Z M 102.726562 94.640625 "/>
<path style=" stroke:none;fill-rule:nonzero;fill:rgb(100%,100%,100%);fill-opacity:1;" d="M 100.964844 96.21875 C 100.964844 96.53125 100.679688 96.78125 100.332031 96.78125 C 99.984375 96.78125 99.699219 96.53125 99.699219 96.21875 C 99.699219 95.910156 99.984375 95.660156 100.332031 95.660156 C 100.679688 95.660156 100.964844 95.910156 100.964844 96.21875 Z M 100.964844 96.21875 "/>
<path style=" stroke:none;fill-rule:nonzero;fill:rgb(100%,100%,100%);fill-opacity:1;" d="M 104.496094 96.214844 C 104.496094 96.527344 104.210938 96.777344 103.863281 96.777344 C 103.515625 96.777344 103.230469 96.527344 103.230469 96.214844 C 103.230469 95.90625 103.515625 95.65625 103.863281 95.65625 C 104.210938 95.65625 104.496094 95.90625 104.496094 96.214844 Z M 104.496094 96.214844 "/>
</g>
</svg>
