<?xml version="1.0" encoding="UTF-8"?>
<svg xmlns="http://www.w3.org/2000/svg" xmlns:xlink="http://www.w3.org/1999/xlink" width="255pt" height="170pt" viewBox="0 0 255 170" version="1.1">
<g id="surface1">
<rect x="0" y="0" width="255" height="170" style="fill:rgb(12.54902%,37.647059%,23.921569%);fill-opacity:1;stroke:none;"/>
<path style=" stroke:none;fill-rule:nonzero;fill:rgb(98.039216%,82.352941%,0.392157%);fill-opacity:1;" d="M 0 0 L 255 0 L 255 127.5 L 0 127.5 Z M 0 0 "/>
<path style=" stroke:none;fill-rule:nonzero;fill:rgb(0%,63.137255%,87.058824%);fill-opacity:1;" d="M 0 0 L 255 0 L 255 85 L 0 85 Z M 0 0 "/>
<path style=" stroke:none;fill-rule:nonzero;fill:rgb(89.803922%,74.509804%,0.392157%);fill-opacity:1;" d="M 234.441406 44.414062 L 213.082031 45.523438 L 233.390625 51.507812 L 212.4375 47.664062 L 230.308594 58.117188 L 211.1875 49.585938 L 225.40625 63.796875 L 209.421875 51.15625 L 219.019531 68.152344 L 207.261719 52.265625 L 211.582031 70.890625 L 204.851562 52.839844 L 203.601562 71.824219 L 203.335938 44.175781 Z M 234.441406 44.414062 "/>
<path style=" stroke:none;fill-rule:nonzero;fill:rgb(89.803922%,74.509804%,0.392157%);fill-opacity:1;" d="M 234.441406 44.414062 L 213.082031 43.304688 L 233.390625 37.316406 L 212.4375 41.160156 L 230.308594 30.707031 L 211.1875 39.238281 L 225.40625 25.027344 L 209.421875 37.667969 L 219.019531 20.671875 L 207.261719 36.558594 L 211.582031 17.933594 L 204.851562 35.984375 L 203.601562 17 L 203.335938 44.648438 Z M 234.441406 44.414062 "/>
<path style=" stroke:none;fill-rule:nonzero;fill:rgb(89.803922%,74.509804%,0.392157%);fill-opacity:1;" d="M 172.761719 44.414062 L 194.121094 45.523438 L 173.8125 51.507812 L 194.765625 47.664062 L 176.894531 58.117188 L 196.015625 49.585938 L 181.796875 63.796875 L 197.78125 51.15625 L 188.183594 68.152344 L 199.941406 52.265625 L 195.621094 70.890625 L 202.351562 52.839844 L 203.601562 71.824219 L 203.867188 44.175781 Z M 172.761719 44.414062 "/>
<path style=" stroke:none;fill-rule:nonzero;fill:rgb(89.803922%,74.509804%,0.392157%);fill-opacity:1;" d="M 172.761719 44.414062 L 194.121094 43.304688 L 173.8125 37.316406 L 194.765625 41.160156 L 176.894531 30.707031 L 196.015625 39.238281 L 181.796875 25.027344 L 197.78125 37.667969 L 188.183594 20.671875 L 199.941406 36.558594 L 195.621094 17.933594 L 202.351562 35.984375 L 203.601562 17 L 203.867188 44.648438 Z M 172.761719 44.414062 "/>
<path style="fill-rule:nonzero;fill:rgb(89.803922%,74.509804%,0.392157%);fill-opacity:1;stroke-width:3.4;stroke-linecap:butt;stroke-linejoin:miter;stroke:rgb(0%,63.137255%,87.058824%);stroke-opacity:1;stroke-miterlimit:4;" d="M 34.293946 0.00661761 C 34.293946 18.949538 18.941082 34.302402 0 34.302402 C -18.941082 34.302402 -34.293946 18.949538 -34.293946 0.00661761 C -34.293946 -18.936302 -18.941082 -34.305711 0 -34.305711 C 18.941082 -34.305711 34.293946 -18.936302 34.293946 0.00661761 Z M 34.293946 0.00661761 " transform="matrix(0.265626,0,0,0.236112,203.601562,44.4125)"/>
</g>
</svg>
