<?xml version="1.0" encoding="UTF-8"?>
<svg xmlns="http://www.w3.org/2000/svg" xmlns:xlink="http://www.w3.org/1999/xlink" width="255pt" height="170pt" viewBox="0 0 255 170" version="1.1">
<g id="surface1">
<rect x="0" y="0" width="255" height="170" style="fill:rgb(100%,71.764706%,0%);fill-opacity:1;stroke:none;"/>
<path style=" stroke:none;fill-rule:nonzero;fill:rgb(100%,35.686275%,0%);fill-opacity:1;" d="M 10.625 85 L 45.6875 9.445312 L 80.75 9.445312 L 80.75 160.554688 L 45.6875 160.554688 Z M 10.625 85 "/>
<path style=" stroke:none;fill-rule:nonzero;fill:rgb(0%,33.72549%,25.490196%);fill-opacity:1;" d="M 10.625 9.445312 L 45.6875 9.445312 L 45.6875 160.554688 L 10.625 160.554688 Z M 10.625 9.445312 "/>
<path style=" stroke:none;fill-rule:nonzero;fill:rgb(55.294118%,12.54902%,16.078431%);fill-opacity:1;" d="M 91.375 9.445312 L 245.4375 9.445312 L 245.4375 160.554688 L 91.375 160.554688 Z M 91.375 9.445312 "/>
<path style="fill-rule:nonzero;fill:rgb(100%,71.764706%,0%);fill-opacity:1;stroke-width:1.134;stroke-linecap:butt;stroke-linejoin:miter;stroke:rgb(0%,0%,0%);stroke-opacity:1;stroke-miterlimit:4;" d="M 579.254902 408.5625 C 579.254902 408.5625 582.882353 415.952206 586.882353 418.952206 C 592.823529 423.408088 604.990196 423.088235 610.156863 428.283088 C 616.343137 434.415441 609.676471 442.522059 609.72549 443.216912 L 610.068627 447.496324 C 610.068627 447.496324 605.892157 447.551471 604.137255 447.827206 C 601.490196 448.235294 600.460784 450.386029 595.54902 450.066176 C 583.176471 449.261029 583.676471 438.121324 582.980392 428.602941 C 582.352941 424.974265 580.921569 420.242647 580.098039 416.625 C 579.401961 413.514706 579.254902 408.5625 579.254902 408.5625 Z M 579.254902 408.5625 " transform="matrix(0.398438,0,0,0.354167,0,0)"/>
<path style="fill-rule:nonzero;fill:rgb(100%,71.764706%,0%);fill-opacity:1;stroke-width:1.134;stroke-linecap:butt;stroke-linejoin:miter;stroke:rgb(0%,0%,0%);stroke-opacity:1;stroke-miterlimit:4;" d="M 579.254569 408.5625 C 579.254569 408.5625 582.88202 415.952206 586.88202 418.952206 C 592.823196 423.408088 604.989863 423.088235 610.156529 428.283088 C 616.342804 434.415441 609.676137 442.522059 609.725157 443.216912 L 610.068294 447.496324 C 610.068294 447.496324 605.891824 447.551471 604.136922 447.827206 C 601.499667 448.235294 600.460451 450.386029 595.548686 450.066176 C 583.176137 449.261029 583.676137 438.121324 582.980059 428.602941 C 582.352608 424.974265 580.921235 420.242647 580.097706 416.625 C 579.401627 413.514706 579.254569 408.5625 579.254569 408.5625 Z M 579.254569 408.5625 " transform="matrix(-0.398438,0,0,0.354167,336.812367,0)"/>
<path style="fill-rule:nonzero;fill:rgb(100%,71.764706%,0%);fill-opacity:1;stroke-width:1.134;stroke-linecap:butt;stroke-linejoin:miter;stroke:rgb(0%,0%,0%);stroke-opacity:1;stroke-miterlimit:4;" d="M 579.254902 408.5625 C 579.254902 408.5625 582.882353 415.952206 586.882353 418.952206 C 592.823529 423.408088 604.990196 423.088235 610.156863 428.283088 C 616.343137 434.415441 609.676471 442.522059 609.72549 443.216912 L 610.068627 447.496324 C 610.068627 447.496324 605.892157 447.551471 604.137255 447.827206 C 601.490196 448.235294 600.460784 450.386029 595.54902 450.066176 C 583.176471 449.261029 583.676471 438.121324 582.980392 428.602941 C 582.352941 424.974265 580.921569 420.242647 580.098039 416.625 C 579.401961 413.514706 579.254902 408.5625 579.254902 408.5625 Z M 579.254902 408.5625 " transform="matrix(0.398438,0,0,-0.354167,0,170)"/>
<path style="fill-rule:nonzero;fill:rgb(100%,71.764706%,0%);fill-opacity:1;stroke-width:1.134;stroke-linecap:butt;stroke-linejoin:miter;stroke:rgb(0%,0%,0%);stroke-opacity:1;stroke-miterlimit:4;" d="M 579.255569 408.5625 C 579.255569 408.5625 582.88302 415.952206 586.88302 418.952206 C 592.824196 423.408088 604.990863 423.088235 610.157529 428.283088 C 616.343804 434.415441 609.677137 442.522059 609.726157 443.216912 L 610.069294 447.496324 C 610.069294 447.496324 605.892824 447.551471 604.137922 447.827206 C 601.490863 448.235294 600.461451 450.386029 595.549686 450.066176 C 583.177137 449.261029 583.677137 438.121324 582.981059 428.602941 C 582.353608 424.974265 580.922235 420.242647 580.098706 416.625 C 579.402627 413.514706 579.255569 408.5625 579.255569 408.5625 Z M 579.255569 408.5625 " transform="matrix(-0.398438,0.000000000000000043,-0.000000000000000049,-0.354167,336.812766,170)"/>
<path style="fill-rule:nonzero;fill:rgb(100%,71.764706%,0%);fill-opacity:1;stroke-width:5.56;stroke-linecap:butt;stroke-linejoin:miter;stroke:rgb(0%,0%,0%);stroke-opacity:1;stroke-miterlimit:4;" d="M 363.490196 415.761029 L 365.813725 414.426471 L 366.803922 415.772059 C 368.137255 417.558824 371.794118 417.536765 374.235294 415.727941 L 376.088235 414.338235 L 377.647059 415.727941 C 379.696078 417.547794 383.519608 417.547794 385.960784 415.738971 C 387.676471 414.459559 387.911765 414.4375 389.04902 415.408088 C 389.715686 415.981618 391.696078 416.643382 393.441176 416.863971 C 396.578431 417.272059 396.617647 417.25 398.460784 414.492647 C 399.990196 412.1875 400.235294 411.261029 399.872549 409.022059 C 399.598039 407.257353 399.401961 405.492647 399.284314 403.716912 C 399.147059 401.113971 399.156863 401.102941 402.941176 399.790441 C 405.029412 399.0625 407.45098 398.080882 408.313725 397.617647 C 409.823529 396.801471 413.990196 391.915441 413.990196 390.944853 C 413.990196 390.691176 412.362745 390.294118 410.372549 390.073529 C 402.460784 389.191176 401.127451 384.944853 406.264706 377.047794 C 414.656863 364.176471 419.715686 351.647059 419.745098 343.661765 C 419.764706 340.099265 419.970588 338.897059 420.431373 339.680147 C 422.303922 342.845588 418.941176 356.147059 413.852941 365.6875 L 411.813725 369.536765 L 413.764706 369.084559 C 414.843137 368.841912 421.156863 366.172794 427.803922 363.161765 C 446 354.922794 452.245098 353.3125 464.029412 353.797794 C 473.892157 354.216912 478.088235 356.147059 485.058824 363.448529 C 488.745098 367.319853 492.303922 370.088235 498.803922 374.158088 C 512.656863 382.838235 513.235294 383.588235 513.892157 393.779412 C 514.558824 404.113971 514.22549 404.676471 506.411765 406.397059 C 499.735294 407.875 495.54902 410.996324 494.421569 415.319853 C 493.823529 417.625 495.088235 417.691176 498.45098 415.529412 L 500.921569 413.941176 L 502.019608 415.529412 C 503.460784 417.613971 506.529412 417.625 509.078431 415.551471 L 511 413.985294 L 512.970588 415.551471 C 516.019608 417.977941 520.088235 417.393382 521.235294 414.349265 C 521.45098 413.764706 522.039216 413.952206 523.235294 414.977941 C 525.460784 416.919118 531.186275 417.757353 531.803922 416.235294 C 532.039216 415.650735 531.588235 414.205882 530.803922 413.036765 C 527.480392 408.040441 526.441176 405.669118 526.392157 402.944853 C 526.333333 399.161765 527.460784 397.341912 531.764706 394.264706 C 536.980392 390.536765 538.598039 385.716912 534.627451 385.716912 C 532.176471 385.716912 529.705882 383.555147 528.127451 380.014706 C 524.921569 372.834559 525.54902 364.794118 530.352941 351.404412 C 535.245098 337.805147 535.784314 335.290441 535.803922 326.202206 C 535.823529 318.845588 535.637255 317.577206 533.960784 313.540441 C 532.941176 311.080882 530.862745 307.408088 529.352941 305.389706 L 526.598039 301.705882 L 530.127451 298.783088 C 540.921569 289.838235 538.715686 275.213235 525.72549 269.577206 C 521.745098 267.845588 520.754902 267.691176 513.794118 267.746324 C 509.617647 267.768382 503.245098 268.319853 499.637255 268.959559 C 495.95098 269.621324 489.72549 270.150735 485.45098 270.161765 C 478.666667 270.194853 477.519608 270.029412 474.901961 268.628676 C 472.176471 267.183824 471.705882 266.488971 471.176471 263.136029 C 471.058824 262.452206 470.578431 261.757353 470.098039 261.602941 C 469.176471 261.316176 464.892157 265.033088 464.254902 266.676471 C 463.941176 267.492647 463.686275 267.4375 462.77451 266.356618 C 462.166667 265.628676 461.313725 263.985294 460.882353 262.683824 C 459.803922 259.408088 461.137255 256.948529 464.980392 255.117647 L 467.960784 253.683824 L 466.205882 252.591912 C 462.568627 250.341912 456.401961 251.886029 454.166667 255.602941 C 453.529412 256.650735 452.843137 257.511029 452.637255 257.522059 C 452.421569 257.522059 451.22549 256.518382 449.960784 255.283088 C 445.27451 250.705882 446.892157 243.933824 453.156863 241.860294 C 456.509804 240.757353 459.460784 241.595588 460.078431 243.823529 C 461.019608 247.231618 463.941176 242.753676 463.421569 238.716912 C 463.068627 236.025735 463.117647 235.9375 464.980392 235.9375 C 467.568627 235.9375 473.068627 239.334559 474.77451 241.970588 C 476.745098 245.047794 476.598039 249.878676 474.431373 253.485294 L 472.715686 256.308824 L 474.95098 255.867647 C 478.22549 255.205882 481.411765 253.176471 483.019608 250.705882 C 484.72549 248.102941 484.911765 243.018382 483.401961 240.283088 C 481.931373 237.625 482.098039 237.194853 484.264706 238.099265 C 487.941176 239.621324 489.911765 241.308824 491.382353 244.198529 C 492.715686 246.790441 492.784314 247.441176 492.068627 250.143382 C 491.627451 251.808824 490.637255 254.003676 489.872549 255.029412 C 488.686275 256.606618 488.647059 256.871324 489.588235 256.871324 C 491.352941 256.871324 495.039216 255.194853 496.343137 253.805147 C 497 253.110294 497.970588 251.378676 498.480392 249.955882 L 499.421569 247.386029 L 500.5 249.349265 C 502.029412 252.117647 504.990196 254.610294 508.607843 256.165441 C 512.5 257.830882 514.117647 257.919118 512.088235 256.363971 C 510.715686 255.316176 508.186275 247.893382 508.95098 247.165441 C 509.401961 246.746324 514.686275 250.805147 520.715686 256.220588 C 526.421569 261.338235 530 263.014706 535.235294 263.014706 C 541.931373 263.014706 545.833333 257.191176 542.823529 251.6875 C 541.068627 248.466912 537.156863 248.025735 534.872549 250.772059 C 533.823529 252.040441 533.539216 253.044118 533.843137 254.378676 C 534.22549 256 534.078431 256.209559 532.598039 256.209559 C 530.647059 256.209559 526.813725 253.727941 520 248.047794 C 509.617647 239.378676 497 232.033088 487.892157 229.352941 C 482.039216 227.632353 469.54902 226.959559 463.607843 228.040441 C 457.176471 229.220588 449.568627 232.904412 445.421569 236.841912 C 438.078431 243.823529 437.960784 253.121324 445.107843 261.580882 L 447.156863 264.007353 L 445.77451 266.158088 C 443.754902 269.290441 443.931373 273.514706 446.205882 276.625 C 447.205882 277.992647 448.215686 279.106618 448.441176 279.106618 C 448.676471 279.106618 448.931373 278.224265 449.009804 277.154412 C 449.215686 274.430147 450.382353 272.610294 452.382353 271.893382 C 454.186275 271.242647 455.352941 271.551471 463.607843 274.849265 C 472.294118 278.3125 486.588235 278.555147 501.77451 275.477941 C 509.22549 273.977941 518.009804 274.066176 521.872549 275.6875 C 528.95098 278.654412 530.588235 286.375 525.382353 292.231618 C 523.127451 294.768382 520.960784 295.794118 513.656863 297.801471 C 508.107843 299.323529 506.794118 299.422794 494.166667 299.301471 C 483.392157 299.191176 479.509804 299.400735 475.107843 300.316176 C 470.333333 301.319853 467.392157 301.419118 453.352941 301.066176 L 437.127451 300.658088 L 438.931373 302.147059 C 439.921569 302.963235 441.313725 303.977941 442.039216 304.386029 C 443.264706 305.091912 443.215686 305.180147 441.401961 305.852941 C 440.333333 306.25 437.960784 306.580882 436.127451 306.580882 L 432.794118 306.580882 L 432.343137 309.404412 C 432.098039 310.959559 432.117647 312.779412 432.392157 313.441176 C 432.784314 314.422794 432.637255 314.566176 431.607843 314.191176 C 430.901961 313.9375 428.95098 313.430147 427.27451 313.077206 C 425.588235 312.724265 423.323529 311.996324 422.235294 311.455882 C 420.401961 310.5625 420.205882 310.595588 419.529412 311.775735 C 418.931373 312.845588 413.294118 317.036765 412.460784 317.036765 C 412.323529 317.036765 412.156863 316.231618 412.078431 315.238971 C 412 314.257353 411.186275 311.676471 410.264706 309.514706 C 409.352941 307.363971 408.392157 305.003676 408.137255 304.286765 C 407.754902 303.205882 407.588235 303.150735 407.127451 303.955882 C 406.823529 304.496324 406.372549 305.974265 406.137255 307.231618 C 405.892157 308.488971 405.04902 310.540441 404.245098 311.775735 L 402.794118 314.036765 L 401.862745 312.106618 C 400.872549 310.033088 399.22549 307.882353 398.627451 307.882353 C 398.421569 307.882353 398.078431 308.544118 397.862745 309.360294 C 397.401961 311.047794 393.490196 315.735294 392.529412 315.735294 C 392.176471 315.735294 391.892157 314.411765 391.892157 312.790441 C 391.892157 311.169118 391.578431 309.845588 391.205882 309.845588 C 390.823529 309.845588 390.509804 310.264706 390.509804 310.772059 C 390.509804 312.018382 387.166667 315.735294 386.039216 315.735294 C 385.54902 315.735294 384.764706 316.176471 384.294118 316.716912 C 383.058824 318.117647 382.04902 317.919118 382.568627 316.375 C 382.813725 315.647059 382.656863 313.959559 382.215686 312.613971 C 381.784314 311.268382 381.323529 309.834559 381.186275 309.4375 C 381.019608 308.930147 379.823529 309.0625 377.294118 309.878676 C 373.186275 311.191176 371.813725 310.959559 373.921569 309.305147 C 374.696078 308.698529 375.862745 306.613971 376.529412 304.661765 C 377.186275 302.709559 378.166667 300.977941 378.696078 300.8125 C 379.441176 300.580882 379.401961 300.867647 378.529412 302.058824 C 377.901961 302.897059 377.382353 304.044118 377.382353 304.595588 C 377.382353 305.147059 376.911765 306.448529 376.333333 307.485294 C 375.764706 308.533088 375.401961 309.492647 375.529412 309.613971 C 375.666667 309.735294 377.22549 309.139706 379 308.290441 L 382.22549 306.746324 L 382.235294 308.136029 C 382.245098 308.897059 382.627451 310.893382 383.098039 312.591912 L 383.95098 315.669118 L 386.137255 314.654412 C 388.382353 313.628676 390.509804 309.955882 390.509804 307.099265 C 390.509804 305.698529 391.313725 305.908088 391.647059 307.408088 C 391.745098 307.849265 392.245098 309.492647 392.77451 311.069853 L 393.72549 313.9375 L 395.22549 312.128676 C 396.04902 311.136029 397.088235 309.183824 397.529412 307.794118 C 398.284314 305.378676 399.490196 304.341912 399.490196 306.095588 C 399.490196 307.352941 402.931373 311.886029 403.598039 311.488971 C 403.921569 311.301471 404.558824 309.602941 405.019608 307.716912 C 405.980392 303.790441 407.529412 301.110294 408.509804 301.683824 C 408.872549 301.904412 409.019608 302.323529 408.823529 302.621324 C 408.637255 302.919118 409.431373 305.466912 410.588235 308.301471 C 411.460784 310.408088 412.323529 312.514706 413.186275 314.621324 C 413.607843 315.669118 414 315.514706 416.490196 313.319853 C 418.039216 311.941176 419.45098 310.408088 419.627451 309.900735 C 419.882353 309.139706 420.22549 309.172794 421.676471 310.066176 C 423.705882 311.334559 430.529412 313.363971 431.058824 312.856618 C 431.254902 312.669118 431.460784 310.882353 431.509804 308.875 L 431.598039 305.235294 L 433.568627 305.643382 C 434.637255 305.863971 436.911765 305.852941 438.607843 305.610294 L 441.686275 305.169118 L 438.941176 303.283088 C 437.431373 302.257353 435.901961 300.911765 435.54902 300.305147 C 435.166667 299.665441 433.823529 299.125 432.303922 298.992647 C 428.186275 298.639706 420.892157 294.547794 420.892157 292.595588 C 420.892157 292.220588 421.901961 292.849265 423.137255 293.985294 C 425.882353 296.488971 429.686275 298.066176 433.009804 298.066176 L 435.490196 298.066176 L 433.95098 296.025735 C 433.068627 294.845588 432.27451 292.617647 432.088235 290.786765 C 431.794118 287.863971 431.490196 287.389706 428.431373 285.272059 C 426.598039 284.003676 424.333333 282.084559 423.392157 281.025735 L 421.676471 279.095588 L 420.803922 281.389706 C 420.323529 282.647059 419.735294 283.672794 419.5 283.672794 C 419.264706 283.672794 418.333333 282.944853 417.441176 282.040441 C 416.54902 281.147059 415.647059 280.408088 415.421569 280.419118 C 415.205882 280.419118 414.411765 281.632353 413.666667 283.110294 L 412.313725 285.790441 L 411.264706 284.246324 C 410.686275 283.397059 409.313725 281.886029 408.22549 280.904412 C 407.137255 279.911765 406.568627 279.095588 406.960784 279.095588 C 407.343137 279.095588 408.686275 280.132353 409.941176 281.389706 L 412.22549 283.683824 L 413.156863 282.007353 C 413.705882 281.003676 413.911765 279.481618 413.656863 278.246324 C 413.294118 276.4375 413.343137 276.338235 414.039216 277.463235 C 414.480392 278.191176 415.813725 279.569853 417 280.529412 L 419.166667 282.283088 L 420.666667 279.547794 C 422.156863 276.823529 422.166667 276.823529 422.843137 278.444853 C 423.745098 280.617647 430.294118 285.988971 435.872549 289.132353 C 436.735294 289.617647 436.372549 287.952206 434.784314 284.125 C 434.362745 283.110294 434.019608 281.290441 434.019608 280.066176 C 434.019608 278.257353 433.5 277.463235 431.186275 275.698529 C 427.843137 273.161765 426.764706 271.352941 426.137255 267.25 C 425.882353 265.595588 425.294118 263.742647 424.833333 263.147059 C 424.156863 262.264706 424.039216 262.761029 424.22549 265.838235 C 424.352941 267.922794 424.078431 270.503676 423.627451 271.584559 L 422.803922 273.536765 L 422.166667 271.904412 C 421.813725 271.011029 420.264706 269.444853 418.72549 268.430147 C 417.186275 267.415441 416.098039 266.422794 416.313725 266.213235 C 416.539216 266.003676 418.127451 266.930147 419.843137 268.264706 C 422.470588 270.294118 423.04902 270.514706 423.411765 269.621324 C 423.833333 268.5625 423.411765 263.985294 422.578431 260.786765 C 422.176471 259.1875 422.205882 259.198529 424.176471 261.172794 C 425.637255 262.617647 426.441176 264.360294 427.058824 267.382353 C 427.852941 271.220588 428.254902 271.860294 431.803922 274.981618 C 433.941176 276.856618 435.794118 278.290441 435.931373 278.158088 C 436.068627 278.025735 436.333333 273.183824 436.529412 267.382353 C 436.901961 256.275735 436.480392 253.628676 433.803922 250.1875 L 432.431373 248.422794 L 434.588235 246.095588 C 437.411765 243.051471 438.705882 240.613971 439.27451 237.283088 L 439.72549 234.580882 L 437.284314 236.886029 C 435.284314 238.783088 434.333333 239.202206 432.019608 239.202206 C 429.72549 239.202206 428.833333 238.816176 427.294118 237.172794 C 425.441176 235.198529 422.156863 233.301471 419 232.375 C 417.833333 232.033088 417.441176 232.176471 417.441176 232.970588 C 417.441176 233.544118 416.794118 235.220588 416.009804 236.676471 L 414.578431 239.334559 L 411.578431 236.367647 C 409.745098 234.547794 407.558824 233.136029 405.931373 232.705882 C 401.784314 231.613971 401.558824 231.724265 401.558824 234.823529 C 401.558824 239.511029 399.558824 240.382353 395.95098 237.261029 C 393.205882 234.889706 390.931373 234.371324 385.715686 234.944853 L 381.696078 235.386029 L 382.421569 237.205882 C 383.019608 238.716912 382.882353 239.356618 381.588235 241.088235 C 379.490196 243.878676 376.754902 245.091912 372.54902 245.091912 C 370.617647 245.091912 368.186275 245.488971 367.166667 245.974265 C 366.137255 246.470588 363.588235 247.033088 361.5 247.231618 C 359.411765 247.430147 357.186275 247.794118 356.54902 248.025735 C 355.558824 248.400735 355.45098 248.091912 355.77451 245.841912 C 356.264706 242.389706 353.852941 239.852941 350.107843 239.852941 C 345.235294 239.852941 343 244.209559 344.901961 249.944853 C 345.313725 251.224265 345.666667 252.514706 345.970588 253.816176 C 346.196078 254.886029 348.382353 257.698529 351.068627 260.389706 C 353.656863 262.970588 356.107843 265.672794 356.5 266.367647 C 356.901961 267.073529 358.235294 268.209559 359.45098 268.882353 L 361.676471 270.106618 L 361.382353 267.735294 C 361.058824 265.132353 361.627451 264.713235 363.019608 266.566176 C 363.509804 267.216912 364.77451 268.286765 365.813725 268.926471 C 367.460784 269.941176 367.715686 269.952206 367.715686 269.080882 C 367.715686 268.518382 368.04902 267.238971 368.460784 266.224265 L 369.205882 264.382353 L 370.5 266.886029 C 371.215686 268.264706 373.529412 271.397059 375.637255 273.845588 C 379.745098 278.599265 382.254902 283.915441 380.960784 285.128676 C 380.431373 285.625 379.019608 285.591912 376.088235 285.007353 C 373.813725 284.544118 371 284.301471 369.833333 284.466912 C 367.45098 284.797794 367.264706 284.488971 368.735294 282.658088 C 370.27451 280.727941 370.029412 280.408088 367 280.408088 C 363.490196 280.408088 354.784314 278.731618 351.441176 277.408088 C 348.186275 276.117647 347.441176 276.4375 346.480392 279.525735 C 346.058824 280.904412 345.264706 283.419118 344.735294 285.106618 L 343.764706 288.172794 L 347.284314 287.830882 C 349.215686 287.643382 351.705882 287.224265 352.803922 286.893382 C 353.911765 286.5625 354.921569 286.386029 355.039216 286.496324 C 355.166667 286.617647 354.676471 287.808824 353.941176 289.154412 L 352.627451 291.602941 L 354.823529 291.161765 C 356.029412 290.919118 357.843137 290.3125 358.852941 289.827206 C 360.607843 288.977941 360.754902 289.033088 362.137255 291.261029 C 363.852941 294.007353 365.215686 293.886029 365.519608 290.985294 C 365.833333 287.985294 366.823529 288.426471 368.676471 292.408088 C 370.470588 296.235294 372.323529 297.580882 372.686275 295.319853 C 372.803922 294.558824 373.764706 293.334559 374.823529 292.595588 C 376.960784 291.084559 378.578431 291.536765 379.5 293.908088 C 380.460784 296.356618 378.323529 298.882353 372.117647 302.643382 C 359.676471 310.1875 352.441176 320.5 350.372549 333.647059 C 348.509804 345.503676 354.333333 357.757353 366 366.558824 C 371.578431 370.772059 380.45098 375.216912 379.882353 373.518382 C 377.490196 366.316176 377.568627 352.573529 380.019608 350.257353 C 380.382353 349.904412 380.264706 351.338235 379.735294 353.444853 C 377.794118 361.264706 378.637255 367.496324 383.617647 382.110294 C 388.127451 395.334559 387.509804 400.981618 381.127451 404.709559 C 379.078431 405.911765 377.764706 406.110294 372.254902 406.044118 C 366.27451 405.966912 365.627451 406.088235 363.705882 407.621324 C 361.843137 409.099265 359.431373 413.974265 359.431373 416.235294 C 359.431373 417.470588 360.794118 417.305147 363.480392 415.761029 Z M 363.490196 415.761029 " transform="matrix(0.398438,0,0,0.354167,0,-26.916667)"/>
<path style="fill-rule:nonzero;fill:rgb(100%,71.764706%,0%);fill-opacity:1;stroke-width:5.56;stroke-linecap:butt;stroke-linejoin:miter;stroke:rgb(0%,0%,0%);stroke-opacity:1;stroke-miterlimit:4;" d="M 460.509804 415.496324 L 463.009804 413.886029 L 464.715686 415.496324 C 466.941176 417.613971 469.558824 417.558824 471.696078 415.375 C 472.637255 414.415441 473.470588 413.753676 473.568627 413.897059 C 473.656863 414.051471 474.068627 414.757353 474.490196 415.474265 C 475.019608 416.378676 476.107843 416.841912 478.078431 416.985294 C 480.441176 417.150735 481.078431 416.919118 482.019608 415.5625 L 483.147059 413.941176 L 485.607843 415.518382 C 492.372549 419.863971 495.970588 415.308824 492.95098 406.231618 C 491.411765 401.621324 492.264706 399.029412 497.205882 393.161765 C 499.294118 390.680147 501.009804 388.044118 501.009804 387.283088 C 501.009804 386.080882 500.617647 385.926471 497.843137 385.981618 C 495.186275 386.036765 494.411765 385.75 493.009804 384.205882 C 490.735294 381.702206 490.872549 378.834559 493.411765 375.647059 L 495.441176 373.110294 L 491.833333 370.661765 C 489.852941 369.316176 486.27451 366.128676 483.892157 363.580882 C 478.529412 357.867647 473.254902 355.154412 466.303922 354.547794 L 461.647059 354.128676 L 461.647059 357.658088 C 461.656863 362.202206 463.794118 366.569853 469.607843 373.970588 C 476.22549 382.386029 476.686275 383.698529 476.95098 394.694853 L 477.186275 403.992647 L 475.264706 405.8125 C 473.539216 407.455882 472.754902 407.665441 467.176471 407.985294 C 461.862745 408.294118 460.745098 408.569853 459.186275 409.948529 C 457.117647 411.779412 456.490196 412.783088 455.852941 415.308824 C 455.480392 416.786765 455.627451 417.106618 456.696078 417.106618 C 457.411765 417.106618 459.127451 416.389706 460.5 415.507353 Z M 318.303922 391.452206 C 318.892157 390.658088 319.382353 389.367647 319.382353 388.584559 C 319.382353 387.415441 319.901961 387.095588 322.490196 386.731618 L 325.598039 386.290441 L 323.519608 384.636029 C 321.058824 382.672794 320.833333 381.139706 323 381.139706 C 325.166667 381.139706 328.833333 378.889706 329.382353 377.224265 C 329.647059 376.452206 329.480392 375.426471 329.019608 374.897059 C 327.803922 373.507353 325.529412 373.716912 325.107843 375.25 C 324.647059 376.904412 323.882353 376.904412 322.156863 375.261029 C 319.558824 372.801471 319.5 367.705882 322.039216 364.738971 C 323.235294 363.338235 323.22549 363.25 321.696078 361.805147 C 320.058824 360.25 318.882353 357.183824 319.656863 356.455882 C 319.901961 356.224265 321.196078 356.400735 322.539216 356.863971 C 324.431373 357.514706 325.186275 357.525735 325.970588 356.908088 C 328.343137 355.044118 325.77451 352.639706 321.970588 353.169118 C 320.431373 353.389706 319.803922 353.169118 319.578431 352.375 C 319.421569 351.779412 318.078431 350.985294 316.568627 350.610294 C 313.872549 349.926471 313.852941 349.9375 313.852941 351.790441 C 313.852941 353.830882 312.686275 354.216912 310.480392 352.904412 C 308.686275 351.845588 306.941176 352.672794 306.941176 354.580882 C 306.941176 356.367647 308.735294 357.238971 311.95098 357.040441 C 314.421569 356.875 314.509804 358.705882 312.166667 361.341912 L 310.480392 363.238971 L 311.813725 365.158088 C 313.794118 367.992647 313.627451 372.702206 311.470588 375.051471 L 309.77451 376.882353 L 308.666667 375.415441 C 307.127451 373.363971 305.019608 373.507353 304.441176 375.680147 C 304.058824 377.113971 304.372549 377.764706 306.166667 379.286765 C 307.362745 380.301471 309.117647 381.128676 310.068627 381.128676 C 312.401961 381.128676 312.303922 382.970588 309.882353 384.823529 L 307.980392 386.279412 L 310.921569 386.731618 C 312.529412 386.985294 313.852941 387.448529 313.852941 387.779412 C 313.852941 389.025735 315.882353 392.908088 316.539216 392.908088 C 316.921569 392.908088 317.705882 392.257353 318.303922 391.452206 Z M 318.303922 391.452206 " transform="matrix(0.398438,0,0,0.354167,0,-26.916667)"/>
<path style="fill-rule:nonzero;fill:rgb(100%,71.764706%,0%);fill-opacity:1;stroke-width:5.56;stroke-linecap:butt;stroke-linejoin:miter;stroke:rgb(0%,0%,0%);stroke-opacity:1;stroke-miterlimit:4;" d="M 356.519608 374.886029 C 359.186275 373.838235 364.960784 368.952206 364.960784 367.75 C 364.960784 367.363971 363.372549 365.610294 361.421569 363.856618 C 357.323529 360.139706 352.862745 353.897059 351.715686 350.257353 C 351.107843 348.349265 348.205882 345.084559 340.009804 337.143382 L 329.098039 326.566176 L 325.960784 327.360294 C 324.22549 327.801471 322.117647 328.165441 321.264706 328.176471 C 319.803922 328.198529 319.833333 328.286765 321.77451 329.786765 L 323.833333 331.386029 L 326.705882 329.775735 C 329.5 328.231618 329.598039 328.220588 329.941176 329.466912 C 330.137255 330.205882 329.705882 331.463235 328.931373 332.389706 C 328.186275 333.294118 327.764706 334.308824 327.990196 334.661765 C 328.215686 335.014706 327.5 335.731618 326.392157 336.283088 C 324.343137 337.275735 322.921569 340.584559 324.539216 340.584559 C 325.990196 340.584559 329.205882 336.625 328.833333 335.290441 C 328.647059 334.606618 328.735294 333.900735 329.039216 333.724265 C 330.284314 332.996324 330.205882 336.095588 328.941176 337.628676 C 328.186275 338.522059 327.764706 339.547794 327.990196 339.889706 C 328.215686 340.242647 327.5 340.970588 326.392157 341.511029 C 324.362745 342.503676 322.921569 345.8125 324.529412 345.8125 C 326.098039 345.8125 329.245098 342.029412 328.862745 340.617647 C 328.656863 339.878676 328.735294 339.128676 329.029412 338.952206 C 329.872549 338.466912 330.333333 340.915441 329.617647 342.117647 C 329.235294 342.757353 329.245098 343.639706 329.627451 344.334559 C 330.323529 345.591912 329.617647 348.018382 328.333333 348.779412 C 327.784314 349.099265 328.156863 349.727941 329.490196 350.742647 C 331.431373 352.198529 331.460784 352.352941 331.460784 358.805147 C 331.460784 364.198529 331.686275 365.599265 332.676471 366.536765 C 333.784314 367.584559 333.882353 367.584559 333.882353 366.580882 C 333.882353 365.477941 335.823529 364.132353 337.401961 364.132353 C 337.872549 364.132353 340.794118 366.602941 343.892157 369.625 C 347.009804 372.669118 350.27451 375.261029 351.205882 375.426471 C 352.127451 375.591912 353.117647 375.768382 353.411765 375.8125 C 353.715686 375.856618 355.107843 375.448529 356.519608 374.886029 Z M 323.176471 348.801471 C 323.176471 347.058824 319.588235 345.205882 315.303922 344.720588 C 311.843137 344.334559 311.784314 344.356618 311.784314 346.088235 C 311.784314 347.522059 312.323529 348.084559 314.715686 349.121324 C 318.558824 350.797794 323.176471 350.621324 323.176471 348.801471 Z M 323.176471 348.801471 " transform="matrix(0.398438,0,0,0.354167,0,-26.916667)"/>
<path style="fill-rule:nonzero;fill:rgb(100%,71.764706%,0%);fill-opacity:1;stroke-width:5.56;stroke-linecap:butt;stroke-linejoin:miter;stroke:rgb(0%,0%,0%);stroke-opacity:1;stroke-miterlimit:4;" d="M 327.107843 348.636029 C 328.862745 347.047794 329.686275 345.161765 328.637255 345.161765 C 327.421569 345.161765 324.215686 348.051471 324.215686 349.132353 C 324.215686 350.830882 324.813725 350.731618 327.107843 348.636029 Z M 323.382353 343.496324 C 323.529412 342.514706 322.921569 341.863971 321.107843 341.036765 C 317.176471 339.272059 312.490196 338.444853 311.362745 339.338235 C 309.284314 340.970588 310.666667 343.165441 314.029412 343.5625 C 315.382353 343.727941 317.22549 344.136029 318.107843 344.477941 C 320.696078 345.481618 323.147059 345.029412 323.382353 343.496324 Z M 323.382353 338.246324 C 323.588235 336.845588 322.696078 336.349265 315.392157 333.779412 C 309.941176 331.860294 307.529412 332.764706 309.264706 336.073529 C 309.872549 337.220588 310.892157 337.75 313.176471 338.091912 C 314.882353 338.345588 317.205882 338.841912 318.343137 339.194853 C 321.382353 340.143382 323.147059 339.8125 323.382353 338.246324 Z M 327.039216 333.327206 C 328.137255 332.202206 329.039216 330.889706 329.039216 330.393382 C 329.039216 328.794118 324.686275 331.628676 324.137255 333.591912 C 323.470588 335.952206 324.54902 335.852941 327.039216 333.327206 Z M 323.382353 332.996324 C 323.617647 331.397059 320.970588 329.963235 315.754902 328.849265 C 311.931373 328.044118 310.245098 328.507353 310.529412 330.283088 C 310.686275 331.242647 311.960784 331.959559 315.578431 333.084559 C 321.362745 334.893382 323.098039 334.871324 323.382353 332.996324 Z M 328.480392 325.573529 C 335.156863 322.595588 335.735294 315.095588 329.441176 313.132353 C 326.823529 312.316176 325.156863 312.757353 324.156863 314.522059 C 323.382353 315.878676 323.901961 318.349265 324.95098 318.349265 C 325.303922 318.349265 325.588235 318.8125 325.588235 319.363971 C 325.588235 321.966912 315.392157 323.147059 311.215686 321.029412 C 309.745098 320.279412 309.098039 318.349265 310.323529 318.349265 C 311.235294 318.349265 311.872549 316.375 311.401961 314.985294 C 310.764706 313.088235 308.852941 312.426471 306.078431 313.154412 C 299.823529 314.797794 299.990196 322.154412 306.372549 325.275735 C 311.598039 327.834559 323.058824 327.988971 328.480392 325.573529 Z M 328.480392 325.573529 " transform="matrix(0.398438,0,0,0.354167,0,-26.916667)"/>
<path style="fill-rule:nonzero;fill:rgb(100%,71.764706%,0%);fill-opacity:1;stroke-width:5.56;stroke-linecap:butt;stroke-linejoin:miter;stroke:rgb(0%,0%,0%);stroke-opacity:1;stroke-miterlimit:4;" d="M 324.323529 319.805147 C 324.715686 319.441176 324.54902 318.878676 323.892157 318.371324 C 322.470588 317.257353 322.54902 315.591912 324.107843 313.694853 C 325.27451 312.261029 325.421569 310.132353 325.823529 288.580882 C 326.519608 251.455882 329.284314 223.540441 332.921569 216.834559 C 334.372549 214.165441 334.166667 214.154412 330.421569 216.702206 C 325.598039 219.988971 321.931373 224.257353 318.676471 230.378676 C 312.529412 241.926471 310.401961 257.455882 310.401961 290.621324 C 310.401961 309.448529 310.529412 311.919118 311.598039 313.683824 C 312.617647 315.360294 312.676471 315.988971 311.960784 317.786765 C 311.490196 318.944853 311.284314 320.058824 311.490196 320.257353 C 312.862745 321.558824 322.852941 321.205882 324.323529 319.816176 Z M 380.45098 284.400735 C 380.656863 284.080882 380.196078 282.459559 379.421569 280.805147 C 378.215686 278.224265 377.72549 277.794118 376.009804 277.794118 C 370.617647 277.794118 361.960784 275.389706 353.029412 271.408088 C 347.872549 269.102941 346.098039 268.584559 345.470588 269.169118 C 343.901961 270.658088 346.519608 274.209559 350.578431 276.073529 C 354.176471 277.727941 364.254902 279.757353 368.843137 279.757353 C 371.509804 279.757353 371.568627 279.878676 370.058824 282.0625 L 368.941176 283.683824 L 371.960784 283.761029 C 373.617647 283.805147 375.901961 284.058824 377.039216 284.334559 C 380 285.051471 380.029412 285.051471 380.45098 284.400735 Z M 380.45098 284.400735 " transform="matrix(0.398438,0,0,0.354167,0,-26.916667)"/>
<path style="fill-rule:nonzero;fill:rgb(0%,0%,0%);fill-opacity:1;stroke-width:5.56;stroke-linecap:butt;stroke-linejoin:miter;stroke:rgb(0%,0%,0%);stroke-opacity:1;stroke-miterlimit:4;" d="M 411.921569 301.132353 C 411.921569 300.172794 409.098039 297.580882 406.245098 295.904412 C 404 294.580882 403.637255 294.547794 403.627451 295.617647 C 403.617647 297.25 402.176471 301.341912 401.607843 301.341912 C 401.284314 301.341912 400.803922 300.536765 400.54902 299.566176 C 400.284314 298.584559 399.205882 296.654412 398.137255 295.286765 L 396.186275 292.783088 L 394.676471 295.099265 C 393.264706 297.261029 390.813725 299.378676 389.735294 299.378676 C 389.470588 299.378676 389.421569 298.242647 389.617647 296.852941 C 389.833333 295.330882 389.666667 294.139706 389.205882 293.863971 C 388.784314 293.621324 388.441176 293.709559 388.441176 294.0625 C 388.441176 294.867647 385.039216 298.727941 384.323529 298.727941 C 384.029412 298.727941 383.617647 297.625 383.401961 296.268382 C 383.196078 294.922794 382.833333 292.794118 382.607843 291.525735 C 382.382353 290.268382 382.862745 291.128676 383.686275 293.422794 L 385.166667 297.613971 L 386.794118 295.066176 C 387.696078 293.665441 388.431373 292.132353 388.431373 291.658088 C 388.431373 291.183824 388.735294 290.974265 389.107843 291.194853 C 389.480392 291.404412 389.990196 293.091912 390.245098 294.944853 L 390.715686 298.297794 L 392.509804 296.334559 C 393.5 295.242647 394.656863 293.797794 395.078431 293.113971 C 395.843137 291.878676 395.882353 291.878676 397.401961 293.169118 C 398.245098 293.886029 399.54902 295.606618 400.294118 296.996324 C 401.04902 298.375 401.754902 299.400735 401.882353 299.279412 C 402 299.158088 402.27451 297.724265 402.480392 296.113971 C 402.696078 294.492647 402.882353 293.102941 402.901961 293.036765 C 403.009804 292.628676 408.313725 296.080882 410.27451 297.823529 C 411.529412 298.9375 412.72549 299.698529 412.931373 299.511029 C 413.137255 299.323529 413.303922 297.669118 413.303922 295.838235 C 413.303922 293.003676 413 292.242647 411.264706 290.6875 C 409.27451 288.900735 409.215686 288.900735 408.480392 290.202206 C 407.519608 291.889706 406.392157 291.911765 406.392157 290.246324 C 406.392157 289.022059 402.627451 284.334559 401.647059 284.334559 C 401.392157 284.334559 400.598039 285.360294 399.882353 286.628676 C 399.166667 287.886029 398.392157 288.911765 398.176471 288.911765 C 397.205882 288.911765 391.892157 282.988971 391.892157 281.919118 C 391.892157 281.069853 392.254902 281.279412 393.186275 282.702206 C 393.892157 283.783088 395.303922 285.393382 396.323529 286.286765 C 398.392157 288.084559 399.137255 287.643382 399.941176 284.169118 C 400.166667 283.1875 400.558824 282.371324 400.813725 282.371324 C 401.696078 282.371324 406.323529 287.290441 406.970588 288.911765 L 407.627451 290.555147 L 408.117647 288.746324 C 408.72549 286.551471 409.392157 286.474265 410.362745 288.481618 C 410.764706 289.319853 412.754902 291.0625 414.784314 292.352941 L 418.480392 294.702206 L 419.22549 292.330882 C 419.627451 291.040441 420.166667 290.290441 420.421569 290.676471 C 420.794118 291.25 419.843137 295.165441 419.117647 296.014706 C 419.009804 296.136029 417.813725 295.441176 416.45098 294.459559 L 413.990196 292.683824 L 413.980392 295.871324 C 413.980392 297.613971 413.784314 299.709559 413.558824 300.525735 C 413.107843 302.102941 411.921569 302.555147 411.921569 301.132353 Z M 393.5 275.753676 C 389.117647 272.080882 388.45098 271.242647 388.539216 269.511029 L 388.647059 267.658088 L 388.931373 269.444853 C 389.098039 270.492647 390.27451 272.047794 391.745098 273.205882 L 394.264706 275.169118 L 395.813725 273.382353 C 396.676471 272.389706 397.382353 271.220588 397.392157 270.768382 C 397.431373 269.599265 397.637255 269.6875 400.617647 272.268382 C 403.254902 274.5625 403.294118 274.573529 403.686275 273.095588 C 403.911765 272.257353 403.823529 270.702206 403.519608 269.632353 C 402.656863 266.665441 402.823529 266.224265 404.127451 268.011029 C 404.77451 268.893382 405.823529 270.150735 406.45098 270.801471 C 407.54902 271.926471 407.617647 271.915441 408.029412 270.470588 C 408.254902 269.643382 408.45098 268.132353 408.460784 267.106618 L 408.470588 265.242647 L 410.852941 267.944853 C 413.078431 270.470588 413.27451 270.558824 413.960784 269.356618 C 414.352941 268.650735 414.686275 266.952206 414.696078 265.573529 C 414.705882 263.808824 414.892157 263.356618 415.343137 264.029412 C 416.098039 265.165441 415.568627 268.231618 414.176471 270.845588 L 413.186275 272.720588 L 411.872549 270.680147 C 410.196078 268.077206 409.637255 268.121324 408.558824 270.933824 C 407.54902 273.591912 406.882353 273.790441 405.892157 271.75 C 405.254902 270.426471 405.137255 270.591912 404.676471 273.371324 L 404.176471 276.459559 L 398.117647 271.761029 L 396.754902 273.305147 C 396 274.154412 395.382353 275.224265 395.372549 275.676471 C 395.343137 276.647059 394.617647 276.680147 393.5 275.753676 Z M 432.558824 262.099265 C 430.960784 260.654412 429.852941 259.286765 430.107843 259.044118 C 430.362745 258.801471 430.647059 258.735294 430.735294 258.889706 C 430.833333 259.044118 432.137255 260.422794 433.647059 261.944853 C 437.098039 265.452206 436.392157 265.551471 432.558824 262.099265 Z M 380.539216 256.716912 C 379.088235 254.753676 379.186275 253.452206 380.95098 251.323529 C 382.235294 249.779412 382.813725 249.569853 385.04902 249.856618 C 386.480392 250.044118 389.568627 251.301471 391.901961 252.669118 C 394.598039 254.246324 397.382353 255.294118 399.539216 255.558824 C 401.411765 255.790441 402.941176 255.878676 402.941176 255.757353 C 402.941176 255.636029 402.166667 254.367647 401.215686 252.944853 C 398.960784 249.558824 399.039216 249.194853 401.588235 251.224265 C 404.196078 253.297794 407.313725 253.915441 414.294118 253.694853 L 417.705882 253.595588 L 415.72549 251.643382 C 412.960784 248.908088 413.813725 248.654412 416.872549 251.3125 C 419.735294 253.794118 419.558824 253.970588 413.519608 254.577206 C 410.960784 254.830882 408.205882 254.643382 405.911765 254.058824 C 402.490196 253.1875 402.352941 253.198529 403 254.356618 C 403.372549 255.018382 403.980392 255.558824 404.352941 255.558824 C 404.715686 255.558824 405.019608 255.889706 405.019608 256.297794 C 405.019608 257.566176 397.617647 256.452206 394.078431 254.665441 C 386 250.573529 384.980392 250.220588 383.058824 250.827206 C 381.990196 251.158088 380.911765 252.150735 380.54902 253.132353 C 379.313725 256.441176 383.990196 259 385.921569 256.088235 C 386.480392 255.238971 386.352941 254.665441 385.372549 253.628676 C 384.019608 252.227941 384.147059 252.018382 385.970588 252.680147 C 387.254902 253.154412 387.431373 256.253676 386.235294 257.389706 C 384.862745 258.691176 381.72549 258.316176 380.539216 256.716912 Z M 380.539216 256.716912 " transform="matrix(0.398438,0,0,0.354167,0,-26.916667)"/>
<path style="fill-rule:nonzero;fill:rgb(0%,0%,0%);fill-opacity:1;stroke-width:5.56;stroke-linecap:butt;stroke-linejoin:miter;stroke:rgb(0%,0%,0%);stroke-opacity:1;stroke-miterlimit:4;" d="M 412.372549 248.566176 C 411.362745 247.617647 412.147059 247.375 416.676471 247.297794 C 422.284314 247.1875 425.686275 246.25 429.705882 243.724265 C 432.921569 241.694853 433.794118 242.091912 430.735294 244.198529 C 427.95098 246.117647 423.607843 247.595588 419.411765 248.047794 C 417.382353 248.268382 415.068627 248.566176 414.264706 248.720588 C 413.470588 248.875 412.617647 248.808824 412.362745 248.566176 Z M 412.372549 248.566176 " transform="matrix(0.398438,0,0,0.354167,0,-26.916667)"/>
<path style=" stroke:none;fill-rule:nonzero;fill:rgb(100%,71.764706%,0%);fill-opacity:1;" d="M 144.828125 120.332031 L 145.753906 119.859375 L 146.148438 120.335938 C 146.679688 120.96875 148.136719 120.960938 149.109375 120.320312 L 149.847656 119.828125 L 150.46875 120.320312 C 151.285156 120.964844 152.808594 120.964844 153.78125 120.324219 C 154.464844 119.871094 154.558594 119.863281 155.011719 120.207031 C 155.277344 120.410156 156.066406 120.644531 156.761719 120.722656 C 158.011719 120.867188 158.027344 120.859375 158.761719 119.882812 C 159.371094 119.066406 159.46875 118.738281 159.324219 117.945312 C 159.214844 117.320312 159.136719 116.695312 159.089844 116.066406 C 159.035156 115.144531 159.039062 115.140625 160.546875 114.675781 C 161.378906 114.417969 162.34375 114.070312 162.6875 113.90625 C 163.289062 113.617188 164.949219 111.886719 164.949219 111.542969 C 164.949219 111.453125 164.300781 111.3125 163.507812 111.234375 C 160.355469 110.921875 159.824219 109.417969 161.871094 106.621094 C 165.214844 102.0625 167.230469 97.625 167.242188 94.796875 C 167.25 93.535156 167.332031 93.109375 167.515625 93.386719 C 168.261719 94.507812 166.921875 99.21875 164.894531 102.597656 L 164.082031 103.960938 L 164.859375 103.800781 C 165.289062 103.714844 167.804688 102.769531 170.453125 101.703125 C 177.703125 98.785156 180.191406 98.214844 184.886719 98.386719 C 188.816406 98.535156 190.488281 99.21875 193.265625 101.804688 C 194.734375 103.175781 196.152344 104.15625 198.742188 105.597656 C 204.261719 108.671875 204.492188 108.9375 204.753906 112.546875 C 205.019531 116.207031 204.886719 116.40625 201.773438 117.015625 C 199.113281 117.539062 197.445312 118.644531 196.996094 120.175781 C 196.757812 120.992188 197.261719 121.015625 198.601562 120.25 L 199.585938 119.6875 L 200.023438 120.25 C 200.597656 120.988281 201.820312 120.992188 202.835938 120.257812 L 203.601562 119.703125 L 204.386719 120.257812 C 205.601562 121.117188 207.222656 120.910156 207.679688 119.832031 C 207.765625 119.625 208 119.691406 208.476562 120.054688 C 209.363281 120.742188 211.644531 121.039062 211.890625 120.5 C 211.984375 120.292969 211.804688 119.78125 211.492188 119.367188 C 210.167969 117.597656 209.753906 116.757812 209.734375 115.792969 C 209.710938 114.453125 210.160156 113.808594 211.875 112.71875 C 213.953125 111.398438 214.597656 109.691406 213.015625 109.691406 C 212.039062 109.691406 211.054688 108.925781 210.425781 107.671875 C 209.148438 105.128906 209.398438 102.28125 211.3125 97.539062 C 213.261719 92.722656 213.476562 91.832031 213.484375 88.613281 C 213.492188 86.007812 213.417969 85.558594 212.75 84.128906 C 212.34375 83.257812 211.515625 81.957031 210.914062 81.242188 L 209.816406 79.9375 L 211.222656 78.902344 C 215.523438 75.734375 214.644531 70.554688 209.46875 68.558594 C 207.882812 67.945312 207.488281 67.890625 204.714844 67.910156 C 203.050781 67.917969 200.511719 68.113281 199.074219 68.339844 C 197.605469 68.574219 195.125 68.761719 193.421875 68.765625 C 190.71875 68.777344 190.261719 68.71875 189.21875 68.222656 C 188.132812 67.710938 187.945312 67.464844 187.734375 66.277344 C 187.6875 66.035156 187.496094 65.789062 187.304688 65.734375 C 186.9375 65.632812 185.230469 66.949219 184.976562 67.53125 C 184.851562 67.820312 184.75 67.800781 184.386719 67.417969 C 184.144531 67.160156 183.804688 66.578125 183.632812 66.117188 C 183.203125 64.957031 183.734375 64.085938 185.265625 63.4375 L 186.453125 62.929688 L 185.753906 62.542969 C 184.304688 61.746094 181.847656 62.292969 180.957031 63.609375 C 180.703125 63.980469 180.429688 64.285156 180.347656 64.289062 C 180.261719 64.289062 179.785156 63.933594 179.28125 63.496094 C 177.414062 61.875 178.058594 59.476562 180.554688 58.742188 C 181.890625 58.351562 183.066406 58.648438 183.3125 59.4375 C 183.6875 60.644531 184.851562 59.058594 184.644531 57.628906 C 184.503906 56.675781 184.523438 56.644531 185.265625 56.644531 C 186.296875 56.644531 188.488281 57.847656 189.167969 58.78125 C 189.953125 59.871094 189.894531 61.582031 189.03125 62.859375 L 188.347656 63.859375 L 189.238281 63.703125 C 190.542969 63.46875 191.8125 62.75 192.453125 61.875 C 193.132812 60.953125 193.207031 59.152344 192.605469 58.183594 C 192.019531 57.242188 192.085938 57.089844 192.949219 57.410156 C 194.414062 57.949219 195.199219 58.546875 195.785156 59.570312 C 196.316406 60.488281 196.34375 60.71875 196.058594 61.675781 C 195.882812 62.265625 195.488281 63.042969 195.183594 63.40625 C 194.710938 63.964844 194.695312 64.058594 195.070312 64.058594 C 195.773438 64.058594 197.242188 63.464844 197.761719 62.972656 C 198.023438 62.726562 198.410156 62.113281 198.613281 61.609375 L 198.988281 60.699219 L 199.417969 61.394531 C 200.027344 62.375 201.207031 63.257812 202.648438 63.808594 C 204.199219 64.398438 204.84375 64.429688 204.035156 63.878906 C 203.488281 63.507812 202.480469 60.878906 202.785156 60.621094 C 202.964844 60.472656 205.070312 61.910156 207.472656 63.828125 C 209.746094 65.640625 211.171875 66.234375 213.257812 66.234375 C 215.925781 66.234375 217.480469 64.171875 216.28125 62.222656 C 215.582031 61.082031 214.023438 60.925781 213.113281 61.898438 C 212.695312 62.347656 212.582031 62.703125 212.703125 63.175781 C 212.855469 63.75 212.796875 63.824219 212.207031 63.824219 C 211.429688 63.824219 209.902344 62.945312 207.1875 60.933594 C 203.050781 57.863281 198.023438 55.261719 194.394531 54.3125 C 192.0625 53.703125 187.085938 53.464844 184.71875 53.847656 C 182.15625 54.265625 179.125 55.570312 177.472656 56.964844 C 174.546875 59.4375 174.5 62.730469 177.347656 65.726562 L 178.164062 66.585938 L 177.613281 67.347656 C 176.808594 68.457031 176.878906 69.953125 177.785156 71.054688 C 178.183594 71.539062 178.585938 71.933594 178.675781 71.933594 C 178.769531 71.933594 178.871094 71.621094 178.902344 71.242188 C 178.984375 70.277344 179.449219 69.632812 180.246094 69.378906 C 180.964844 69.148438 181.429688 69.257812 184.71875 70.425781 C 188.179688 71.652344 193.875 71.738281 199.925781 70.648438 C 202.894531 70.117188 206.394531 70.148438 207.933594 70.722656 C 210.753906 71.773438 211.40625 74.507812 209.332031 76.582031 C 208.433594 77.480469 207.570312 77.84375 204.660156 78.554688 C 202.449219 79.09375 201.925781 79.128906 196.894531 79.085938 C 192.601562 79.046875 191.054688 79.121094 189.300781 79.445312 C 187.398438 79.800781 186.226562 79.835938 180.632812 79.710938 L 174.167969 79.566406 L 174.886719 80.09375 C 175.28125 80.382812 175.835938 80.742188 176.125 80.886719 C 176.613281 81.136719 176.59375 81.167969 175.871094 81.40625 C 175.445312 81.546875 174.5 81.664062 173.769531 81.664062 L 172.441406 81.664062 L 172.261719 82.664062 C 172.164062 83.214844 172.171875 83.859375 172.28125 84.09375 C 172.4375 84.441406 172.378906 84.492188 171.96875 84.359375 C 171.6875 84.269531 170.910156 84.089844 170.242188 83.964844 C 169.570312 83.839844 168.667969 83.582031 168.234375 83.390625 C 167.503906 83.074219 167.425781 83.085938 167.15625 83.503906 C 166.917969 83.882812 164.671875 85.367188 164.339844 85.367188 C 164.285156 85.367188 164.21875 85.082031 164.1875 84.730469 C 164.15625 84.382812 163.832031 83.46875 163.464844 82.703125 C 163.101562 81.941406 162.71875 81.105469 162.617188 80.851562 C 162.464844 80.46875 162.398438 80.449219 162.214844 80.734375 C 162.09375 80.925781 161.914062 81.449219 161.820312 81.894531 C 161.722656 82.339844 161.386719 83.066406 161.066406 83.503906 L 160.488281 84.304688 L 160.117188 83.621094 C 159.722656 82.886719 159.066406 82.125 158.828125 82.125 C 158.746094 82.125 158.609375 82.359375 158.523438 82.648438 C 158.339844 83.246094 156.78125 84.90625 156.398438 84.90625 C 156.257812 84.90625 156.144531 84.4375 156.144531 83.863281 C 156.144531 83.289062 156.019531 82.820312 155.871094 82.820312 C 155.71875 82.820312 155.59375 82.96875 155.59375 83.148438 C 155.59375 83.589844 154.261719 84.90625 153.8125 84.90625 C 153.617188 84.90625 153.304688 85.0625 153.117188 85.253906 C 152.625 85.75 152.222656 85.679688 152.429688 85.132812 C 152.527344 84.875 152.464844 84.277344 152.289062 83.800781 C 152.117188 83.324219 151.933594 82.816406 151.878906 82.675781 C 151.8125 82.496094 151.335938 82.542969 150.328125 82.832031 C 148.691406 83.296875 148.144531 83.214844 148.984375 82.628906 C 149.292969 82.414062 149.757812 81.675781 150.023438 80.984375 C 150.285156 80.292969 150.675781 79.679688 150.886719 79.621094 C 151.183594 79.539062 151.167969 79.640625 150.820312 80.0625 C 150.570312 80.359375 150.363281 80.765625 150.363281 80.960938 C 150.363281 81.15625 150.175781 81.617188 149.945312 81.984375 C 149.71875 82.355469 149.574219 82.695312 149.625 82.738281 C 149.679688 82.78125 150.300781 82.570312 151.007812 82.269531 L 152.292969 81.722656 L 152.296875 82.214844 C 152.300781 82.484375 152.453125 83.191406 152.640625 83.792969 L 152.980469 84.882812 L 153.851562 84.523438 C 154.746094 84.160156 155.59375 82.859375 155.59375 81.847656 C 155.59375 81.351562 155.914062 81.425781 156.046875 81.957031 C 156.085938 82.113281 156.285156 82.695312 156.496094 83.253906 L 156.875 84.269531 L 157.472656 83.628906 C 157.800781 83.277344 158.214844 82.585938 158.390625 82.09375 C 158.691406 81.238281 159.171875 80.871094 159.171875 81.492188 C 159.171875 81.9375 160.542969 83.542969 160.808594 83.402344 C 160.9375 83.335938 161.191406 82.734375 161.375 82.066406 C 161.757812 80.675781 162.375 79.726562 162.765625 79.929688 C 162.910156 80.007812 162.96875 80.15625 162.890625 80.261719 C 162.816406 80.367188 163.132812 81.269531 163.59375 82.273438 C 163.941406 83.019531 164.285156 83.765625 164.628906 84.511719 C 164.796875 84.882812 164.953125 84.828125 165.945312 84.050781 C 166.5625 83.5625 167.125 83.019531 167.195312 82.839844 C 167.296875 82.570312 167.433594 82.582031 168.011719 82.898438 C 168.820312 83.347656 171.539062 84.066406 171.75 83.886719 C 171.828125 83.820312 171.910156 83.1875 171.929688 82.476562 L 171.964844 81.1875 L 172.75 81.332031 C 173.175781 81.410156 174.082031 81.40625 174.757812 81.320312 L 175.984375 81.164062 L 174.890625 80.496094 C 174.289062 80.132812 173.679688 79.65625 173.539062 79.441406 C 173.386719 79.214844 172.851562 79.023438 172.246094 78.976562 C 170.605469 78.851562 167.699219 77.402344 167.699219 76.710938 C 167.699219 76.578125 168.101562 76.800781 168.59375 77.203125 C 169.6875 78.089844 171.203125 78.648438 172.527344 78.648438 L 173.515625 78.648438 L 172.902344 77.925781 C 172.550781 77.507812 172.234375 76.71875 172.160156 76.070312 C 172.042969 75.035156 171.921875 74.867188 170.703125 74.117188 C 169.972656 73.667969 169.070312 72.988281 168.695312 72.613281 L 168.011719 71.929688 L 167.664062 72.742188 C 167.472656 73.1875 167.238281 73.550781 167.144531 73.550781 C 167.050781 73.550781 166.679688 73.292969 166.324219 72.972656 C 165.96875 72.65625 165.609375 72.394531 165.519531 72.398438 C 165.433594 72.398438 165.117188 72.828125 164.820312 73.351562 L 164.28125 74.300781 L 163.863281 73.753906 C 163.632812 73.453125 163.085938 72.917969 162.652344 72.570312 C 162.21875 72.21875 161.992188 71.929688 162.148438 71.929688 C 162.300781 71.929688 162.835938 72.296875 163.335938 72.742188 L 164.246094 73.554688 L 164.617188 72.960938 C 164.835938 72.605469 164.917969 72.066406 164.816406 71.628906 C 164.671875 70.988281 164.691406 70.953125 164.96875 71.351562 C 165.144531 71.609375 165.675781 72.097656 166.148438 72.4375 L 167.011719 73.058594 L 167.609375 72.089844 C 168.203125 71.125 168.207031 71.125 168.476562 71.699219 C 168.835938 72.46875 171.445312 74.371094 173.667969 75.484375 C 174.011719 75.65625 173.867188 75.066406 173.234375 73.710938 C 173.066406 73.351562 172.929688 72.707031 172.929688 72.273438 C 172.929688 71.632812 172.722656 71.351562 171.800781 70.726562 C 170.46875 69.828125 170.039062 69.1875 169.789062 67.734375 C 169.6875 67.148438 169.453125 66.492188 169.269531 66.28125 C 169 65.96875 168.953125 66.144531 169.027344 67.234375 C 169.078125 67.972656 168.96875 68.886719 168.789062 69.269531 L 168.460938 69.960938 L 168.207031 69.382812 C 168.066406 69.066406 167.449219 68.511719 166.835938 68.152344 C 166.222656 67.792969 165.789062 67.441406 165.875 67.367188 C 165.964844 67.292969 166.597656 67.621094 167.28125 68.09375 C 168.328125 68.8125 168.558594 68.890625 168.703125 68.574219 C 168.871094 68.199219 168.703125 66.578125 168.371094 65.445312 C 168.210938 64.878906 168.222656 64.882812 169.007812 65.582031 C 169.589844 66.09375 169.910156 66.710938 170.15625 67.78125 C 170.472656 69.140625 170.632812 69.367188 172.046875 70.472656 C 172.898438 71.136719 173.636719 71.644531 173.691406 71.597656 C 173.746094 71.550781 173.851562 69.835938 173.929688 67.78125 C 174.078125 63.847656 173.910156 62.910156 172.84375 61.691406 L 172.296875 61.066406 L 173.15625 60.242188 C 174.28125 59.164062 174.796875 58.300781 175.023438 57.121094 L 175.203125 56.164062 L 174.230469 56.980469 C 173.433594 57.652344 173.054688 57.800781 172.132812 57.800781 C 171.21875 57.800781 170.863281 57.664062 170.25 57.082031 C 169.511719 56.382812 168.203125 55.710938 166.945312 55.382812 C 166.480469 55.261719 166.324219 55.3125 166.324219 55.59375 C 166.324219 55.796875 166.066406 56.390625 165.753906 56.90625 L 165.183594 57.847656 L 163.988281 56.796875 C 163.257812 56.152344 162.386719 55.652344 161.738281 55.5 C 160.085938 55.113281 159.996094 55.152344 159.996094 56.25 C 159.996094 57.910156 159.199219 58.21875 157.761719 57.113281 C 156.667969 56.273438 155.761719 56.089844 153.683594 56.292969 L 152.082031 56.449219 L 152.371094 57.09375 C 152.609375 57.628906 152.554688 57.855469 152.039062 58.46875 C 151.203125 59.457031 150.113281 59.886719 148.4375 59.886719 C 147.667969 59.886719 146.699219 60.027344 146.292969 60.199219 C 145.882812 60.375 144.867188 60.574219 144.035156 60.644531 C 143.203125 60.714844 142.316406 60.84375 142.0625 60.925781 C 141.667969 61.058594 141.625 60.949219 141.753906 60.152344 C 141.949219 58.929688 140.988281 58.03125 139.496094 58.03125 C 137.554688 58.03125 136.664062 59.574219 137.421875 61.605469 C 137.585938 62.058594 137.726562 62.515625 137.847656 62.976562 C 137.9375 63.355469 138.808594 64.351562 139.878906 65.304688 C 140.910156 66.21875 141.886719 67.175781 142.042969 67.421875 C 142.203125 67.671875 142.734375 68.074219 143.21875 68.3125 L 144.105469 68.746094 L 143.988281 67.90625 C 143.859375 66.984375 144.085938 66.835938 144.640625 67.492188 C 144.835938 67.722656 145.339844 68.101562 145.753906 68.328125 C 146.410156 68.6875 146.511719 68.691406 146.511719 68.382812 C 146.511719 68.183594 146.644531 67.730469 146.808594 67.371094 L 147.105469 66.71875 L 147.621094 67.605469 C 147.90625 68.09375 148.828125 69.203125 149.667969 70.070312 C 151.304688 71.753906 152.304688 73.636719 151.789062 74.066406 C 151.578125 74.242188 151.015625 74.230469 149.847656 74.023438 C 148.941406 73.859375 147.820312 73.773438 147.355469 73.832031 C 146.40625 73.949219 146.332031 73.839844 146.917969 73.191406 C 147.53125 72.507812 147.433594 72.394531 146.226562 72.394531 C 144.828125 72.394531 141.359375 71.800781 140.027344 71.332031 C 138.730469 70.875 138.433594 70.988281 138.050781 72.082031 C 137.882812 72.570312 137.566406 73.460938 137.355469 74.058594 L 136.96875 75.144531 L 138.371094 75.023438 C 139.140625 74.957031 140.132812 74.808594 140.570312 74.691406 C 141.011719 74.574219 141.414062 74.511719 141.460938 74.550781 C 141.511719 74.59375 141.316406 75.015625 141.023438 75.492188 L 140.5 76.359375 L 141.375 76.203125 C 141.855469 76.117188 142.578125 75.902344 142.980469 75.730469 C 143.679688 75.429688 143.738281 75.449219 144.289062 76.238281 C 144.972656 77.210938 145.515625 77.167969 145.636719 76.140625 C 145.761719 75.078125 146.15625 75.234375 146.894531 76.644531 C 147.609375 78 148.347656 78.476562 148.492188 77.675781 C 148.539062 77.40625 148.921875 76.972656 149.34375 76.710938 C 150.195312 76.175781 150.839844 76.335938 151.207031 77.175781 C 151.589844 78.042969 150.738281 78.9375 148.265625 80.269531 C 143.308594 82.941406 140.425781 86.59375 139.601562 91.25 C 138.859375 95.449219 141.179688 99.789062 145.828125 102.90625 C 148.050781 104.398438 151.585938 105.972656 151.359375 105.371094 C 150.40625 102.820312 150.4375 97.953125 151.414062 97.132812 C 151.558594 97.007812 151.511719 97.515625 151.300781 98.261719 C 150.527344 101.03125 150.863281 103.238281 152.847656 108.414062 C 154.644531 113.097656 154.398438 115.097656 151.855469 116.417969 C 151.039062 116.84375 150.515625 116.914062 148.320312 116.890625 C 145.9375 116.863281 145.679688 116.90625 144.914062 117.449219 C 144.171875 117.972656 143.210938 119.699219 143.210938 120.5 C 143.210938 120.9375 143.753906 120.878906 144.824219 120.332031 Z M 144.828125 120.332031 "/>
<path style=" stroke:none;fill-rule:nonzero;fill:rgb(100%,71.764706%,0%);fill-opacity:1;" d="M 183.484375 120.238281 L 184.480469 119.667969 L 185.160156 120.238281 C 186.046875 120.988281 187.089844 120.96875 187.941406 120.195312 C 188.316406 119.855469 188.648438 119.621094 188.6875 119.671875 C 188.722656 119.726562 188.886719 119.976562 189.054688 120.230469 C 189.265625 120.550781 189.699219 120.714844 190.484375 120.765625 C 191.425781 120.824219 191.679688 120.742188 192.054688 120.261719 L 192.503906 119.6875 L 193.484375 120.246094 C 196.179688 121.785156 197.613281 120.171875 196.410156 116.957031 C 195.796875 115.324219 196.136719 114.40625 198.105469 112.328125 C 198.9375 111.449219 199.621094 110.515625 199.621094 110.246094 C 199.621094 109.820312 199.464844 109.765625 198.359375 109.785156 C 197.300781 109.804688 196.992188 109.703125 196.433594 109.15625 C 195.527344 108.269531 195.582031 107.253906 196.59375 106.125 L 197.402344 105.226562 L 195.964844 104.359375 C 195.175781 103.882812 193.75 102.753906 192.800781 101.851562 C 190.664062 99.828125 188.5625 98.867188 185.792969 98.652344 L 183.9375 98.503906 L 183.9375 99.753906 C 183.941406 101.363281 184.792969 102.910156 187.109375 105.53125 C 189.746094 108.511719 189.929688 108.976562 190.035156 112.871094 L 190.128906 116.164062 L 189.363281 116.808594 C 188.675781 117.390625 188.363281 117.464844 186.140625 117.578125 C 184.023438 117.6875 183.578125 117.785156 182.957031 118.273438 C 182.132812 118.921875 181.882812 119.277344 181.628906 120.171875 C 181.480469 120.695312 181.539062 120.808594 181.964844 120.808594 C 182.25 120.808594 182.933594 120.554688 183.480469 120.242188 Z M 126.824219 111.722656 C 127.058594 111.441406 127.253906 110.984375 127.253906 110.707031 C 127.253906 110.292969 127.460938 110.179688 128.492188 110.050781 L 129.730469 109.894531 L 128.902344 109.308594 C 127.921875 108.613281 127.832031 108.070312 128.695312 108.070312 C 129.558594 108.070312 131.019531 107.273438 131.238281 106.683594 C 131.34375 106.410156 131.277344 106.046875 131.09375 105.859375 C 130.609375 105.367188 129.703125 105.441406 129.535156 105.984375 C 129.351562 106.570312 129.046875 106.570312 128.359375 105.988281 C 127.324219 105.117188 127.300781 103.3125 128.3125 102.261719 C 128.789062 101.765625 128.785156 101.734375 128.175781 101.222656 C 127.523438 100.671875 127.054688 99.585938 127.363281 99.328125 C 127.460938 99.246094 127.976562 99.308594 128.511719 99.472656 C 129.265625 99.703125 129.566406 99.707031 129.878906 99.488281 C 130.824219 98.828125 129.800781 97.976562 128.285156 98.164062 C 127.671875 98.242188 127.421875 98.164062 127.332031 97.882812 C 127.269531 97.671875 126.734375 97.390625 126.132812 97.257812 C 125.058594 97.015625 125.050781 97.019531 125.050781 97.675781 C 125.050781 98.398438 124.585938 98.535156 123.707031 98.070312 C 122.992188 97.695312 122.296875 97.988281 122.296875 98.664062 C 122.296875 99.296875 123.011719 99.605469 124.292969 99.535156 C 125.277344 99.476562 125.3125 100.125 124.378906 101.058594 L 123.707031 101.730469 L 124.238281 102.410156 C 125.027344 103.414062 124.960938 105.082031 124.101562 105.914062 L 123.425781 106.5625 L 122.984375 106.042969 C 122.371094 105.316406 121.53125 105.367188 121.300781 106.136719 C 121.148438 106.644531 121.273438 106.875 121.988281 107.414062 C 122.464844 107.773438 123.164062 108.066406 123.542969 108.066406 C 124.472656 108.066406 124.433594 108.71875 123.46875 109.375 L 122.710938 109.890625 L 123.882812 110.050781 C 124.523438 110.140625 125.050781 110.304688 125.050781 110.421875 C 125.050781 110.863281 125.859375 112.238281 126.121094 112.238281 C 126.273438 112.238281 126.585938 112.007812 126.824219 111.722656 Z M 126.824219 111.722656 "/>
<path style=" stroke:none;fill-rule:nonzero;fill:rgb(100%,71.764706%,0%);fill-opacity:1;" d="M 142.050781 105.855469 C 143.113281 105.484375 145.414062 103.753906 145.414062 103.328125 C 145.414062 103.191406 144.78125 102.570312 144.003906 101.949219 C 142.371094 100.632812 140.59375 98.421875 140.136719 97.132812 C 139.894531 96.457031 138.738281 95.300781 135.472656 92.488281 L 131.125 88.742188 L 129.875 89.023438 C 129.183594 89.179688 128.34375 89.308594 128.003906 89.3125 C 127.421875 89.320312 127.433594 89.351562 128.207031 89.882812 L 129.027344 90.449219 L 130.171875 89.878906 C 131.285156 89.332031 131.324219 89.328125 131.460938 89.769531 C 131.539062 90.03125 131.367188 90.476562 131.058594 90.804688 C 130.761719 91.125 130.59375 91.484375 130.683594 91.609375 C 130.773438 91.734375 130.488281 91.988281 130.046875 92.183594 C 129.230469 92.535156 128.664062 93.707031 129.308594 93.707031 C 129.886719 93.707031 131.167969 92.304688 131.019531 91.832031 C 130.945312 91.589844 130.980469 91.339844 131.101562 91.277344 C 131.597656 91.019531 131.566406 92.117188 131.0625 92.660156 C 130.761719 92.976562 130.59375 93.339844 130.683594 93.460938 C 130.773438 93.585938 130.488281 93.84375 130.046875 94.035156 C 129.238281 94.386719 128.664062 95.558594 129.304688 95.558594 C 129.929688 95.558594 131.183594 94.21875 131.03125 93.71875 C 130.949219 93.457031 130.980469 93.191406 131.097656 93.128906 C 131.433594 92.957031 131.617188 93.824219 131.332031 94.25 C 131.179688 94.476562 131.183594 94.789062 131.335938 95.035156 C 131.613281 95.480469 131.332031 96.339844 130.820312 96.609375 C 130.601562 96.722656 130.75 96.945312 131.28125 97.304688 C 132.054688 97.820312 132.066406 97.875 132.066406 100.160156 C 132.066406 102.070312 132.15625 102.566406 132.550781 102.898438 C 132.992188 103.269531 133.03125 103.269531 133.03125 102.914062 C 133.03125 102.523438 133.804688 102.046875 134.433594 102.046875 C 134.621094 102.046875 135.785156 102.921875 137.019531 103.992188 C 138.261719 105.070312 139.5625 105.988281 139.933594 106.046875 C 140.300781 106.105469 140.695312 106.167969 140.8125 106.183594 C 140.933594 106.199219 141.488281 106.054688 142.050781 105.855469 Z M 128.765625 96.617188 C 128.765625 96 127.335938 95.34375 125.628906 95.171875 C 124.25 95.035156 124.226562 95.042969 124.226562 95.65625 C 124.226562 96.164062 124.441406 96.363281 125.394531 96.730469 C 126.925781 97.324219 128.765625 97.261719 128.765625 96.617188 Z M 128.765625 96.617188 "/>
<path style=" stroke:none;fill-rule:nonzero;fill:rgb(100%,71.764706%,0%);fill-opacity:1;" d="M 130.332031 96.558594 C 131.03125 95.996094 131.359375 95.328125 130.941406 95.328125 C 130.457031 95.328125 129.179688 96.351562 129.179688 96.734375 C 129.179688 97.335938 129.417969 97.300781 130.332031 96.558594 Z M 128.847656 94.738281 C 128.90625 94.390625 128.664062 94.160156 127.941406 93.867188 C 126.375 93.242188 124.507812 92.949219 124.058594 93.265625 C 123.230469 93.84375 123.78125 94.621094 125.121094 94.761719 C 125.660156 94.820312 126.394531 94.964844 126.746094 95.085938 C 127.777344 95.441406 128.753906 95.28125 128.847656 94.738281 Z M 128.847656 92.878906 C 128.929688 92.382812 128.574219 92.207031 125.664062 91.296875 C 123.492188 90.617188 122.53125 90.9375 123.222656 92.109375 C 123.464844 92.515625 123.871094 92.703125 124.78125 92.824219 C 125.460938 92.914062 126.386719 93.089844 126.839844 93.214844 C 128.050781 93.550781 128.753906 93.433594 128.847656 92.878906 Z M 130.304688 91.136719 C 130.742188 90.738281 131.101562 90.273438 131.101562 90.097656 C 131.101562 89.53125 129.367188 90.535156 129.148438 91.230469 C 128.882812 92.066406 129.3125 92.03125 130.304688 91.136719 Z M 128.847656 91.019531 C 128.941406 90.453125 127.886719 89.945312 125.808594 89.550781 C 124.285156 89.265625 123.613281 89.429688 123.726562 90.058594 C 123.789062 90.398438 124.296875 90.652344 125.738281 91.050781 C 128.042969 91.691406 128.734375 91.683594 128.847656 91.019531 Z M 130.878906 88.390625 C 133.539062 87.335938 133.769531 84.679688 131.261719 83.984375 C 130.21875 83.695312 129.554688 83.851562 129.15625 84.476562 C 128.847656 84.957031 129.054688 85.832031 129.472656 85.832031 C 129.613281 85.832031 129.726562 85.996094 129.726562 86.191406 C 129.726562 87.113281 125.664062 87.53125 124 86.78125 C 123.414062 86.515625 123.15625 85.832031 123.644531 85.832031 C 124.007812 85.832031 124.261719 85.132812 124.074219 84.640625 C 123.820312 83.96875 123.058594 83.734375 121.953125 83.992188 C 119.460938 84.574219 119.527344 87.179688 122.070312 88.285156 C 124.152344 89.191406 128.71875 89.246094 130.878906 88.390625 Z M 130.878906 88.390625 "/>
<path style=" stroke:none;fill-rule:nonzero;fill:rgb(100%,71.764706%,0%);fill-opacity:1;" d="M 129.222656 86.347656 C 129.378906 86.21875 129.3125 86.019531 129.050781 85.839844 C 128.484375 85.445312 128.515625 84.855469 129.136719 84.183594 C 129.601562 83.675781 129.660156 82.921875 129.820312 75.289062 C 130.097656 62.140625 131.199219 52.253906 132.648438 49.878906 C 133.226562 48.933594 133.144531 48.929688 131.652344 49.832031 C 129.730469 50.996094 128.269531 52.507812 126.972656 54.675781 C 124.523438 58.765625 123.675781 64.265625 123.675781 76.011719 C 123.675781 82.679688 123.726562 83.554688 124.152344 84.179688 C 124.558594 84.773438 124.582031 84.996094 124.296875 85.632812 C 124.109375 86.042969 124.027344 86.4375 124.109375 86.507812 C 124.65625 86.96875 128.636719 86.84375 129.222656 86.351562 Z M 151.585938 73.808594 C 151.667969 73.695312 151.484375 73.121094 151.175781 72.535156 C 150.695312 71.621094 150.5 71.46875 149.816406 71.46875 C 147.667969 71.46875 144.21875 70.617188 140.660156 69.207031 C 138.605469 68.390625 137.898438 68.207031 137.648438 68.414062 C 137.023438 68.941406 138.066406 70.199219 139.683594 70.859375 C 141.117188 71.445312 145.132812 72.164062 146.960938 72.164062 C 148.023438 72.164062 148.046875 72.207031 147.445312 72.980469 L 147 73.554688 L 148.203125 73.582031 C 148.863281 73.597656 149.773438 73.6875 150.226562 73.785156 C 151.40625 74.039062 151.417969 74.039062 151.585938 73.808594 Z M 151.585938 73.808594 "/>
<path style=" stroke:none;fill-rule:nonzero;fill:rgb(0%,0%,0%);fill-opacity:1;" d="M 164.125 79.734375 C 164.125 79.394531 163 78.476562 161.863281 77.882812 C 160.96875 77.414062 160.824219 77.402344 160.820312 77.78125 C 160.816406 78.359375 160.242188 79.808594 160.015625 79.808594 C 159.886719 79.808594 159.695312 79.523438 159.59375 79.179688 C 159.488281 78.832031 159.058594 78.148438 158.632812 77.664062 L 157.855469 76.777344 L 157.253906 77.597656 C 156.691406 78.363281 155.714844 79.113281 155.285156 79.113281 C 155.179688 79.113281 155.160156 78.710938 155.238281 78.21875 C 155.324219 77.679688 155.257812 77.257812 155.074219 77.160156 C 154.90625 77.074219 154.769531 77.105469 154.769531 77.230469 C 154.769531 77.515625 153.414062 78.882812 153.128906 78.882812 C 153.011719 78.882812 152.847656 78.492188 152.761719 78.011719 C 152.679688 77.535156 152.535156 76.78125 152.445312 76.332031 C 152.355469 75.886719 152.546875 76.191406 152.875 77.003906 L 153.464844 78.488281 L 154.113281 77.585938 C 154.472656 77.089844 154.765625 76.546875 154.765625 76.378906 C 154.765625 76.210938 154.886719 76.136719 155.035156 76.214844 C 155.183594 76.289062 155.386719 76.886719 155.488281 77.542969 L 155.675781 78.730469 L 156.390625 78.035156 C 156.785156 77.648438 157.246094 77.136719 157.414062 76.894531 C 157.71875 76.457031 157.734375 76.457031 158.339844 76.914062 C 158.675781 77.167969 159.195312 77.777344 159.492188 78.269531 C 159.792969 78.757812 160.074219 79.121094 160.125 79.078125 C 160.171875 79.035156 160.28125 78.527344 160.363281 77.957031 C 160.449219 77.382812 160.523438 76.890625 160.53125 76.867188 C 160.574219 76.722656 162.6875 77.945312 163.46875 78.5625 C 163.96875 78.957031 164.445312 79.226562 164.527344 79.160156 C 164.609375 79.09375 164.675781 78.507812 164.675781 77.859375 C 164.675781 76.855469 164.554688 76.585938 163.863281 76.035156 C 163.070312 75.402344 163.046875 75.402344 162.753906 75.863281 C 162.371094 76.460938 161.921875 76.46875 161.921875 75.878906 C 161.921875 75.445312 160.421875 73.785156 160.03125 73.785156 C 159.929688 73.785156 159.613281 74.148438 159.328125 74.597656 C 159.042969 75.042969 158.734375 75.40625 158.648438 75.40625 C 158.261719 75.40625 156.144531 73.308594 156.144531 72.929688 C 156.144531 72.628906 156.289062 72.703125 156.660156 73.207031 C 156.941406 73.589844 157.503906 74.160156 157.910156 74.476562 C 158.734375 75.113281 159.03125 74.957031 159.351562 73.726562 C 159.441406 73.378906 159.597656 73.089844 159.699219 73.089844 C 160.050781 73.089844 161.894531 74.832031 162.152344 75.40625 L 162.414062 75.988281 L 162.609375 75.347656 C 162.851562 74.570312 163.117188 74.542969 163.503906 75.253906 C 163.664062 75.550781 164.457031 76.167969 165.265625 76.625 L 166.738281 77.457031 L 167.035156 76.617188 C 167.195312 76.160156 167.410156 75.894531 167.511719 76.03125 C 167.660156 76.234375 167.28125 77.621094 166.992188 77.921875 C 166.949219 77.964844 166.472656 77.71875 165.929688 77.371094 L 164.949219 76.742188 L 164.945312 77.871094 C 164.945312 78.488281 164.867188 79.230469 164.777344 79.519531 C 164.597656 80.078125 164.125 80.238281 164.125 79.734375 Z M 156.785156 70.746094 C 155.039062 69.445312 154.773438 69.148438 154.808594 68.535156 L 154.851562 67.878906 L 154.964844 68.511719 C 155.03125 68.882812 155.5 69.433594 156.085938 69.84375 L 157.089844 70.539062 L 157.707031 69.90625 C 158.050781 69.554688 158.332031 69.140625 158.335938 68.980469 C 158.351562 68.566406 158.433594 68.597656 159.621094 69.511719 C 160.671875 70.324219 160.6875 70.328125 160.84375 69.804688 C 160.933594 69.507812 160.898438 68.957031 160.777344 68.578125 C 160.433594 67.527344 160.5 67.371094 161.019531 68.003906 C 161.277344 68.316406 161.695312 68.761719 161.945312 68.992188 C 162.382812 69.390625 162.410156 69.386719 162.574219 68.875 C 162.664062 68.582031 162.742188 68.046875 162.746094 67.683594 L 162.75 67.023438 L 163.699219 67.980469 C 164.585938 68.875 164.664062 68.90625 164.9375 68.480469 C 165.09375 68.230469 165.226562 67.628906 165.230469 67.140625 C 165.234375 66.515625 165.308594 66.355469 165.488281 66.59375 C 165.789062 66.996094 165.578125 68.082031 165.023438 69.007812 L 164.628906 69.671875 L 164.105469 68.949219 C 163.4375 68.027344 163.214844 68.042969 162.785156 69.039062 C 162.382812 69.980469 162.117188 70.050781 161.722656 69.328125 C 161.46875 68.859375 161.421875 68.917969 161.238281 69.902344 L 161.039062 70.996094 L 158.625 69.332031 L 158.082031 69.878906 C 157.78125 70.179688 157.535156 70.558594 157.53125 70.71875 C 157.519531 71.0625 157.230469 71.074219 156.785156 70.746094 Z M 172.347656 65.910156 C 171.710938 65.398438 171.269531 64.914062 171.371094 64.828125 C 171.472656 64.742188 171.585938 64.71875 171.621094 64.773438 C 171.660156 64.828125 172.179688 65.316406 172.78125 65.855469 C 174.15625 67.097656 173.875 67.132812 172.347656 65.910156 Z M 151.621094 64.003906 C 151.042969 63.308594 151.082031 62.847656 151.785156 62.09375 C 152.296875 61.546875 152.527344 61.472656 153.417969 61.574219 C 153.988281 61.640625 155.21875 62.085938 156.148438 62.570312 C 157.222656 63.128906 158.332031 63.5 159.191406 63.59375 C 159.9375 63.675781 160.546875 63.707031 160.546875 63.664062 C 160.546875 63.621094 160.238281 63.171875 159.859375 62.667969 C 158.960938 61.46875 158.992188 61.339844 160.007812 62.058594 C 161.046875 62.792969 162.289062 63.011719 165.070312 62.933594 L 166.429688 62.898438 L 165.640625 62.207031 C 164.539062 61.238281 164.878906 61.148438 166.097656 62.089844 C 167.238281 62.96875 167.167969 63.03125 164.761719 63.246094 C 163.742188 63.335938 162.644531 63.269531 161.730469 63.0625 C 160.367188 62.753906 160.3125 62.757812 160.570312 63.167969 C 160.71875 63.402344 160.960938 63.59375 161.109375 63.59375 C 161.253906 63.59375 161.375 63.710938 161.375 63.855469 C 161.375 64.304688 158.425781 63.910156 157.015625 63.277344 C 153.796875 61.828125 153.390625 61.703125 152.625 61.917969 C 152.199219 62.035156 151.769531 62.386719 151.625 62.734375 C 151.132812 63.90625 152.996094 64.8125 153.765625 63.78125 C 153.988281 63.480469 153.9375 63.277344 153.546875 62.910156 C 153.007812 62.414062 153.058594 62.339844 153.785156 62.574219 C 154.296875 62.742188 154.367188 63.839844 153.890625 64.242188 C 153.34375 64.703125 152.09375 64.570312 151.621094 64.003906 Z M 151.621094 64.003906 "/>
<path style=" stroke:none;fill-rule:nonzero;fill:rgb(0%,0%,0%);fill-opacity:1;" d="M 164.304688 61.117188 C 163.902344 60.78125 164.214844 60.695312 166.019531 60.667969 C 168.253906 60.628906 169.609375 60.296875 171.210938 59.402344 C 172.492188 58.683594 172.839844 58.824219 171.621094 59.570312 C 170.511719 60.25 168.78125 60.773438 167.109375 60.933594 C 166.300781 61.011719 165.378906 61.117188 165.058594 61.171875 C 164.742188 61.226562 164.402344 61.203125 164.300781 61.117188 Z M 164.304688 61.117188 "/>
</g>
</svg>
