<?xml version="1.0" encoding="UTF-8"?>
<svg xmlns="http://www.w3.org/2000/svg" xmlns:xlink="http://www.w3.org/1999/xlink" width="255pt" height="170pt" viewBox="0 0 255 170" version="1.1">
<g id="surface1">
<rect x="0" y="0" width="255" height="170" style="fill:rgb(100%,100%,100%);fill-opacity:1;stroke:none;"/>
<path style=" stroke:none;fill-rule:evenodd;fill:rgb(87.45098%,0%,0%);fill-opacity:1;" d="M -7.96875 0 L 278.90625 0 L 278.90625 85 L -7.96875 85 Z M -7.96875 0 "/>
<path style=" stroke:none;fill-rule:evenodd;fill:rgb(100%,100%,100%);fill-opacity:1;" d="M 58.191406 14.246094 C 44.945312 16.945312 35.105469 25.664062 32.324219 37.515625 C 28.542969 53.621094 40.339844 69.386719 58.496094 72.75 C 40.152344 77.398438 21.203125 68.03125 16.023438 51.878906 C 10.84375 35.730469 21.386719 18.886719 39.554688 14.28125 C 45.933594 12.664062 51.804688 12.652344 58.191406 14.246094 Z M 58.191406 14.246094 "/>
<path style=" stroke:none;fill-rule:evenodd;fill:rgb(100%,100%,100%);fill-opacity:1;" d="M 52.984375 38.941406 L 54.933594 44.296875 L 49.78125 41.027344 L 44.652344 44.328125 L 46.558594 38.964844 L 41.445312 35.652344 L 47.773438 35.601562 L 49.738281 30.253906 L 51.742188 35.589844 L 58.074219 35.597656 Z M 59.980469 57.378906 L 61.929688 62.734375 L 56.777344 59.464844 L 51.648438 62.765625 L 53.554688 57.402344 L 48.441406 54.089844 L 54.769531 54.039062 L 56.734375 48.691406 L 58.738281 54.027344 L 65.070312 54.035156 Z M 83.257812 57.246094 L 85.210938 62.601562 L 80.054688 59.332031 L 74.929688 62.632812 L 76.835938 57.269531 L 71.722656 53.957031 L 78.046875 53.90625 L 80.011719 48.558594 L 82.015625 53.894531 L 88.347656 53.902344 Z M 90.203125 38.957031 L 92.152344 44.3125 L 87 41.042969 L 81.871094 44.34375 L 83.777344 38.980469 L 78.664062 35.667969 L 84.992188 35.617188 L 86.957031 30.269531 L 88.960938 35.605469 L 95.292969 35.613281 Z M 71.773438 26.824219 L 73.722656 32.179688 L 68.570312 28.910156 L 63.441406 32.210938 L 65.347656 26.847656 L 60.234375 23.535156 L 66.5625 23.488281 L 68.527344 18.136719 L 70.53125 23.472656 L 76.859375 23.480469 Z M 71.773438 26.824219 "/>
</g>
</svg>
