<?xml version="1.0" encoding="UTF-8"?>
<svg xmlns="http://www.w3.org/2000/svg" xmlns:xlink="http://www.w3.org/1999/xlink" width="255pt" height="170pt" viewBox="0 0 255 170" version="1.1">
<g id="surface1">
<rect x="0" y="0" width="255" height="170" style="fill:rgb(100%,100%,100%);fill-opacity:1;stroke:none;"/>
<path style=" stroke:none;fill-rule:evenodd;fill:rgb(87.058824%,16.078431%,9.411765%);fill-opacity:1;" d="M -17.53125 113.332031 L 364.96875 113.332031 L 364.96875 170 L -17.53125 170 Z M -17.53125 113.332031 "/>
<path style=" stroke:none;fill-rule:evenodd;fill:rgb(3.137255%,22.352941%,61.176471%);fill-opacity:1;" d="M -17.53125 56.667969 L 364.96875 56.667969 L 364.96875 113.335938 L -17.53125 113.335938 Z M -17.53125 56.667969 "/>
<path style=" stroke:none;fill-rule:evenodd;fill:rgb(87.058824%,16.078431%,9.411765%);fill-opacity:1;" d="M 90.933594 30.871094 C 89.429688 51.339844 88.570312 62.558594 85.0625 67.75 C 81.273438 73.324219 77.585938 77.40625 62.789062 82.320312 C 47.996094 77.402344 44.308594 73.320312 40.515625 67.746094 C 37.007812 62.558594 36.148438 51.339844 34.648438 30.871094 L 36.832031 30.21875 C 41.234375 29.023438 44.519531 28.0625 46.949219 27.636719 C 50.425781 26.984375 53.382812 26.242188 62.734375 26.070312 C 72.082031 26.214844 75.054688 27 78.53125 27.652344 C 80.941406 28.109375 84.363281 29.007812 88.734375 30.226562 L 90.929688 30.871094 Z M 90.933594 30.871094 "/>
<path style=" stroke:none;fill-rule:evenodd;fill:rgb(3.137255%,22.352941%,61.176471%);fill-opacity:1;" d="M 88.777344 30.199219 C 87.355469 50.625 86.167969 59.980469 84.316406 64.480469 C 80.71875 72.179688 75.027344 76.402344 62.777344 80.429688 C 50.523438 76.398438 44.832031 72.175781 41.234375 64.476562 C 39.382812 59.980469 38.210938 50.648438 36.832031 30.175781 C 41.140625 28.980469 44.519531 28.046875 46.949219 27.621094 C 50.425781 26.964844 53.382812 26.195312 62.734375 26.050781 C 72.082031 26.195312 75.074219 26.964844 78.550781 27.617188 C 80.980469 28.046875 84.429688 28.980469 88.777344 30.195312 Z M 88.777344 30.199219 "/>
<path style=" stroke:none;fill-rule:evenodd;fill:rgb(100%,80%,0%);fill-opacity:1;" d="M 62.765625 36.453125 L 63.351562 37.691406 L 65.933594 38.003906 L 64.261719 38.902344 L 65.878906 39.863281 L 63.523438 40.210938 L 62.808594 41.332031 L 62.003906 40.179688 L 59.765625 39.898438 L 61.289062 38.914062 L 59.71875 38.019531 L 62.199219 37.683594 Z M 62.765625 36.453125 "/>
<path style=" stroke:none;fill-rule:evenodd;fill:rgb(100%,100%,100%);fill-opacity:1;" d="M 83.429688 59.640625 L 81.996094 58.632812 L 80.960938 57.121094 L 78.9375 55.558594 L 77.882812 53.980469 L 75.855469 52.371094 L 74.867188 50.792969 L 73.789062 50.019531 L 73.078125 49.410156 L 71.246094 50.839844 L 70.25 52.386719 L 69.007812 53.386719 L 67.644531 52.441406 L 66.609375 50.824219 L 62.777344 44.777344 L 58.945312 50.824219 L 57.914062 52.441406 L 56.550781 53.386719 L 55.304688 52.386719 L 54.308594 50.839844 L 52.480469 49.410156 L 51.769531 50.019531 L 50.691406 50.792969 L 49.699219 52.371094 L 47.675781 53.980469 L 46.621094 55.558594 L 44.59375 57.121094 L 43.558594 58.632812 L 42.132812 59.664062 C 42.875 65.269531 46.894531 69.664062 49.085938 71.671875 C 51.53125 73.78125 56.570312 76.605469 62.734375 78.472656 C 68.914062 76.644531 74.027344 73.78125 76.472656 71.671875 C 78.660156 69.664062 82.683594 65.269531 83.429688 59.640625 Z M 83.429688 59.640625 "/>
<path style=" stroke:none;fill-rule:evenodd;fill:rgb(100%,80%,0%);fill-opacity:1;" d="M 68.921875 27.855469 L 69.511719 29.089844 L 72.09375 29.40625 L 70.417969 30.300781 L 72.035156 31.261719 L 69.683594 31.613281 L 68.96875 32.734375 L 68.164062 31.578125 L 65.925781 31.296875 L 67.449219 30.316406 L 65.878906 29.421875 L 68.359375 29.082031 Z M 56.605469 27.835938 L 57.191406 29.070312 L 59.773438 29.386719 L 58.101562 30.28125 L 59.71875 31.242188 L 57.363281 31.59375 L 56.648438 32.714844 L 55.84375 31.5625 L 53.605469 31.277344 L 55.128906 30.296875 L 53.558594 29.402344 L 56.039062 29.066406 Z M 56.605469 27.835938 "/>
<path style=" stroke:none;fill-rule:evenodd;fill:rgb(3.137255%,22.352941%,61.176471%);fill-opacity:1;" d="M 80.230469 67.414062 L 77.441406 67.421875 L 74.867188 67.25 L 71.75 65.890625 L 68.234375 65.910156 L 65.191406 67.230469 L 62.789062 67.417969 L 60.386719 67.230469 L 57.34375 65.910156 L 53.828125 65.890625 L 50.710938 67.25 L 48.136719 67.421875 L 45.3125 67.386719 L 43.949219 65.332031 L 44 65.285156 L 48.171875 65.898438 L 50.746094 65.726562 L 53.863281 64.367188 L 57.378906 64.386719 L 60.421875 65.707031 L 62.824219 65.898438 L 65.226562 65.707031 L 68.269531 64.386719 L 71.785156 64.367188 L 74.902344 65.726562 L 77.476562 65.898438 L 81.539062 65.265625 L 81.589844 65.359375 Z M 47.929688 70.570312 L 50.691406 70.398438 L 53.8125 69.039062 L 57.324219 69.058594 L 60.367188 70.378906 L 62.769531 70.570312 L 65.171875 70.382812 L 68.214844 69.058594 L 71.730469 69.039062 L 74.847656 70.398438 L 77.644531 70.570312 L 79.453125 68.589844 L 79.390625 68.546875 L 77.457031 69.046875 L 74.882812 68.878906 L 71.765625 67.519531 L 68.25 67.535156 L 65.207031 68.859375 L 62.804688 69.046875 L 60.402344 68.859375 L 57.359375 67.539062 L 53.84375 67.519531 L 50.726562 68.878906 L 48.152344 69.046875 L 46.257812 68.621094 L 46.234375 68.707031 Z M 47.929688 70.570312 "/>
</g>
</svg>
