<?xml version="1.0" encoding="UTF-8"?>
<svg xmlns="http://www.w3.org/2000/svg" xmlns:xlink="http://www.w3.org/1999/xlink" width="255pt" height="170pt" viewBox="0 0 255 170" version="1.1">
<g id="surface1">
<rect x="0" y="0" width="255" height="170" style="fill:rgb(93.333333%,10.980392%,14.509804%);fill-opacity:1;stroke:none;"/>
<path style=" stroke:none;fill-rule:nonzero;fill:rgb(4.313725%,30.588235%,63.529412%);fill-opacity:1;" d="M 0 0 L 255 0 L 255 113.332031 L 0 113.332031 Z M 0 0 "/>
<path style=" stroke:none;fill-rule:nonzero;fill:rgb(100%,100%,100%);fill-opacity:1;" d="M 0 0 L 255 0 L 255 56.667969 L 0 56.667969 Z M 0 0 "/>
<path style=" stroke:none;fill-rule:nonzero;fill:rgb(100%,100%,100%);fill-opacity:1;" d="M 92.835938 131.324219 C 75.695312 123.984375 51.171875 109.417969 51.171875 80.597656 C 51.171875 51.78125 52.722656 38.675781 52.722656 38.675781 L 132.953125 38.675781 C 132.953125 38.675781 134.503906 51.78125 134.503906 80.597656 C 134.503906 109.417969 109.980469 123.984375 92.835938 131.324219 Z M 92.835938 131.324219 "/>
<path style=" stroke:none;fill-rule:nonzero;fill:rgb(93.333333%,10.980392%,14.509804%);fill-opacity:1;" d="M 92.835938 127.5 C 77.109375 120.765625 54.613281 107.402344 54.613281 80.960938 C 54.613281 54.523438 56.035156 42.5 56.035156 42.5 L 129.640625 42.5 C 129.640625 42.5 131.0625 54.523438 131.0625 80.960938 C 131.0625 107.402344 108.566406 120.765625 92.835938 127.5 Z M 92.835938 127.5 "/>
<path style=" stroke:none;fill-rule:nonzero;fill:rgb(100%,100%,100%);fill-opacity:1;" d="M 96.199219 74.03125 C 100.460938 74.089844 108.769531 74.238281 116.167969 72.039062 C 116.167969 72.039062 115.972656 74.394531 115.972656 77.132812 C 115.972656 79.875 116.167969 82.230469 116.167969 82.230469 C 109.378906 80.210938 101 80.167969 96.203125 80.222656 L 96.203125 94.824219 L 89.476562 94.824219 L 89.476562 80.222656 C 84.675781 80.167969 76.296875 80.210938 69.511719 82.230469 C 69.511719 82.230469 69.703125 79.875 69.703125 77.132812 C 69.703125 74.390625 69.511719 72.039062 69.511719 72.039062 C 76.90625 74.238281 85.214844 74.089844 89.476562 74.03125 L 89.476562 64.859375 C 85.59375 64.828125 80 64.992188 73.675781 66.875 C 73.675781 66.875 73.871094 64.519531 73.871094 61.78125 C 73.871094 59.039062 73.675781 56.683594 73.675781 56.683594 C 79.992188 58.5625 85.578125 58.730469 89.457031 58.699219 C 89.257812 52.894531 87.355469 45.574219 87.355469 45.574219 C 87.355469 45.574219 91.273438 45.84375 92.835938 45.84375 C 94.40625 45.84375 98.320312 45.574219 98.320312 45.574219 C 98.320312 45.574219 96.417969 52.894531 96.21875 58.699219 C 100.097656 58.730469 105.683594 58.5625 112 56.683594 C 112 56.683594 111.804688 59.039062 111.804688 61.78125 C 111.804688 64.519531 112 66.875 112 66.875 C 105.675781 64.992188 100.082031 64.828125 96.199219 64.859375 Z M 96.199219 74.03125 "/>
<path style=" stroke:none;fill-rule:nonzero;fill:rgb(4.313725%,30.588235%,63.529412%);fill-opacity:1;" d="M 92.835938 93.242188 C 84.914062 93.242188 80.671875 103.007812 80.671875 103.007812 C 80.671875 103.007812 78.320312 98.378906 71.859375 98.378906 C 67.484375 98.378906 64.265625 101.835938 62.214844 105.035156 C 70.171875 116.285156 82.859375 123.230469 92.835938 127.5 C 102.8125 123.230469 115.511719 116.289062 123.464844 105.035156 C 121.417969 101.835938 118.195312 98.378906 113.824219 98.378906 C 107.363281 98.378906 105 103.007812 105 103.007812 C 105 103.007812 100.757812 93.242188 92.835938 93.242188 Z M 92.835938 93.242188 "/>
</g>
</svg>
