<?xml version="1.0" encoding="UTF-8"?>
<svg xmlns="http://www.w3.org/2000/svg" xmlns:xlink="http://www.w3.org/1999/xlink" width="255pt" height="170pt" viewBox="0 0 255 170" version="1.1">
<g id="surface1">
<path style=" stroke:none;fill-rule:evenodd;fill:rgb(0%,0%,83.921569%);fill-opacity:1;" d="M 0 168.394531 L 368.839844 0 L 0 0 Z M 0 168.394531 "/>
<path style=" stroke:none;fill-rule:evenodd;fill:rgb(0%,37.647059%,0%);fill-opacity:1;" d="M 382.5 0 L 10.148438 170 L 382.5 170 Z M 382.5 0 "/>
<path style=" stroke:none;fill-rule:evenodd;fill:rgb(100%,80%,0%);fill-opacity:1;" d="M 382.5 0 L 362.007812 0 L 0 161.15625 L 0 170 L 20.492188 170 L 382.5 9.164062 Z M 382.5 0 "/>
<path style=" stroke:none;fill-rule:evenodd;fill:rgb(100%,100%,100%);fill-opacity:1;" d="M 26.667969 3.03125 L 31.097656 14.464844 L 45.46875 14.457031 L 33.835938 21.511719 L 38.285156 32.945312 L 26.667969 25.871094 L 15.046875 32.941406 L 19.5 21.511719 L 7.871094 14.453125 L 22.242188 14.464844 Z M 98.066406 3.03125 L 102.496094 14.464844 L 116.867188 14.457031 L 105.234375 21.511719 L 109.683594 32.945312 L 98.066406 25.871094 L 86.445312 32.941406 L 90.898438 21.511719 L 79.269531 14.453125 L 93.636719 14.464844 Z M 98.066406 51 L 102.496094 62.4375 L 116.867188 62.429688 L 105.234375 69.484375 L 109.683594 80.914062 L 98.066406 73.839844 L 86.445312 80.914062 L 90.898438 69.484375 L 79.269531 62.425781 L 93.636719 62.4375 Z M 62.578125 27.296875 L 67.007812 38.730469 L 81.375 38.722656 L 69.742188 45.777344 L 74.195312 57.210938 L 62.574219 50.136719 L 50.957031 57.207031 L 55.410156 45.777344 L 43.777344 38.71875 L 58.148438 38.730469 Z M 26.667969 51 L 31.097656 62.4375 L 45.46875 62.429688 L 33.835938 69.484375 L 38.285156 80.914062 L 26.667969 73.839844 L 15.046875 80.914062 L 19.5 69.484375 L 7.871094 62.425781 L 22.242188 62.4375 Z M 26.667969 51 "/>
</g>
</svg>
