<?xml version="1.0" encoding="UTF-8"?>
<svg xmlns="http://www.w3.org/2000/svg" xmlns:xlink="http://www.w3.org/1999/xlink" width="255pt" height="170pt" viewBox="0 0 255 170" version="1.1">
<g id="surface1">
<path style=" stroke:none;fill-rule:evenodd;fill:rgb(74.117647%,23.921569%,26.666667%);fill-opacity:1;" d="M 0 0 L 363.378906 0 L 363.378906 13.078125 L 0 13.078125 Z M 0 26.152344 L 363.378906 26.152344 L 363.378906 39.230469 L 0 39.230469 Z M 0 52.308594 L 363.378906 52.308594 L 363.378906 65.386719 L 0 65.386719 Z M 0 78.460938 L 363.378906 78.460938 L 363.378906 91.539062 L 0 91.539062 Z M 0 104.617188 L 363.378906 104.617188 L 363.378906 117.695312 L 0 117.695312 Z M 0 130.769531 L 363.378906 130.769531 L 363.378906 143.847656 L 0 143.847656 Z M 0 156.925781 L 363.378906 156.925781 L 363.378906 170 L 0 170 Z M 0 156.925781 "/>
<path style=" stroke:none;fill-rule:evenodd;fill:rgb(100%,100%,100%);fill-opacity:1;" d="M 0 13.078125 L 363.378906 13.078125 L 363.378906 26.152344 L 0 26.152344 Z M 0 39.230469 L 363.378906 39.230469 L 363.378906 52.308594 L 0 52.308594 Z M 0 65.386719 L 363.378906 65.386719 L 363.378906 78.460938 L 0 78.460938 Z M 0 91.539062 L 363.378906 91.539062 L 363.378906 104.617188 L 0 104.617188 Z M 0 117.695312 L 363.378906 117.695312 L 363.378906 130.769531 L 0 130.769531 Z M 0 143.847656 L 363.378906 143.847656 L 363.378906 156.925781 L 0 156.925781 Z M 0 143.847656 "/>
<path style=" stroke:none;fill-rule:evenodd;fill:rgb(9.803922%,18.431373%,36.470588%);fill-opacity:1;" d="M 0 0 L 145.351562 0 L 145.351562 91.539062 L 0 91.539062 Z M 0 0 "/>
<path style=" stroke:none;fill-rule:evenodd;fill:rgb(100%,100%,100%);fill-opacity:1;" d="M 12.113281 3.917969 L 13.433594 7.535156 L 17.714844 7.535156 L 14.253906 9.773438 L 15.574219 13.390625 L 12.113281 11.152344 L 8.648438 13.390625 L 9.972656 9.773438 L 6.511719 7.535156 L 10.789062 7.535156 Z M 36.335938 3.917969 L 37.660156 7.535156 L 41.941406 7.535156 L 38.476562 9.773438 L 39.800781 13.390625 L 36.335938 11.152344 L 32.875 13.390625 L 34.199219 9.773438 L 30.734375 7.535156 L 35.015625 7.535156 Z M 60.5625 3.917969 L 61.886719 7.535156 L 66.164062 7.535156 L 62.703125 9.773438 L 64.027344 13.390625 L 60.5625 11.152344 L 57.101562 13.390625 L 58.421875 9.773438 L 54.960938 7.535156 L 59.242188 7.535156 Z M 84.789062 3.917969 L 86.109375 7.535156 L 90.390625 7.535156 L 86.925781 9.773438 L 88.25 13.390625 L 84.789062 11.152344 L 81.324219 13.390625 L 82.648438 9.773438 L 79.183594 7.535156 L 83.464844 7.535156 Z M 109.011719 3.917969 L 110.335938 7.535156 L 114.617188 7.535156 L 111.152344 9.773438 L 112.476562 13.390625 L 109.011719 11.152344 L 105.550781 13.390625 L 106.875 9.773438 L 103.410156 7.535156 L 107.691406 7.535156 Z M 133.238281 3.917969 L 134.5625 7.535156 L 138.839844 7.535156 L 135.378906 9.773438 L 136.703125 13.390625 L 133.238281 11.152344 L 129.777344 13.390625 L 131.101562 9.773438 L 127.636719 7.535156 L 131.917969 7.535156 Z M 24.226562 13.070312 L 25.546875 16.691406 L 29.828125 16.691406 L 26.363281 18.925781 L 27.6875 22.542969 L 24.226562 20.308594 L 20.761719 22.542969 L 22.085938 18.925781 L 18.625 16.691406 L 22.902344 16.691406 Z M 48.449219 13.070312 L 49.773438 16.691406 L 54.050781 16.691406 L 50.589844 18.925781 L 51.910156 22.542969 L 48.449219 20.308594 L 44.988281 22.542969 L 46.308594 18.925781 L 42.847656 16.691406 L 47.128906 16.691406 Z M 72.675781 13.070312 L 74 16.691406 L 78.277344 16.691406 L 74.816406 18.925781 L 76.136719 22.542969 L 72.675781 20.308594 L 69.214844 22.542969 L 70.535156 18.925781 L 67.074219 16.691406 L 71.351562 16.691406 Z M 96.902344 13.070312 L 98.222656 16.691406 L 102.503906 16.691406 L 99.039062 18.925781 L 100.363281 22.542969 L 96.902344 20.308594 L 93.4375 22.542969 L 94.761719 18.925781 L 91.300781 16.691406 L 95.578125 16.691406 Z M 121.125 13.070312 L 122.449219 16.691406 L 126.726562 16.691406 L 123.265625 18.925781 L 124.585938 22.542969 L 121.125 20.308594 L 117.664062 22.542969 L 118.984375 18.925781 L 115.523438 16.691406 L 119.804688 16.691406 Z M 12.113281 22.226562 L 13.433594 25.84375 L 17.714844 25.84375 L 14.253906 28.078125 L 15.574219 31.699219 L 12.113281 29.460938 L 8.648438 31.699219 L 9.972656 28.078125 L 6.511719 25.84375 L 10.789062 25.84375 Z M 36.335938 22.226562 L 37.660156 25.84375 L 41.941406 25.84375 L 38.476562 28.078125 L 39.800781 31.699219 L 36.335938 29.460938 L 32.875 31.699219 L 34.199219 28.078125 L 30.734375 25.84375 L 35.015625 25.84375 Z M 60.5625 22.226562 L 61.886719 25.84375 L 66.164062 25.84375 L 62.703125 28.078125 L 64.027344 31.699219 L 60.5625 29.460938 L 57.101562 31.699219 L 58.421875 28.078125 L 54.960938 25.84375 L 59.242188 25.84375 Z M 84.789062 22.226562 L 86.109375 25.84375 L 90.390625 25.84375 L 86.925781 28.078125 L 88.25 31.699219 L 84.789062 29.460938 L 81.324219 31.699219 L 82.648438 28.078125 L 79.183594 25.84375 L 83.464844 25.84375 Z M 109.011719 22.226562 L 110.335938 25.84375 L 114.617188 25.84375 L 111.152344 28.078125 L 112.476562 31.699219 L 109.011719 29.460938 L 105.550781 31.699219 L 106.875 28.078125 L 103.410156 25.84375 L 107.691406 25.84375 Z M 133.238281 22.226562 L 134.5625 25.84375 L 138.839844 25.84375 L 135.378906 28.078125 L 136.703125 31.699219 L 133.238281 29.460938 L 129.777344 31.699219 L 131.101562 28.078125 L 127.636719 25.84375 L 131.917969 25.84375 Z M 24.226562 31.378906 L 25.546875 34.996094 L 29.828125 34.996094 L 26.363281 37.234375 L 27.6875 40.851562 L 24.226562 38.617188 L 20.761719 40.851562 L 22.085938 37.234375 L 18.625 34.996094 L 22.902344 34.996094 Z M 48.449219 31.378906 L 49.773438 34.996094 L 54.050781 34.996094 L 50.589844 37.234375 L 51.910156 40.851562 L 48.449219 38.617188 L 44.988281 40.851562 L 46.308594 37.234375 L 42.847656 34.996094 L 47.128906 34.996094 Z M 72.675781 31.378906 L 74 34.996094 L 78.277344 34.996094 L 74.816406 37.234375 L 76.136719 40.851562 L 72.675781 38.617188 L 69.214844 40.851562 L 70.535156 37.234375 L 67.074219 34.996094 L 71.351562 34.996094 Z M 96.902344 31.378906 L 98.222656 34.996094 L 102.503906 34.996094 L 99.039062 37.234375 L 100.363281 40.851562 L 96.902344 38.617188 L 93.4375 40.851562 L 94.761719 37.234375 L 91.300781 34.996094 L 95.578125 34.996094 Z M 121.125 31.378906 L 122.449219 34.996094 L 126.726562 34.996094 L 123.265625 37.234375 L 124.585938 40.851562 L 121.125 38.617188 L 117.664062 40.851562 L 118.984375 37.234375 L 115.523438 34.996094 L 119.804688 34.996094 Z M 12.113281 40.535156 L 13.433594 44.152344 L 17.714844 44.152344 L 14.253906 46.386719 L 15.574219 50.003906 L 12.113281 47.769531 L 8.648438 50.003906 L 9.972656 46.386719 L 6.511719 44.152344 L 10.789062 44.152344 Z M 36.335938 40.535156 L 37.660156 44.152344 L 41.941406 44.152344 L 38.476562 46.386719 L 39.800781 50.003906 L 36.335938 47.769531 L 32.875 50.003906 L 34.199219 46.386719 L 30.734375 44.152344 L 35.015625 44.152344 Z M 60.5625 40.535156 L 61.886719 44.152344 L 66.164062 44.152344 L 62.703125 46.386719 L 64.027344 50.003906 L 60.5625 47.769531 L 57.101562 50.003906 L 58.421875 46.386719 L 54.960938 44.152344 L 59.242188 44.152344 Z M 84.789062 40.535156 L 86.109375 44.152344 L 90.390625 44.152344 L 86.925781 46.386719 L 88.25 50.003906 L 84.789062 47.769531 L 81.324219 50.003906 L 82.648438 46.386719 L 79.183594 44.152344 L 83.464844 44.152344 Z M 109.011719 40.535156 L 110.335938 44.152344 L 114.617188 44.152344 L 111.152344 46.386719 L 112.476562 50.003906 L 109.011719 47.769531 L 105.550781 50.003906 L 106.875 46.386719 L 103.410156 44.152344 L 107.691406 44.152344 Z M 133.238281 40.535156 L 134.5625 44.152344 L 138.839844 44.152344 L 135.378906 46.386719 L 136.703125 50.003906 L 133.238281 47.769531 L 129.777344 50.003906 L 131.101562 46.386719 L 127.636719 44.152344 L 131.917969 44.152344 Z M 24.226562 49.6875 L 25.546875 53.304688 L 29.828125 53.304688 L 26.363281 55.542969 L 27.6875 59.160156 L 24.226562 56.921875 L 20.761719 59.160156 L 22.085938 55.542969 L 18.625 53.304688 L 22.902344 53.304688 Z M 48.449219 49.6875 L 49.773438 53.304688 L 54.050781 53.304688 L 50.589844 55.542969 L 51.910156 59.160156 L 48.449219 56.921875 L 44.988281 59.160156 L 46.308594 55.542969 L 42.847656 53.304688 L 47.128906 53.304688 Z M 72.675781 49.6875 L 74 53.304688 L 78.277344 53.304688 L 74.816406 55.542969 L 76.136719 59.160156 L 72.675781 56.921875 L 69.214844 59.160156 L 70.535156 55.542969 L 67.074219 53.304688 L 71.351562 53.304688 Z M 96.902344 49.6875 L 98.222656 53.304688 L 102.503906 53.304688 L 99.039062 55.542969 L 100.363281 59.160156 L 96.902344 56.921875 L 93.4375 59.160156 L 94.761719 55.542969 L 91.300781 53.304688 L 95.578125 53.304688 Z M 121.125 49.6875 L 122.449219 53.304688 L 126.726562 53.304688 L 123.265625 55.542969 L 124.585938 59.160156 L 121.125 56.921875 L 117.664062 59.160156 L 118.984375 55.542969 L 115.523438 53.304688 L 119.804688 53.304688 Z M 121.125 49.6875 "/>
<path style=" stroke:none;fill-rule:evenodd;fill:rgb(100%,100%,100%);fill-opacity:1;" d="M 12.113281 58.839844 L 13.433594 62.460938 L 17.714844 62.460938 L 14.253906 64.695312 L 15.574219 68.3125 L 12.113281 66.078125 L 8.648438 68.3125 L 9.972656 64.695312 L 6.511719 62.460938 L 10.789062 62.460938 Z M 36.335938 58.839844 L 37.660156 62.460938 L 41.941406 62.460938 L 38.476562 64.695312 L 39.800781 68.3125 L 36.335938 66.078125 L 32.875 68.3125 L 34.199219 64.695312 L 30.734375 62.460938 L 35.015625 62.460938 Z M 60.5625 58.839844 L 61.886719 62.460938 L 66.164062 62.460938 L 62.703125 64.695312 L 64.027344 68.3125 L 60.5625 66.078125 L 57.101562 68.3125 L 58.421875 64.695312 L 54.960938 62.460938 L 59.242188 62.460938 Z M 84.789062 58.839844 L 86.109375 62.460938 L 90.390625 62.460938 L 86.925781 64.695312 L 88.25 68.3125 L 84.789062 66.078125 L 81.324219 68.3125 L 82.648438 64.695312 L 79.183594 62.460938 L 83.464844 62.460938 Z M 109.011719 58.839844 L 110.335938 62.460938 L 114.617188 62.460938 L 111.152344 64.695312 L 112.476562 68.3125 L 109.011719 66.078125 L 105.550781 68.3125 L 106.875 64.695312 L 103.410156 62.460938 L 107.691406 62.460938 Z M 133.238281 58.839844 L 134.5625 62.460938 L 138.839844 62.460938 L 135.378906 64.695312 L 136.703125 68.3125 L 133.238281 66.078125 L 129.777344 68.3125 L 131.101562 64.695312 L 127.636719 62.460938 L 131.917969 62.460938 Z M 24.226562 67.996094 L 25.546875 71.613281 L 29.828125 71.613281 L 26.363281 73.847656 L 27.6875 77.46875 L 24.226562 75.230469 L 20.761719 77.46875 L 22.085938 73.847656 L 18.625 71.613281 L 22.902344 71.613281 Z M 48.449219 67.996094 L 49.773438 71.613281 L 54.050781 71.613281 L 50.589844 73.847656 L 51.910156 77.46875 L 48.449219 75.230469 L 44.988281 77.46875 L 46.308594 73.847656 L 42.847656 71.613281 L 47.128906 71.613281 Z M 72.675781 67.996094 L 74 71.613281 L 78.277344 71.613281 L 74.816406 73.847656 L 76.136719 77.46875 L 72.675781 75.230469 L 69.214844 77.46875 L 70.535156 73.847656 L 67.074219 71.613281 L 71.351562 71.613281 Z M 96.902344 67.996094 L 98.222656 71.613281 L 102.503906 71.613281 L 99.039062 73.847656 L 100.363281 77.46875 L 96.902344 75.230469 L 93.4375 77.46875 L 94.761719 73.847656 L 91.300781 71.613281 L 95.578125 71.613281 Z M 121.125 67.996094 L 122.449219 71.613281 L 126.726562 71.613281 L 123.265625 73.847656 L 124.585938 77.46875 L 121.125 75.230469 L 117.664062 77.46875 L 118.984375 73.847656 L 115.523438 71.613281 L 119.804688 71.613281 Z M 121.125 67.996094 "/>
<path style=" stroke:none;fill-rule:evenodd;fill:rgb(100%,100%,100%);fill-opacity:1;" d="M 12.113281 77.148438 L 13.433594 80.765625 L 17.714844 80.765625 L 14.253906 83.003906 L 15.574219 86.621094 L 12.113281 84.386719 L 8.648438 86.621094 L 9.972656 83.003906 L 6.511719 80.765625 L 10.789062 80.765625 Z M 36.335938 77.148438 L 37.660156 80.765625 L 41.941406 80.765625 L 38.476562 83.003906 L 39.800781 86.621094 L 36.335938 84.386719 L 32.875 86.621094 L 34.199219 83.003906 L 30.734375 80.765625 L 35.015625 80.765625 Z M 60.5625 77.148438 L 61.886719 80.765625 L 66.164062 80.765625 L 62.703125 83.003906 L 64.027344 86.621094 L 60.5625 84.386719 L 57.101562 86.621094 L 58.421875 83.003906 L 54.960938 80.765625 L 59.242188 80.765625 Z M 84.789062 77.148438 L 86.109375 80.765625 L 90.390625 80.765625 L 86.925781 83.003906 L 88.25 86.621094 L 84.789062 84.386719 L 81.324219 86.621094 L 82.648438 83.003906 L 79.183594 80.765625 L 83.464844 80.765625 Z M 109.011719 77.148438 L 110.335938 80.765625 L 114.617188 80.765625 L 111.152344 83.003906 L 112.476562 86.621094 L 109.011719 84.386719 L 105.550781 86.621094 L 106.875 83.003906 L 103.410156 80.765625 L 107.691406 80.765625 Z M 133.238281 77.148438 L 134.5625 80.765625 L 138.839844 80.765625 L 135.378906 83.003906 L 136.703125 86.621094 L 133.238281 84.386719 L 129.777344 86.621094 L 131.101562 83.003906 L 127.636719 80.765625 L 131.917969 80.765625 Z M 133.238281 77.148438 "/>
</g>
</svg>
