<?xml version="1.0" encoding="UTF-8"?>
<svg xmlns="http://www.w3.org/2000/svg" xmlns:xlink="http://www.w3.org/1999/xlink" width="255pt" height="170pt" viewBox="0 0 255 170" version="1.1">
<g id="surface1">
<rect x="0" y="0" width="255" height="170" style="fill:rgb(87.058824%,12.941176%,6.27451%);fill-opacity:1;stroke:none;"/>
<path style=" stroke:none;fill-rule:evenodd;fill:rgb(3.137255%,22.352941%,61.176471%);fill-opacity:1;" d="M 0 0 L 144.070312 0 L 144.070312 85 L 0 85 Z M 0 0 "/>
<path style=" stroke:none;fill-rule:evenodd;fill:rgb(100%,100%,100%);fill-opacity:1;" d="M 105.375 59.285156 L 87.691406 56.054688 L 91.460938 71.746094 L 77.960938 61.089844 L 72.394531 76.355469 L 66.703125 61.125 L 53.296875 71.871094 L 56.933594 56.15625 L 39.277344 59.5 L 51.265625 47.507812 L 34.09375 42.558594 L 51.222656 37.496094 L 39.136719 25.582031 L 56.816406 28.8125 L 53.054688 13.121094 L 66.546875 23.773438 L 72.113281 8.511719 L 77.808594 23.738281 L 91.214844 12.992188 L 87.578125 28.710938 L 105.230469 25.363281 L 93.246094 37.359375 L 110.417969 42.304688 L 93.289062 47.367188 Z M 105.375 59.285156 "/>
<path style=" stroke:none;fill-rule:evenodd;fill:rgb(0%,32.54902%,52.941176%);fill-opacity:1;" d="M 89.078125 58.082031 L 83.5 60.714844 L 78.054688 63.570312 L 71.734375 63.378906 L 65.417969 63.445312 L 60.050781 60.476562 L 54.539062 57.726562 L 51.570312 52.777344 L 48.34375 47.957031 L 48.558594 42.355469 L 48.488281 36.75 L 51.835938 31.996094 L 54.9375 27.109375 L 60.515625 24.472656 L 65.957031 21.617188 L 72.277344 21.808594 L 78.601562 21.746094 L 83.964844 24.714844 L 89.476562 27.460938 L 92.445312 32.410156 L 95.667969 37.230469 L 95.457031 42.832031 L 95.523438 48.4375 L 92.175781 53.195312 Z M 89.078125 58.082031 "/>
<path style=" stroke:none;fill-rule:evenodd;fill:rgb(100%,100%,100%);fill-opacity:1;" d="M 91.378906 42.59375 C 91.378906 52.105469 82.707031 59.8125 72.007812 59.8125 C 61.308594 59.8125 52.632812 52.105469 52.632812 42.59375 C 52.632812 33.082031 61.308594 25.371094 72.007812 25.371094 C 82.707031 25.371094 91.378906 33.082031 91.378906 42.59375 Z M 91.378906 42.59375 "/>
</g>
</svg>
