<?xml version="1.0" encoding="UTF-8"?>
<svg xmlns="http://www.w3.org/2000/svg" xmlns:xlink="http://www.w3.org/1999/xlink" width="255pt" height="170pt" viewBox="0 0 255 170" version="1.1">
<g id="surface1">
<rect x="0" y="0" width="255" height="170" style="fill:rgb(0%,0%,40%);fill-opacity:1;stroke:none;"/>
<path style=" stroke:none;fill-rule:nonzero;fill:rgb(100%,100%,100%);fill-opacity:1;" d="M -64.003906 0 L -64.003906 19.058594 L 276.644531 170.457031 L 319.523438 170.457031 L 319.523438 151.402344 L -21.125 0 Z M 319.523438 0 L 319.523438 19.058594 L -21.125 170.457031 L -64.003906 170.457031 L -64.003906 151.398438 L 276.644531 0 Z M 319.523438 0 "/>
<path style=" stroke:none;fill-rule:nonzero;fill:rgb(100%,100%,100%);fill-opacity:1;" d="M 95.796875 0 L 95.796875 170.457031 L 159.71875 170.457031 L 159.71875 0 Z M -64.003906 56.820312 L -64.003906 113.636719 L 319.523438 113.636719 L 319.523438 56.820312 Z M -64.003906 56.820312 "/>
<path style=" stroke:none;fill-rule:nonzero;fill:rgb(80%,0%,0%);fill-opacity:1;" d="M -64.003906 68.183594 L -64.003906 102.273438 L 319.523438 102.273438 L 319.523438 68.183594 Z M 108.582031 0 L 108.582031 170.457031 L 146.933594 170.457031 L 146.933594 0 Z M -64.003906 170.457031 L 63.835938 113.636719 L 92.421875 113.636719 L -35.417969 170.457031 Z M -64.003906 0 L 63.835938 56.820312 L 35.25 56.820312 L -64.003906 12.707031 Z M 163.09375 56.820312 L 290.9375 0 L 319.523438 0 L 191.679688 56.820312 Z M 319.523438 170.457031 L 191.679688 113.636719 L 220.265625 113.636719 L 319.523438 157.75 Z M 319.523438 170.457031 "/>
</g>
</svg>
