<?xml version="1.0" encoding="UTF-8"?>
<svg xmlns="http://www.w3.org/2000/svg" xmlns:xlink="http://www.w3.org/1999/xlink" width="255pt" height="170pt" viewBox="0 0 255 170" version="1.1">
<g id="surface1">
<rect x="0" y="0" width="255" height="170" style="fill:rgb(100%,100%,100%);fill-opacity:1;stroke:none;"/>
<path style=" stroke:none;fill-rule:evenodd;fill:rgb(100%,100%,100%);fill-opacity:1;" d="M 129.871094 85.152344 C 129.871094 105.785156 111.054688 122.507812 87.84375 122.507812 C 64.632812 122.507812 45.820312 105.785156 45.820312 85.152344 C 45.820312 64.519531 64.636719 47.796875 87.84375 47.796875 C 111.054688 47.796875 129.871094 64.523438 129.871094 85.152344 Z M 129.871094 85.152344 "/>
<path style=" stroke:none;fill-rule:evenodd;fill:rgb(78.039216%,0%,0%);fill-opacity:1;" d="M 182.589844 87.320312 C 182.589844 114.242188 158.296875 136.0625 128.332031 136.0625 C 98.363281 136.0625 74.070312 114.242188 74.070312 87.320312 C 74.070312 60.398438 98.363281 38.578125 128.332031 38.578125 C 158.300781 38.578125 182.589844 60.398438 182.589844 87.320312 Z M 182.589844 87.320312 "/>
<path style=" stroke:none;fill-rule:evenodd;fill:rgb(0%,0%,0%);fill-opacity:1;" d="M 17.328125 42.128906 L 48.578125 9.996094 L 55.984375 15.6875 L 24.734375 47.816406 Z M 27.5625 49.992188 L 58.8125 17.863281 L 66.214844 23.550781 L 34.964844 55.683594 Z M 27.5625 49.992188 "/>
<path style=" stroke:none;fill-rule:evenodd;fill:rgb(0%,0%,0%);fill-opacity:1;" d="M 17.328125 42.128906 L 48.578125 9.996094 L 55.984375 15.6875 L 24.734375 47.816406 Z M 17.328125 42.128906 "/>
<path style=" stroke:none;fill-rule:evenodd;fill:rgb(0%,0%,0%);fill-opacity:1;" d="M 17.328125 42.128906 L 48.578125 9.996094 L 55.984375 15.6875 L 24.734375 47.816406 Z M 38.015625 58.027344 L 69.265625 25.894531 L 76.671875 31.585938 L 45.421875 63.714844 Z M 38.015625 58.027344 "/>
<path style=" stroke:none;fill-rule:evenodd;fill:rgb(0%,0%,0%);fill-opacity:1;" d="M 17.328125 42.128906 L 48.578125 9.996094 L 55.984375 15.6875 L 24.734375 47.816406 Z M 17.328125 42.128906 "/>
<path style=" stroke:none;fill-rule:evenodd;fill:rgb(0%,0%,0%);fill-opacity:1;" d="M 17.328125 42.128906 L 48.578125 9.996094 L 55.984375 15.6875 L 24.734375 47.816406 Z M 207.394531 9.988281 L 238.398438 42.304688 L 230.953125 47.949219 L 199.949219 15.632812 Z M 186.585938 25.757812 L 217.589844 58.078125 L 210.144531 63.722656 L 179.140625 31.402344 Z M 186.585938 25.757812 "/>
<path style=" stroke:none;fill-rule:evenodd;fill:rgb(100%,100%,100%);fill-opacity:1;" d="M 191.757812 44.371094 L 221.117188 21.851562 L 226.585938 27.480469 L 195.210938 52.554688 L 191.757812 44.367188 Z M 191.757812 44.371094 "/>
<path style=" stroke:none;fill-rule:evenodd;fill:rgb(0%,0%,0%);fill-opacity:1;" d="M 227.871094 123.664062 L 197.832031 155.484375 L 190.46875 150.039062 L 220.503906 118.222656 Z M 197.101562 17.789062 L 228.105469 50.109375 L 220.65625 55.753906 L 189.652344 23.433594 Z M 238.046875 131.191406 L 208.007812 163.007812 L 200.644531 157.5625 L 230.683594 125.746094 Z M 217.472656 115.976562 L 187.433594 147.796875 L 180.070312 142.351562 L 210.105469 110.53125 Z M 217.472656 115.976562 "/>
<path style=" stroke:none;fill-rule:evenodd;fill:rgb(23.921569%,34.509804%,59.215686%);fill-opacity:1;" d="M 74.859375 78.730469 C 76.574219 91.007812 79.078125 104.6875 100.335938 106.109375 C 108.300781 106.53125 123.796875 104.425781 129.121094 85.128906 C 136.101562 66.589844 157.125 61.261719 171.433594 71.3125 C 179.546875 76.015625 181.789062 83.484375 182.371094 89.09375 C 181.722656 107.105469 170.09375 122.695312 155.167969 129.648438 C 138.011719 138.710938 114.246094 138.902344 93.425781 125.167969 C 84.039062 117.34375 70.929688 102.914062 74.859375 78.730469 Z M 74.859375 78.730469 "/>
<path style=" stroke:none;fill-rule:evenodd;fill:rgb(100%,100%,100%);fill-opacity:1;" d="M 198.617188 123.195312 L 228.023438 145.660156 L 222.574219 151.300781 L 190.019531 127.445312 Z M 198.617188 123.195312 "/>
<path style=" stroke:none;fill-rule:evenodd;fill:rgb(0%,0%,0%);fill-opacity:1;" d="M 35.082031 118.746094 L 66.085938 151.066406 L 58.640625 156.710938 L 27.636719 124.390625 Z M 35.082031 118.746094 "/>
<path style=" stroke:none;fill-rule:evenodd;fill:rgb(100%,100%,100%);fill-opacity:1;" d="M 29.742188 145.328125 L 59.101562 122.808594 L 64.570312 128.4375 L 33.195312 153.515625 Z M 29.742188 145.328125 "/>
<path style=" stroke:none;fill-rule:evenodd;fill:rgb(0%,0%,0%);fill-opacity:1;" d="M 45.378906 110.945312 L 76.382812 143.261719 L 68.933594 148.90625 L 37.929688 116.589844 Z M 24.570312 126.714844 L 55.574219 159.035156 L 48.125 164.679688 L 17.121094 132.359375 Z M 24.570312 126.714844 "/>
</g>
</svg>
